<svg width="52" height="52" viewBox="0 0 52 52" fill="none" xmlns="http://www.w3.org/2000/svg">
<g clip-path="url(#clip0)">
<path d="M18.5482 13.272H14.1517V8.8754C14.1517 8.38915 13.7577 7.99609 13.2724 7.99609C12.787 7.99609 12.393 8.38915 12.393 8.8754V13.272H7.9965C7.51112 13.272 7.11719 13.665 7.11719 14.1513C7.11719 14.6375 7.51112 15.0306 7.9965 15.0306H12.393V19.4271C12.393 19.9134 12.787 20.3064 13.2724 20.3064C13.7577 20.3064 14.1517 19.9134 14.1517 19.4271V15.0306H18.5482C19.0336 15.0306 19.4275 14.6375 19.4275 14.1513C19.4275 13.665 19.0336 13.272 18.5482 13.272Z" fill="white"/>
<path d="M43.1693 13.2695H32.6176C32.1322 13.2695 31.7383 13.6626 31.7383 14.1488C31.7383 14.6351 32.1322 15.0282 32.6176 15.0282H43.1693C43.6547 15.0282 44.0486 14.6351 44.0486 14.1488C44.0486 13.6626 43.6547 13.2695 43.1693 13.2695Z" fill="white"/>
<path d="M26.4613 0.960938H24.7027H0.0820312V25.5816V27.3402V51.9609H24.7027H26.4613H51.082V27.3402V25.5816V0.960938H26.4613ZM1.84065 2.71956H24.7027V25.5816H1.84065V2.71956ZM1.84065 50.2023V27.3402H24.7027V50.2023H1.84065ZM49.3234 50.2023H26.4613V27.3402H49.3234V50.2023ZM26.4613 25.5816V2.71956H49.3234V25.5816H26.4613Z" fill="white"/>
<path d="M32.6176 42.2899H43.1693C43.6547 42.2899 44.0486 41.8968 44.0486 41.4106C44.0486 40.9243 43.6547 40.5312 43.1693 40.5312H32.6176C32.1322 40.5312 31.7383 40.9243 31.7383 41.4106C31.7383 41.8968 32.1322 42.2899 32.6176 42.2899Z" fill="white"/>
<path d="M32.6176 37.0125H43.1693C43.6547 37.0125 44.0486 36.6195 44.0486 36.1332C44.0486 35.647 43.6547 35.2539 43.1693 35.2539H32.6176C32.1322 35.2539 31.7383 35.647 31.7383 36.1332C31.7383 36.6195 32.1322 37.0125 32.6176 37.0125Z" fill="white"/>
<path d="M18.2904 33.754C17.9466 33.4101 17.3909 33.4101 17.0471 33.754L13.2722 37.5288L9.4973 33.754C9.15349 33.4101 8.59776 33.4101 8.25395 33.754C7.91014 34.0978 7.91014 34.6535 8.25395 34.9973L12.0288 38.7722L8.25395 42.5471C7.91014 42.8909 7.91014 43.4466 8.25395 43.7904C8.42542 43.9619 8.65052 44.048 8.87562 44.048C9.10073 44.048 9.32583 43.9619 9.4973 43.7904L13.2722 40.0155L17.0471 43.7904C17.2185 43.9619 17.4436 44.048 17.6687 44.048C17.8938 44.048 18.1189 43.9619 18.2904 43.7904C18.6342 43.4466 18.6342 42.8909 18.2904 42.5471L14.5155 38.7722L18.2904 34.9973C18.6342 34.6535 18.6342 34.0978 18.2904 33.754Z" fill="white"/>
</g>
<defs>
<clipPath id="clip0">
<rect width="51" height="51" fill="white" transform="translate(0.0820312 0.960938)"/>
</clipPath>
</defs>
</svg>
