<svg width="302" height="299" viewBox="0 0 302 299" fill="none" xmlns="http://www.w3.org/2000/svg">
<path d="M153.116 1.67634C153.491 0.965195 154.509 0.965192 154.884 1.67634L159.578 10.572C159.723 10.8463 159.986 11.0379 160.292 11.0907L170.202 12.8055C170.995 12.9426 171.309 13.9113 170.749 14.4879L163.739 21.7005C163.523 21.9228 163.422 22.2329 163.466 22.5398L164.898 32.4953C165.013 33.2911 164.189 33.8898 163.467 33.535L154.441 29.097C154.163 28.9601 153.837 28.9601 153.559 29.097L144.533 33.535C143.811 33.8898 142.987 33.2911 143.102 32.4953L144.534 22.5398C144.578 22.2329 144.477 21.9228 144.261 21.7005L137.251 14.4879C136.691 13.9113 137.005 12.9426 137.798 12.8055L147.708 11.0907C148.014 11.0379 148.277 10.8463 148.422 10.572L153.116 1.67634Z" fill="#FFC633"/>
<g clip-path="url(#clip0)">
<path d="M232.293 93.6433C231.858 97.7168 230.038 103.805 224.935 112.534C213.939 131.424 213.227 165.087 213.227 167.773C213.227 167.862 213.227 167.907 213.227 167.952L209.113 171.354C206.107 172.921 202.784 173.726 199.382 173.726H102.984C98.5929 173.726 94.3604 172.339 90.7212 169.787C90.7212 169.205 90.3652 133.931 79.0125 114.414C68.3719 96.1053 72.0507 89.4355 72.644 88.585C72.644 88.585 72.644 88.585 72.6836 88.5402C72.7231 88.4954 72.7231 88.4954 72.7231 88.4954C76.0854 84.4219 80.8321 81.8703 86.1722 81.8256L217.657 80.9303C222.562 80.8855 228.1 83.3476 231.462 86.7944C231.502 86.8392 231.502 86.8392 231.541 86.8839C231.541 86.9287 231.581 86.9734 231.581 87.0182C232.135 89.0774 232.372 91.3156 232.293 93.6433Z" fill="white" fill-opacity="0.5" stroke="white" stroke-width="2" stroke-miterlimit="10" stroke-linecap="round" stroke-linejoin="round"/>
<path d="M74.6785 120.674C84.9912 137.527 83.5633 163.517 83.5633 163.517L76.7807 155.534C72.2193 150.167 69.4428 143.204 68.9668 135.797L66.944 104.973C66.9043 104.397 66.9043 103.776 66.9043 103.199C68.5702 108.654 71.069 114.775 74.6785 120.674Z" fill="white" stroke="white" stroke-width="2" stroke-miterlimit="10" stroke-linecap="round" stroke-linejoin="round"/>
<path d="M235.866 104.999L232.414 136.518C231.699 142.982 229.278 149.045 225.429 153.949L219.357 161.662C219.238 159.031 218.524 134.824 228.247 118.819C231.858 112.89 234.318 106.783 236.025 101.344C236.025 102.547 235.985 103.751 235.866 104.999Z" fill="white" stroke="white" stroke-width="2" stroke-miterlimit="10" stroke-linecap="round" stroke-linejoin="round"/>
<path d="M87.5752 96.1797H217.299L214.336 100.917H90.448L87.5752 96.1797Z" fill="#66CE76" stroke="white" stroke-width="2" stroke-miterlimit="10" stroke-linecap="round" stroke-linejoin="round"/>
<path d="M105.978 155.756L104.093 134.66C103.554 128.537 101.804 122.593 98.9309 117.14L90.4023 100.961H214.291L206.211 114.861C202.485 121.207 200.376 128.314 199.927 135.643L198.76 155.8H105.978V155.756Z" fill="#66CE76" stroke="white" stroke-width="2" stroke-miterlimit="10" stroke-linecap="round" stroke-linejoin="round"/>
<path d="M198.76 155.758H105.979V160.54H198.76V155.758Z" fill="#66CE76" stroke="white" stroke-width="2" stroke-miterlimit="10" stroke-linecap="round" stroke-linejoin="round"/>
<path d="M207.756 205.425L194.796 253.932C192.867 261.222 188.473 267.861 182.239 272.993L167.081 285.455L166.812 285.578C166.633 285.659 166.408 285.741 166.229 285.822C157.125 289.895 146.362 289.773 137.438 285.496C136.945 285.252 136.407 285.007 135.913 284.722L119.231 269.938C114.298 265.539 110.62 260.163 108.602 254.258L92.5925 207.868C91.5162 204.732 91.9198 201.393 93.5791 198.582C93.9827 197.849 94.5208 197.198 95.1038 196.546L96.3147 195.243C99.6781 191.618 104.701 189.5 109.993 189.5H191.657C196.007 189.5 200.222 190.925 203.451 193.491C203.989 193.939 204.527 194.428 204.976 194.917C207.756 197.809 208.788 201.678 207.756 205.425Z" fill="white" fill-opacity="0.5" stroke="white" stroke-width="2" stroke-miterlimit="10" stroke-linecap="round" stroke-linejoin="round"/>
<path d="M137.526 285.081C137.032 284.838 136.493 284.594 135.999 284.31L119.284 269.591C114.341 265.212 110.657 259.86 108.635 253.98L92.5936 207.796C91.5152 204.673 91.9196 201.348 93.5821 198.551C93.7169 198.388 93.8517 198.226 93.9865 198.064L95.8288 195.996C121.62 217.325 137.437 284.756 137.437 284.756C137.482 284.878 137.482 285 137.526 285.081Z" fill="white" stroke="white" stroke-width="2" stroke-miterlimit="10" stroke-linecap="round" stroke-linejoin="round"/>
<path d="M207.756 204.796L194.828 253.796C192.904 261.16 188.52 267.866 182.302 273.05L167.182 285.639L166.914 285.762C166.735 285.845 166.511 285.927 166.332 286.009C166.332 285.804 166.377 285.598 166.421 285.351C166.421 285.351 176.308 214.3 205.027 194.141C207.756 197.103 208.785 201.011 207.756 204.796Z" fill="white" stroke="white" stroke-width="2" stroke-miterlimit="10" stroke-linecap="round" stroke-linejoin="round"/>
<path d="M171.908 207.133C171.908 207.133 171.232 256.315 150.591 256.315C129.95 256.315 125.446 207.133 125.446 207.133C131.939 208.424 140.158 209.412 150.291 209.601C150.328 209.601 160.499 209.222 171.908 207.133Z" fill="#7DD58A" stroke="white" stroke-width="2" stroke-miterlimit="10" stroke-linecap="round" stroke-linejoin="round"/>
<path d="M128.649 134.278L134.122 128.15C135.096 127.084 136.812 127.04 137.832 128.106L143.584 134.367C144.187 135.033 144.187 136.01 143.537 136.676C142.656 137.564 141.311 137.741 140.198 137.164L138.343 136.187C136.998 135.477 135.328 135.477 133.983 136.232L132.359 137.164C131.293 137.741 129.994 137.653 129.066 136.853L128.834 136.676C128.092 136.01 128.046 134.944 128.649 134.278Z" fill="white"/>
<path d="M162.095 134.278L167.24 128.15C168.155 127.084 169.769 127.04 170.728 128.106L176.134 134.367C176.701 135.033 176.701 136.01 176.091 136.676C175.262 137.564 173.998 137.741 172.951 137.164L171.207 136.187C169.943 135.477 168.373 135.477 167.109 136.232L165.583 137.164C164.58 137.741 163.359 137.653 162.487 136.853L162.269 136.676C161.572 136.01 161.484 134.944 162.095 134.278Z" fill="white"/>
<path d="M76.9207 174.121C76.9207 174.121 65.6541 168.758 58.4273 149.539C51.2005 130.321 22.2483 129.874 16.2335 137.517C10.2186 145.159 24.6273 157.852 48.6419 180.825C72.7013 203.798 85.0902 196.557 85.0902 196.557C94.4716 186.635 76.9207 174.121 76.9207 174.121Z" fill="white" fill-opacity="0.7" stroke="white" stroke-width="2" stroke-miterlimit="10" stroke-linecap="round" stroke-linejoin="round"/>
<path d="M284.736 138.566C284.332 137.091 283.569 135.884 282.536 134.901C273.649 126.722 244.203 137.225 242.048 146.923C239.624 157.695 236.213 169.002 227.685 175.081C219.156 181.159 209.864 191.617 215.385 199.975C215.475 200.065 216.149 200.78 217.405 201.539C221.221 203.819 230.423 206.5 244.742 192.913C263.953 174.544 288.596 152.823 284.736 138.566Z" fill="white" fill-opacity="0.7" stroke="white" stroke-width="2" stroke-miterlimit="10" stroke-linecap="round" stroke-linejoin="round"/>
<path d="M73.7777 185.474C66.8202 184.312 55.0598 178.546 42.7608 156.825C30.4617 135.104 16.2774 137.517 16.2774 137.517C10.2625 145.16 24.6713 157.853 48.6858 180.826C72.7453 203.798 85.1341 196.558 85.1341 196.558C92.0018 187.977 80.7352 186.636 73.7777 185.474Z" fill="white" stroke="white" stroke-width="2" stroke-miterlimit="10" stroke-linecap="round" stroke-linejoin="round"/>
<path d="M284.735 138.568C284.331 137.093 283.568 135.887 282.536 134.903C256.502 131.73 258.297 172.178 232.038 182.413C215.071 189.028 215.34 199.665 215.34 199.933L217.36 201.497C221.175 203.777 230.377 206.458 244.696 192.871C263.953 174.547 288.596 152.826 284.735 138.568Z" fill="white" stroke="white" stroke-width="2" stroke-miterlimit="10" stroke-linecap="round" stroke-linejoin="round"/>
<path d="M91.0645 170.013C89.3113 168.798 86.9635 167.037 85.4891 165.373L83.6307 163.517C83.6307 163.517 85.5394 137.321 75.1791 120.234C71.5531 114.208 69.0427 108.002 67.3691 102.516C67.3691 102.291 67.3691 102.067 67.3691 101.842C67.3691 101.617 67.3691 101.392 67.409 101.167C67.4488 100.718 67.4887 100.268 67.5285 99.8183C67.5684 99.5934 67.5684 99.3686 67.6082 99.1438C67.6481 98.9189 67.6879 98.6941 67.7278 98.4693C67.7676 98.2444 67.8075 98.0196 67.8473 97.7947C67.8872 97.5699 67.927 97.3451 68.0067 97.1202C68.0067 97.0753 68.0465 96.9853 68.0465 96.9404C68.0465 96.8954 68.0864 96.8055 68.0864 96.7605C68.1262 96.5806 68.2059 96.3558 68.2458 96.1759C68.3653 95.7262 68.5247 95.2316 68.6841 94.7819C68.8833 94.2873 69.0826 93.7926 69.2818 93.298C69.2818 93.253 69.3216 93.253 69.3216 93.2081C69.4013 92.9832 69.5209 92.8033 69.6006 92.5785C69.7998 92.1738 69.999 91.7691 70.2381 91.3644C70.3178 91.2295 70.3975 91.0946 70.4374 91.0046C70.4374 91.0046 70.4374 90.9597 70.4772 90.9597C70.5967 90.7798 70.6764 90.5999 70.796 90.4201C70.8358 90.3301 70.9155 90.2402 70.9554 90.1503C71.0749 89.9704 71.1546 89.8355 71.2741 89.6556C71.4335 89.4308 71.5929 89.2059 71.7523 88.9811C71.9117 88.7563 72.0711 88.5764 72.2305 88.3516C71.7125 89.071 67.7278 95.6813 78.6458 114.343C90.2413 133.994 91.0247 169.428 91.0645 170.013Z" stroke="white" stroke-width="2" stroke-miterlimit="10" stroke-linecap="round" stroke-linejoin="round"/>
<path d="M204.415 194.014L205.447 194.952C202.748 196.695 175.624 206.665 171.907 206.665C169.305 205.551 165.867 202.489 149.605 202.489C133.344 202.489 129.162 206.201 125.445 207.129C121.729 208.056 96.1475 196.204 96.1475 196.204C99.8282 191.645 105.349 189.008 111.23 189.008H191.398C196.201 189.008 200.869 190.796 204.415 194.014Z" fill="white" fill-opacity="0.7" stroke="white" stroke-width="2" stroke-miterlimit="10" stroke-linecap="round" stroke-linejoin="round"/>
<path d="M227.197 120.832C220.689 131.442 219.594 158.555 219.714 161.185L217.323 164.217C216.965 164.618 216.566 164.975 216.207 165.331C215.291 166.223 214.295 167.025 213.259 167.694C213.259 167.694 213.259 167.605 213.259 167.516C213.299 164.841 213.976 131.362 225.053 112.505C230.154 103.812 231.987 97.7491 232.465 93.6924C232.903 89.9032 232.106 87.8971 231.668 87.0947C231.668 87.0501 231.628 87.0055 231.628 86.9609C231.748 87.0947 231.867 87.2284 231.947 87.3622C232.106 87.585 232.266 87.8079 232.425 88.0308C232.545 88.2092 232.664 88.3429 232.744 88.5212C232.784 88.6104 232.863 88.6995 232.903 88.7887C233.023 88.967 233.142 89.1453 233.222 89.3236C233.222 89.3236 233.222 89.3682 233.262 89.3682C233.342 89.502 233.421 89.6357 233.501 89.7249C233.74 90.1261 233.939 90.5273 234.139 90.9285C234.258 91.1068 234.338 91.3297 234.417 91.5526C234.417 91.5972 234.457 91.5972 234.457 91.6418C234.696 92.1321 234.896 92.6225 235.055 93.1129C235.214 93.5587 235.374 94.0045 235.493 94.4948C235.533 94.6732 235.613 94.896 235.653 95.0744C235.693 95.1189 235.693 95.2081 235.693 95.2527C235.693 95.2973 235.732 95.3864 235.732 95.431C235.772 95.6539 235.852 95.8768 235.892 96.0997C235.932 96.3226 235.972 96.5455 236.011 96.7684C236.051 96.9913 236.091 97.2142 236.131 97.4371C236.171 97.66 236.211 97.8829 236.211 98.1058C236.29 98.5515 236.33 98.9973 236.33 99.4431C236.33 107.187 233.705 110.222 227.197 120.832Z" stroke="white" stroke-width="2" stroke-miterlimit="10" stroke-linecap="round" stroke-linejoin="round"/>
</g>
<path d="M249.149 28.2816C249.857 27.8802 250.732 28.3353 250.7 29.0884L250.44 35.223C250.428 35.5163 250.561 35.7927 250.802 35.9735L255.966 39.8526C256.612 40.3378 256.353 41.3217 255.524 41.5334L249.145 43.1616C248.819 43.2447 248.55 43.466 248.421 43.7562L245.937 49.347C245.617 50.0667 244.575 50.2027 244.115 49.5845L240.312 44.4683C240.141 44.2392 239.866 44.0963 239.561 44.0779L232.742 43.668C231.918 43.6185 231.527 42.7368 232.059 42.1275L236.191 37.3939C236.405 37.1482 236.483 36.8273 236.4 36.5317L234.776 30.7401C234.565 29.9871 235.381 29.2931 236.17 29.5546L242.481 31.6448C242.775 31.7422 243.107 31.7078 243.383 31.5515L249.149 28.2816Z" fill="#FFC633"/>
<path d="M69.1002 37.1916C69.8611 37.5533 69.8611 38.6362 69.1002 38.9979L63.3469 41.7329C63.0594 41.8695 62.8542 42.1349 62.7942 42.4474L61.6551 48.379C61.5094 49.1375 60.5954 49.4516 60.0143 48.9427L55.09 44.6305C54.8741 44.4414 54.5873 44.3542 54.3027 44.3911L47.6203 45.257C46.81 45.362 46.2226 44.5035 46.614 43.7862L49.4586 38.5738C49.6215 38.2752 49.6215 37.9143 49.4586 37.6157L46.614 32.4032C46.2226 31.686 46.81 30.8275 47.6203 30.9325L54.3027 31.7983C54.5873 31.8352 54.8741 31.748 55.09 31.5589L60.0143 27.2468C60.5954 26.7379 61.5094 27.0519 61.6551 27.8105L62.7942 33.742C62.8542 34.0546 63.0594 34.3199 63.3469 34.4566L69.1002 37.1916Z" fill="#FFC633"/>
<mask id="mask0" mask-type="alpha" maskUnits="userSpaceOnUse" x="136" y="1" width="36" height="33">
<path d="M153.116 1.67634C153.491 0.965195 154.509 0.965192 154.884 1.67634L159.578 10.572C159.723 10.8463 159.986 11.0379 160.292 11.0907L170.202 12.8055C170.995 12.9426 171.309 13.9113 170.749 14.4879L163.739 21.7005C163.523 21.9228 163.422 22.2329 163.466 22.5398L164.898 32.4953C165.013 33.2911 164.189 33.8898 163.467 33.535L154.441 29.097C154.163 28.9601 153.837 28.9601 153.559 29.097L144.533 33.535C143.811 33.8898 142.987 33.2911 143.102 32.4953L144.534 22.5398C144.578 22.2329 144.477 21.9228 144.261 21.7005L137.251 14.4879C136.691 13.9113 137.005 12.9426 137.798 12.8055L147.708 11.0907C148.014 11.0379 148.277 10.8463 148.422 10.572L153.116 1.67634Z" fill="#FFC633"/>
</mask>
<g mask="url(#mask0)">
<path d="M153.5 36.5V2V-7.5L178.5 2L182 14.5L170 40L153.5 36.5Z" fill="#FFD15B"/>
</g>
<path d="M153.115 1.67634C153.491 0.965195 154.509 0.965192 154.884 1.67634L159.578 10.572C159.722 10.8463 159.986 11.0379 160.292 11.0907L170.202 12.8055C170.995 12.9426 171.309 13.9113 170.749 14.4879L163.739 21.7005C163.523 21.9228 163.422 22.2329 163.466 22.5398L164.898 32.4953C165.012 33.2911 164.188 33.8898 163.467 33.535L154.441 29.097C154.163 28.9601 153.837 28.9601 153.559 29.097L144.533 33.535C143.811 33.8898 142.987 33.2911 143.102 32.4953L144.533 22.5398C144.577 22.2329 144.477 21.9228 144.261 21.7005L137.251 14.4879C136.69 13.9113 137.005 12.9426 137.797 12.8055L147.708 11.0907C148.013 11.0379 148.277 10.8463 148.422 10.572L153.115 1.67634Z" fill="#FFC633"/>
<defs>
<clipPath id="clip0">
<rect width="302" height="219" fill="white" transform="translate(0 80)"/>
</clipPath>
</defs>
</svg>
