<svg width="43" height="32" viewBox="0 0 43 32" fill="none" xmlns="http://www.w3.org/2000/svg">
<path opacity="0.5" fill-rule="evenodd" clip-rule="evenodd" d="M1.45495 0C0.651406 0 0 0.660046 0 1.47425V18.0379C0 18.8522 0.651406 19.5122 1.45495 19.5122H8.13063V30.5257C8.13063 31.34 8.78202 32 9.58559 32H13.891C14.5353 32 15.103 31.5705 15.286 30.9444L18.9055 18.5616C18.9665 18.399 19 18.2224 19 18.0379V1.47425C19 0.660046 18.3486 0 17.545 0H1.45495Z" fill="white"/>
<path opacity="0.5" fill-rule="evenodd" clip-rule="evenodd" d="M25.455 0C24.6514 0 24 0.660046 24 1.47425V18.0379C24 18.8522 24.6514 19.5122 25.455 19.5122H32.1306V30.5257C32.1306 31.34 32.782 32 33.5856 32H37.891C38.5353 32 39.103 31.5705 39.286 30.9444L42.9055 18.5616C42.9665 18.399 43 18.2224 43 18.0379V1.47425C43 0.660046 42.3486 0 41.545 0H25.455Z" fill="white"/>
</svg>
