<svg width="273" height="220" viewBox="0 0 273 220" fill="none" xmlns="http://www.w3.org/2000/svg">
<g clip-path="url(#clip0)">
<path d="M72.8708 153.273C72.8708 153.273 68.6145 157.897 64.9099 162.284C64.8705 162.087 64.8311 161.928 64.8311 161.731C68.2992 157.62 72.2403 153.352 72.8314 152.68C72.8314 153.075 72.8708 153.273 72.8708 153.273Z" fill="white" fill-opacity="0.15" stroke="white" stroke-width="2" stroke-miterlimit="10" stroke-linecap="round" stroke-linejoin="round"/>
<path d="M66.9202 128.215C65.462 128.571 64.3585 128.847 63.6491 129.045H63.6097C63.3338 129.124 63.1368 129.163 63.0186 129.203C63.0186 129.045 63.0186 128.966 63.0186 128.966C63.0186 128.966 63.8856 128.808 65.5014 128.492C65.8955 128.412 66.4079 128.333 66.9202 128.215Z" fill="white" fill-opacity="0.15" stroke="white" stroke-width="2" stroke-miterlimit="10" stroke-linecap="round" stroke-linejoin="round"/>
<path d="M149.997 182.047C146.371 198.924 140.184 214.378 120.794 218.252C106.172 221.176 91.748 209.951 88.8316 207.698C91.4327 209.635 94.2703 211.177 97.2261 212.283H97.2655C99.1967 212.955 101.049 213.469 102.783 213.785C102.822 213.785 102.862 213.825 102.901 213.825C103.965 214.022 104.951 214.181 105.896 214.22C112.084 214.576 115.592 211.374 113.976 200.9C112.242 189.557 97.5414 158.925 90.9598 145.645C89.541 142.799 87.4917 140.309 85.0088 138.412C85.9546 138.728 86.9005 139.044 87.807 139.36C91.8663 140.665 99.4331 140.665 108.025 139.874C108.695 139.835 109.365 139.755 110.035 139.676C110.113 139.676 110.153 139.676 110.232 139.676C109.365 139.874 108.655 140.032 108.222 140.111C108.143 140.111 108.103 140.151 108.064 140.151C108.025 140.151 107.985 140.151 107.946 140.19C107.867 140.19 107.828 140.23 107.788 140.23C107.749 140.23 107.749 140.23 107.749 140.23H107.709C107.67 140.23 107.67 140.23 107.67 140.23C107.67 140.23 116.537 187.699 133.011 184.102C143.494 181.81 149.169 142.522 148.657 131.258C150.549 130.467 152.086 129.677 153.071 128.886C154.963 127.424 156.539 125.131 156.303 122.918C156.855 123.511 157.209 124.183 157.288 124.934C159.062 140.032 156.145 153.431 149.997 182.047Z" fill="white" stroke="white" stroke-width="2" stroke-miterlimit="10" stroke-linecap="round" stroke-linejoin="round"/>
<path d="M54.9395 27.8594L59.9447 30.4285C57.6194 29.2032 55.8459 28.2941 54.9395 27.8594ZM98.1731 75.3681C104.4 86.4746 106.41 99.2806 104.124 113.589C104.321 113.589 104.518 113.628 104.715 113.628C107.474 97.581 104.361 85.1702 98.1731 75.3681ZM120.558 85.9212L121.347 91.8104C121.386 91.8104 121.268 89.518 120.558 85.9212ZM187.635 74.7357C187.635 74.7752 187.635 74.7752 187.635 74.7357V74.7357ZM47.0967 46.6336C43.1557 44.8155 39.7663 43.2345 36.9288 41.693C31.4901 38.6892 28.0219 35.211 26.5637 31.2585C25.8149 33.3928 25.342 35.6853 25.2238 38.0568L23.4109 69.3208C22.7803 80.1901 29.5196 90.1108 39.8058 93.5495L95.1385 111.889C95.3749 111.968 95.572 112.047 95.8084 112.087C102.114 72.1271 69.0485 56.7915 47.0967 46.6336Z" fill="white" fill-opacity="0.5"/>
<path d="M60.0629 30.5075C72.2408 36.9105 99.8677 51.9695 108.932 61.9297C116.381 70.0718 119.376 79.8739 120.598 85.9607M54.9395 27.8594L59.9447 30.4285C57.6194 29.2032 55.8459 28.2941 54.9395 27.8594ZM98.1731 75.3681C104.4 86.4746 106.41 99.2806 104.124 113.589C104.321 113.589 104.518 113.628 104.715 113.628C107.474 97.581 104.361 85.1702 98.1731 75.3681ZM120.558 85.9212L121.347 91.8104C121.386 91.8104 121.268 89.518 120.558 85.9212ZM187.635 74.7357C187.635 74.7752 187.635 74.7752 187.635 74.7357ZM47.0967 46.6336C43.1557 44.8155 39.7663 43.2345 36.9288 41.693C31.4901 38.6892 28.0219 35.211 26.5637 31.2585C25.8149 33.3928 25.342 35.6853 25.2238 38.0568L23.4109 69.3208C22.7803 80.1901 29.5196 90.1108 39.8058 93.5495L95.1385 111.889C95.3749 111.968 95.572 112.047 95.8084 112.087C102.114 72.1271 69.0485 56.7915 47.0967 46.6336Z" stroke="white" stroke-width="2" stroke-miterlimit="10" stroke-linecap="round" stroke-linejoin="round"/>
<path d="M161.9 16.0042L136.598 2.72393C127.1 -0.0823268 118.509 1.97296 108.735 3.67252L45.9536 14.7395C45.8354 14.7395 45.7566 14.779 45.6778 14.779C44.259 15.0557 42.8796 15.4114 41.579 15.9252H41.6184C41.6184 15.9252 37.638 18.7315 35.7857 22.842C34.8004 24.9368 34.4063 27.4269 35.5098 30.0355C36.8497 31.7351 39.0567 33.158 40.9879 34.2252C43.589 35.648 46.8601 37.15 50.6435 38.9286C61.7967 44.1063 77.0881 51.1813 88.5172 62.683C92.4189 66.6354 95.6506 70.8646 98.2123 75.3704C104.36 85.1726 107.474 97.5833 104.754 113.63C107.474 113.749 110.193 113.551 112.912 113.077L195.123 91.0617C198.237 90.4689 199.222 88.3741 200.326 84.4611C201.429 80.5482 203.202 72.7223 203.202 64.7383C202.257 44.383 188.621 31.7351 161.9 16.0042ZM188.345 74.5799L187.596 74.7775L121.346 91.8127L120.558 85.9235C119.336 79.7972 116.341 70.0346 108.893 61.8925C99.7887 51.9718 72.2012 36.8733 60.0233 30.4703L59.905 30.3913L54.8999 27.8221C54.821 27.7826 54.7816 27.7431 54.7422 27.7431C54.624 27.664 54.5058 27.6245 54.4269 27.585L54.3481 27.5455L54.1511 27.4269L133.879 12.7237L133.958 12.7632L134.037 12.8027C134.076 12.8027 134.115 12.8423 134.155 12.8423C137.071 14.3837 164.186 28.7707 179.95 42.6835C194.611 55.608 188.345 74.5799 188.345 74.5799Z" fill="white" stroke="white" stroke-width="2" stroke-miterlimit="10" stroke-linecap="round" stroke-linejoin="round"/>
<path d="M187.635 74.7383C187.635 74.7782 187.635 74.7782 187.635 74.7383V74.7383Z" fill="white" fill-opacity="0.15" stroke="white" stroke-width="2" stroke-miterlimit="10" stroke-linecap="round" stroke-linejoin="round"/>
<path d="M153.072 128.966C152.087 129.756 150.549 130.546 148.658 131.337C148.658 131.06 148.618 130.784 148.618 130.546C120.913 127.622 109.917 137.898 107.986 139.953C99.3943 140.744 91.8669 140.744 87.7682 139.44C86.8223 139.123 85.8764 138.847 84.97 138.491C83.9059 137.7 82.763 136.989 81.5413 136.396L67.7475 129.637C66.4469 129.005 64.9888 128.807 63.6094 129.045C64.3188 128.847 65.4617 128.57 66.8805 128.215C77.482 125.606 105.937 118.966 129.819 117.029C149.801 115.409 155.87 119.084 156.264 122.997C156.54 125.211 155.003 127.503 153.072 128.966Z" fill="white" fill-opacity="0.7" stroke="white" stroke-width="2" stroke-miterlimit="10" stroke-linecap="round" stroke-linejoin="round"/>
<path d="M62.979 129.203C62.979 129.282 62.979 129.322 62.979 129.44C62.7819 129.361 62.7031 129.282 62.7031 129.282C62.7425 129.282 62.7425 129.282 62.7425 129.282H62.7819C62.8608 129.243 62.9002 129.243 62.979 129.203Z" fill="white" fill-opacity="0.15" stroke="white" stroke-width="2" stroke-miterlimit="10" stroke-linecap="round" stroke-linejoin="round"/>
<path d="M240.287 135.446C240.169 135.763 240.051 136.079 239.933 136.356C231.735 157.304 207.852 148.924 188.659 147.423C169.506 145.96 165.249 140.387 165.092 140.229C159.495 115.407 183.772 125.684 183.772 125.684C183.772 125.684 199.103 133.945 200.246 130.545C202.492 122.68 212.227 121.178 212.227 121.178C212.227 121.178 245.884 120.427 240.287 135.446Z" fill="white" fill-opacity="0.7" stroke="white" stroke-width="2" stroke-miterlimit="10" stroke-linecap="round" stroke-linejoin="round"/>
<path d="M95.8478 112.086C95.6114 112.007 95.4143 111.928 95.1779 111.889L39.8058 93.5097C29.5196 90.0711 22.7803 80.1504 23.4109 69.2811L25.2238 38.017C25.3814 35.6455 25.8149 33.3926 26.5637 31.2188C28.0219 35.1317 31.5295 38.6099 36.9288 41.6138C39.7663 43.1947 43.1557 44.7362 47.0967 46.5543C69.0485 56.7913 102.114 72.1269 95.8478 112.086Z" stroke="white" stroke-width="2" stroke-miterlimit="10" stroke-linecap="round" stroke-linejoin="round"/>
<path d="M104.754 113.67C104.557 113.67 104.36 113.67 104.163 113.631C106.449 99.3226 104.478 86.5166 98.2119 75.4102C104.36 85.1728 107.473 97.5835 104.754 113.67Z" fill="white" fill-opacity="0.15" stroke="white" stroke-width="2" stroke-miterlimit="10" stroke-linecap="round" stroke-linejoin="round"/>
<path d="M104.124 113.627C101.326 113.43 98.5275 112.916 95.8082 112.086C102.074 72.1265 69.0089 56.7909 47.0571 46.6331C43.116 44.8149 39.7267 43.2339 36.8891 41.6925C31.4898 38.6886 28.0217 35.2104 26.5635 31.2579C29.0069 24.183 34.485 18.531 41.5396 15.8828H41.579C41.579 15.8828 37.5985 18.6891 35.7462 22.7996C34.8003 24.934 34.4062 27.424 35.5097 30.0327C36.8497 31.7322 39.0567 33.1551 40.9878 34.2223C43.5889 35.6452 46.86 37.1471 50.6434 38.9257C61.7967 44.1035 77.0881 51.1784 88.5172 62.6801C92.4188 66.6326 95.6505 70.8617 98.2122 75.3675C104.439 86.5135 106.449 99.3195 104.124 113.627Z" fill="white" fill-opacity="0.15" stroke="white" stroke-width="2" stroke-miterlimit="10" stroke-linecap="round" stroke-linejoin="round"/>
<path d="M203.4 129.44C203.4 129.44 206.75 130.547 207.183 133.669C207.617 136.752 208.011 141.416 219.519 141.416C231.027 141.416 239.263 138.333 239.933 136.396C240.603 134.46 246.594 122.246 212.228 121.219C204.818 121.021 199.892 128.333 203.4 129.44Z" stroke="white" stroke-width="2" stroke-miterlimit="10" stroke-linecap="round" stroke-linejoin="round"/>
<path d="M133.011 184.141C116.537 187.738 107.67 140.269 107.67 140.269C107.67 140.269 107.67 140.269 107.709 140.269C107.709 140.269 107.709 140.269 107.749 140.269C107.788 140.269 107.788 140.269 107.788 140.269C107.828 140.269 107.867 140.269 107.946 140.229C107.985 140.229 108.025 140.229 108.064 140.19C108.103 140.19 108.182 140.15 108.222 140.15C108.655 140.071 109.325 139.913 110.232 139.716C124.183 138.214 140.302 134.815 148.697 131.297C149.169 142.601 143.494 181.889 133.011 184.141Z" fill="white" fill-opacity="0.15" stroke="white" stroke-width="2" stroke-miterlimit="10" stroke-linecap="round" stroke-linejoin="round"/>
<path d="M239.934 136.355C231.736 157.304 207.853 148.924 188.66 147.422C169.507 145.96 165.25 140.387 165.093 140.229C165.447 140.466 177.783 148.331 195.951 140.664C204.819 136.553 212.859 140.624 212.859 140.624C212.859 140.624 220.071 142.205 228.623 140.703C236.939 139.241 239.776 136.553 239.934 136.355Z" fill="white" stroke="white" stroke-width="2" stroke-miterlimit="10" stroke-linecap="round" stroke-linejoin="round"/>
<path d="M219.557 133.311C224.302 133.311 228.149 131.771 228.149 129.872C228.149 127.973 224.302 126.434 219.557 126.434C214.812 126.434 210.966 127.973 210.966 129.872C210.966 131.771 214.812 133.311 219.557 133.311Z" fill="#66CE76" stroke="white" stroke-width="2" stroke-miterlimit="10" stroke-linecap="round" stroke-linejoin="round"/>
<path d="M105.858 214.261C104.912 214.221 103.926 214.063 102.862 213.865C102.823 213.865 102.784 213.865 102.744 213.826C101.049 213.47 99.1972 212.956 97.2266 212.324H97.1872C94.2314 211.217 91.3939 209.676 88.7927 207.739C88.7533 207.7 88.7139 207.7 88.6745 207.66C88.3198 207.383 87.9651 207.107 87.6104 206.83C87.4134 206.672 87.1769 206.474 86.9798 206.316C74.4472 196.04 66.368 180.862 61.2446 166.91C62.1905 165.606 63.491 163.985 64.9098 162.325C68.6144 157.938 72.8708 153.314 72.8708 153.314C72.8708 153.314 72.8314 153.116 72.792 152.76C72.8314 152.721 72.8708 152.681 72.8708 152.681C72.8708 152.681 72.3191 146.357 67.7474 143.828C66.4469 143.116 64.831 142.681 62.8605 142.839C60.7323 142.958 58.1312 143.709 55.0177 145.33C54.8601 144.579 54.7024 143.828 54.5448 143.116C53.3231 137.108 56.8306 131.14 62.7028 129.362C62.7028 129.362 62.8211 129.401 62.9787 129.52C62.9787 129.441 62.9787 129.362 62.9787 129.282C63.1363 129.243 63.3334 129.203 63.5699 129.124H63.6093C65.0281 128.887 66.4469 129.085 67.7474 129.717L81.5412 136.476C82.7629 137.069 83.9058 137.78 84.9699 138.571C87.4528 140.468 89.5021 142.958 90.9209 145.804C97.5025 159.084 112.203 189.716 113.937 201.059C115.553 211.415 112.045 214.656 105.858 214.261Z" fill="white" fill-opacity="0.5" stroke="white" stroke-width="2" stroke-miterlimit="10" stroke-linecap="round" stroke-linejoin="round"/>
<path d="M72.8707 153.273C72.8707 153.273 68.6144 157.897 64.9098 162.284C63.5304 163.944 62.2298 165.525 61.2446 166.869C61.2051 166.711 61.1263 166.553 61.0869 166.395C62.1116 165.051 63.4121 163.391 64.8309 161.731C68.2991 157.62 72.2402 153.352 72.8313 152.68C72.8313 153.075 72.8707 153.273 72.8707 153.273Z" fill="white" fill-opacity="0.15" stroke="white" stroke-width="2" stroke-miterlimit="10" stroke-linecap="round" stroke-linejoin="round"/>
<path d="M63.6092 129.043C63.3334 129.122 63.1363 129.162 63.0181 129.201C63.0181 129.28 63.0181 129.32 63.0181 129.438C62.821 129.359 62.7422 129.28 62.7422 129.28C62.7816 129.28 62.7816 129.28 62.7816 129.28H62.821C62.8604 129.28 62.8604 129.28 62.8998 129.241C62.9392 129.241 62.9787 129.201 63.0181 129.201C63.1757 129.122 63.4122 129.082 63.6092 129.043Z" fill="white" fill-opacity="0.15" stroke="white" stroke-width="2" stroke-miterlimit="10" stroke-linecap="round" stroke-linejoin="round"/>
<path d="M148.657 131.334C140.263 134.812 124.144 138.251 110.192 139.753C110.114 139.753 110.074 139.753 109.995 139.753C109.325 139.832 108.655 139.911 107.985 139.95C109.916 137.895 120.912 127.619 148.618 130.543C148.657 130.741 148.657 131.018 148.657 131.334Z" fill="white" fill-opacity="0.15" stroke="white" stroke-width="2" stroke-miterlimit="10" stroke-linecap="round" stroke-linejoin="round"/>
<path d="M110.035 139.754C109.128 139.952 108.576 140.11 108.222 140.189C108.143 140.189 108.103 140.228 108.064 140.228C108.025 140.228 107.985 140.228 107.946 140.268C107.867 140.268 107.828 140.307 107.788 140.307C107.749 140.307 107.749 140.307 107.749 140.307H107.709C107.67 140.307 107.67 140.307 107.67 140.307C107.67 140.307 107.788 140.189 107.985 139.952C108.655 139.872 109.325 139.793 110.035 139.754Z" fill="white" fill-opacity="0.15" stroke="white" stroke-width="2" stroke-miterlimit="10" stroke-linecap="round" stroke-linejoin="round"/>
<path d="M48.5544 198.727C48.5544 198.766 48.515 198.845 48.515 198.885C45.5198 201.572 41.2634 203.39 36.6523 204.141C36.7312 203.865 36.7706 203.628 36.81 203.391C41.3028 202.798 45.5198 201.177 48.5544 198.727Z" fill="white" fill-opacity="0.15" stroke="white" stroke-width="2" stroke-miterlimit="10" stroke-linecap="round" stroke-linejoin="round"/>
<path d="M59.9046 30.4285L54.8994 27.8594C55.8453 28.2941 57.6188 29.2032 59.9046 30.4285Z" fill="white" fill-opacity="0.15" stroke="white" stroke-width="2" stroke-miterlimit="10" stroke-linecap="round" stroke-linejoin="round"/>
<path d="M121.385 91.8111L120.597 85.9219C121.267 89.5186 121.385 91.8111 121.385 91.8111Z" fill="white" fill-opacity="0.15" stroke="white" stroke-width="2" stroke-miterlimit="10" stroke-linecap="round" stroke-linejoin="round"/>
<path d="M125.681 67.1087L129.7 60.5871C130.41 59.4409 131.986 59.1642 133.011 60.0733L139.08 65.172C139.711 65.7253 139.829 66.6739 139.356 67.3459C138.686 68.2945 137.504 68.6502 136.4 68.2549L134.587 67.583C133.247 67.0692 131.75 67.3459 130.686 68.2549L129.346 69.3616C128.479 70.0731 127.257 70.1126 126.351 69.5197L126.114 69.3616C125.444 68.8478 125.247 67.8597 125.681 67.1087Z" fill="white"/>
<path d="M152.441 61.3765L155.909 55.764C156.54 54.7759 157.88 54.5387 158.786 55.2897L164.028 59.677C164.58 60.1513 164.698 60.9417 164.264 61.5346C163.713 62.3646 162.649 62.6808 161.703 62.3251L160.126 61.7322C158.983 61.2975 157.683 61.5346 156.737 62.2856L155.594 63.2342C154.845 63.8271 153.821 63.9061 152.993 63.3528L152.796 63.2342C152.205 62.8785 152.008 62.0089 152.441 61.3765Z" fill="white"/>
<path d="M72.8708 152.64C72.8708 152.64 72.8313 152.679 72.7919 152.719C72.2008 153.351 68.2991 157.62 64.7915 161.77C63.4122 163.43 62.0722 165.051 61.0475 166.434C60.8899 166.632 60.7322 166.869 60.614 167.066C57.6188 171.256 57.6976 179.833 53.8354 189.912C53.0471 190.03 52.3377 190.505 51.8254 191.453C50.3278 194.18 49.2637 196.591 48.5543 198.765C45.4803 201.216 41.2633 202.836 36.8099 203.429C36.9676 202.599 37.0858 201.888 37.1646 201.413C37.5193 199.002 35.3123 199.24 33.0659 201.413L30.7801 203.627L29.7948 204.575C28.2184 204.457 26.6419 204.259 25.1049 203.864C23.8438 203.548 22.6615 203.192 21.5185 202.678C21.5974 201.571 20.8092 200.544 18.4051 200.544C18.208 200.544 18.011 200.583 17.7745 200.623C16.5134 199.753 15.4099 198.686 14.4246 197.5C14.5823 197.303 14.7005 197.066 14.7793 196.828C14.3852 196.038 13.6758 195.445 12.8876 195.208C12.4147 194.299 11.9811 193.35 11.6659 192.323C6.42423 175.406 46.9779 150.545 46.9779 150.545C49.9731 148.213 52.653 146.514 54.9783 145.288C58.0917 143.668 60.6928 142.917 62.821 142.798C64.831 142.68 66.4468 143.075 67.7079 143.786C72.319 146.316 72.8708 152.64 72.8708 152.64Z" fill="white" fill-opacity="0.7" stroke="white" stroke-width="2" stroke-miterlimit="10" stroke-linecap="round" stroke-linejoin="round"/>
<path d="M72.8713 153.273C72.8713 153.273 68.615 157.897 64.9104 162.284C63.531 163.944 62.2304 165.525 61.2452 166.869C61.1663 166.988 61.0875 167.106 60.9693 167.225C58.0135 171.375 58.1317 179.873 54.23 189.833C54.1118 189.833 53.9542 189.833 53.8359 189.872C57.6982 179.794 57.6194 171.217 60.6146 167.027C60.7722 166.83 60.8905 166.632 61.0481 166.395C62.0728 165.051 63.3733 163.391 64.7921 161.731C68.2603 157.62 72.2013 153.352 72.7925 152.68C72.8319 153.075 72.8713 153.273 72.8713 153.273Z" fill="white" fill-opacity="0.15" stroke="white" stroke-width="2" stroke-miterlimit="10" stroke-linecap="round" stroke-linejoin="round"/>
<path d="M217.193 121.059C217.193 121.059 215.735 119.083 216.68 117.146C217.626 115.21 223.577 112.008 225.863 113.984C228.149 115.961 222.789 121.494 222.789 121.494L217.193 121.059Z" fill="white" fill-opacity="0.15" stroke="white" stroke-width="2" stroke-miterlimit="10" stroke-linecap="round" stroke-linejoin="round"/>
<path d="M234.534 121.575L242.179 114.974C243.992 113.433 246.278 112.484 248.643 112.484C249.746 112.484 250.81 112.682 251.52 113.275C253.648 115.053 251.401 115.291 248.051 117.82C244.702 120.31 236.622 124.618 236.622 124.618C236.622 124.618 233.903 124.895 233.824 123.037C233.824 122.484 234.1 121.931 234.534 121.575Z" fill="white" fill-opacity="0.15" stroke="white" stroke-width="2" stroke-miterlimit="10" stroke-linecap="round" stroke-linejoin="round"/>
<path d="M242.396 128.503L252.818 125.584C255.265 124.907 257.923 125.034 260.202 126.134C261.257 126.642 262.185 127.319 262.607 128.207C263.873 130.915 261.552 130.111 257.206 131.042C252.86 131.931 243.072 132.439 243.072 132.439C243.072 132.439 240.287 131.465 241.046 129.646C241.299 129.054 241.806 128.63 242.396 128.503Z" fill="white" fill-opacity="0.15" stroke="white" stroke-width="2" stroke-miterlimit="10" stroke-linecap="round" stroke-linejoin="round"/>
<path d="M240.172 137.498L249.223 138.642C251.361 138.928 253.356 139.893 254.817 141.501C255.494 142.251 255.993 143.073 256.028 143.895C256.135 146.432 254.603 145.038 250.897 144.324C247.192 143.609 239.424 140.75 239.424 140.75C239.424 140.75 237.607 139.071 238.783 137.927C239.139 137.57 239.674 137.427 240.172 137.498Z" fill="white" fill-opacity="0.15" stroke="white" stroke-width="2" stroke-miterlimit="10" stroke-linecap="round" stroke-linejoin="round"/>
<path d="M58.6044 197.579C57.2645 201.413 54.4663 207.935 52.9293 211.531C52.2987 212.954 50.407 213.231 49.4217 212.006C47.7665 209.871 46.2689 205.879 48.4759 198.884C48.4759 198.844 48.5153 198.765 48.5153 198.725C49.2247 196.591 50.2494 194.141 51.7864 191.413C52.2987 190.465 53.0081 189.99 53.7963 189.872C53.9146 189.832 54.0722 189.832 54.1904 189.832C56.9098 189.793 60.0232 193.508 58.6044 197.579Z" fill="white" fill-opacity="0.15" stroke="white" stroke-width="2" stroke-miterlimit="10" stroke-linecap="round" stroke-linejoin="round"/>
<path d="M37.1646 201.374C37.0858 201.887 37.007 202.559 36.8099 203.389C36.7705 203.626 36.6917 203.903 36.6523 204.14C35.9035 207.184 34.2088 211.571 29.9919 215.049C26.5631 217.895 22.5432 218.092 19.8239 217.776C18.4445 217.618 17.8928 215.958 18.878 215.01L29.7948 204.496L30.7801 203.547L33.0659 201.334C35.3123 199.2 37.5193 198.963 37.1646 201.374Z" fill="white" fill-opacity="0.15" stroke="white" stroke-width="2" stroke-miterlimit="10" stroke-linecap="round" stroke-linejoin="round"/>
<path d="M21.5184 202.638C21.479 203.31 21.1243 203.982 20.6514 204.456C18.8385 206.275 16.0798 208.685 11.981 211.531C7.13352 214.851 4.76888 214.654 3.58655 213.745C2.60128 212.994 2.64069 211.373 3.58655 210.543C3.58655 210.543 13.4392 201.492 17.7744 200.583C18.0109 200.543 18.2079 200.504 18.405 200.504C20.8091 200.504 21.5973 201.532 21.5184 202.638Z" fill="white" fill-opacity="0.15" stroke="white" stroke-width="2" stroke-miterlimit="10" stroke-linecap="round" stroke-linejoin="round"/>
<path d="M14.7795 196.79C14.6612 197.027 14.543 197.225 14.4248 197.462C12.4542 200.466 7.48849 201.968 4.29622 201.968C2.60156 201.968 1.45865 201.533 1.49806 200.703C1.57688 199.517 7.17321 196.909 10.6019 195.288C11.3507 194.932 12.139 194.893 12.8878 195.13C13.7154 195.407 14.3854 195.96 14.7795 196.79Z" fill="white" fill-opacity="0.15" stroke="white" stroke-width="2" stroke-miterlimit="10" stroke-linecap="round" stroke-linejoin="round"/>
<path d="M61.9893 31.9485L133.097 18C147.16 25.1831 175.456 42.657 180.502 51.5691C185.549 60.4811 184.698 69.8284 183.111 76.1789" stroke="white" stroke-width="2"/>
<path d="M243.886 65.4944C244.59 65.0337 245.513 65.5947 245.429 66.4316L244.228 78.3123C244.194 78.6491 244.333 78.9803 244.597 79.1923L253.904 86.673C254.56 87.1999 254.312 88.2516 253.49 88.4298L241.819 90.9593C241.489 91.031 241.216 91.2652 241.096 91.5817L236.858 102.745C236.559 103.532 235.483 103.621 235.059 102.894L229.047 92.5766C228.877 92.2841 228.57 92.0977 228.232 92.0812L216.305 91.5001C215.464 91.4592 215.047 90.4625 215.607 89.8352L223.562 80.9291C223.788 80.6767 223.87 80.3273 223.781 80.0006L220.648 68.4777C220.427 67.6661 221.246 66.9611 222.016 67.3002L232.944 72.1134C233.254 72.2498 233.612 72.2203 233.895 72.0349L243.886 65.4944Z" fill="#FFC633"/>
<mask id="mask0" mask-type="alpha" maskUnits="userSpaceOnUse" x="215" y="65" width="40" height="39">
<path d="M243.886 65.4944C244.59 65.0337 245.513 65.5947 245.429 66.4316L244.228 78.3123C244.194 78.6491 244.333 78.9803 244.597 79.1923L253.904 86.673C254.56 87.1999 254.312 88.2516 253.49 88.4298L241.819 90.9593C241.489 91.031 241.216 91.2652 241.096 91.5817L236.858 102.745C236.559 103.532 235.483 103.621 235.059 102.894L229.047 92.5766C228.877 92.2841 228.57 92.0977 228.232 92.0812L216.305 91.5001C215.464 91.4592 215.047 90.4625 215.607 89.8352L223.562 80.9291C223.788 80.6767 223.87 80.3273 223.781 80.0006L220.648 68.4777C220.427 67.6661 221.246 66.9611 222.016 67.3002L232.944 72.1134C233.254 72.2498 233.612 72.2203 233.895 72.0349L243.886 65.4944Z" fill="#FFC633"/>
</mask>
<g mask="url(#mask0)">
<path d="M245.939 64.043L226.434 94.8906L234.712 111.789L260.343 89.6739L245.939 64.043Z" fill="#FFD15B"/>
</g>
<path d="M252.709 50.4425C252.644 49.6039 253.579 49.0637 254.273 49.54L257.244 51.5817C257.523 51.7734 257.88 51.8109 258.193 51.6814L261.525 50.3022C262.302 49.9804 263.105 50.7034 262.866 51.51L261.842 54.9672C261.746 55.2918 261.821 55.643 262.041 55.9004L264.382 58.6425C264.928 59.2822 264.489 60.2693 263.648 60.2915L260.043 60.3864C259.705 60.3954 259.394 60.5749 259.217 60.8635L257.333 63.9374C256.893 64.6545 255.819 64.5416 255.538 63.7487L254.334 60.3502C254.221 60.0311 253.954 59.7909 253.625 59.7118L250.119 58.8695C249.301 58.673 249.076 57.6161 249.744 57.1039L252.604 54.9085C252.872 54.7024 253.018 54.3744 252.992 54.037L252.709 50.4425Z" fill="#FFC633"/>
<mask id="mask1" mask-type="alpha" maskUnits="userSpaceOnUse" x="249" y="49" width="16" height="16">
<path d="M252.709 50.4425C252.644 49.6039 253.579 49.0637 254.273 49.54L257.244 51.5817C257.523 51.7734 257.88 51.8109 258.193 51.6814L261.525 50.3022C262.302 49.9804 263.105 50.7034 262.866 51.51L261.842 54.9672C261.746 55.2918 261.821 55.643 262.041 55.9004L264.382 58.6425C264.928 59.2822 264.489 60.2693 263.648 60.2915L260.043 60.3864C259.705 60.3954 259.394 60.5749 259.217 60.8635L257.333 63.9374C256.893 64.6545 255.819 64.5416 255.538 63.7487L254.334 60.3502C254.221 60.0311 253.954 59.7909 253.625 59.7118L250.119 58.8695C249.301 58.673 249.076 57.6161 249.744 57.1039L252.604 54.9085C252.872 54.7024 253.018 54.3744 252.992 54.037L252.709 50.4425Z" fill="#FFC633"/>
</mask>
<g mask="url(#mask1)">
<path d="M257.961 49.4141L256.146 65.4023L268.395 64.3836L267.601 49.4141H257.961Z" fill="#FFD15B"/>
</g>
<path d="M229.298 42.4223C229.884 41.819 230.908 42.1647 231.008 42.9999L231.636 48.2301C231.677 48.5662 231.884 48.859 232.188 49.0083L236.916 51.3316C237.671 51.7025 237.658 52.783 236.895 53.1365L232.115 55.3502C231.808 55.4925 231.594 55.7805 231.545 56.1155L230.797 61.3299C230.677 62.1625 229.646 62.4846 229.074 61.8679L225.491 58.0058C225.261 57.7576 224.921 57.6428 224.588 57.7006L219.397 58.6C218.568 58.7436 217.943 57.8622 218.353 57.1276L220.919 52.5269C221.084 52.2313 221.088 51.8723 220.93 51.573L218.471 46.9145C218.078 46.1706 218.723 45.3038 219.548 45.4665L224.717 46.4852C225.049 46.5507 225.392 46.4437 225.627 46.2009L229.298 42.4223Z" fill="#FFC633"/>
<mask id="mask2" mask-type="alpha" maskUnits="userSpaceOnUse" x="218" y="42" width="20" height="21">
<path d="M229.298 42.4223C229.884 41.819 230.908 42.1647 231.008 42.9999L231.636 48.2301C231.677 48.5662 231.884 48.859 232.188 49.0083L236.916 51.3316C237.671 51.7025 237.658 52.783 236.895 53.1365L232.115 55.3502C231.808 55.4925 231.594 55.7805 231.545 56.1155L230.797 61.3299C230.677 62.1625 229.646 62.4846 229.074 61.8679L225.491 58.0058C225.261 57.7576 224.921 57.6428 224.588 57.7006L219.397 58.6C218.568 58.7436 217.943 57.8622 218.353 57.1276L220.919 52.5269C221.084 52.2313 221.088 51.8723 220.93 51.573L218.471 46.9145C218.078 46.1706 218.723 45.3038 219.548 45.4665L224.717 46.4852C225.049 46.5507 225.392 46.4437 225.627 46.2009L229.298 42.4223Z" fill="#FFC633"/>
</mask>
<g mask="url(#mask2)">
<path d="M224.959 44.4208L230.743 64.3818L241.29 48.9599L230.743 40.4531L224.959 44.4208Z" fill="#FFD15B"/>
</g>
</g>
<defs>
<clipPath id="clip0">
<rect width="271.974" height="219.362" fill="white" transform="translate(0.512695 0.351562)"/>
</clipPath>
</defs>
</svg>
