<svg width="31" height="28" viewBox="0 0 31 28" fill="none" xmlns="http://www.w3.org/2000/svg">
<path d="M24.611 27.6001C24.3727 27.6001 24.136 27.5295 23.933 27.3918L16.2619 22.1856L12.1476 25.1477C11.8249 25.3798 11.409 25.4383 11.0343 25.3042C10.6601 25.1699 10.3759 24.8598 10.2745 24.4752L8.20861 16.6422L0.827076 13.8182C0.362379 13.6404 0.0541907 13.1955 0.0508093 12.6977C0.047428 12.1999 0.349497 11.751 0.81194 11.5668L28.8793 0.392831C29.0066 0.338701 29.1414 0.307448 29.2773 0.29907C29.3259 0.296171 29.3747 0.296171 29.4232 0.298909C29.7046 0.315664 29.9811 0.430368 30.1969 0.642055C30.2192 0.663965 30.2405 0.686358 30.2606 0.709718C30.4394 0.913994 30.5376 1.16306 30.5561 1.41679C30.5606 1.48059 30.5603 1.54519 30.5546 1.60979C30.5508 1.65587 30.5442 1.70178 30.5348 1.74737L25.7972 26.618C25.7211 27.0176 25.4493 27.352 25.0738 27.5078C24.9248 27.5697 24.7675 27.6001 24.611 27.6001ZM16.9354 19.7227L23.7686 24.36L27.4549 5.0079L14.1408 17.8261L16.9032 19.701C16.9144 19.7079 16.925 19.7153 16.9354 19.7227ZM11.2472 18.6915L12.1621 22.16L14.1333 20.7409L11.5521 18.9891C11.4322 18.9079 11.3295 18.8067 11.2472 18.6915ZM4.5812 12.667L9.64972 14.6058C10.0128 14.7447 10.2869 15.0501 10.3861 15.4262L11.0288 17.8635C11.0583 17.5823 11.1857 17.3178 11.3926 17.1185L24.079 4.90479L4.5812 12.667Z" fill="white"/>
</svg>
