<svg width="40" height="40" viewBox="0 0 40 40" fill="none" xmlns="http://www.w3.org/2000/svg">
<path d="M24.3672 8.51953C24.4152 8.51953 26.5912 10.0755 27.3792 11.1875C28.1672 12.2995 28.3592 12.3875 27.6712 13.3155C26.9832 14.2435 24.6792 16.1155 24.6792 16.1155L28.0152 19.3155C28.0152 19.3155 28.1632 20.4115 27.7712 20.7235H32.2872C32.2872 20.7235 32.7272 19.9875 32.2872 19.4795C31.8472 18.9715 28.9312 16.3235 28.9312 16.3235L32.3512 12.9035C32.4158 12.7258 32.4376 12.5354 32.4146 12.3477C32.3917 12.16 32.3247 11.9804 32.2192 11.8235C31.8592 11.3035 29.1432 8.73153 29.1432 8.73153L24.3672 8.51953Z" fill="#076FF2"/>
<path d="M26.8398 29.2871L24.8398 31.2831L28.7998 31.2151L29.2598 30.9551L26.8398 29.2871Z" fill="#076FF2"/>
<path d="M13.0162 11.1562H9.41619C9.18202 11.1562 8.99219 11.3461 8.99219 11.5803V13.3203C8.99219 13.5544 9.18202 13.7443 9.41619 13.7443H13.0162C13.2504 13.7443 13.4402 13.5544 13.4402 13.3203V11.5803C13.4402 11.3461 13.2504 11.1562 13.0162 11.1562Z" fill="#076FF2"/>
<path d="M13.0162 18.7559H9.41619C9.18202 18.7559 8.99219 18.9457 8.99219 19.1799V20.9199C8.99219 21.154 9.18202 21.3439 9.41619 21.3439H13.0162C13.2504 21.3439 13.4402 21.154 13.4402 20.9199V19.1799C13.4402 18.9457 13.2504 18.7559 13.0162 18.7559Z" fill="#076FF2"/>
<path d="M13.0162 26.3555H9.41619C9.18202 26.3555 8.99219 26.5453 8.99219 26.7795V28.5195C8.99219 28.7536 9.18202 28.9435 9.41619 28.9435H13.0162C13.2504 28.9435 13.4402 28.7536 13.4402 28.5195V26.7795C13.4402 26.5453 13.2504 26.3555 13.0162 26.3555Z" fill="#076FF2"/>
<path d="M28.4554 16.5996H25.3794V15.7996H28.4554C28.7042 15.7994 28.9434 15.7035 29.1234 15.5316L31.6834 13.0996C31.779 13.0142 31.8564 12.9102 31.9107 12.794C31.965 12.6778 31.9952 12.5518 31.9994 12.4236C32.0037 12.2968 31.983 12.1704 31.9383 12.0517C31.8937 11.9329 31.8261 11.8242 31.7394 11.7316L31.6954 11.6836L29.1314 9.24759C28.9489 9.07763 28.7087 8.98327 28.4594 8.98359H22.8594V8.18359H28.4594C28.9064 8.1863 29.3356 8.3594 29.6594 8.66759L32.2234 11.0996L32.3074 11.1836C32.6264 11.5272 32.7963 11.9832 32.7798 12.4518C32.7634 12.9204 32.5618 13.3633 32.2194 13.6836L29.6634 16.1116C29.338 16.4228 28.9056 16.5974 28.4554 16.5996Z" fill="#1F1F1F"/>
<path d="M24.1558 16.6152H9.40779C8.95416 16.616 8.51752 16.4428 8.18779 16.1312L5.62779 13.6952L5.54379 13.6152C5.22421 13.2722 5.05362 12.8164 5.06936 12.3479C5.0851 11.8793 5.28591 11.436 5.62779 11.1152L8.18779 8.68322C8.51248 8.37639 8.94108 8.20352 9.38779 8.19922H24.1558C24.6028 8.20193 25.032 8.37502 25.3558 8.68322L27.9198 11.1152L28.0038 11.1992C28.3229 11.5428 28.4928 11.9988 28.4763 12.4674C28.4598 12.936 28.2582 13.3789 27.9158 13.6992L25.3598 16.1272C25.0354 16.4375 24.6047 16.612 24.1558 16.6152ZM9.40779 9.01522C9.15773 9.01517 8.91719 9.1111 8.73579 9.28322L6.17979 11.7112C6.08596 11.7977 6.01014 11.9019 5.95671 12.0177C5.90328 12.1336 5.87329 12.2589 5.86846 12.3864C5.86362 12.5139 5.88405 12.6411 5.92855 12.7607C5.97306 12.8803 6.04077 12.9899 6.12779 13.0832L6.17179 13.1272L8.73979 15.5672C8.9208 15.7369 9.15966 15.8313 9.40779 15.8312H24.1558C24.4046 15.8311 24.6438 15.7351 24.8238 15.5632L27.3838 13.1312C27.478 13.0451 27.5538 12.9408 27.6068 12.8246C27.6597 12.7085 27.6886 12.5828 27.6918 12.4552C27.6961 12.3284 27.6754 12.2021 27.6308 12.0833C27.5861 11.9646 27.5185 11.8558 27.4318 11.7632L27.3878 11.7152L24.8238 9.27922C24.6413 9.10925 24.4011 9.01489 24.1518 9.01522H9.40779Z" fill="#1F1F1F"/>
<path d="M17.9127 16.5989H15.6367V14.7749C15.6367 14.515 15.74 14.2657 15.9238 14.082C16.1075 13.8982 16.3568 13.7949 16.6167 13.7949H16.9327C17.1926 13.7949 17.4419 13.8982 17.6257 14.082C17.8095 14.2657 17.9127 14.515 17.9127 14.7749V16.5989ZM16.4367 15.7989H17.1127V14.7749C17.1127 14.7513 17.1081 14.7279 17.099 14.706C17.09 14.6842 17.0767 14.6644 17.06 14.6476C17.0433 14.6309 17.0234 14.6177 17.0016 14.6086C16.9798 14.5996 16.9564 14.5949 16.9327 14.5949H16.6167C16.5931 14.5949 16.5697 14.5996 16.5478 14.6086C16.526 14.6177 16.5062 14.6309 16.4894 14.6476C16.4727 14.6644 16.4595 14.6842 16.4504 14.706C16.4414 14.7279 16.4367 14.7513 16.4367 14.7749V15.7989Z" fill="#1F1F1F"/>
<path d="M20.4834 16.5989H18.1914V14.7749C18.1914 14.515 18.2947 14.2657 18.4784 14.082C18.6622 13.8982 18.9115 13.7949 19.1714 13.7949H19.5034C19.7633 13.7949 20.0126 13.8982 20.1964 14.082C20.3802 14.2657 20.4834 14.515 20.4834 14.7749V16.5989ZM18.9914 15.7989H19.6834V14.7749C19.6834 14.7513 19.6788 14.7279 19.6697 14.706C19.6607 14.6842 19.6474 14.6644 19.6307 14.6476C19.614 14.6309 19.5941 14.6177 19.5723 14.6086C19.5505 14.5996 19.527 14.5949 19.5034 14.5949H19.1714C19.1478 14.5949 19.1244 14.5996 19.1025 14.6086C19.0807 14.6177 19.0608 14.6309 19.0441 14.6476C19.0274 14.6644 19.0142 14.6842 19.0051 14.706C18.9961 14.7279 18.9914 14.7513 18.9914 14.7749V15.7989Z" fill="#1F1F1F"/>
<path d="M23.044 16.5989H20.748V14.7749C20.748 14.515 20.8513 14.2657 21.0351 14.082C21.2189 13.8982 21.4681 13.7949 21.728 13.7949H22.064C22.324 13.7949 22.5732 13.8982 22.757 14.082C22.9408 14.2657 23.044 14.515 23.044 14.7749V16.5989ZM21.548 15.7989H22.244V14.7749C22.244 14.7513 22.2394 14.7279 22.2303 14.706C22.2213 14.6842 22.208 14.6644 22.1913 14.6476C22.1746 14.6309 22.1548 14.6177 22.1329 14.6086C22.1111 14.5996 22.0877 14.5949 22.064 14.5949H21.728C21.7044 14.5949 21.681 14.5996 21.6592 14.6086C21.6373 14.6177 21.6175 14.6309 21.6008 14.6476C21.5841 14.6644 21.5708 14.6842 21.5617 14.706C21.5527 14.7279 21.548 14.7513 21.548 14.7749V15.7989Z" fill="#1F1F1F"/>
<path d="M13.0158 14.1434H9.4158C9.19726 14.1434 8.98767 14.0566 8.83314 13.902C8.67861 13.7475 8.5918 13.5379 8.5918 13.3194V11.5994C8.5918 11.3809 8.67861 11.1713 8.83314 11.0167C8.98767 10.8622 9.19726 10.7754 9.4158 10.7754H13.0158C13.124 10.7754 13.2312 10.7967 13.3311 10.8381C13.4311 10.8795 13.5219 10.9402 13.5985 11.0167C13.675 11.0932 13.7357 11.1841 13.7771 11.2841C13.8185 11.384 13.8398 11.4912 13.8398 11.5994V13.3194C13.8398 13.4276 13.8185 13.5347 13.7771 13.6347C13.7357 13.7347 13.675 13.8255 13.5985 13.902C13.5219 13.9786 13.4311 14.0393 13.3311 14.0807C13.2312 14.1221 13.124 14.1434 13.0158 14.1434ZM9.4158 11.5554C9.40943 11.5554 9.40333 11.5579 9.39883 11.5624C9.39433 11.5669 9.3918 11.573 9.3918 11.5794V13.3194L13.0158 13.3434L13.0398 11.5994L9.4158 11.5554Z" fill="#1F1F1F"/>
<path d="M24.3959 10.7559H14.9199V11.5559H24.3959V10.7559Z" fill="#1F1F1F"/>
<path d="M19.4799 12.0508H14.9199V12.8508H19.4799V12.0508Z" fill="#1F1F1F"/>
<path d="M32.2326 21.2832L31.6886 20.6992C31.8748 20.5231 31.984 20.2805 31.9922 20.0243C32.0004 19.768 31.9071 19.519 31.7326 19.3312L31.6886 19.2832L29.1246 16.8472C28.9421 16.6772 28.702 16.5829 28.4526 16.5832H23.8086V15.7832H28.4566C28.9036 15.7859 29.3328 15.959 29.6566 16.2672L32.2206 18.6992L32.3046 18.7832C32.6237 19.1268 32.7936 19.5828 32.7771 20.0514C32.7606 20.52 32.559 20.9629 32.2166 21.2832H32.2326Z" fill="#1F1F1F"/>
<path d="M24.1558 24.2148H9.40779C8.95416 24.2156 8.51752 24.0424 8.18779 23.7308L5.62779 21.2948L5.54379 21.2148C5.22421 20.8718 5.05362 20.4161 5.06936 19.9475C5.0851 19.4789 5.28591 19.0357 5.62779 18.7148L8.18779 16.2828C8.51248 15.976 8.94108 15.8031 9.38779 15.7988H24.1558C24.6028 15.8015 25.032 15.9746 25.3558 16.2828L27.9198 18.7148C28.2398 19.0239 28.4328 19.4414 28.461 19.8854C28.4891 20.3294 28.3503 20.7679 28.0718 21.1148L27.4518 20.6108C27.6046 20.4213 27.6808 20.1814 27.6652 19.9385C27.6497 19.6955 27.5435 19.4673 27.3678 19.2988L24.8078 16.8668C24.6253 16.6969 24.3852 16.6025 24.1358 16.6028H9.40779C9.15773 16.6028 8.91719 16.6987 8.73579 16.8708L6.17979 19.2988C6.08596 19.3853 6.01014 19.4895 5.95671 19.6053C5.90328 19.7212 5.87329 19.8465 5.86846 19.974C5.86362 20.1015 5.88405 20.2287 5.92855 20.3483C5.97306 20.4679 6.04077 20.5775 6.12779 20.6708L6.17179 20.7148L8.73979 23.1548C8.9208 23.3245 9.15966 23.4189 9.40779 23.4188H24.1558C24.4046 23.4187 24.6438 23.3227 24.8238 23.1508L25.0438 22.9228L25.6198 23.4828L25.3878 23.7188C25.0572 24.038 24.6153 24.2159 24.1558 24.2148Z" fill="#1F1F1F"/>
<path d="M17.9127 24.2005H15.6367V22.3765C15.6367 22.2478 15.6621 22.1204 15.7113 22.0015C15.7606 21.8826 15.8328 21.7745 15.9238 21.6835C16.0148 21.5925 16.1228 21.5203 16.2417 21.4711C16.3606 21.4218 16.488 21.3965 16.6167 21.3965H16.9327C17.0614 21.3965 17.1888 21.4218 17.3077 21.4711C17.4266 21.5203 17.5347 21.5925 17.6257 21.6835C17.7167 21.7745 17.7889 21.8826 17.8381 22.0015C17.8874 22.1204 17.9127 22.2478 17.9127 22.3765V24.2005ZM16.4367 23.4005H17.1127V22.3765C17.1127 22.3528 17.1081 22.3294 17.099 22.3076C17.09 22.2858 17.0767 22.2659 17.06 22.2492C17.0433 22.2325 17.0234 22.2192 17.0016 22.2102C16.9798 22.2011 16.9564 22.1965 16.9327 22.1965H16.6167C16.5931 22.1965 16.5697 22.2011 16.5478 22.2102C16.526 22.2192 16.5062 22.2325 16.4894 22.2492C16.4727 22.2659 16.4595 22.2858 16.4504 22.3076C16.4414 22.3294 16.4367 22.3528 16.4367 22.3765V23.4005Z" fill="#1F1F1F"/>
<path d="M20.4834 24.2005H18.1914V22.3765C18.1914 22.2478 18.2168 22.1204 18.266 22.0015C18.3153 21.8826 18.3874 21.7745 18.4784 21.6835C18.5694 21.5925 18.6775 21.5203 18.7964 21.4711C18.9153 21.4218 19.0427 21.3965 19.1714 21.3965H19.5034C19.6321 21.3965 19.7595 21.4218 19.8784 21.4711C19.9973 21.5203 20.1054 21.5925 20.1964 21.6835C20.2874 21.7745 20.3596 21.8826 20.4088 22.0015C20.4581 22.1204 20.4834 22.2478 20.4834 22.3765V24.2005ZM18.9914 23.4005H19.6834V22.3765C19.6834 22.3528 19.6788 22.3294 19.6697 22.3076C19.6607 22.2858 19.6474 22.2659 19.6307 22.2492C19.614 22.2325 19.5941 22.2192 19.5723 22.2102C19.5505 22.2011 19.527 22.1965 19.5034 22.1965H19.1714C19.1478 22.1965 19.1244 22.2011 19.1025 22.2102C19.0807 22.2192 19.0608 22.2325 19.0441 22.2492C19.0274 22.2659 19.0142 22.2858 19.0051 22.3076C18.9961 22.3294 18.9914 22.3528 18.9914 22.3765V23.4005Z" fill="#1F1F1F"/>
<path d="M23.044 24.2005H20.748V22.3765C20.748 22.2478 20.7734 22.1204 20.8226 22.0015C20.8719 21.8826 20.9441 21.7745 21.0351 21.6835C21.1261 21.5925 21.2341 21.5203 21.353 21.4711C21.4719 21.4218 21.5994 21.3965 21.728 21.3965H22.064C22.1927 21.3965 22.3202 21.4218 22.4391 21.4711C22.558 21.5203 22.666 21.5925 22.757 21.6835C22.848 21.7745 22.9202 21.8826 22.9694 22.0015C23.0187 22.1204 23.044 22.2478 23.044 22.3765V24.2005ZM21.548 23.4005H22.244V22.3765C22.244 22.3528 22.2394 22.3294 22.2303 22.3076C22.2213 22.2858 22.208 22.2659 22.1913 22.2492C22.1746 22.2325 22.1548 22.2192 22.1329 22.2102C22.1111 22.2011 22.0877 22.1965 22.064 22.1965H21.728C21.7044 22.1965 21.681 22.2011 21.6592 22.2102C21.6373 22.2192 21.6175 22.2325 21.6008 22.2492C21.5841 22.2659 21.5708 22.2858 21.5617 22.3076C21.5527 22.3294 21.548 22.3528 21.548 22.3765V23.4005Z" fill="#1F1F1F"/>
<path d="M13.0158 21.743H9.4158C9.19726 21.743 8.98767 21.6562 8.83314 21.5017C8.67861 21.3471 8.5918 21.1375 8.5918 20.919V19.199C8.5918 18.9805 8.67861 18.7709 8.83314 18.6163C8.98767 18.4618 9.19726 18.375 9.4158 18.375H13.0158C13.124 18.375 13.2312 18.3963 13.3311 18.4377C13.4311 18.4791 13.5219 18.5398 13.5985 18.6163C13.675 18.6929 13.7357 18.7837 13.7771 18.8837C13.8185 18.9836 13.8398 19.0908 13.8398 19.199V20.919C13.8398 21.0272 13.8185 21.1344 13.7771 21.2343C13.7357 21.3343 13.675 21.4251 13.5985 21.5017C13.5219 21.5782 13.4311 21.6389 13.3311 21.6803C13.2312 21.7217 13.124 21.743 13.0158 21.743ZM9.4158 19.155C9.40943 19.155 9.40333 19.1575 9.39883 19.162C9.39433 19.1665 9.3918 19.1726 9.3918 19.179V20.919L13.0158 20.943L13.0398 19.199L9.4158 19.155Z" fill="#1F1F1F"/>
<path d="M24.3959 18.3555H14.9199V19.1555H24.3959V18.3555Z" fill="#1F1F1F"/>
<path d="M19.4799 19.6523H14.9199V20.4523H19.4799V19.6523Z" fill="#1F1F1F"/>
<path d="M23.1992 31.8004V31.0004H28.4552C28.7041 31.0003 28.9433 30.9043 29.1232 30.7324L29.6712 31.3164C29.3474 31.6246 28.9182 31.7977 28.4712 31.8004H23.1992Z" fill="#1F1F1F"/>
<path d="M24.1558 31.8164H9.40779C8.95416 31.8172 8.51752 31.6439 8.18779 31.3324L5.62779 28.8964L5.54379 28.8164C5.22421 28.4733 5.05362 28.0176 5.06936 27.549C5.0851 27.0805 5.28591 26.6372 5.62779 26.3164L8.18779 23.8844C8.51248 23.5776 8.94108 23.4047 9.38779 23.4004H24.1558C24.6028 23.4031 25.032 23.5762 25.3558 23.8844L25.7198 24.2284L25.1998 24.8004L24.8358 24.4564C24.6546 24.2839 24.4139 24.1879 24.1638 24.1884H9.40779C9.15773 24.1883 8.91719 24.2843 8.73579 24.4564L6.17979 26.8844C6.08596 26.9709 6.01014 27.075 5.95671 27.1909C5.90328 27.3068 5.87329 27.4321 5.86846 27.5596C5.86362 27.6871 5.88405 27.8143 5.92855 27.9339C5.97306 28.0535 6.04077 28.1631 6.12779 28.2564L6.17179 28.3004L8.73979 30.7404C8.9208 30.9101 9.15966 31.0045 9.40779 31.0044H24.1558C24.4046 31.0042 24.6438 30.9083 24.8238 30.7364L26.7118 28.9444L27.2638 29.5284L25.3758 31.3204C25.0479 31.6363 24.6111 31.8139 24.1558 31.8164Z" fill="#1F1F1F"/>
<path d="M17.9127 31.8001H15.6367V29.9761C15.6367 29.8474 15.6621 29.72 15.7113 29.6011C15.7606 29.4822 15.8328 29.3741 15.9238 29.2831C16.0148 29.1921 16.1228 29.1199 16.2417 29.0707C16.3606 29.0214 16.488 28.9961 16.6167 28.9961H16.9327C17.0614 28.9961 17.1888 29.0214 17.3077 29.0707C17.4266 29.1199 17.5347 29.1921 17.6257 29.2831C17.7167 29.3741 17.7889 29.4822 17.8381 29.6011C17.8874 29.72 17.9127 29.8474 17.9127 29.9761V31.8001ZM16.4367 31.0001H17.1127V29.9761C17.1127 29.9284 17.0938 29.8826 17.06 29.8488C17.0262 29.8151 16.9805 29.7961 16.9327 29.7961H16.6167C16.5931 29.7961 16.5697 29.8008 16.5478 29.8098C16.526 29.8188 16.5062 29.8321 16.4894 29.8488C16.4727 29.8655 16.4595 29.8854 16.4504 29.9072C16.4414 29.929 16.4367 29.9525 16.4367 29.9761V31.0001Z" fill="#1F1F1F"/>
<path d="M20.4834 31.8001H18.1914V29.9761C18.1914 29.8474 18.2168 29.72 18.266 29.6011C18.3153 29.4822 18.3874 29.3741 18.4784 29.2831C18.5694 29.1921 18.6775 29.1199 18.7964 29.0707C18.9153 29.0214 19.0427 28.9961 19.1714 28.9961H19.5034C19.6321 28.9961 19.7595 29.0214 19.8784 29.0707C19.9973 29.1199 20.1054 29.1921 20.1964 29.2831C20.2874 29.3741 20.3596 29.4822 20.4088 29.6011C20.4581 29.72 20.4834 29.8474 20.4834 29.9761V31.8001ZM18.9914 31.0001H19.6834V29.9761C19.6834 29.9284 19.6644 29.8826 19.6307 29.8488C19.5969 29.8151 19.5511 29.7961 19.5034 29.7961H19.1714C19.1237 29.7961 19.0779 29.8151 19.0441 29.8488C19.0104 29.8826 18.9914 29.9284 18.9914 29.9761V31.0001Z" fill="#1F1F1F"/>
<path d="M23.044 31.8001H20.748V29.9761C20.748 29.8474 20.7734 29.72 20.8226 29.6011C20.8719 29.4822 20.9441 29.3741 21.0351 29.2831C21.1261 29.1921 21.2341 29.1199 21.353 29.0707C21.4719 29.0214 21.5994 28.9961 21.728 28.9961H22.064C22.1927 28.9961 22.3202 29.0214 22.4391 29.0707C22.558 29.1199 22.666 29.1921 22.757 29.2831C22.848 29.3741 22.9202 29.4822 22.9694 29.6011C23.0187 29.72 23.044 29.8474 23.044 29.9761V31.8001ZM21.548 31.0001H22.244V29.9761C22.244 29.9525 22.2394 29.929 22.2303 29.9072C22.2213 29.8854 22.208 29.8655 22.1913 29.8488C22.1746 29.8321 22.1548 29.8188 22.1329 29.8098C22.1111 29.8008 22.0877 29.7961 22.064 29.7961H21.728C21.6803 29.7961 21.6345 29.8151 21.6008 29.8488C21.567 29.8826 21.548 29.9284 21.548 29.9761V31.0001Z" fill="#1F1F1F"/>
<path d="M13.0158 29.3446H9.4158C9.30759 29.3446 9.20044 29.3232 9.10047 29.2818C9.00049 29.2404 8.90966 29.1797 8.83314 29.1032C8.75663 29.0267 8.69593 28.9359 8.65452 28.8359C8.61311 28.7359 8.5918 28.6288 8.5918 28.5206V26.8006C8.5918 26.582 8.67861 26.3724 8.83314 26.2179C8.98767 26.0634 9.19726 25.9766 9.4158 25.9766H13.0158C13.124 25.9766 13.2312 25.9979 13.3311 26.0393C13.4311 26.0807 13.5219 26.1414 13.5985 26.2179C13.675 26.2944 13.7357 26.3853 13.7771 26.4852C13.8185 26.5852 13.8398 26.6924 13.8398 26.8006V28.5206C13.8398 28.6288 13.8185 28.7359 13.7771 28.8359C13.7357 28.9359 13.675 29.0267 13.5985 29.1032C13.5219 29.1797 13.4311 29.2404 13.3311 29.2818C13.2312 29.3232 13.124 29.3446 13.0158 29.3446ZM9.4158 26.7566C9.40943 26.7566 9.40333 26.7591 9.39883 26.7636C9.39433 26.7681 9.3918 26.7742 9.3918 26.7806V28.5206L13.0158 28.5446L13.0398 26.8006L9.4158 26.7566Z" fill="#1F1F1F"/>
<path d="M24.3959 25.9551H14.9199V26.7551H24.3959V25.9551Z" fill="#1F1F1F"/>
<path d="M19.4799 27.252H14.9199V28.052H19.4799V27.252Z" fill="#1F1F1F"/>
<path d="M29.956 31.5992C29.6694 31.5977 29.3902 31.5084 29.156 31.3432L26.256 29.1872C25.8708 28.8733 25.5589 28.479 25.3419 28.032C25.125 27.585 25.0083 27.096 25 26.5992V20.4512H34.932V26.5712C34.923 27.0665 34.8068 27.554 34.5914 28C34.3759 28.4461 34.0664 28.8402 33.684 29.1552L30.784 31.3032C30.5475 31.4892 30.2568 31.5931 29.956 31.5992ZM25.796 21.2512V26.5712C25.8029 26.9481 25.8911 27.3192 26.0548 27.6589C26.2184 27.9985 26.4535 28.2988 26.744 28.5392L29.62 30.6752C29.7194 30.7456 29.8382 30.7834 29.96 30.7834C30.0818 30.7834 30.2006 30.7456 30.3 30.6752L33.2 28.5312C33.4901 28.2905 33.7249 27.9901 33.8885 27.6505C34.0521 27.3109 34.1406 26.94 34.148 26.5632V21.2512H25.796Z" fill="#1F1F1F"/>
<path d="M31.4589 24.3635H30.6589V23.5635C30.6578 23.4111 30.5968 23.2652 30.489 23.1574C30.3812 23.0496 30.2353 22.9885 30.0829 22.9875H29.8389C29.6861 22.9875 29.5396 23.0482 29.4316 23.1562C29.3236 23.2642 29.2629 23.4107 29.2629 23.5635V24.0995H28.4629V23.5635C28.4629 23.1986 28.6079 22.8486 28.8659 22.5905C29.124 22.3325 29.474 22.1875 29.8389 22.1875H30.0829C30.4475 22.1886 30.7969 22.3339 31.0547 22.5917C31.3125 22.8495 31.4578 23.1989 31.4589 23.5635V24.3635Z" fill="#1F1F1F"/>
<path d="M32.672 27.7753H27.252V23.9473H32.672V27.7753ZM28.052 26.9753H31.872V24.7473H28.052V26.9753Z" fill="#1F1F1F"/>
</svg>
