<svg width="40" height="40" viewBox="0 0 40 40" fill="none" xmlns="http://www.w3.org/2000/svg">
<path d="M12.8557 6.81961C13.3642 7.13909 13.7797 7.58668 14.0605 8.11745C14.3413 8.64822 14.4776 9.24352 14.4557 9.84361C14.4676 11.0145 14.4034 12.185 14.2637 13.3476L12.8438 14.8596C12.8438 14.8596 15.1397 16.0116 15.8357 13.9676C16.5317 11.9236 16.5357 7.38361 16.5357 7.38361C16.5357 7.38361 14.4557 6.15161 12.8438 6.81561" fill="#076FF2"/>
<path d="M9.24414 15.7754L12.5921 16.9714L11.9401 15.7754H9.24414Z" fill="#076FF2"/>
<path d="M24.7726 21.8474C24.6046 22.0754 24.3726 22.3194 24.4366 22.5954C24.4958 22.7623 24.5808 22.9189 24.6886 23.0594C25.0326 23.6874 24.5366 24.5674 24.9566 25.1474C25.1486 25.4114 25.4926 25.5474 25.6406 25.8354C25.9086 26.3634 25.3526 26.9434 24.8046 27.1754C24.1286 27.4674 23.3886 27.5754 22.6846 27.7954C21.9613 27.9673 21.334 28.4152 20.9366 29.0434C20.4326 27.3314 20.2806 25.4674 20.8646 23.7834C21.2844 22.7185 21.8454 21.7148 22.5326 20.7994C22.9046 20.2554 23.9606 18.7514 24.7886 19.1994C25.6166 19.6474 25.1766 21.2914 24.7726 21.8474Z" fill="#076FF2"/>
<path d="M30.8239 22.2359C30.8239 23.0359 31.4119 23.7839 31.3519 24.5879C31.2486 25.1593 30.9866 25.6902 30.5959 26.1199C31.0679 26.4639 31.7199 26.2999 32.3039 26.2519C32.8879 26.2039 33.6439 26.4519 33.6639 27.0519C33.6879 27.8519 32.3879 28.0719 32.2599 28.8519C32.2199 29.1039 32.3119 29.3799 32.1959 29.6079C31.9399 30.1199 31.1479 29.7519 30.5959 29.8879C30.0439 30.0239 29.7959 30.6879 29.8199 31.2559C29.8439 31.8239 30.1159 32.3559 30.2199 32.9199C30.8948 32.9082 31.5596 32.7543 32.171 32.4683C32.7823 32.1822 33.3265 31.7705 33.7679 31.2599C34.637 30.225 35.263 29.0085 35.5999 27.6999C35.9408 26.7043 36.057 25.6456 35.9399 24.5999C35.7039 23.0519 34.6959 21.7999 33.5679 20.7599C32.8399 20.1039 32.5679 19.8119 31.7759 20.4919C31.5054 20.7011 31.2812 20.964 31.1173 21.2642C30.9535 21.5643 30.8536 21.8952 30.8239 22.2359Z" fill="#076FF2"/>
<path d="M32.6788 19.272C32.6327 19.1595 32.5521 19.0644 32.4486 19.0004C32.3451 18.9365 32.2241 18.9069 32.1028 18.916C30.8834 18.2244 29.5046 17.8632 28.1028 17.868C27.9108 17.868 27.7028 17.868 27.5388 17.868C27.5053 17.7272 27.421 17.6036 27.3021 17.521C27.1832 17.4385 27.038 17.4027 26.8943 17.4205C26.7506 17.4383 26.6186 17.5085 26.5235 17.6177C26.4283 17.7268 26.3768 17.8672 26.3788 18.012V18.032C24.5511 18.4289 22.914 19.4386 21.7391 20.8937C20.5641 22.3487 19.9218 24.1618 19.9188 26.032C19.9188 26.216 19.9188 26.4 19.9388 26.584C19.8038 26.6612 19.7049 26.7887 19.6636 26.9386C19.6224 27.0885 19.6422 27.2487 19.7188 27.384C19.7576 27.4534 19.8104 27.5141 19.8737 27.5623C19.937 27.6104 20.0095 27.6451 20.0868 27.664C20.3511 28.982 20.9361 30.2146 21.7899 31.2529C22.6437 32.2911 23.7401 33.1031 24.9823 33.617C26.2244 34.1309 27.574 34.3309 28.9118 34.1994C30.2496 34.0679 31.5344 33.6088 32.6527 32.8628C33.7709 32.1169 34.6882 31.1069 35.3235 29.9222C35.9587 28.7376 36.2924 27.4146 36.295 26.0704C36.2976 24.7262 35.969 23.402 35.3383 22.2149C34.7076 21.0278 33.7942 20.0143 32.6788 19.264V19.272ZM24.5908 20C24.6388 20.076 24.6868 20.152 24.7348 20.22C24.8588 20.408 24.9868 20.62 24.9708 20.716C24.9222 20.8561 24.8445 20.9842 24.7428 21.092L23.7788 22.324C23.6895 22.444 23.6493 22.5936 23.6664 22.7422C23.6834 22.8909 23.7566 23.0274 23.8708 23.124C24.0293 23.2543 24.1501 23.4247 24.2204 23.6174C24.2907 23.8102 24.3081 24.0182 24.2708 24.22V24.264C24.2147 24.4628 24.2147 24.6732 24.2708 24.872C24.3622 25.1496 24.5551 25.3825 24.8108 25.524C25.1148 25.728 25.4308 25.968 25.4908 26.232C25.4994 26.3803 25.4665 26.5281 25.3959 26.6588C25.3253 26.7895 25.2196 26.898 25.0908 26.972C24.7002 27.1945 24.2665 27.3309 23.8188 27.372H23.7148C23.161 27.435 22.6208 27.5863 22.1148 27.82C21.9156 27.9177 21.7428 28.0617 21.6108 28.24C21.5858 28.2773 21.5631 28.316 21.5428 28.356C20.9964 26.8147 21.0069 25.1308 21.5724 23.5964C22.138 22.062 23.2228 20.7741 24.6388 19.956L24.5908 20ZM22.1308 29.704C22.2562 29.5946 22.3548 29.4577 22.4188 29.304C22.4508 29.22 22.4788 29.136 22.5028 29.048C22.5105 29.0099 22.5212 28.9725 22.5348 28.936C22.5619 28.9185 22.5899 28.9025 22.6188 28.888C23.0169 28.7154 23.4392 28.6048 23.8708 28.56H23.9748C24.5932 28.4908 25.1887 28.2859 25.7188 27.96C26.0433 27.757 26.3007 27.4628 26.4587 27.1141C26.6167 26.7654 26.6682 26.3778 26.6068 26C26.417 25.3883 25.9948 24.8755 25.4308 24.572L25.3988 24.548V24.492C25.4615 24.1762 25.4583 23.8508 25.3895 23.5363C25.3206 23.2217 25.1876 22.9248 24.9988 22.664L25.6508 21.824C25.8974 21.551 26.0623 21.2142 26.1268 20.852C26.1466 20.3896 25.9941 19.9364 25.6988 19.58L25.6468 19.496C26.5246 19.1688 27.4593 19.0214 28.3952 19.0626C29.3311 19.1039 30.2491 19.3329 31.0948 19.736C30.8324 20.017 30.5992 20.3239 30.3988 20.652C29.9728 21.3186 29.8155 22.122 29.9588 22.9C30.0209 23.1407 30.1052 23.375 30.2108 23.6C30.2708 23.744 30.3228 23.876 30.3628 24C30.4012 24.0876 30.4211 24.1823 30.4211 24.278C30.4211 24.3737 30.4012 24.4684 30.3628 24.556C30.2923 24.6326 30.2146 24.7023 30.1308 24.764C29.8668 24.98 29.3748 25.376 29.5268 26.012C29.594 26.2512 29.7337 26.4636 29.9268 26.62C30.2053 26.861 30.5361 27.0338 30.8929 27.1247C31.2498 27.2157 31.6229 27.2223 31.9828 27.144C32.0948 27.12 32.2028 27.088 32.2948 27.06C32.4075 27.0198 32.5242 26.9917 32.6428 26.976C32.7217 26.9819 32.7967 27.0131 32.8565 27.065C32.9163 27.1169 32.9578 27.1867 32.9748 27.264C32.9783 27.353 32.9605 27.4414 32.9229 27.5221C32.8853 27.6028 32.8291 27.6734 32.7588 27.728C32.5533 27.8898 32.3067 27.9909 32.0468 28.02C31.8979 28.0428 31.7634 28.1219 31.6711 28.241C31.5788 28.3601 31.5357 28.5101 31.5508 28.66L31.6308 29.392C31.4509 29.402 31.2707 29.402 31.0908 29.392H30.9588C30.6548 29.392 29.7308 29.328 29.2028 30C28.8388 30.464 28.8028 31.108 29.0668 31.916L29.1068 32.04C29.2434 32.3177 29.2988 32.6282 29.2668 32.936C27.8912 33.1648 26.4787 32.977 25.2106 32.3968C23.9426 31.8166 22.877 30.8705 22.1508 29.68L22.1308 29.704ZM30.4468 32.652C30.4115 32.3121 30.3308 31.9785 30.2068 31.66L30.1668 31.544C30.0348 31.144 30.0148 30.856 30.1148 30.744C30.2148 30.632 30.3468 30.556 30.8828 30.588H31.0108C31.5404 30.6686 32.082 30.5804 32.5588 30.336C32.6531 30.2783 32.729 30.1951 32.7779 30.096C32.8268 29.9969 32.8465 29.8859 32.8348 29.776L32.7628 29.08C33.0433 28.9883 33.302 28.8399 33.5228 28.644C33.7397 28.4608 33.9082 28.2271 34.0135 27.9634C34.1189 27.6997 34.1578 27.4142 34.1268 27.132C34.0695 26.7746 33.8881 26.4488 33.6146 26.2118C33.341 25.9749 32.9927 25.8418 32.6308 25.836H32.6068C32.3772 25.8473 32.1507 25.8931 31.9348 25.972C31.8508 25.996 31.7788 26.02 31.7108 26.032C31.5431 26.0665 31.3699 26.0647 31.203 26.0268C31.036 25.9889 30.8791 25.9156 30.7428 25.812L30.8628 25.708C31.0095 25.5887 31.1435 25.4547 31.2628 25.308C31.4271 25.0747 31.5319 24.8048 31.5682 24.5218C31.6044 24.2388 31.571 23.9512 31.4708 23.684C31.4193 23.5126 31.3579 23.3443 31.2868 23.18C31.2118 23.0104 31.1503 22.8352 31.1028 22.656C31.0308 22.1679 31.1389 21.6703 31.4068 21.256C31.6151 20.926 31.8578 20.6189 32.1308 20.34C33.179 21.0803 34.0036 22.0944 34.5144 23.2717C35.0252 24.4489 35.2026 25.7439 35.0271 27.0151C34.8516 28.2863 34.3301 29.4849 33.5195 30.4797C32.7089 31.4745 31.6404 32.2274 30.4308 32.656L30.4468 32.652Z" fill="#1F1F1F"/>
<path d="M20.3157 11.7208C20.3157 11.5649 20.2538 11.4153 20.1435 11.305C20.0332 11.1948 19.8837 11.1328 19.7277 11.1328H19.5157C19.3598 11.1328 19.2102 11.1948 19.1 11.305C18.9897 11.4153 18.9277 11.5649 18.9277 11.7208C18.9277 11.8768 18.9897 12.0263 19.1 12.1366C19.2102 12.2469 19.3598 12.3088 19.5157 12.3088H19.7277C19.8837 12.3088 20.0332 12.2469 20.1435 12.1366C20.2538 12.0263 20.3157 11.8768 20.3157 11.7208Z" fill="#1F1F1F"/>
<path d="M21.836 11.1328C21.6801 11.1328 21.5305 11.1948 21.4203 11.305C21.31 11.4153 21.248 11.5649 21.248 11.7208C21.248 11.8768 21.31 12.0263 21.4203 12.1366C21.5305 12.2469 21.6801 12.3088 21.836 12.3088H22.188C22.344 12.3088 22.4936 12.2469 22.6038 12.1366C22.7141 12.0263 22.776 11.8768 22.776 11.7208C22.776 11.5649 22.7141 11.4153 22.6038 11.305C22.4936 11.1948 22.344 11.1328 22.188 11.1328H21.836Z" fill="#1F1F1F"/>
<path d="M24.295 11.1328C24.1391 11.1328 23.9895 11.1948 23.8793 11.305C23.769 11.4153 23.707 11.5649 23.707 11.7208C23.707 11.8768 23.769 12.0263 23.8793 12.1366C23.9895 12.2469 24.1391 12.3088 24.295 12.3088H24.647C24.803 12.3088 24.9525 12.2469 25.0628 12.1366C25.1731 12.0263 25.235 11.8768 25.235 11.7208C25.235 11.5649 25.1731 11.4153 25.0628 11.305C24.9525 11.1948 24.803 11.1328 24.647 11.1328H24.295Z" fill="#1F1F1F"/>
<path d="M27.5558 11.7208C27.5558 11.5649 27.4939 11.4153 27.3836 11.305C27.2733 11.1948 27.1238 11.1328 26.9678 11.1328H26.7598C26.6823 11.1333 26.6056 11.1492 26.5342 11.1795C26.4628 11.2098 26.3981 11.2539 26.3438 11.3093C26.2895 11.3647 26.2467 11.4303 26.2179 11.5023C26.1891 11.5743 26.1748 11.6513 26.1758 11.7288C26.1759 11.8291 26.2022 11.9275 26.252 12.0145C26.3018 12.1015 26.3734 12.174 26.4598 12.2248C26.5257 12.3345 26.6256 12.4197 26.7444 12.4675C26.8631 12.5153 26.9942 12.523 27.1177 12.4895C27.2412 12.456 27.3505 12.3832 27.4288 12.282C27.5072 12.1808 27.5504 12.0568 27.5518 11.9288L27.5558 11.7208Z" fill="#1F1F1F"/>
<path d="M26.9664 14.1605C26.814 14.1657 26.6695 14.2299 26.5635 14.3396C26.4575 14.4493 26.3983 14.596 26.3984 14.7485V15.2005C26.3984 15.2777 26.4136 15.3542 26.4432 15.4255C26.4727 15.4969 26.5161 15.5617 26.5707 15.6163C26.6253 15.6709 26.6901 15.7142 26.7614 15.7437C26.8328 15.7733 26.9092 15.7885 26.9864 15.7885C27.0637 15.7885 27.1401 15.7733 27.2115 15.7437C27.2828 15.7142 27.3476 15.6709 27.4022 15.6163C27.4568 15.5617 27.5001 15.4969 27.5297 15.4255C27.5592 15.3542 27.5744 15.2777 27.5744 15.2005V14.7485C27.5745 14.6696 27.5586 14.5914 27.5278 14.5188C27.4971 14.4461 27.4519 14.3804 27.3952 14.3255C27.3385 14.2706 27.2713 14.2277 27.1976 14.1994C27.1239 14.171 27.0453 14.1578 26.9664 14.1605Z" fill="#1F1F1F"/>
<path d="M9.86339 20.0638C10.0193 20.0638 10.1689 20.0018 10.2792 19.8916C10.3894 19.7813 10.4514 19.6317 10.4514 19.4758V19.2638C10.4514 19.1078 10.3894 18.9583 10.2792 18.848C10.1689 18.7377 10.0193 18.6758 9.86339 18.6758C9.70744 18.6758 9.55788 18.7377 9.44761 18.848C9.33734 18.9583 9.27539 19.1078 9.27539 19.2638V19.4758C9.27539 19.6317 9.33734 19.7813 9.44761 19.8916C9.55788 20.0018 9.70744 20.0638 9.86339 20.0638Z" fill="#1F1F1F"/>
<path d="M9.27539 22.0752C9.27539 22.2312 9.33734 22.3807 9.44761 22.491C9.55788 22.6013 9.70744 22.6632 9.86339 22.6632C10.0193 22.6632 10.1689 22.6013 10.2792 22.491C10.3894 22.3807 10.4514 22.2312 10.4514 22.0752V21.7032C10.4514 21.5473 10.3894 21.3977 10.2792 21.2875C10.1689 21.1772 10.0193 21.1152 9.86339 21.1152C9.70744 21.1152 9.55788 21.1772 9.44761 21.2875C9.33734 21.3977 9.27539 21.5473 9.27539 21.7032V22.0752Z" fill="#1F1F1F"/>
<path d="M9.27539 24.6768C9.27539 24.8327 9.33734 24.9823 9.44761 25.0926C9.55788 25.2028 9.70744 25.2648 9.86339 25.2648C10.0193 25.2648 10.1689 25.2028 10.2792 25.0926C10.3894 24.9823 10.4514 24.8327 10.4514 24.6768V24.3048C10.4514 24.1488 10.3894 23.9993 10.2792 23.889C10.1689 23.7787 10.0193 23.7168 9.86339 23.7168C9.70744 23.7168 9.55788 23.7787 9.44761 23.889C9.33734 23.9993 9.27539 24.1488 9.27539 24.3048V24.6768Z" fill="#1F1F1F"/>
<path d="M10.3713 26.6075C10.3054 26.4978 10.2055 26.4125 10.0868 26.3648C9.96804 26.317 9.83696 26.3093 9.71344 26.3427C9.58991 26.3762 9.48068 26.4491 9.40233 26.5503C9.32398 26.6515 9.28079 26.7755 9.27931 26.9035V27.1115C9.27878 27.189 9.2936 27.2659 9.32292 27.3377C9.35223 27.4095 9.39546 27.4748 9.45011 27.5298C9.50476 27.5849 9.56976 27.6285 9.64136 27.6583C9.71297 27.6881 9.78976 27.7035 9.86731 27.7035H10.0753C10.2033 27.7012 10.3271 27.6575 10.4281 27.579C10.5292 27.5005 10.6021 27.3913 10.6359 27.2679C10.6697 27.1444 10.6626 27.0133 10.6156 26.8943C10.5686 26.7752 10.4843 26.6746 10.3753 26.6075H10.3713Z" fill="#1F1F1F"/>
<path d="M15.3393 26.5234H14.9633C14.8042 26.5234 14.6515 26.5867 14.539 26.6992C14.4265 26.8117 14.3633 26.9643 14.3633 27.1234C14.3633 27.2826 14.4265 27.4352 14.539 27.5477C14.6515 27.6602 14.8042 27.7234 14.9633 27.7234H15.3393C15.4984 27.7234 15.651 27.6602 15.7635 27.5477C15.8761 27.4352 15.9393 27.2826 15.9393 27.1234C15.9393 26.9643 15.8761 26.8117 15.7635 26.6992C15.651 26.5867 15.4984 26.5234 15.3393 26.5234Z" fill="#1F1F1F"/>
<path d="M17.972 26.5234H17.6C17.4409 26.5234 17.2883 26.5867 17.1757 26.6992C17.0632 26.8117 17 26.9643 17 27.1234C17 27.2826 17.0632 27.4352 17.1757 27.5477C17.2883 27.6602 17.4409 27.7234 17.6 27.7234H17.976C18.1351 27.7234 18.2877 27.6602 18.4003 27.5477C18.5128 27.4352 18.576 27.2826 18.576 27.1234C18.576 26.9643 18.5128 26.8117 18.4003 26.6992C18.2877 26.5867 18.1351 26.5234 17.976 26.5234H17.972Z" fill="#1F1F1F"/>
<path d="M12.7065 26.5234H12.3305C12.1713 26.5234 12.0187 26.5867 11.9062 26.6992C11.7937 26.8117 11.7305 26.9643 11.7305 27.1234C11.7305 27.2826 11.7937 27.4352 11.9062 27.5477C12.0187 27.6602 12.1713 27.7234 12.3305 27.7234H12.7065C12.8656 27.7234 13.0182 27.6602 13.1307 27.5477C13.2433 27.4352 13.3065 27.2826 13.3065 27.1234C13.3065 26.9643 13.2433 26.8117 13.1307 26.6992C13.0182 26.5867 12.8656 26.5234 12.7065 26.5234Z" fill="#1F1F1F"/>
<path d="M17.1992 8.15195C17.1992 7.51543 16.9464 6.90498 16.4963 6.4549C16.0462 6.00481 15.4357 5.75195 14.7992 5.75195H6.09922C5.4627 5.75195 4.85225 6.00481 4.40216 6.4549C3.95208 6.90498 3.69922 7.51543 3.69922 8.15195V13.388C3.69922 14.0245 3.95208 14.6349 4.40216 15.085C4.85225 15.5351 5.4627 15.788 6.09922 15.788H7.86322L6.96722 17.268C6.91196 17.357 6.88165 17.4592 6.87949 17.5639C6.87732 17.6687 6.90337 17.7721 6.95491 17.8633C7.00645 17.9545 7.08158 18.0302 7.17242 18.0824C7.26325 18.1346 7.36646 18.1614 7.47122 18.16H13.5992C13.6768 18.1605 13.7537 18.1457 13.8255 18.1163C13.8973 18.087 13.9626 18.0438 14.0176 17.9892C14.0726 17.9345 14.1163 17.8695 14.1461 17.7979C14.1759 17.7263 14.1912 17.6495 14.1912 17.572C14.1896 17.4742 14.1649 17.3783 14.1192 17.292L13.3192 15.788H14.7992C15.4357 15.788 16.0462 15.5351 16.4963 15.085C16.9464 14.6349 17.1992 14.0245 17.1992 13.388V8.15195ZM6.11922 6.95195H14.7992C15.1175 6.95195 15.4227 7.07838 15.6477 7.30343C15.8728 7.52847 15.9992 7.83369 15.9992 8.15195V12.8H4.88722V8.15195C4.88508 7.99201 4.91494 7.83325 4.97504 7.68502C5.03514 7.53678 5.12427 7.40206 5.23719 7.28876C5.35011 7.17547 5.48454 7.0859 5.63257 7.02531C5.78061 6.96472 5.93927 6.93434 6.09922 6.93595L6.11922 6.95195ZM12.6112 16.992H8.51522L9.24322 15.792H11.9392L12.6112 16.992ZM14.7992 14.604H6.09922C5.88227 14.6049 5.66912 14.547 5.48247 14.4364C5.29581 14.3258 5.14263 14.1667 5.03922 13.976H15.8392C15.7369 14.163 15.5866 14.3193 15.4039 14.429C15.2211 14.5387 15.0124 14.5977 14.7992 14.6V14.604Z" fill="#1F1F1F"/>
</svg>
