<svg width="24" height="24" viewBox="0 0 24 24" fill="none" xmlns="http://www.w3.org/2000/svg">
<path fill-rule="evenodd" clip-rule="evenodd" d="M2.66745 12.0008C2.66745 6.84612 6.84612 2.66745 12.0008 2.66745C17.1554 2.66745 21.3341 6.84612 21.3341 12.0008C21.3341 17.1554 17.1554 21.3341 12.0008 21.3341C6.84612 21.3341 2.66745 17.1554 2.66745 12.0008ZM12.0008 0.800781C5.81519 0.800781 0.800781 5.81519 0.800781 12.0008C0.800781 18.1864 5.81519 23.2008 12.0008 23.2008C18.1864 23.2008 23.2008 18.1864 23.2008 12.0008C23.2008 5.81519 18.1864 0.800781 12.0008 0.800781ZM12.0008 6.08967C12.5162 6.08967 12.9341 6.50754 12.9341 7.023V7.64523C12.9341 8.16069 12.5162 8.57856 12.0008 8.57856C11.4853 8.57856 11.0674 8.16069 11.0674 7.64523V7.023C11.0674 6.50754 11.4853 6.08967 12.0008 6.08967ZM12.0008 9.823C12.5162 9.823 12.9341 10.2409 12.9341 10.7563V16.9786C12.9341 17.494 12.5162 17.9119 12.0008 17.9119C11.4853 17.9119 11.0674 17.494 11.0674 16.9786V10.7563C11.0674 10.2409 11.4853 9.823 12.0008 9.823Z" fill="#076FF2"/>
</svg>
