<svg width="40" height="40" viewBox="0 0 40 40" fill="none" xmlns="http://www.w3.org/2000/svg">
<path d="M12.3008 8.60078L19.1008 4.80078L26.1008 8.60078C26.1008 8.60078 23.7245 9.64038 23.9685 9.91638C23.9685 10.4008 23.9008 13.8008 23.9008 13.8008C23.9008 13.8008 18.1125 15.3168 14.4005 13.6008V9.63238L12.3008 8.60078Z" fill="#076FF2"/>
<path d="M27.1838 13.1802C27.8797 13.1802 28.4438 12.616 28.4438 11.9202C28.4438 11.2243 27.8797 10.6602 27.1838 10.6602C26.4879 10.6602 25.9238 11.2243 25.9238 11.9202C25.9238 12.616 26.4879 13.1802 27.1838 13.1802Z" fill="#076FF2"/>
<path d="M5.48828 28.2563C5.72076 28.5786 6.03223 28.8356 6.39273 29.0026C6.75324 29.1697 7.15067 29.2412 7.5468 29.2102C7.94293 29.1793 8.32444 29.047 8.65465 28.826C8.98485 28.605 9.25265 28.3028 9.43228 27.9483C10.2763 26.3083 11.6323 24.6323 13.7803 23.9083C18.5803 22.3083 23.7243 24.4963 23.7243 24.4963L26.4883 24.4483L31.1523 20.8483V19.8083L29.2323 18.8883L27.6323 19.8083V18.6683L25.9203 17.6523L21.9203 21.8123L12.2363 22.3763L5.48828 28.2563Z" fill="#076FF2"/>
<path d="M23.7881 24.3355C23.6385 24.3355 23.4951 24.2761 23.3893 24.1703C23.2835 24.0645 23.2241 23.9211 23.2241 23.7715C23.2254 23.6961 23.242 23.6218 23.273 23.553C23.3039 23.4842 23.3485 23.4225 23.4041 23.3715L27.0881 19.9795C27.1765 19.9039 27.2488 19.8113 27.3006 19.7072C27.3524 19.603 27.3826 19.4895 27.3894 19.3734C27.3963 19.2573 27.3796 19.141 27.3404 19.0315C27.3013 18.922 27.2404 18.8215 27.1614 18.7361C27.0825 18.6507 26.9871 18.5821 26.881 18.5344C26.7749 18.4867 26.6603 18.461 26.544 18.4587C26.4277 18.4564 26.3121 18.4776 26.2043 18.521C26.0964 18.5645 25.9983 18.6293 25.9161 18.7115L21.7321 22.5395C21.6221 22.6409 21.4767 22.6952 21.3272 22.6907C21.1776 22.6862 21.0358 22.6233 20.9321 22.5155C20.8809 22.4615 20.8409 22.3979 20.8144 22.3284C20.7879 22.2589 20.7754 22.1849 20.7776 22.1105C20.7798 22.0361 20.7967 21.963 20.8274 21.8952C20.858 21.8274 20.9018 21.7663 20.9561 21.7155L25.1401 17.8675C25.534 17.5414 26.0379 17.3787 26.5482 17.4126C27.0584 17.4466 27.5363 17.6747 27.8835 18.0501C28.2308 18.4256 28.421 18.9197 28.4152 19.4311C28.4093 19.9424 28.2078 20.4321 27.8521 20.7995L24.1721 24.1915C24.0661 24.285 23.9294 24.3362 23.7881 24.3355Z" fill="#1F1F1F"/>
<path d="M26.9964 25.2588C26.8468 25.2588 26.7033 25.1994 26.5976 25.0937C26.4918 24.9879 26.4324 24.8444 26.4324 24.6948C26.4319 24.6162 26.4476 24.5384 26.4786 24.4661C26.5096 24.3938 26.5551 24.3287 26.6124 24.2748L30.1844 20.9868C30.3525 20.832 30.4522 20.6166 30.4616 20.3882C30.471 20.1598 30.3892 19.937 30.2344 19.7688C30.0795 19.6007 29.8641 19.501 29.6357 19.4916C29.4073 19.4822 29.1845 19.564 29.0164 19.7188L23.9644 24.3668C23.9097 24.417 23.8458 24.4559 23.7761 24.4814C23.7064 24.5068 23.6324 24.5183 23.5583 24.5151C23.4842 24.512 23.4115 24.4942 23.3442 24.463C23.277 24.4317 23.2165 24.3875 23.1664 24.3328C23.1162 24.2782 23.0773 24.2142 23.0518 24.1446C23.0264 24.0749 23.0149 24.0009 23.0181 23.9268C23.0212 23.8527 23.039 23.78 23.0702 23.7127C23.1015 23.6454 23.1457 23.585 23.2004 23.5348L28.2484 18.8868C28.6436 18.568 29.1453 18.4114 29.6517 18.4488C30.1581 18.4862 30.6314 18.7149 30.9754 19.0885C31.3194 19.462 31.5085 19.9524 31.5042 20.4602C31.4999 20.968 31.3026 21.4552 30.9524 21.8228L27.3804 25.1108C27.2756 25.2068 27.1384 25.2596 26.9964 25.2588Z" fill="#1F1F1F"/>
<path d="M10.5795 37.2759C10.5042 37.2775 10.4294 37.2641 10.3593 37.2365C10.2893 37.2089 10.2254 37.1677 10.1715 37.1152C10.1175 37.0627 10.0745 37 10.045 36.9308C10.0155 36.8616 9.99998 36.7871 9.99947 36.7119C9.99825 36.6376 10.0122 36.5638 10.0404 36.495C10.0685 36.4262 10.1104 36.3639 10.1635 36.3119L13.6795 32.7679C16.6995 29.7279 19.7515 29.3159 23.6155 28.7959L24.3115 28.7039C25.5395 28.5399 26.6873 28.0023 27.5995 27.1639L33.1995 21.9999C33.2779 21.9296 33.3417 21.8445 33.3872 21.7495C33.4327 21.6545 33.459 21.5515 33.4646 21.4463C33.4701 21.3411 33.4549 21.2359 33.4197 21.1366C33.3845 21.0374 33.33 20.946 33.2595 20.8679L33.2315 20.8359C33.0612 20.6709 32.8354 20.5758 32.5985 20.5691C32.3615 20.5624 32.1307 20.6448 31.9515 20.7999L27.0875 25.2759C26.988 25.3675 26.8587 25.4201 26.7235 25.4239L23.4235 25.5279C23.3491 25.5305 23.2749 25.5184 23.2052 25.4923C23.1355 25.4661 23.0716 25.4265 23.0173 25.3755C22.963 25.3246 22.9194 25.2634 22.8888 25.1955C22.8583 25.1276 22.8415 25.0543 22.8395 24.9799C22.8346 24.8902 22.8525 24.8007 22.8915 24.7199C23.0505 24.3751 23.0662 23.9812 22.9349 23.6249C22.8036 23.2686 22.5362 22.979 22.1915 22.8199C22.0061 22.7334 21.804 22.6883 21.5995 22.6879H13.2715C11.6715 22.6879 9.95147 24.5679 8.42747 26.2239C7.76591 26.9861 7.04788 27.6975 6.27947 28.3519C6.16089 28.4203 6.02147 28.4432 5.88722 28.4164C5.75297 28.3897 5.63304 28.3149 5.54981 28.2063C5.46657 28.0976 5.42571 27.9623 5.43485 27.8257C5.44399 27.6891 5.5025 27.5605 5.59947 27.4639C6.3144 26.8473 6.98288 26.1788 7.59947 25.4639C9.28747 23.6359 11.1995 21.5599 13.2755 21.5599H21.5995C22.2788 21.5609 22.9299 21.8315 23.4099 22.3123C23.8899 22.793 24.1595 23.4445 24.1595 24.1239C24.1595 24.2039 24.1595 24.2919 24.1595 24.3759L26.4955 24.3039L31.1995 19.9599C31.5893 19.6044 32.0999 19.4107 32.6274 19.4182C33.1549 19.4256 33.6598 19.6336 34.0395 19.9999L34.1155 20.0799C34.2891 20.2667 34.424 20.4861 34.5123 20.7254C34.6005 20.9648 34.6404 21.2192 34.6296 21.4741C34.6188 21.7289 34.5576 21.9791 34.4494 22.2101C34.3412 22.4411 34.1883 22.6484 33.9995 22.8199L28.3595 27.9999C27.2818 28.9914 25.9264 29.6294 24.4755 29.8279L23.7795 29.9199C19.9995 30.4239 17.2475 30.7999 14.4955 33.5639L10.9795 37.1079C10.9273 37.1611 10.8651 37.2033 10.7964 37.2322C10.7277 37.261 10.654 37.2759 10.5795 37.2759Z" fill="#1F1F1F"/>
<path d="M16.5635 26.2083C16.4861 26.2173 16.4077 26.2103 16.3331 26.1877C16.2584 26.1651 16.1893 26.1274 16.1299 26.0769C16.0705 26.0265 16.0221 25.9643 15.9878 25.8943C15.9534 25.8243 15.9339 25.748 15.9303 25.6702C15.9267 25.5923 15.9392 25.5145 15.967 25.4417C15.9948 25.3688 16.0372 25.3025 16.0918 25.2468C16.1463 25.1911 16.2117 25.1472 16.2839 25.1179C16.3561 25.0885 16.4336 25.0744 16.5115 25.0763L23.3475 24.4003C23.4242 24.3875 23.5027 24.3907 23.5781 24.4095C23.6536 24.4283 23.7243 24.4624 23.786 24.5096C23.8477 24.5569 23.8991 24.6163 23.9369 24.6842C23.9747 24.7522 23.9982 24.8271 24.0059 24.9045C24.0136 24.9818 24.0053 25.0599 23.9816 25.1339C23.9578 25.208 23.9192 25.2763 23.868 25.3348C23.8167 25.3933 23.7541 25.4406 23.6838 25.4739C23.6136 25.5072 23.5372 25.5257 23.4595 25.5283L16.6235 26.2083H16.5635Z" fill="#1F1F1F"/>
<path d="M19.0799 13.0635C18.9807 13.0638 18.883 13.0391 18.7959 12.9915L10.8239 8.39949C10.7556 8.3627 10.6956 8.31222 10.6477 8.2512C10.5998 8.19018 10.565 8.11993 10.5455 8.04484C10.526 7.96976 10.5221 7.89145 10.5343 7.81482C10.5464 7.73819 10.5742 7.66489 10.6159 7.59949C10.6673 7.51533 10.7388 7.44524 10.8239 7.39549L18.7999 2.79949C18.8865 2.75041 18.9844 2.72461 19.0839 2.72461C19.1835 2.72461 19.2813 2.75041 19.3679 2.79949L27.3359 7.40749C27.4001 7.44473 27.4562 7.49425 27.5012 7.55322C27.5462 7.6122 27.5791 7.67946 27.5981 7.75117C27.617 7.82288 27.6216 7.89763 27.6117 7.97112C27.6017 8.04462 27.5773 8.11543 27.5399 8.17949C27.4911 8.26426 27.4207 8.33462 27.3359 8.38349L19.3639 12.9915C19.2768 13.0391 19.1791 13.0638 19.0799 13.0635ZM12.2359 7.89549L19.0799 11.8435L25.9199 7.89549L19.0799 3.94349L12.2359 7.89549Z" fill="#1F1F1F"/>
<path d="M19.1269 16.504C17.7882 16.5048 16.4594 16.2747 15.1989 15.824L14.1749 15.456C14.0649 15.4171 13.9696 15.345 13.9023 15.2497C13.835 15.1545 13.7988 15.0406 13.7989 14.924V9.76797C13.7923 9.68964 13.802 9.6108 13.8275 9.53643C13.8529 9.46206 13.8935 9.39378 13.9467 9.33591C13.9999 9.27805 14.0646 9.23186 14.1365 9.20026C14.2085 9.16866 14.2863 9.15234 14.3649 9.15234C14.4435 9.15234 14.5212 9.16866 14.5932 9.20026C14.6652 9.23186 14.7298 9.27805 14.783 9.33591C14.8362 9.39378 14.8768 9.46206 14.9023 9.53643C14.9277 9.6108 14.9375 9.68964 14.9309 9.76797V14.524L15.5829 14.756C17.852 15.5714 20.3317 15.5869 22.6109 14.8L23.3669 14.536V9.69597C23.3788 9.55407 23.4436 9.42183 23.5484 9.32546C23.6533 9.22908 23.7905 9.17559 23.9329 9.17559C24.0753 9.17559 24.2125 9.22908 24.3173 9.32546C24.4221 9.42183 24.4869 9.55407 24.4989 9.69597V14.924C24.4973 15.0436 24.4576 15.1596 24.3857 15.2553C24.3138 15.3509 24.2134 15.4212 24.0989 15.456L22.9629 15.856C21.7292 16.2841 20.4327 16.5031 19.1269 16.504Z" fill="#1F1F1F"/>
<path d="M27.0523 11.9274C26.9779 11.9274 26.9042 11.9127 26.8355 11.8841C26.7668 11.8555 26.7045 11.8136 26.6521 11.7608C26.5996 11.708 26.5582 11.6453 26.5301 11.5764C26.502 11.5075 26.4878 11.4338 26.4883 11.3594V7.89538C26.5002 7.75348 26.565 7.62124 26.6699 7.52486C26.7747 7.42849 26.9119 7.375 27.0543 7.375C27.1967 7.375 27.3339 7.42849 27.4387 7.52486C27.5436 7.62124 27.6084 7.75348 27.6203 7.89538V11.3594C27.6203 11.434 27.6056 11.5078 27.5771 11.5767C27.5485 11.6457 27.5067 11.7083 27.4539 11.761C27.4012 11.8138 27.3386 11.8556 27.2697 11.8841C27.2007 11.9127 27.1269 11.9274 27.0523 11.9274Z" fill="#1F1F1F"/>
</svg>
