<svg width="40" height="40" viewBox="0 0 40 40" fill="none" xmlns="http://www.w3.org/2000/svg">
<path d="M16.2188 29.0418L26.4108 31.7178L24.0428 28.1738H16.6708L16.2188 29.0418Z" fill="#076FF2"/>
<path d="M15.4355 28.1729L12.5235 32.9729C12.4515 33.0928 12.43 33.2364 12.4638 33.3721C12.4975 33.5079 12.5838 33.6247 12.7035 33.6969C12.7852 33.7474 12.8795 33.7738 12.9755 33.7729H27.4155C27.5549 33.7729 27.6886 33.7178 27.7875 33.6197C27.8864 33.5215 27.9425 33.3882 27.9435 33.2489C27.9448 33.1595 27.9227 33.0712 27.8795 32.9929L25.2475 28.1729H30.2635C31.5366 28.1729 32.7575 27.6672 33.6577 26.767C34.5578 25.8668 35.0636 24.6459 35.0636 23.3729V11.0129C35.0636 9.73985 34.5578 8.51895 33.6577 7.61878C32.7575 6.7186 31.5366 6.21289 30.2635 6.21289H9.73555C8.46251 6.21289 7.24161 6.7186 6.34143 7.61878C5.44126 8.51895 4.93555 9.73985 4.93555 11.0129V23.3849C4.93555 24.6579 5.44126 25.8788 6.34143 26.779C7.24161 27.6792 8.46251 28.1849 9.73555 28.1849L15.4355 28.1729ZM26.5275 32.7209H13.9155L16.6715 28.1729H24.0435L26.5275 32.7209ZM9.72755 7.27689H30.2635C31.2541 7.27795 32.2037 7.6719 32.9041 8.37231C33.6045 9.07272 33.9985 10.0224 33.9995 11.0129V22.8569H5.99955V11.0129C5.99955 10.022 6.39316 9.07178 7.0938 8.37114C7.79443 7.6705 8.7447 7.27689 9.73555 7.27689H9.72755ZM6.03955 23.9129H33.9595C33.83 24.801 33.3853 25.6129 32.7068 26.2004C32.0282 26.7879 31.1611 27.1117 30.2635 27.1129H9.73555C8.83826 27.1109 7.97152 26.7867 7.29316 26.1994C6.61479 25.6121 6.16992 24.8007 6.03955 23.9129Z" fill="#1F1F1F"/>
<path d="M13.0201 20.3018C13.1601 20.3018 13.2944 20.2462 13.3934 20.1471C13.4925 20.0481 13.5481 19.9138 13.5481 19.7738V17.5178H19.4521V19.6938C19.4521 19.8338 19.5077 19.9681 19.6067 20.0671C19.7058 20.1662 19.8401 20.2218 19.9801 20.2218C20.1201 20.2218 20.2544 20.1662 20.3534 20.0671C20.4525 19.9681 20.5081 19.8338 20.5081 19.6938V17.5178H25.9241V19.7738C25.9241 19.9138 25.9797 20.0481 26.0787 20.1471C26.1778 20.2462 26.3121 20.3018 26.4521 20.3018C26.5921 20.3018 26.7264 20.2462 26.8254 20.1471C26.9245 20.0481 26.9801 19.9138 26.9801 19.7738V16.9738C26.9801 16.8338 26.9245 16.6995 26.8254 16.6004C26.7264 16.5014 26.5921 16.4458 26.4521 16.4458H20.5081V14.9778H22.5641C23.1758 14.9527 23.7541 14.692 24.1781 14.2503C24.602 13.8085 24.8387 13.22 24.8387 12.6078C24.8387 11.9956 24.602 11.407 24.1781 10.9653C23.7541 10.5236 23.1758 10.2629 22.5641 10.2378H22.1401C22.0899 9.61342 21.8065 9.03084 21.3462 8.60602C20.8859 8.1812 20.2825 7.94531 19.6561 7.94531C19.0297 7.94531 18.4263 8.1812 17.966 8.60602C17.5057 9.03084 17.2222 9.61342 17.1721 10.2378C16.5651 10.2866 16.0001 10.567 15.5941 11.0209C15.1881 11.4749 14.9723 12.0676 14.9913 12.6763C15.0103 13.2849 15.2627 13.863 15.6963 14.2907C16.1298 14.7184 16.7112 14.963 17.3201 14.9738H19.4561V16.4578H13.0241C12.8841 16.4578 12.7498 16.5134 12.6507 16.6124C12.5517 16.7115 12.4961 16.8458 12.4961 16.9858V19.7858C12.4982 19.9234 12.5543 20.0546 12.6524 20.1512C12.7504 20.2477 12.8825 20.3018 13.0201 20.3018ZM16.0001 12.6098C16.0011 12.2618 16.1396 11.9283 16.3853 11.6818C16.631 11.4354 16.9641 11.2959 17.3121 11.2938H17.6841C17.8238 11.2927 17.9575 11.2368 18.0563 11.138C18.1551 11.0392 18.211 10.9055 18.2121 10.7658V10.4418C18.2121 10.0609 18.3634 9.69569 18.6327 9.42639C18.902 9.15709 19.2672 9.00579 19.6481 9.00579C20.0289 9.00579 20.3942 9.15709 20.6635 9.42639C20.9328 9.69569 21.0841 10.0609 21.0841 10.4418V10.7658C21.0841 10.9038 21.138 11.0363 21.2345 11.135C21.3309 11.2336 21.4621 11.2907 21.6001 11.2938H22.5481C22.8961 11.2959 23.2292 11.4354 23.4749 11.6818C23.7206 11.9283 23.859 12.2618 23.8601 12.6098C23.859 12.9574 23.7205 13.2905 23.4747 13.5364C23.2288 13.7822 22.8957 13.9207 22.5481 13.9218H17.3241C17.1508 13.9234 16.9789 13.8906 16.8183 13.8254C16.6578 13.7602 16.5117 13.6638 16.3886 13.5418C16.2655 13.4198 16.1678 13.2746 16.1011 13.1147C16.0344 12.9547 16.0001 12.7831 16.0001 12.6098Z" fill="#1F1F1F"/>
<path d="M11.8874 21.7162H13.9994C14.1394 21.7162 14.2737 21.6605 14.3727 21.5615C14.4717 21.4625 14.5274 21.3282 14.5274 21.1882C14.5274 21.0481 14.4717 20.9138 14.3727 20.8148C14.2737 20.7158 14.1394 20.6602 13.9994 20.6602H11.8874C11.7473 20.6602 11.613 20.7158 11.514 20.8148C11.415 20.9138 11.3594 21.0481 11.3594 21.1882C11.3594 21.3282 11.415 21.4625 11.514 21.5615C11.613 21.6605 11.7473 21.7162 11.8874 21.7162Z" fill="#1F1F1F"/>
<path d="M21.0192 20.6602H18.8952C18.7552 20.6602 18.6209 20.7158 18.5218 20.8148C18.4228 20.9138 18.3672 21.0481 18.3672 21.1882C18.3672 21.3282 18.4228 21.4625 18.5218 21.5615C18.6209 21.6605 18.7552 21.7162 18.8952 21.7162H21.0192C21.1592 21.7162 21.2935 21.6605 21.3925 21.5615C21.4916 21.4625 21.5472 21.3282 21.5472 21.1882C21.5472 21.0481 21.4916 20.9138 21.3925 20.8148C21.2935 20.7158 21.1592 20.6602 21.0192 20.6602Z" fill="#1F1F1F"/>
<path d="M25.1191 21.2018C25.1191 21.3419 25.1748 21.4762 25.2738 21.5752C25.3728 21.6742 25.5071 21.7298 25.6471 21.7298H27.7711C27.9112 21.7298 28.0455 21.6742 28.1445 21.5752C28.2435 21.4762 28.2991 21.3419 28.2991 21.2018C28.2991 21.0618 28.2435 20.9275 28.1445 20.8285C28.0455 20.7295 27.9112 20.6738 27.7711 20.6738H25.6471C25.5071 20.6738 25.3728 20.7295 25.2738 20.8285C25.1748 20.9275 25.1191 21.0618 25.1191 21.2018Z" fill="#1F1F1F"/>
</svg>
