<svg width="40" height="40" viewBox="0 0 40 40" fill="none" xmlns="http://www.w3.org/2000/svg">
<path d="M11.4205 5.38839C11.4205 5.38839 7.22448 5.82039 7.22448 9.29239V30.9804C7.22448 30.9804 7.08048 34.0204 12.5765 34.7404C12.5765 34.7404 5.77648 35.8964 5.05648 32.5724C4.33648 29.2484 5.49248 7.26839 5.49248 7.26839C5.49248 7.26839 7.22848 3.79639 11.4205 5.38839Z" fill="#076FF2"/>
<path d="M31.4244 6.6875H29.4004V21.6275H31.4244V6.6875Z" fill="#076FF2"/>
<path d="M20.3885 9.14844H17.0605V17.5364H20.3885V9.14844Z" fill="#076FF2"/>
<path d="M25.736 10.5918H24V30.1118H25.736V10.5918Z" fill="#076FF2"/>
<path d="M27.9043 22.4531H25.7363V30.1171H27.9043V22.4531Z" fill="#076FF2"/>
<path d="M20.7004 8.29297H8.16836C8.00923 8.29297 7.85662 8.35618 7.7441 8.4687C7.63157 8.58123 7.56836 8.73384 7.56836 8.89297V17.957C7.56942 18.1154 7.6331 18.267 7.7455 18.3787C7.85791 18.4903 8.00992 18.553 8.16836 18.553H20.7004C20.8588 18.553 21.0108 18.4903 21.1232 18.3787C21.2356 18.267 21.2993 18.1154 21.3004 17.957V8.89297C21.3004 8.73384 21.2371 8.58123 21.1246 8.4687C21.0121 8.35618 20.8595 8.29297 20.7004 8.29297ZM20.1004 17.357H8.76436V9.49297H20.1004V17.357Z" fill="#1F1F1F"/>
<path d="M9.32461 21.2527H12.8006C12.9597 21.2527 13.1124 21.1895 13.2249 21.077C13.3374 20.9645 13.4006 20.8119 13.4006 20.6527C13.4006 20.4936 13.3374 20.341 13.2249 20.2285C13.1124 20.1159 12.9597 20.0527 12.8006 20.0527H9.32461C9.16548 20.0527 9.01287 20.1159 8.90035 20.2285C8.78782 20.341 8.72461 20.4936 8.72461 20.6527C8.72461 20.8119 8.78782 20.9645 8.90035 21.077C9.01287 21.1895 9.16548 21.2527 9.32461 21.2527Z" fill="#1F1F1F"/>
<path d="M19.2516 21.2527C19.4107 21.2527 19.5633 21.1895 19.6759 21.077C19.7884 20.9645 19.8516 20.8119 19.8516 20.6527C19.8516 20.4936 19.7884 20.341 19.6759 20.2285C19.5633 20.1159 19.4107 20.0527 19.2516 20.0527H15.7836C15.6245 20.0527 15.4719 20.1159 15.3593 20.2285C15.2468 20.341 15.1836 20.4936 15.1836 20.6527C15.1836 20.8119 15.2468 20.9645 15.3593 21.077C15.4719 21.1895 15.6245 21.2527 15.7836 21.2527H19.2516Z" fill="#1F1F1F"/>
<path d="M19.9764 22.4844H8.74444C8.58637 22.4844 8.43477 22.5472 8.323 22.6589C8.21123 22.7707 8.14844 22.9223 8.14844 23.0804V31.8524C8.14843 32.0108 8.2111 32.1628 8.32276 32.2752C8.43441 32.3876 8.586 32.4513 8.74444 32.4524H19.9764C20.1356 32.4524 20.2882 32.3892 20.4007 32.2766C20.5132 32.1641 20.5764 32.0115 20.5764 31.8524V23.0804C20.5754 22.9219 20.5117 22.7704 20.3993 22.6587C20.2869 22.547 20.1349 22.4844 19.9764 22.4844ZM13.2604 28.1924V26.6404H15.7404V28.1924H13.2604ZM15.7404 29.3924V31.2564H13.2604V29.3924H15.7404ZM9.34044 26.6404H12.0564V28.1924H9.33644L9.34044 26.6404ZM13.2524 25.4404V23.6804H15.7364V25.4404H13.2524ZM16.9324 26.6404H19.3724V28.1924H16.9324V26.6404ZM19.3724 25.4404H16.9324V23.6804H19.3684L19.3724 25.4404ZM12.0524 23.6804V25.4404H9.34444V23.6804H12.0524ZM9.34444 29.3924H12.0604V31.2564H9.34444V29.3924ZM16.9444 31.2564V29.3924H19.3804V31.2524L16.9444 31.2564Z" fill="#1F1F1F"/>
<path d="M33.5997 5.69214H26.5917C26.1362 5.69214 25.6993 5.8728 25.3769 6.1945C25.0544 6.5162 24.8727 6.95266 24.8717 7.40814V9.74014H23.9997V8.68014C23.9986 7.50327 23.5304 6.37497 22.6978 5.54317C21.8653 4.71138 20.7366 4.24414 19.5597 4.24414H9.11169C7.93588 4.2452 6.80859 4.71303 5.97755 5.54483C5.1465 6.37662 4.67969 7.50433 4.67969 8.68014V31.3201C4.68075 32.4963 5.14845 33.624 5.98013 34.4557C6.81181 35.2874 7.93951 35.7551 9.11569 35.7561H19.5597C20.7366 35.7561 21.8653 35.2889 22.6978 34.4571C23.5304 33.6253 23.9986 32.497 23.9997 31.3201V30.7001H27.6397C27.7988 30.7001 27.9514 30.6369 28.064 30.5244C28.1765 30.4119 28.2397 30.2593 28.2397 30.1001V22.5801H33.5997C34.0545 22.578 34.4899 22.3959 34.8107 22.0735C35.1316 21.7512 35.3117 21.3149 35.3117 20.8601V7.40814C35.3117 6.95372 35.1314 6.51786 34.8105 6.19616C34.4896 5.87446 34.0541 5.6932 33.5997 5.69214ZM22.7997 31.3201C22.7986 32.1788 22.4568 33.0018 21.8493 33.6086C21.2418 34.2153 20.4183 34.5561 19.5597 34.5561H9.11169C8.2541 34.554 7.43223 34.2124 6.82582 33.606C6.21941 32.9996 5.8778 32.1777 5.87569 31.3201V8.68014C5.8778 7.82255 6.21941 7.00069 6.82582 6.39428C7.43223 5.78787 8.2541 5.44625 9.11169 5.44414H19.5597C20.4183 5.44414 21.2418 5.78495 21.8493 6.3917C22.4568 6.99845 22.7986 7.82153 22.7997 8.68014V31.3201ZM34.1237 20.8601C34.1237 20.9981 34.0689 21.1303 33.9714 21.2278C33.8739 21.3254 33.7416 21.3801 33.6037 21.3801H32.4317V6.88814H33.5997C33.7376 6.88814 33.8699 6.94293 33.9674 7.04045C34.0649 7.13796 34.1197 7.27023 34.1197 7.40814L34.1237 20.8601ZM26.5917 21.3801C26.4538 21.3801 26.3215 21.3254 26.224 21.2278C26.1265 21.1303 26.0717 20.9981 26.0717 20.8601V7.40814C26.0717 7.27023 26.1265 7.13796 26.224 7.04045C26.3215 6.94293 26.4538 6.88814 26.5917 6.88814H31.2357V21.3801H26.5917ZM27.0397 29.5001H24.1077V10.9361H24.8797V15.4041C24.8481 15.4788 24.8318 15.5591 24.8317 15.6401V27.4001C24.8317 27.5593 24.8949 27.7119 25.0074 27.8244C25.1199 27.9369 25.2726 28.0001 25.4317 28.0001C25.5908 28.0001 25.7434 27.9369 25.856 27.8244C25.9685 27.7119 26.0317 27.5593 26.0317 27.4001V22.4841C26.2143 22.5477 26.4063 22.5801 26.5997 22.5801H27.0517L27.0397 29.5001Z" fill="#1F1F1F"/>
</svg>
