<svg width="40" height="40" viewBox="0 0 40 40" fill="none" xmlns="http://www.w3.org/2000/svg">
<path d="M16.2679 24.6997L15.9199 18.3997L21.9679 18.3477C21.9679 18.3477 22.2639 23.8077 16.2679 24.6997Z" fill="#076FF2"/>
<path d="M21.4707 27.6243V23.5083L24.4427 20.7363L26.0787 20.7843L23.4507 23.7563V27.9203L21.4707 27.6243Z" fill="#076FF2"/>
<path d="M33.4633 5.42383H6.11133V8.39583H33.4633V5.42383Z" fill="#076FF2"/>
<path d="M5.88358 28.3155H22.6636V34.4435C22.6636 34.5243 22.6795 34.6045 22.7105 34.6792C22.7414 34.7539 22.7868 34.8218 22.844 34.879C22.9012 34.9362 22.9691 34.9816 23.0438 35.0126C23.1186 35.0435 23.1987 35.0595 23.2796 35.0595H34.1156C34.1965 35.0595 34.2766 35.0435 34.3513 35.0126C34.4261 34.9816 34.494 34.9362 34.5512 34.879C34.6084 34.8218 34.6537 34.7539 34.6847 34.6792C34.7156 34.6045 34.7316 34.5243 34.7316 34.4435V21.2835C34.7319 21.1431 34.684 21.0069 34.5959 20.8977C34.5078 20.7884 34.3848 20.7128 34.2476 20.6835V5.55545C34.2476 5.39208 34.1827 5.2354 34.0672 5.11988C33.9516 5.00435 33.795 4.93945 33.6316 4.93945H5.88358C5.7202 4.93945 5.56352 5.00435 5.448 5.11988C5.33248 5.2354 5.26758 5.39208 5.26758 5.55545V27.6995C5.26758 27.8628 5.33248 28.0195 5.448 28.135C5.56352 28.2506 5.7202 28.3155 5.88358 28.3155ZM6.49958 27.0835V9.04745H33.0156V20.6675H25.8396C25.6929 20.6679 25.5512 20.7204 25.4396 20.8155L24.8996 21.2835C24.8204 21.2674 24.7388 21.2674 24.6596 21.2835C24.6197 21.2912 24.5808 21.3033 24.5436 21.3195C24.5053 21.3333 24.469 21.3521 24.4356 21.3755C24.3694 21.4203 24.3124 21.4773 24.2676 21.5435C24.2443 21.5768 24.2254 21.6132 24.2116 21.6515C24.196 21.6875 24.1839 21.725 24.1756 21.7635C24.1716 21.8047 24.1716 21.8462 24.1756 21.8875V21.9315L22.9036 23.0275C22.8364 23.0854 22.7827 23.1573 22.7461 23.2381C22.7095 23.3189 22.6909 23.4067 22.6916 23.4955V27.0955L6.49958 27.0835ZM23.8956 23.7715L26.0716 21.8995H33.4996V33.8275H23.8996L23.8956 23.7715ZM33.0156 6.17145V7.81145H6.63958V6.17145H33.0156Z" fill="#1F1F1F"/>
<path d="M15.6955 10.9844C13.771 10.9844 11.9254 11.7488 10.5647 13.1096C9.20392 14.4704 8.43945 16.316 8.43945 18.2404C8.43945 20.1648 9.20392 22.0104 10.5647 23.3711C11.9254 24.7319 13.771 25.4964 15.6955 25.4964C15.9355 25.4964 16.1755 25.4844 16.4155 25.4604C16.6384 25.4404 16.86 25.4084 17.0795 25.3644C18.8518 25.0216 20.4327 24.0306 21.5135 22.5847C22.5943 21.1389 23.0973 19.3421 22.9244 17.5452C22.7514 15.7484 21.9149 14.0805 20.5782 12.8674C19.2415 11.6542 17.5006 10.9828 15.6955 10.9844ZM9.67145 18.2404C9.70468 16.7193 10.3123 15.2671 11.3721 14.1755C12.432 13.0839 13.8657 12.4338 15.3852 12.3558C16.9047 12.2778 18.3974 12.7777 19.5635 13.755C20.7296 14.7323 21.4826 16.1147 21.6715 17.6244H15.6715C15.5084 17.6244 15.3519 17.6886 15.2359 17.8031C15.1198 17.9177 15.0536 18.0733 15.0515 18.2364C15.0493 18.2577 15.0493 18.2791 15.0515 18.3004L15.6475 24.2644C14.0588 24.2496 12.5401 23.6087 11.4212 22.4808C10.3022 21.3529 9.67349 19.8291 9.67145 18.2404ZM21.6715 19.0844C21.6715 19.1724 21.6435 19.2564 21.6315 19.3444C21.6296 19.3657 21.6296 19.3871 21.6315 19.4084C21.6315 19.4724 21.6075 19.5364 21.5915 19.5964C21.5755 19.6564 21.5915 19.6604 21.5675 19.6844C21.5435 19.7084 21.5435 19.7924 21.5275 19.8484C21.5115 19.9044 21.5275 19.9124 21.4995 19.9444L21.4515 20.0964C21.4515 20.1324 21.4315 20.1644 21.4195 20.1964C21.4075 20.2284 21.3835 20.2964 21.3635 20.3484C21.3435 20.4004 21.3435 20.4084 21.3315 20.4364L21.2595 20.6044L21.2315 20.6764C21.1955 20.7564 21.1595 20.8324 21.1195 20.9084L21.0955 20.9524C21.0667 21.0166 21.0346 21.0794 20.9995 21.1404L20.9555 21.2204C20.9275 21.2684 20.8995 21.3164 20.8675 21.3644L20.8115 21.4524L20.7235 21.5884L20.6635 21.6764L20.5715 21.8084L20.5115 21.8884C20.4755 21.9364 20.4355 21.9804 20.3995 22.0244L20.3475 22.0924C20.2915 22.1604 20.2315 22.2284 20.1715 22.2924L19.9915 22.4804L19.9275 22.5404L19.7995 22.6644L19.7275 22.7284L19.6035 22.8364L19.5275 22.9004L19.3995 23.0004L19.3235 23.0604L19.1835 23.1644L19.1115 23.2124C19.0475 23.2564 18.9835 23.3004 18.9195 23.3364H18.8955C18.8235 23.3844 18.7475 23.4244 18.6715 23.4684L18.6195 23.5044L18.4515 23.5924L18.3715 23.6324L18.2195 23.7044L18.1315 23.7444L17.9755 23.8084L17.8875 23.8404L17.7195 23.9044L17.6435 23.9284L17.3995 24.0004H17.3715L17.1155 24.0684H17.0675L16.8995 24.1084L16.3715 18.8524H21.6835C21.6835 18.9084 21.6835 18.9684 21.6635 19.0284C21.6654 19.0483 21.6654 19.0684 21.6635 19.0884L21.6715 19.0844Z" fill="#1F1F1F"/>
<path d="M23.323 11.9195H29.963C30.1264 11.9195 30.2831 11.8546 30.3986 11.7391C30.5141 11.6236 30.579 11.4669 30.579 11.3035C30.579 11.1401 30.5141 10.9834 30.3986 10.8679C30.2831 10.7524 30.1264 10.6875 29.963 10.6875H23.323C23.1597 10.6875 23.003 10.7524 22.8875 10.8679C22.7719 10.9834 22.707 11.1401 22.707 11.3035C22.707 11.4669 22.7719 11.6236 22.8875 11.7391C23.003 11.8546 23.1597 11.9195 23.323 11.9195Z" fill="#1F1F1F"/>
<path d="M29.7913 15.0234H26.6473C26.4839 15.0234 26.3272 15.0883 26.2117 15.2039C26.0962 15.3194 26.0312 15.4761 26.0312 15.6394C26.0312 15.8028 26.0962 15.9595 26.2117 16.075C26.3272 16.1905 26.4839 16.2554 26.6473 16.2554H29.7913C29.9546 16.2554 30.1113 16.1905 30.2268 16.075C30.3424 15.9595 30.4072 15.8028 30.4072 15.6394C30.4072 15.4761 30.3424 15.3194 30.2268 15.2039C30.1113 15.0883 29.9546 15.0234 29.7913 15.0234Z" fill="#1F1F1F"/>
<path d="M25.3308 15.4027C25.3308 15.3667 25.2948 15.3307 25.2748 15.2947C25.2518 15.2609 25.2264 15.2288 25.1988 15.1987C25.0827 15.0839 24.9261 15.0195 24.7628 15.0195C24.5995 15.0195 24.4429 15.0839 24.3268 15.1987C24.2982 15.2265 24.2727 15.2574 24.2508 15.2907C24.2275 15.3241 24.2087 15.3604 24.1948 15.3987C24.1786 15.436 24.1666 15.4749 24.1588 15.5147C24.1386 15.6141 24.1433 15.7169 24.1726 15.8139C24.202 15.911 24.2549 15.9992 24.3268 16.0707C24.3556 16.0982 24.3864 16.1236 24.4188 16.1467C24.4872 16.19 24.5632 16.2198 24.6428 16.2347C24.803 16.2665 24.9692 16.2334 25.105 16.1426C25.2408 16.0519 25.3349 15.9109 25.3668 15.7507C25.3829 15.6715 25.3829 15.5899 25.3668 15.5107C25.3588 15.4735 25.3467 15.4373 25.3308 15.4027Z" fill="#1F1F1F"/>
<path d="M29.7913 17.1035H26.6473C26.4839 17.1035 26.3272 17.1684 26.2117 17.2839C26.0962 17.3995 26.0312 17.5561 26.0312 17.7195C26.0312 17.8829 26.0962 18.0396 26.2117 18.1551C26.3272 18.2706 26.4839 18.3355 26.6473 18.3355H29.7913C29.9546 18.3355 30.1113 18.2706 30.2268 18.1551C30.3424 18.0396 30.4072 17.8829 30.4072 17.7195C30.4072 17.5561 30.3424 17.3995 30.2268 17.2839C30.1113 17.1684 29.9546 17.1035 29.7913 17.1035Z" fill="#1F1F1F"/>
<path d="M25.3324 17.4836C25.3161 17.4476 25.2974 17.4129 25.2764 17.3796C25.2543 17.3451 25.2288 17.313 25.2004 17.2836C25.1702 17.2561 25.1381 17.2307 25.1044 17.2076L25.0004 17.1516C24.963 17.1359 24.9241 17.1239 24.8844 17.1156C24.8052 17.0995 24.7236 17.0995 24.6444 17.1156C24.5654 17.1323 24.4897 17.162 24.4204 17.2036C24.388 17.2267 24.3572 17.2521 24.3284 17.2796C24.2997 17.3087 24.2742 17.3409 24.2524 17.3756C24.2284 17.4071 24.2095 17.4422 24.1964 17.4796C24.1808 17.517 24.1687 17.5558 24.1604 17.5956C24.1444 17.6761 24.1444 17.759 24.1604 17.8396C24.1688 17.878 24.1808 17.9155 24.1964 17.9516C24.2086 17.9906 24.2275 18.0271 24.2524 18.0596C24.2972 18.1257 24.3542 18.1828 24.4204 18.2276C24.488 18.2724 24.5643 18.3024 24.6444 18.3156C24.7232 18.3355 24.8056 18.3355 24.8844 18.3156C24.924 18.3086 24.9628 18.2979 25.0004 18.2836L25.1044 18.2276C25.1722 18.1836 25.2318 18.1281 25.2804 18.0636C25.3229 17.9962 25.3528 17.9216 25.3684 17.8436C25.3844 17.763 25.3844 17.6801 25.3684 17.5996C25.3601 17.5598 25.348 17.521 25.3324 17.4836Z" fill="#1F1F1F"/>
<path d="M29.792 19.1993H26.648C26.5632 19.1924 26.4779 19.2032 26.3975 19.231C26.3171 19.2587 26.2433 19.3028 26.1807 19.3605C26.1182 19.4182 26.0683 19.4882 26.0342 19.5661C26 19.644 25.9824 19.7282 25.9824 19.8133C25.9824 19.8983 26 19.9825 26.0342 20.0604C26.0683 20.1383 26.1182 20.2084 26.1807 20.266C26.2433 20.3237 26.3171 20.3678 26.3975 20.3956C26.4779 20.4233 26.5632 20.4341 26.648 20.4273H29.792C29.8768 20.4341 29.9621 20.4233 30.0425 20.3956C30.123 20.3678 30.1968 20.3237 30.2593 20.266C30.3218 20.2084 30.3717 20.1383 30.4059 20.0604C30.44 19.9825 30.4576 19.8983 30.4576 19.8133C30.4576 19.7282 30.44 19.644 30.4059 19.5661C30.3717 19.4882 30.3218 19.4182 30.2593 19.3605C30.1968 19.3028 30.123 19.2587 30.0425 19.231C29.9621 19.2032 29.8768 19.1924 29.792 19.1993Z" fill="#1F1F1F"/>
<path d="M25.1034 19.2875C25.0686 19.2665 25.0326 19.2478 24.9954 19.2315C24.958 19.2167 24.9191 19.2059 24.8794 19.1995C24.8002 19.1835 24.7186 19.1835 24.6394 19.1995C24.5607 19.2134 24.4859 19.2434 24.4194 19.2875C24.3855 19.3104 24.3534 19.3358 24.3234 19.3635C24.2959 19.3924 24.2705 19.4231 24.2474 19.4555C24.2048 19.5229 24.175 19.5974 24.1594 19.6755C24.1552 19.7168 24.1552 19.7583 24.1594 19.7995C24.1554 19.8394 24.1554 19.8796 24.1594 19.9195C24.1677 19.9593 24.1797 19.9981 24.1954 20.0355C24.2116 20.0714 24.2303 20.1062 24.2514 20.1395C24.2745 20.1732 24.2999 20.2053 24.3274 20.2355C24.3568 20.264 24.3889 20.2894 24.4234 20.3115C24.4901 20.356 24.5648 20.3872 24.6434 20.4035C24.773 20.4295 24.9076 20.413 25.0272 20.3565C25.1468 20.3 25.2451 20.2066 25.3074 20.0899C25.3698 19.9733 25.3929 19.8397 25.3735 19.7089C25.354 19.5781 25.293 19.457 25.1994 19.3635C25.1691 19.336 25.1371 19.3106 25.1034 19.2875Z" fill="#1F1F1F"/>
<path d="M26.5515 24.9722H30.9235C31.0869 24.9722 31.2436 24.9073 31.3591 24.7918C31.4746 24.6763 31.5395 24.5196 31.5395 24.3562C31.5395 24.1929 31.4746 24.0362 31.3591 23.9207C31.2436 23.8051 31.0869 23.7402 30.9235 23.7402H26.5515C26.3882 23.7402 26.2315 23.8051 26.116 23.9207C26.0004 24.0362 25.9355 24.1929 25.9355 24.3562C25.9355 24.5196 26.0004 24.6763 26.116 24.7918C26.2315 24.9073 26.3882 24.9722 26.5515 24.9722Z" fill="#1F1F1F"/>
<path d="M30.9235 27.1988C31.0869 27.1988 31.2436 27.1339 31.3591 27.0184C31.4746 26.9029 31.5395 26.7462 31.5395 26.5828C31.5395 26.4194 31.4746 26.2627 31.3591 26.1472C31.2436 26.0317 31.0869 25.9668 30.9235 25.9668H26.5515C26.3882 25.9668 26.2315 26.0317 26.116 26.1472C26.0004 26.2627 25.9355 26.4194 25.9355 26.5828C25.9355 26.7462 26.0004 26.9029 26.116 27.0184C26.2315 27.1339 26.3882 27.1988 26.5515 27.1988H30.9235Z" fill="#1F1F1F"/>
<path d="M30.9235 28.2324H26.5515C26.3882 28.2324 26.2315 28.2973 26.116 28.4128C26.0004 28.5284 25.9355 28.685 25.9355 28.8484C25.9355 29.0118 26.0004 29.1685 26.116 29.284C26.2315 29.3995 26.3882 29.4644 26.5515 29.4644H30.9235C31.0869 29.4644 31.2436 29.3995 31.3591 29.284C31.4746 29.1685 31.5395 29.0118 31.5395 28.8484C31.5395 28.685 31.4746 28.5284 31.3591 28.4128C31.2436 28.2973 31.0869 28.2324 30.9235 28.2324Z" fill="#1F1F1F"/>
<path d="M30.9235 30.4785H26.5515C26.3882 30.4785 26.2315 30.5434 26.116 30.6589C26.0004 30.7745 25.9355 30.9311 25.9355 31.0945C25.9355 31.2579 26.0004 31.4146 26.116 31.5301C26.2315 31.6456 26.3882 31.7105 26.5515 31.7105H30.9235C31.0869 31.7105 31.2436 31.6456 31.3591 31.5301C31.4746 31.4146 31.5395 31.2579 31.5395 31.0945C31.5395 30.9311 31.4746 30.7745 31.3591 30.6589C31.2436 30.5434 31.0869 30.4785 30.9235 30.4785Z" fill="#1F1F1F"/>
</svg>
