<svg width="40" height="40" viewBox="0 0 40 40" fill="none" xmlns="http://www.w3.org/2000/svg">
<path d="M18.6647 4.96341V8.62341C18.6671 8.97997 18.5503 9.32712 18.3329 9.60974C18.1155 9.89237 17.81 10.0943 17.4647 10.1834C15.9972 10.5801 14.6033 11.2108 13.3367 12.0514C13.031 12.2651 12.6602 12.3653 12.2884 12.3346C11.9166 12.304 11.5673 12.1444 11.3007 11.8834L8.2207 8.90341L9.7047 7.48741L11.7567 10.1234L16.4007 8.02741L16.7727 4.69141L18.6647 4.96341Z" fill="#076FF2"/>
<path d="M18.9202 26.4679C17.9651 26.4684 17.022 26.2553 16.1601 25.8439C15.2981 25.4326 14.5391 24.8336 13.9388 24.0908C13.3384 23.348 12.9119 22.4802 12.6906 21.5512C12.4692 20.6221 12.4586 19.6553 12.6595 18.7216C12.8604 17.7879 13.2678 16.911 13.8517 16.1552C14.4356 15.3994 15.1812 14.7838 16.0339 14.3537C16.8867 13.9235 17.8249 13.6897 18.7797 13.6693C19.7346 13.6489 20.6819 13.8425 21.5522 14.2359C20.5478 13.4309 19.3459 12.91 18.0718 12.7272C16.7976 12.5445 15.4978 12.7067 14.3076 13.1969C13.1174 13.6871 12.0804 14.4874 11.3046 15.5144C10.5287 16.5415 10.0424 17.7578 9.89619 19.0366C9.75001 20.3155 9.94934 21.6101 10.4734 22.7858C10.9975 23.9614 11.8272 24.9751 12.876 25.7212C13.9249 26.4674 15.1546 26.9187 16.4371 27.0282C17.7196 27.1377 19.008 26.9014 20.1682 26.3439C19.7571 26.4251 19.3392 26.4666 18.9202 26.4679Z" fill="#076FF2"/>
<path d="M20.8839 35.648H16.4479C16.2983 35.648 16.1548 35.5886 16.0491 35.4828C15.9433 35.3771 15.8839 35.2336 15.8839 35.084V31.36C14.6611 31.0676 13.493 30.5815 12.4239 29.92L9.78386 32.56C9.73144 32.6128 9.66912 32.6546 9.60047 32.6832C9.53182 32.7117 9.45821 32.7264 9.38386 32.7264C9.30951 32.7264 9.23589 32.7117 9.16725 32.6832C9.0986 32.6546 9.03627 32.6128 8.98386 32.56L5.84386 29.42C5.79113 29.3676 5.74928 29.3053 5.72073 29.2366C5.69217 29.168 5.67747 29.0944 5.67747 29.02C5.67747 28.9457 5.69217 28.8721 5.72073 28.8034C5.74928 28.7348 5.79113 28.6724 5.84386 28.62L8.48386 25.98C7.82075 24.9117 7.33449 23.7434 7.04386 22.52H3.32386C3.17459 22.52 3.03132 22.4613 2.92502 22.3565C2.81873 22.2517 2.75796 22.1093 2.75586 21.96V17.524C2.75692 17.3741 2.81722 17.2306 2.92363 17.125C3.03004 17.0193 3.17391 16.96 3.32386 16.96H7.04786C7.34028 15.7373 7.82642 14.5692 8.48786 13.5L5.84786 10.86C5.79513 10.8076 5.75328 10.7453 5.72473 10.6766C5.69617 10.608 5.68147 10.5344 5.68147 10.46C5.68147 10.3857 5.69617 10.3121 5.72473 10.2434C5.75328 10.1748 5.79513 10.1124 5.84786 10.06L8.98386 6.92003C9.09024 6.81451 9.23402 6.7553 9.38386 6.7553C9.5337 6.7553 9.67747 6.81451 9.78386 6.92003L12.4239 9.55603C13.4941 8.89751 14.6619 8.41283 15.8839 8.12003V4.40003C15.8839 4.25008 15.9431 4.10621 16.0488 3.9998C16.1545 3.8934 16.2979 3.83309 16.4479 3.83203H20.8839C21.0338 3.83309 21.1773 3.8934 21.2829 3.9998C21.3886 4.10621 21.4479 4.25008 21.4479 4.40003V8.12403C22.6709 8.41752 23.8399 8.90214 24.9119 9.56003L27.5479 6.92403C27.6003 6.8713 27.6626 6.82945 27.7312 6.8009C27.7999 6.77234 27.8735 6.75764 27.9479 6.75764C28.0222 6.75764 28.0958 6.77234 28.1645 6.8009C28.2331 6.82945 28.2954 6.8713 28.3479 6.92403L31.4879 10.064C31.5406 10.1164 31.5824 10.1788 31.611 10.2474C31.6395 10.3161 31.6542 10.3897 31.6542 10.464C31.6542 10.5384 31.6395 10.612 31.611 10.6806C31.5824 10.7493 31.5406 10.8116 31.4879 10.864L28.8519 13.504C29.512 14.5734 29.9968 15.7415 30.2879 16.964H33.9999C34.1498 16.964 34.2937 17.0233 34.4001 17.129C34.5065 17.2346 34.5668 17.3781 34.5679 17.528V21.432C34.5559 21.5739 34.4911 21.7062 34.3863 21.8025C34.2815 21.8989 34.1443 21.9524 34.0019 21.9524C33.8595 21.9524 33.7223 21.8989 33.6174 21.8025C33.5126 21.7062 33.4478 21.5739 33.4359 21.432V18.088H29.8359C29.705 18.0871 29.5784 18.0413 29.4772 17.9583C29.3761 17.8753 29.3064 17.7602 29.2799 17.632C29.0108 16.2399 28.4669 14.9154 27.6799 13.736C27.6061 13.6274 27.5725 13.4965 27.5849 13.3658C27.5973 13.2351 27.655 13.1128 27.7479 13.02L30.3079 10.46L27.9439 8.12003L25.3879 10.684C25.2947 10.7762 25.1725 10.8334 25.042 10.8458C24.9115 10.8582 24.7807 10.8251 24.6719 10.752C23.493 9.95983 22.1688 9.40921 20.7759 9.13203C20.6474 9.10774 20.5314 9.03925 20.4481 8.93843C20.3648 8.8376 20.3195 8.71081 20.3199 8.58003V4.98003H17.0119V8.58003C17.0115 8.7106 16.9658 8.837 16.8827 8.93767C16.7995 9.03833 16.684 9.10703 16.5559 9.13203C15.1629 9.40921 13.8387 9.95983 12.6599 10.752C12.551 10.8251 12.4202 10.8582 12.2897 10.8458C12.1592 10.8334 12.037 10.7762 11.9439 10.684L9.38386 8.12403L7.04386 10.464L9.59986 13.02C9.69269 13.1127 9.75059 13.2347 9.76371 13.3652C9.77683 13.4957 9.74438 13.6267 9.67186 13.736C8.87889 14.9159 8.32823 16.2416 8.05186 17.636C8.02675 17.7638 7.9579 17.8788 7.85716 17.9613C7.75641 18.0438 7.63007 18.0886 7.49986 18.088H3.89986V21.396H7.49986C7.63064 21.3956 7.75743 21.441 7.85825 21.5243C7.95908 21.6076 8.02757 21.7235 8.05186 21.852C8.32862 23.2458 8.88073 24.5703 9.67586 25.748C9.74758 25.8572 9.7792 25.9878 9.76534 26.1176C9.75148 26.2475 9.69299 26.3685 9.59986 26.46L7.03586 29.024L9.37186 31.36L11.9479 28.8C12.0404 28.7081 12.1619 28.6511 12.2917 28.6387C12.4215 28.6263 12.5516 28.6593 12.6599 28.732C13.8402 29.5172 15.1644 30.061 16.5559 30.332C16.6844 30.3563 16.8003 30.4248 16.8836 30.5256C16.9669 30.6265 17.0123 30.7533 17.0119 30.884V34.484H20.3199V31.684C20.3199 31.5344 20.3793 31.391 20.4851 31.2852C20.5908 31.1795 20.7343 31.12 20.8839 31.12C21.0334 31.12 21.1769 31.1795 21.2827 31.2852C21.3884 31.391 21.4479 31.5344 21.4479 31.684V35.04C21.4479 35.1896 21.3884 35.3331 21.2827 35.4388C21.1769 35.5446 21.0334 35.604 20.8839 35.604V35.648ZM18.6639 26.636C17.3 26.636 15.9667 26.2316 14.8326 25.4738C13.6986 24.7161 12.8147 23.6391 12.2928 22.379C11.7708 21.1189 11.6343 19.7324 11.9004 18.3947C12.1664 17.057 12.8232 15.8282 13.7877 14.8638C14.7521 13.8994 15.9808 13.2426 17.3185 12.9765C18.6562 12.7105 20.0428 12.847 21.3028 13.369C22.5629 13.8909 23.6399 14.7748 24.3977 15.9088C25.1554 17.0429 25.5599 18.3761 25.5599 19.74C25.5665 19.8184 25.5567 19.8972 25.5313 19.9716C25.5058 20.0459 25.4652 20.1142 25.412 20.1721C25.3588 20.23 25.2942 20.2761 25.2222 20.3077C25.1502 20.3393 25.0725 20.3557 24.9939 20.3557C24.9153 20.3557 24.8375 20.3393 24.7655 20.3077C24.6936 20.2761 24.6289 20.23 24.5757 20.1721C24.5225 20.1142 24.4819 20.0459 24.4565 19.9716C24.431 19.8972 24.4213 19.8184 24.4279 19.74C24.4263 18.6016 24.0871 17.4892 23.4534 16.5435C22.8196 15.5978 21.9196 14.8613 20.8672 14.4271C19.8148 13.9929 18.6573 13.8806 17.5411 14.1042C16.4248 14.3279 15.4 14.8775 14.5961 15.6836C13.7922 16.4897 13.2455 17.5161 13.0249 18.6329C12.8044 19.7498 12.92 20.907 13.3571 21.9581C13.7942 23.0093 14.5332 23.9073 15.4807 24.5384C16.4281 25.1696 17.5414 25.5056 18.6799 25.504C19.0667 25.5035 19.4526 25.4646 19.8319 25.388C19.9777 25.3541 20.1311 25.3795 20.2583 25.4586C20.3854 25.5378 20.4759 25.6642 20.5099 25.81C20.5438 25.9559 20.5184 26.1093 20.4393 26.2364C20.3601 26.3636 20.2337 26.4541 20.0879 26.488H20.0559C19.5976 26.5807 19.1314 26.6276 18.6639 26.628V26.636Z" fill="#1F1F1F"/>
<path d="M27.1191 36.1643C27.0967 36.1683 27.0736 36.1683 27.0511 36.1643C25.1562 35.9319 23.3878 35.0909 22.0116 33.7677C20.6354 32.4445 19.7257 30.7105 19.4191 28.8261C19.1126 26.9417 19.4257 25.0088 20.3115 23.3176C21.1973 21.6264 22.608 20.2682 24.3315 19.4472C26.0551 18.6261 27.9985 18.3865 29.8699 18.7642C31.7413 19.142 33.4396 20.1168 34.7097 21.5422C35.9798 22.9675 36.7531 24.7665 36.9135 26.6689C37.0739 28.5713 36.6127 30.4744 35.5991 32.0923C35.5597 32.155 35.5084 32.2094 35.448 32.2524C35.3875 32.2953 35.3193 32.3259 35.247 32.3424C35.1748 32.3589 35.1 32.3611 35.0269 32.3487C34.9538 32.3363 34.8839 32.3097 34.8211 32.2703C34.7584 32.2309 34.704 32.1795 34.6611 32.1191C34.6181 32.0587 34.5875 31.9904 34.571 31.9181C34.5545 31.8459 34.5523 31.7711 34.5647 31.698C34.5771 31.625 34.6037 31.555 34.6431 31.4923C35.5314 30.0795 35.9369 28.4165 35.7987 26.7535C35.6604 25.0904 34.9859 23.5172 33.8766 22.2705C32.7673 21.0238 31.2832 20.171 29.6475 19.8404C28.0117 19.5097 26.3129 19.7192 24.8065 20.4372C23.3 21.1552 22.0675 22.3429 21.2942 23.8217C20.5209 25.3006 20.2487 26.9905 20.5185 28.6373C20.7883 30.2841 21.5856 31.7988 22.7904 32.9536C23.9952 34.1083 25.5423 34.8406 27.1991 35.0403C27.3416 35.0573 27.4723 35.128 27.5645 35.2381C27.6566 35.3481 27.7034 35.4891 27.6952 35.6323C27.6871 35.7756 27.6246 35.9104 27.5205 36.0092C27.4165 36.1081 27.2787 36.1635 27.1351 36.1643H27.1191Z" fill="#1F1F1F"/>
<path d="M27.8364 30.3994H24.3124C24.2029 30.3976 24.0963 30.364 24.0056 30.3026C23.915 30.2413 23.8441 30.1549 23.8017 30.0539C23.7593 29.953 23.7471 29.8419 23.7668 29.7342C23.7865 29.6265 23.837 29.5268 23.9124 29.4474L24.0684 29.2834C24.7765 28.5654 25.5849 27.9537 26.4684 27.4674C26.634 27.3773 26.7733 27.2455 26.8724 27.0851C26.9715 26.9247 27.0271 26.7412 27.0336 26.5527C27.0401 26.3643 26.9974 26.1774 26.9096 26.0105C26.8218 25.8436 26.692 25.7025 26.533 25.6012C26.374 25.4998 26.1913 25.4417 26.0029 25.4325C25.8146 25.4234 25.6271 25.4635 25.459 25.5489C25.2909 25.6344 25.148 25.7622 25.0444 25.9198C24.9409 26.0773 24.8802 26.2592 24.8684 26.4474V26.5234C24.8564 26.6653 24.7916 26.7975 24.6868 26.8939C24.582 26.9903 24.4448 27.0438 24.3024 27.0438C24.16 27.0438 24.0228 26.9903 23.9179 26.8939C23.8131 26.7975 23.7483 26.6653 23.7364 26.5234C23.734 26.156 23.8231 25.7937 23.9958 25.4694C24.1685 25.145 24.4192 24.8688 24.7254 24.6657C25.0316 24.4625 25.3836 24.3388 25.7495 24.3058C26.1155 24.2728 26.4839 24.3315 26.8215 24.4765C27.1591 24.6216 27.4553 24.8484 27.6832 25.1366C27.9112 25.4248 28.0637 25.7653 28.1271 26.1272C28.1906 26.4891 28.1628 26.8612 28.0464 27.2097C27.93 27.5582 27.7286 27.8722 27.4604 28.1234C27.3401 28.2419 27.2057 28.3454 27.0604 28.4314C26.6259 28.6784 26.2089 28.9551 25.8124 29.2594H27.8924C27.9664 29.2594 28.0398 29.274 28.1082 29.3023C28.1766 29.3307 28.2388 29.3722 28.2912 29.4246C28.3436 29.477 28.3851 29.5391 28.4134 29.6076C28.4418 29.676 28.4564 29.7493 28.4564 29.8234C28.4564 29.8975 28.4418 29.9708 28.4134 30.0392C28.3851 30.1077 28.3436 30.1698 28.2912 30.2222C28.2388 30.2746 28.1766 30.3161 28.1082 30.3445C28.0398 30.3728 27.9664 30.3874 27.8924 30.3874L27.8364 30.3994Z" fill="#076FF2"/>
<path d="M31.3648 30.4363C31.2152 30.4363 31.0717 30.3769 30.966 30.2711C30.8602 30.1653 30.8008 30.0219 30.8008 29.8723V24.8843C30.8008 24.7347 30.8602 24.5913 30.966 24.4855C31.0717 24.3797 31.2152 24.3203 31.3648 24.3203C31.5144 24.3203 31.6578 24.3797 31.7636 24.4855C31.8694 24.5913 31.9288 24.7347 31.9288 24.8843V29.8723C31.9288 30.0219 31.8694 30.1653 31.7636 30.2711C31.6578 30.3769 31.5144 30.4363 31.3648 30.4363Z" fill="#076FF2"/>
<path d="M32.2202 29.1152H28.2522C28.1438 29.116 28.0375 29.0857 27.946 29.0277C27.8544 28.9698 27.7815 28.8867 27.7359 28.7884C27.6903 28.69 27.674 28.5807 27.689 28.4734C27.7039 28.366 27.7495 28.2653 27.8202 28.1832L30.9322 24.5152C31.0329 24.4139 31.1681 24.3543 31.3107 24.3482C31.4534 24.3421 31.5932 24.39 31.7021 24.4823C31.8111 24.5746 31.8813 24.7046 31.8987 24.8463C31.9162 24.9881 31.8796 25.1312 31.7962 25.2472L29.4722 27.9992H32.2202C32.3621 28.0111 32.4943 28.0759 32.5907 28.1807C32.6871 28.2856 32.7406 28.4228 32.7406 28.5652C32.7406 28.7076 32.6871 28.8448 32.5907 28.9496C32.4943 29.0544 32.3621 29.1192 32.2202 29.1312V29.1152Z" fill="#076FF2"/>
<path d="M34.3515 33.4639C34.2215 33.4637 34.0956 33.4186 33.995 33.3362C33.8944 33.2539 33.8254 33.1393 33.7995 33.0119L33.3195 30.6439C33.3038 30.5714 33.3024 30.4965 33.3156 30.4235C33.3288 30.3505 33.3562 30.2808 33.3964 30.2184C33.4365 30.156 33.4885 30.1021 33.5494 30.0598C33.6104 30.0175 33.679 29.9876 33.7515 29.9719C33.824 29.9561 33.8989 29.9548 33.9719 29.968C34.0449 29.9812 34.1146 30.0086 34.177 30.0487C34.2394 30.0888 34.2933 30.1408 34.3356 30.2018C34.3779 30.2627 34.4078 30.3314 34.4235 30.4039L34.7995 32.2439L36.5915 31.9159C36.6646 31.9022 36.7395 31.9031 36.8122 31.9184C36.8849 31.9337 36.9539 31.9632 37.0151 32.0052C37.0764 32.0472 37.1289 32.1008 37.1694 32.163C37.21 32.2253 37.2379 32.2949 37.2515 32.3679C37.2652 32.4409 37.2643 32.5159 37.249 32.5886C37.2337 32.6612 37.2042 32.7302 37.1622 32.7915C37.1203 32.8528 37.0666 32.9052 37.0044 32.9458C36.9422 32.9863 36.8725 33.0142 36.7995 33.0279L34.4635 33.4559L34.3515 33.4639Z" fill="#1F1F1F"/>
</svg>
