<svg width="20" height="21" viewBox="0 0 20 21" fill="none" xmlns="http://www.w3.org/2000/svg">
<mask id="mask0_2603_21833" style="mask-type:alpha" maskUnits="userSpaceOnUse" x="0" y="0" width="20" height="21">
<rect y="0.328125" width="20" height="20" fill="#D9D9D9"/>
</mask>
<g mask="url(#mask0_2603_21833)">
<path d="M0.833374 17.8281V16.1615H19.1667V17.8281H0.833374ZM3.33337 15.3281C2.87504 15.3281 2.48268 15.1649 2.15629 14.8385C1.8299 14.5122 1.66671 14.1198 1.66671 13.6615V4.49479C1.66671 4.03646 1.8299 3.6441 2.15629 3.31771C2.48268 2.99132 2.87504 2.82812 3.33337 2.82812H16.6667C17.125 2.82812 17.5174 2.99132 17.8438 3.31771C18.1702 3.6441 18.3334 4.03646 18.3334 4.49479V13.6615C18.3334 14.1198 18.1702 14.5122 17.8438 14.8385C17.5174 15.1649 17.125 15.3281 16.6667 15.3281H3.33337ZM3.33337 13.6615H16.6667V4.49479H3.33337V13.6615Z" fill="#828282"/>
</g>
</svg>
