<svg width="18" height="17" viewBox="0 0 18 17" fill="none" xmlns="http://www.w3.org/2000/svg">
<path d="M8.99996 3.32845C8.88885 3.32845 8.79163 3.28678 8.70829 3.20345C8.62496 3.12012 8.58329 3.02289 8.58329 2.91178C8.58329 2.80067 8.62496 2.70345 8.70829 2.62012C8.79163 2.53678 8.88885 2.49512 8.99996 2.49512C9.11107 2.49512 9.20829 2.53678 9.29163 2.62012C9.37496 2.70345 9.41663 2.80067 9.41663 2.91178C9.41663 3.02289 9.37496 3.12012 9.29163 3.20345C9.20829 3.28678 9.11107 3.32845 8.99996 3.32845ZM10.6666 3.32845C10.5555 3.32845 10.4583 3.28678 10.375 3.20345C10.2916 3.12012 10.25 3.02289 10.25 2.91178C10.25 2.80067 10.2916 2.70345 10.375 2.62012C10.4583 2.53678 10.5555 2.49512 10.6666 2.49512C10.7777 2.49512 10.875 2.53678 10.9583 2.62012C11.0416 2.70345 11.0833 2.80067 11.0833 2.91178C11.0833 3.02289 11.0416 3.12012 10.9583 3.20345C10.875 3.28678 10.7777 3.32845 10.6666 3.32845ZM7.33329 3.32845C7.22218 3.32845 7.12496 3.28678 7.04163 3.20345C6.95829 3.12012 6.91663 3.02289 6.91663 2.91178C6.91663 2.80067 6.95829 2.70345 7.04163 2.62012C7.12496 2.53678 7.22218 2.49512 7.33329 2.49512C7.4444 2.49512 7.54163 2.53678 7.62496 2.62012C7.70829 2.70345 7.74996 2.80067 7.74996 2.91178C7.74996 3.02289 7.70829 3.12012 7.62496 3.20345C7.54163 3.28678 7.4444 3.32845 7.33329 3.32845ZM13.1666 4.16178C13.0555 4.16178 12.9583 4.12012 12.875 4.03678C12.7916 3.95345 12.75 3.85623 12.75 3.74512C12.75 3.63401 12.7916 3.53678 12.875 3.45345C12.9583 3.37012 13.0555 3.32845 13.1666 3.32845C13.2777 3.32845 13.375 3.37012 13.4583 3.45345C13.5416 3.53678 13.5833 3.63401 13.5833 3.74512C13.5833 3.85623 13.5416 3.95345 13.4583 4.03678C13.375 4.12012 13.2777 4.16178 13.1666 4.16178ZM6.49996 4.16178C6.38885 4.16178 6.29163 4.12012 6.20829 4.03678C6.12496 3.95345 6.08329 3.85623 6.08329 3.74512C6.08329 3.63401 6.12496 3.53678 6.20829 3.45345C6.29163 3.37012 6.38885 3.32845 6.49996 3.32845C6.61107 3.32845 6.70829 3.37012 6.79163 3.45345C6.87496 3.53678 6.91663 3.63401 6.91663 3.74512C6.91663 3.85623 6.87496 3.95345 6.79163 4.03678C6.70829 4.12012 6.61107 4.16178 6.49996 4.16178ZM4.83329 4.16178C4.72218 4.16178 4.62496 4.12012 4.54163 4.03678C4.45829 3.95345 4.41663 3.85623 4.41663 3.74512C4.41663 3.63401 4.45829 3.53678 4.54163 3.45345C4.62496 3.37012 4.72218 3.32845 4.83329 3.32845C4.9444 3.32845 5.04163 3.37012 5.12496 3.45345C5.20829 3.53678 5.24996 3.63401 5.24996 3.74512C5.24996 3.85623 5.20829 3.95345 5.12496 4.03678C5.04163 4.12012 4.9444 4.16178 4.83329 4.16178ZM8.16663 4.16178C8.05551 4.16178 7.95829 4.12012 7.87496 4.03678C7.79163 3.95345 7.74996 3.85623 7.74996 3.74512C7.74996 3.63401 7.79163 3.53678 7.87496 3.45345C7.95829 3.37012 8.05551 3.32845 8.16663 3.32845C8.27774 3.32845 8.37496 3.37012 8.45829 3.45345C8.54163 3.53678 8.58329 3.63401 8.58329 3.74512C8.58329 3.85623 8.54163 3.95345 8.45829 4.03678C8.37496 4.12012 8.27774 4.16178 8.16663 4.16178ZM9.83329 4.16178C9.72218 4.16178 9.62496 4.12012 9.54163 4.03678C9.45829 3.95345 9.41663 3.85623 9.41663 3.74512C9.41663 3.63401 9.45829 3.53678 9.54163 3.45345C9.62496 3.37012 9.72218 3.32845 9.83329 3.32845C9.9444 3.32845 10.0416 3.37012 10.125 3.45345C10.2083 3.53678 10.25 3.63401 10.25 3.74512C10.25 3.85623 10.2083 3.95345 10.125 4.03678C10.0416 4.12012 9.9444 4.16178 9.83329 4.16178ZM11.5 4.16178C11.3888 4.16178 11.2916 4.12012 11.2083 4.03678C11.125 3.95345 11.0833 3.85623 11.0833 3.74512C11.0833 3.63401 11.125 3.53678 11.2083 3.45345C11.2916 3.37012 11.3888 3.32845 11.5 3.32845C11.6111 3.32845 11.7083 3.37012 11.7916 3.45345C11.875 3.53678 11.9166 3.63401 11.9166 3.74512C11.9166 3.85623 11.875 3.95345 11.7916 4.03678C11.7083 4.12012 11.6111 4.16178 11.5 4.16178ZM8.99996 4.99512C8.88885 4.99512 8.79163 4.95345 8.70829 4.87012C8.62496 4.78678 8.58329 4.68956 8.58329 4.57845C8.58329 4.46734 8.62496 4.37012 8.70829 4.28678C8.79163 4.20345 8.88885 4.16178 8.99996 4.16178C9.11107 4.16178 9.20829 4.20345 9.29163 4.28678C9.37496 4.37012 9.41663 4.46734 9.41663 4.57845C9.41663 4.68956 9.37496 4.78678 9.29163 4.87012C9.20829 4.95345 9.11107 4.99512 8.99996 4.99512ZM10.6666 4.99512C10.5555 4.99512 10.4583 4.95345 10.375 4.87012C10.2916 4.78678 10.25 4.68956 10.25 4.57845C10.25 4.46734 10.2916 4.37012 10.375 4.28678C10.4583 4.20345 10.5555 4.16178 10.6666 4.16178C10.7777 4.16178 10.875 4.20345 10.9583 4.28678C11.0416 4.37012 11.0833 4.46734 11.0833 4.57845C11.0833 4.68956 11.0416 4.78678 10.9583 4.87012C10.875 4.95345 10.7777 4.99512 10.6666 4.99512ZM12.3333 4.99512C12.2222 4.99512 12.125 4.95345 12.0416 4.87012C11.9583 4.78678 11.9166 4.68956 11.9166 4.57845C11.9166 4.46734 11.9583 4.37012 12.0416 4.28678C12.125 4.20345 12.2222 4.16178 12.3333 4.16178C12.4444 4.16178 12.5416 4.20345 12.625 4.28678C12.7083 4.37012 12.75 4.46734 12.75 4.57845C12.75 4.68956 12.7083 4.78678 12.625 4.87012C12.5416 4.95345 12.4444 4.99512 12.3333 4.99512ZM7.33329 4.99512C7.22218 4.99512 7.12496 4.95345 7.04163 4.87012C6.95829 4.78678 6.91663 4.68956 6.91663 4.57845C6.91663 4.46734 6.95829 4.37012 7.04163 4.28678C7.12496 4.20345 7.22218 4.16178 7.33329 4.16178C7.4444 4.16178 7.54163 4.20345 7.62496 4.28678C7.70829 4.37012 7.74996 4.46734 7.74996 4.57845C7.74996 4.68956 7.70829 4.78678 7.62496 4.87012C7.54163 4.95345 7.4444 4.99512 7.33329 4.99512ZM5.66663 4.99512C5.55551 4.99512 5.45829 4.95345 5.37496 4.87012C5.29163 4.78678 5.24996 4.68956 5.24996 4.57845C5.24996 4.46734 5.29163 4.37012 5.37496 4.28678C5.45829 4.20345 5.55551 4.16178 5.66663 4.16178C5.77774 4.16178 5.87496 4.20345 5.95829 4.28678C6.04163 4.37012 6.08329 4.46734 6.08329 4.57845C6.08329 4.68956 6.04163 4.78678 5.95829 4.87012C5.87496 4.95345 5.77774 4.99512 5.66663 4.99512ZM6.49996 5.82845C6.38885 5.82845 6.29163 5.78678 6.20829 5.70345C6.12496 5.62012 6.08329 5.52289 6.08329 5.41178C6.08329 5.30067 6.12496 5.20345 6.20829 5.12012C6.29163 5.03678 6.38885 4.99512 6.49996 4.99512C6.61107 4.99512 6.70829 5.03678 6.79163 5.12012C6.87496 5.20345 6.91663 5.30067 6.91663 5.41178C6.91663 5.52289 6.87496 5.62012 6.79163 5.70345C6.70829 5.78678 6.61107 5.82845 6.49996 5.82845ZM4.83329 5.82845C4.72218 5.82845 4.62496 5.78678 4.54163 5.70345C4.45829 5.62012 4.41663 5.52289 4.41663 5.41178C4.41663 5.30067 4.45829 5.20345 4.54163 5.12012C4.62496 5.03678 4.72218 4.99512 4.83329 4.99512C4.9444 4.99512 5.04163 5.03678 5.12496 5.12012C5.20829 5.20345 5.24996 5.30067 5.24996 5.41178C5.24996 5.52289 5.20829 5.62012 5.12496 5.70345C5.04163 5.78678 4.9444 5.82845 4.83329 5.82845ZM8.16663 5.82845C8.05551 5.82845 7.95829 5.78678 7.87496 5.70345C7.79163 5.62012 7.74996 5.52289 7.74996 5.41178C7.74996 5.30067 7.79163 5.20345 7.87496 5.12012C7.95829 5.03678 8.05551 4.99512 8.16663 4.99512C8.27774 4.99512 8.37496 5.03678 8.45829 5.12012C8.54163 5.20345 8.58329 5.30067 8.58329 5.41178C8.58329 5.52289 8.54163 5.62012 8.45829 5.70345C8.37496 5.78678 8.27774 5.82845 8.16663 5.82845ZM9.83329 5.82845C9.72218 5.82845 9.62496 5.78678 9.54163 5.70345C9.45829 5.62012 9.41663 5.52289 9.41663 5.41178C9.41663 5.30067 9.45829 5.20345 9.54163 5.12012C9.62496 5.03678 9.72218 4.99512 9.83329 4.99512C9.9444 4.99512 10.0416 5.03678 10.125 5.12012C10.2083 5.20345 10.25 5.30067 10.25 5.41178C10.25 5.52289 10.2083 5.62012 10.125 5.70345C10.0416 5.78678 9.9444 5.82845 9.83329 5.82845ZM11.5 5.82845C11.3888 5.82845 11.2916 5.78678 11.2083 5.70345C11.125 5.62012 11.0833 5.52289 11.0833 5.41178C11.0833 5.30067 11.125 5.20345 11.2083 5.12012C11.2916 5.03678 11.3888 4.99512 11.5 4.99512C11.6111 4.99512 11.7083 5.03678 11.7916 5.12012C11.875 5.20345 11.9166 5.30067 11.9166 5.41178C11.9166 5.52289 11.875 5.62012 11.7916 5.70345C11.7083 5.78678 11.6111 5.82845 11.5 5.82845ZM13.1666 5.82845C13.0555 5.82845 12.9583 5.78678 12.875 5.70345C12.7916 5.62012 12.75 5.52289 12.75 5.41178C12.75 5.30067 12.7916 5.20345 12.875 5.12012C12.9583 5.03678 13.0555 4.99512 13.1666 4.99512C13.2777 4.99512 13.375 5.03678 13.4583 5.12012C13.5416 5.20345 13.5833 5.30067 13.5833 5.41178C13.5833 5.52289 13.5416 5.62012 13.4583 5.70345C13.375 5.78678 13.2777 5.82845 13.1666 5.82845ZM3.16663 5.82845C3.05551 5.82845 2.95829 5.78678 2.87496 5.70345C2.79163 5.62012 2.74996 5.52289 2.74996 5.41178C2.74996 5.30067 2.79163 5.20345 2.87496 5.12012C2.95829 5.03678 3.05551 4.99512 3.16663 4.99512C3.27774 4.99512 3.37496 5.03678 3.45829 5.12012C3.54163 5.20345 3.58329 5.30067 3.58329 5.41178C3.58329 5.52289 3.54163 5.62012 3.45829 5.70345C3.37496 5.78678 3.27774 5.82845 3.16663 5.82845ZM3.99996 4.99512C3.88885 4.99512 3.79163 4.95345 3.70829 4.87012C3.62496 4.78678 3.58329 4.68956 3.58329 4.57845C3.58329 4.46734 3.62496 4.37012 3.70829 4.28678C3.79163 4.20345 3.88885 4.16178 3.99996 4.16178C4.11107 4.16178 4.20829 4.20345 4.29163 4.28678C4.37496 4.37012 4.41663 4.46734 4.41663 4.57845C4.41663 4.68956 4.37496 4.78678 4.29163 4.87012C4.20829 4.95345 4.11107 4.99512 3.99996 4.99512ZM5.66663 3.32845C5.55551 3.32845 5.45829 3.28678 5.37496 3.20345C5.29163 3.12012 5.24996 3.02289 5.24996 2.91178C5.24996 2.80067 5.29163 2.70345 5.37496 2.62012C5.45829 2.53678 5.55551 2.49512 5.66663 2.49512C5.77774 2.49512 5.87496 2.53678 5.95829 2.62012C6.04163 2.70345 6.08329 2.80067 6.08329 2.91178C6.08329 3.02289 6.04163 3.12012 5.95829 3.20345C5.87496 3.28678 5.77774 3.32845 5.66663 3.32845ZM6.49996 2.49512C6.38885 2.49512 6.29163 2.45345 6.20829 2.37012C6.12496 2.28678 6.08329 2.18956 6.08329 2.07845C6.08329 1.96734 6.12496 1.87012 6.20829 1.78678C6.29163 1.70345 6.38885 1.66178 6.49996 1.66178C6.61107 1.66178 6.70829 1.70345 6.79163 1.78678C6.87496 1.87012 6.91663 1.96734 6.91663 2.07845C6.91663 2.18956 6.87496 2.28678 6.79163 2.37012C6.70829 2.45345 6.61107 2.49512 6.49996 2.49512ZM8.16663 2.49512C8.05551 2.49512 7.95829 2.45345 7.87496 2.37012C7.79163 2.28678 7.74996 2.18956 7.74996 2.07845C7.74996 1.96734 7.79163 1.87012 7.87496 1.78678C7.95829 1.70345 8.05551 1.66178 8.16663 1.66178C8.27774 1.66178 8.37496 1.70345 8.45829 1.78678C8.54163 1.87012 8.58329 1.96734 8.58329 2.07845C8.58329 2.18956 8.54163 2.28678 8.45829 2.37012C8.37496 2.45345 8.27774 2.49512 8.16663 2.49512ZM9.83329 2.49512C9.72218 2.49512 9.62496 2.45345 9.54163 2.37012C9.45829 2.28678 9.41663 2.18956 9.41663 2.07845C9.41663 1.96734 9.45829 1.87012 9.54163 1.78678C9.62496 1.70345 9.72218 1.66178 9.83329 1.66178C9.9444 1.66178 10.0416 1.70345 10.125 1.78678C10.2083 1.87012 10.25 1.96734 10.25 2.07845C10.25 2.18956 10.2083 2.28678 10.125 2.37012C10.0416 2.45345 9.9444 2.49512 9.83329 2.49512ZM11.5 2.49512C11.3888 2.49512 11.2916 2.45345 11.2083 2.37012C11.125 2.28678 11.0833 2.18956 11.0833 2.07845C11.0833 1.96734 11.125 1.87012 11.2083 1.78678C11.2916 1.70345 11.3888 1.66178 11.5 1.66178C11.6111 1.66178 11.7083 1.70345 11.7916 1.78678C11.875 1.87012 11.9166 1.96734 11.9166 2.07845C11.9166 2.18956 11.875 2.28678 11.7916 2.37012C11.7083 2.45345 11.6111 2.49512 11.5 2.49512ZM12.3333 3.32845C12.2222 3.32845 12.125 3.28678 12.0416 3.20345C11.9583 3.12012 11.9166 3.02289 11.9166 2.91178C11.9166 2.80067 11.9583 2.70345 12.0416 2.62012C12.125 2.53678 12.2222 2.49512 12.3333 2.49512C12.4444 2.49512 12.5416 2.53678 12.625 2.62012C12.7083 2.70345 12.75 2.80067 12.75 2.91178C12.75 3.02289 12.7083 3.12012 12.625 3.20345C12.5416 3.28678 12.4444 3.32845 12.3333 3.32845ZM14 4.99512C13.8888 4.99512 13.7916 4.95345 13.7083 4.87012C13.625 4.78678 13.5833 4.68956 13.5833 4.57845C13.5833 4.46734 13.625 4.37012 13.7083 4.28678C13.7916 4.20345 13.8888 4.16178 14 4.16178C14.1111 4.16178 14.2083 4.20345 14.2916 4.28678C14.375 4.37012 14.4166 4.46734 14.4166 4.57845C14.4166 4.68956 14.375 4.78678 14.2916 4.87012C14.2083 4.95345 14.1111 4.99512 14 4.99512ZM14.8333 5.82845C14.7222 5.82845 14.625 5.78678 14.5416 5.70345C14.4583 5.62012 14.4166 5.52289 14.4166 5.41178C14.4166 5.30067 14.4583 5.20345 14.5416 5.12012C14.625 5.03678 14.7222 4.99512 14.8333 4.99512C14.9444 4.99512 15.0416 5.03678 15.125 5.12012C15.2083 5.20345 15.25 5.30067 15.25 5.41178C15.25 5.52289 15.2083 5.62012 15.125 5.70345C15.0416 5.78678 14.9444 5.82845 14.8333 5.82845ZM6.49996 10.2035C6.20829 10.2035 5.96176 10.1028 5.76038 9.90137C5.55899 9.69998 5.45829 9.45345 5.45829 9.16178C5.45829 8.87012 5.55899 8.62359 5.76038 8.4222C5.96176 8.22081 6.20829 8.12012 6.49996 8.12012C6.79163 8.12012 7.03815 8.22081 7.23954 8.4222C7.44093 8.62359 7.54163 8.87012 7.54163 9.16178C7.54163 9.45345 7.44093 9.69998 7.23954 9.90137C7.03815 10.1028 6.79163 10.2035 6.49996 10.2035ZM11.5 10.2035C11.2083 10.2035 10.9618 10.1028 10.7604 9.90137C10.559 9.69998 10.4583 9.45345 10.4583 9.16178C10.4583 8.87012 10.559 8.62359 10.7604 8.4222C10.9618 8.22081 11.2083 8.12012 11.5 8.12012C11.7916 8.12012 12.0382 8.22081 12.2395 8.4222C12.4409 8.62359 12.5416 8.87012 12.5416 9.16178C12.5416 9.45345 12.4409 9.69998 12.2395 9.90137C12.0382 10.1028 11.7916 10.2035 11.5 10.2035ZM8.99996 16.6618C7.86107 16.6618 6.78468 16.443 5.77079 16.0055C4.7569 15.568 3.87149 14.9708 3.11454 14.2139C2.3576 13.4569 1.76038 12.5715 1.32288 11.5576C0.885376 10.5437 0.666626 9.46734 0.666626 8.32845C0.666626 7.17567 0.885376 6.09234 1.32288 5.07845C1.76038 4.06456 2.3576 3.18262 3.11454 2.43262C3.87149 1.68262 4.7569 1.08887 5.77079 0.651367C6.78468 0.213867 7.86107 -0.00488281 8.99996 -0.00488281C10.1527 -0.00488281 11.2361 0.213867 12.25 0.651367C13.2638 1.08887 14.1458 1.68262 14.8958 2.43262C15.6458 3.18262 16.2395 4.06456 16.677 5.07845C17.1145 6.09234 17.3333 7.17567 17.3333 8.32845C17.3333 9.46734 17.1145 10.5437 16.677 11.5576C16.2395 12.5715 15.6458 13.4569 14.8958 14.2139C14.1458 14.9708 13.2638 15.568 12.25 16.0055C11.2361 16.443 10.1527 16.6618 8.99996 16.6618ZM8.99996 14.9951C10.8611 14.9951 12.4375 14.3458 13.7291 13.0472C15.0208 11.7486 15.6666 10.1757 15.6666 8.32845C15.6666 6.46734 15.0208 4.89095 13.7291 3.59928C12.4375 2.30762 10.8611 1.66178 8.99996 1.66178C7.15274 1.66178 5.57982 2.30762 4.28121 3.59928C2.9826 4.89095 2.33329 6.46734 2.33329 8.32845C2.33329 10.1757 2.9826 11.7486 4.28121 13.0472C5.57982 14.3458 7.15274 14.9951 8.99996 14.9951Z" fill="#828282"/>
</svg>
