<svg width="20" height="21" viewBox="0 0 20 21" fill="none" xmlns="http://www.w3.org/2000/svg">
<mask id="mask0_2603_21838" style="mask-type:alpha" maskUnits="userSpaceOnUse" x="0" y="0" width="20" height="21">
<rect y="0.328125" width="20" height="20" fill="#D9D9D9"/>
</mask>
<g mask="url(#mask0_2603_21838)">
<path d="M17.5195 9.53646V16.1615C17.5195 16.6198 17.3563 17.0122 17.03 17.3385C16.7036 17.6649 16.3112 17.8281 15.8529 17.8281H4.18621C3.72788 17.8281 3.33552 17.6649 3.00913 17.3385C2.68274 17.0122 2.51954 16.6198 2.51954 16.1615V9.53646C2.2001 9.24479 1.95357 8.86979 1.77996 8.41146C1.60635 7.95312 1.60288 7.45312 1.76954 6.91146L2.64454 4.07812C2.75565 3.71701 2.95357 3.4184 3.23829 3.18229C3.52302 2.94618 3.85288 2.82812 4.22788 2.82812H15.8112C16.1862 2.82812 16.5126 2.94271 16.7904 3.17188C17.0682 3.40104 17.2695 3.70312 17.3945 4.07812L18.2695 6.91146C18.4362 7.45312 18.4327 7.94618 18.2591 8.39062C18.0855 8.83507 17.839 9.21701 17.5195 9.53646ZM11.8529 8.66146C12.2279 8.66146 12.5126 8.53299 12.707 8.27604C12.9015 8.0191 12.9779 7.7309 12.9362 7.41146L12.4779 4.49479H10.8529V7.57812C10.8529 7.86979 10.9501 8.12326 11.1445 8.33854C11.339 8.55382 11.5751 8.66146 11.8529 8.66146ZM8.10288 8.66146C8.42232 8.66146 8.68274 8.55382 8.88413 8.33854C9.08552 8.12326 9.18621 7.86979 9.18621 7.57812V4.49479H7.56121L7.10288 7.41146C7.04732 7.74479 7.12024 8.03646 7.32163 8.28646C7.52302 8.53646 7.78343 8.66146 8.10288 8.66146ZM4.39454 8.66146C4.64454 8.66146 4.86329 8.57118 5.05079 8.39062C5.23829 8.21007 5.35288 7.9809 5.39454 7.70312L5.85288 4.49479H4.22788L3.39454 7.28646C3.31121 7.56424 3.35635 7.86285 3.52996 8.18229C3.70357 8.50174 3.99177 8.66146 4.39454 8.66146ZM15.6445 8.66146C16.0473 8.66146 16.339 8.50174 16.5195 8.18229C16.7001 7.86285 16.7418 7.56424 16.6445 7.28646L15.7695 4.49479H14.1862L14.6445 7.70312C14.6862 7.9809 14.8008 8.21007 14.9883 8.39062C15.1758 8.57118 15.3945 8.66146 15.6445 8.66146ZM4.18621 16.1615H15.8529V10.2865C15.7834 10.3142 15.7383 10.3281 15.7175 10.3281H15.6445C15.2695 10.3281 14.9397 10.2656 14.655 10.1406C14.3702 10.0156 14.089 9.81424 13.8112 9.53646C13.5612 9.78646 13.2765 9.9809 12.957 10.1198C12.6376 10.2587 12.2973 10.3281 11.9362 10.3281C11.5612 10.3281 11.2105 10.2587 10.8841 10.1198C10.5577 9.9809 10.2695 9.78646 10.0195 9.53646C9.78343 9.78646 9.50913 9.9809 9.19663 10.1198C8.88413 10.2587 8.54732 10.3281 8.18621 10.3281C7.78343 10.3281 7.41885 10.2587 7.09246 10.1198C6.76607 9.9809 6.47788 9.78646 6.22788 9.53646C5.93621 9.82812 5.64802 10.033 5.36329 10.151C5.07857 10.2691 4.75565 10.3281 4.39454 10.3281H4.30079C4.26607 10.3281 4.22788 10.3142 4.18621 10.2865V16.1615Z" fill="#828282"/>
</g>
</svg>
