<svg width="68" height="68" viewBox="0 0 68 68" fill="none" xmlns="http://www.w3.org/2000/svg">
<path d="M10.2803 49.1313C9.89685 48.7479 9.27512 48.7479 8.89179 49.1313L5.55322 52.4699C5.16976 52.8534 5.16976 53.4751 5.55322 53.8584C5.93668 54.2419 6.55842 54.2419 6.94175 53.8584L10.2803 50.5199C10.6638 50.1365 10.6638 49.5148 10.2803 49.1313Z" fill="#66CE76"/>
<path d="M13.5303 52.3813C13.1468 51.9979 12.5251 51.9979 12.1418 52.3813L8.80322 55.7199C8.41976 56.1034 8.41976 56.7251 8.80322 57.1084C9.18668 57.4919 9.80842 57.4919 10.1917 57.1084L13.5303 53.7699C13.9138 53.3865 13.9138 52.7648 13.5303 52.3813Z" fill="#66CE76"/>
<path d="M20.0264 58.8813C19.6431 58.4979 19.0213 58.4979 18.6379 58.8813L15.2993 62.2199C14.9159 62.6034 14.9159 63.2251 15.2993 63.6084C15.6828 63.9919 16.3045 63.9919 16.6878 63.6084L20.0264 60.2699C20.4099 59.8865 20.4099 59.2648 20.0264 58.8813Z" fill="#66CE76"/>
<path d="M16.7764 55.6313C16.3929 55.2479 15.7712 55.2479 15.3879 55.6313L12.0493 58.9699C11.6659 59.3534 11.6659 59.9751 12.0493 60.3584C12.4328 60.7419 13.0545 60.7419 13.4378 60.3584L16.7764 57.0199C17.1599 56.6365 17.1599 56.0148 16.7764 55.6313Z" fill="#66CE76"/>
<path d="M65.0098 0.989099C60.7437 2.2361 48.5085 5.81254 44.461 6.99566C44.3027 7.04187 44.1587 7.12723 44.0422 7.24388L30.31 20.9761L24.1745 21.4924C15.457 22.2261 7.24929 26.037 1.06337 32.223C-0.23862 33.5249 0.574648 35.7534 2.40686 35.9134L14.331 36.955L13.0956 38.1905C12.3289 38.9569 12.3285 40.1981 13.0956 40.9651L14.2881 42.1576L11.8697 44.5761C10.9225 45.5231 10.9225 47.0644 11.8697 48.0115C12.9049 49.0467 19.3145 55.4564 20.3552 56.497C21.3023 57.4442 22.8437 57.4442 23.7906 56.497L26.209 54.0787L27.3375 55.2072C28.1387 56.0086 29.4412 56.0058 30.24 55.2072L31.4114 54.0357L32.453 65.9597C32.5271 66.8079 33.0702 67.5158 33.8703 67.807C34.6682 68.0975 35.5399 67.9066 36.1434 67.3031C39.9498 63.4967 42.8281 59.004 44.6985 53.9496C44.8868 53.441 44.627 52.8762 44.1184 52.6879C43.6097 52.4995 43.045 52.7593 42.8567 53.268C41.0854 58.0548 38.3594 62.3097 34.7547 65.9144C34.6318 66.0376 34.4245 65.9634 34.4093 65.7886L33.2244 52.2225L45.2417 40.2052C44.8429 45.0736 44.7348 46.3432 44.1781 48.8105C44.0587 49.3396 44.3909 49.8651 44.9199 49.9843C45.4487 50.1036 45.9744 49.7716 46.0937 49.2425C46.7734 46.23 46.8253 44.7982 47.3903 38.0564L61.1226 24.3242C61.2392 24.2077 61.3244 24.0637 61.3708 23.9054L64.0976 14.577C64.0976 14.5769 64.0977 14.5768 64.0977 14.5768L67.3775 3.35651C67.8005 1.90959 66.4524 0.566623 65.0098 0.989099ZM2.57784 33.9571C2.40424 33.9421 2.32857 33.7353 2.45216 33.6117C8.31052 27.7534 16.0836 24.1443 24.3392 23.4494L28.1581 23.128L16.144 35.1421L2.57784 33.9571ZM16.5145 37.5486L21.8632 42.8973L19.8341 44.9263C17.7152 42.8074 14.96 40.0548 14.4841 39.579L16.5145 37.5486ZM16.0643 48.6962C15.9397 48.8209 15.831 48.9571 15.737 49.1015L13.2582 46.623C13.0799 46.4445 13.0799 46.1432 13.2582 45.9647L15.6767 43.5461C16.9292 44.7988 17.5425 45.4121 18.4456 46.3151L16.0643 48.6962ZM18.3297 50.8655C18.101 51.0941 17.7305 51.095 17.501 50.8655C17.2726 50.6371 17.2726 50.2654 17.501 50.0368C18.2979 49.2399 36.0067 31.5312 37.0733 30.4646C37.3019 30.236 37.6735 30.2361 37.902 30.4646C38.1306 30.6933 38.1314 31.0639 37.902 31.2933L24.7749 44.4204C24.0682 45.1271 18.9394 50.2559 18.3297 50.8655ZM22.4018 55.1084C22.2847 55.2254 22.1454 55.243 22.0727 55.243C22.0001 55.243 21.8608 55.2254 21.7436 55.1084L19.2649 52.6295C19.4093 52.5355 19.5455 52.4269 19.6702 52.3022L22.0514 49.9211L24.8203 52.69L22.4018 55.1084ZM28.8512 53.8186C28.8491 53.8206 28.8465 53.8213 28.8442 53.8231C28.8093 53.8517 28.7584 53.8509 28.726 53.8186C28.1403 53.2327 24.0556 49.1479 23.4402 48.5324L25.4691 46.5033L30.8177 51.852L28.8512 53.8186ZM59.5565 23.1135C58.2575 24.4125 33.3584 49.3115 32.2066 50.4634L26.8581 45.1147L39.3387 32.634C40.2382 31.7345 40.4109 30.1963 39.2426 29.028C38.2728 28.0582 36.7029 28.058 35.7327 29.028L23.2519 41.5088L17.9032 36.1601C18.9936 35.0697 43.9802 10.0831 45.2531 8.8102L53.7821 6.31698L62.0493 14.5844L59.5565 23.1135ZM62.6776 12.4352L55.9312 5.68883L65.4641 2.90222L62.6776 12.4352Z" fill="#66CE76"/>
<path d="M50.4255 17.9432C49.864 17.382 49.2138 16.9323 48.4927 16.6067C47.9985 16.3838 47.417 16.6033 47.1938 17.0976C46.9705 17.5918 47.1903 18.1733 47.6846 18.3965C50.6031 19.7146 51.2927 23.5542 49.0367 25.8101C47.2506 27.5961 44.3446 27.5961 42.5586 25.8101C40.3013 23.5528 40.9879 19.7162 43.9107 18.3965C44.4049 18.1733 44.6246 17.5918 44.4015 17.0976C44.1783 16.6033 43.5966 16.3836 43.1025 16.6067C38.9332 18.4897 37.9396 23.9683 41.1702 27.1987C42.446 28.4745 44.122 29.1125 45.7979 29.1125C51.61 29.1125 54.5373 22.0547 50.4255 17.9432Z" fill="#66CE76"/>
</svg>
