<svg width="67" height="69" viewBox="0 0 67 69" fill="none" xmlns="http://www.w3.org/2000/svg">
<path d="M55.8955 20.2913C54.9486 18.229 53.8156 16.2929 52.5272 14.5364C52.1845 14.0693 51.5242 13.9661 51.0527 14.3048C50.5809 14.6441 50.4761 15.2974 50.8187 15.7645C52.0238 17.4076 53.0853 19.2217 53.9734 21.1563C54.1503 21.5415 54.5337 21.769 54.9351 21.769C55.0809 21.769 55.2295 21.7388 55.3713 21.6752C55.902 21.4363 56.1367 20.8168 55.8955 20.2913Z" fill="#66CE76"/>
<path d="M58.1085 26.596C57.8138 25.4295 57.4619 24.2725 57.0626 23.1568C56.8676 22.6132 56.2647 22.3287 55.715 22.5211C55.1654 22.7138 54.8779 23.3113 55.0727 23.8551C55.4497 24.9083 55.782 26.0009 56.0607 27.1033C56.1806 27.578 56.6108 27.8949 57.0839 27.8949C57.1686 27.8949 57.2549 27.8848 57.3408 27.8633C57.9062 27.7234 58.2502 27.1559 58.1085 26.596Z" fill="#66CE76"/>
<path d="M56.514 13.514C50.6098 7.6688 42.8382 4.34536 34.5313 4.0852V1.76763C34.5313 1.19044 34.0588 0.722656 33.4757 0.722656C32.8929 0.722656 32.4202 1.19044 32.4202 1.76763V4.0852C24.1131 4.34536 16.3415 7.6688 10.4373 13.514C4.28346 19.6062 0.894531 27.7062 0.894531 36.322C0.894531 36.8994 1.36717 37.367 1.95006 37.367H2.21271C2.67963 37.367 3.09122 37.0633 3.22434 36.6202C3.88144 34.4348 5.95033 32.9084 8.25527 32.9084C10.5602 32.9084 12.629 34.4348 13.2863 36.6202C13.4196 37.0634 13.8311 37.367 14.298 37.367H14.823C14.8327 37.367 14.842 37.3649 14.8517 37.3646C14.8672 37.3653 14.8826 37.367 14.8981 37.367H15.0529C15.6358 37.367 16.1085 36.8992 16.1085 36.322C16.1085 36.2142 16.0912 36.1106 16.0605 36.0126C16.8918 34.1393 18.7702 32.9084 20.8654 32.9084C22.9633 32.9084 24.8253 34.1214 25.6654 36.0116C25.6651 36.1149 25.6647 36.2182 25.6647 36.322C25.6647 36.8994 26.1373 37.367 26.7202 37.367H26.7765C26.8039 37.367 26.8309 37.365 26.8577 37.3629C26.8746 37.3637 26.891 37.367 26.908 37.367H27.4333C27.9002 37.367 28.3117 37.0633 28.445 36.6202C28.9999 34.7753 30.5607 33.4002 32.4202 33.0164V60.9002V61.4019C32.4202 61.5098 32.4368 61.6139 32.4674 61.7117C32.8762 65.3185 35.9741 68.1318 39.7247 68.1318C43.7522 68.1318 47.0289 64.8878 47.0289 60.9005C47.0289 60.3231 46.5564 59.8555 45.9734 59.8555C45.3903 59.8555 44.9179 60.3233 44.9179 60.9005C44.9179 63.7355 42.5882 66.0418 39.7247 66.0418C36.8612 66.0418 34.5314 63.7353 34.5314 60.9005V33.0162C36.391 33.4 37.952 34.7752 38.5067 36.6201C38.6399 37.0633 39.0515 37.3669 39.5184 37.3669H40.0435C40.069 37.3669 40.0936 37.3625 40.1188 37.3607C40.1557 37.3646 40.1932 37.3669 40.2313 37.3669C40.8144 37.3669 41.2868 36.8991 41.2868 36.3219C41.2868 36.2182 41.2864 36.1148 41.286 36.0116C42.1261 34.1214 43.988 32.9084 46.0861 32.9084C48.2761 32.9084 50.2292 34.2536 50.9974 36.2715L50.9978 36.322C50.9978 36.8994 51.4703 37.367 52.0533 37.367C52.0692 37.367 52.0843 37.3653 52.0998 37.3646C52.1095 37.3649 52.1188 37.367 52.1285 37.367H52.6535C53.1204 37.367 53.5319 37.0633 53.6653 36.6202C54.3225 34.435 56.3913 32.9084 58.6962 32.9084C61.0012 32.9084 63.0698 34.4348 63.7272 36.6202C63.8604 37.0634 64.272 37.367 64.7389 37.367H65.0014C65.5846 37.367 66.057 36.8992 66.057 36.322C66.0568 27.7062 62.6679 19.6062 56.514 13.514ZM13.92 33.4647C12.5465 31.833 10.4795 30.8183 8.25514 30.8183C6.34451 30.8183 4.5493 31.5665 3.21065 32.8119C4.62644 20.7668 13.2391 10.8666 24.6661 7.44379C22.7628 9.00486 21.0117 11.0847 19.4789 13.6419C16.2557 19.0193 14.3151 25.9796 13.92 33.4647ZM25.7122 32.6142C24.4016 31.4777 22.6971 30.8185 20.8654 30.8185C19.0733 30.8185 17.3945 31.4615 16.0926 32.5587C17.0367 19.6283 22.7758 9.19655 30.1167 6.71849C29.1985 8.35144 28.3924 10.7333 27.7054 13.8582C26.5858 18.9517 25.8921 25.5202 25.7122 32.6142ZM33.4757 30.8183C31.2477 30.8183 29.1776 31.8362 27.8042 33.4724C27.9469 26.2002 28.6337 19.4634 29.7682 14.3024C31.1848 7.85891 32.8127 6.15644 33.4756 6.15644C34.1386 6.15644 35.7666 7.85891 37.183 14.3024C38.3176 19.4635 39.0042 26.2 39.1469 33.4724C37.7738 31.8362 35.7037 30.8183 33.4757 30.8183ZM46.0859 30.8183C44.254 30.8183 42.5495 31.4775 41.2392 32.6142C41.0594 25.5202 40.3656 18.9516 39.2458 13.858C38.5588 10.7331 37.7529 8.35131 36.8345 6.71836C44.1753 9.19655 49.9144 19.6282 50.8586 32.5586C49.5569 31.4614 47.8783 30.8183 46.0859 30.8183ZM58.6962 30.8183C56.4719 30.8183 54.4047 31.8332 53.0313 33.4647C52.6362 25.9796 50.6957 19.0192 47.4725 13.6416C45.9396 11.0843 44.1886 9.0046 42.2853 7.4434C53.7122 10.8662 62.3251 20.7665 63.7409 32.8115C62.4021 31.5666 60.6069 30.8183 58.6962 30.8183Z" fill="#66CE76"/>
</svg>
