<svg width="63" height="64" viewBox="0 0 63 64" fill="none" xmlns="http://www.w3.org/2000/svg">
<path d="M38.7411 43.7371C38.2552 43.2517 37.6097 42.9843 36.923 42.9843C36.2363 42.9843 35.5907 43.2517 35.1053 43.7371L29.4002 49.4422C26.1804 47.7592 23.8475 46.3484 20.4786 42.9795C17.1107 39.612 15.6999 37.2797 14.0159 34.0603L19.722 28.3543C20.7245 27.3518 20.7245 25.721 19.722 24.7185L10.5723 15.5683C9.56976 14.5658 7.93899 14.5658 6.93647 15.5683L4.47665 18.0276C-0.579565 23.0843 -1.26005 31.2636 2.65754 39.9067C2.87031 40.3759 3.42333 40.5839 3.89296 40.3716C4.3626 40.1583 4.57058 39.6053 4.3578 39.1362C0.951532 31.6201 1.27213 24.5661 5.16385 20.0351L15.2825 30.1537L12.2122 33.2241C11.9246 33.5116 11.8566 33.9515 12.0435 34.3129C13.9024 37.9065 15.4018 40.5431 19.1584 44.2997C22.9169 48.0577 25.554 49.5567 29.1477 51.4147C29.5085 51.6016 29.9489 51.533 30.2365 51.246L33.3054 48.1766L43.4245 58.2957C40.1562 61.1011 35.5275 62.0782 30.2724 61.0445C24.3617 59.8824 18.1075 56.2432 12.6612 50.7969C9.90761 48.0434 7.62223 45.1067 5.86829 42.068C5.61048 41.6219 5.03973 41.469 4.5931 41.7263C4.14695 41.9842 3.99408 42.5549 4.2519 43.0015C6.0873 46.1811 8.47236 49.2476 11.3414 52.1167C17.047 57.8223 23.642 61.6431 29.912 62.8761C31.4048 63.1694 32.8544 63.3146 34.2475 63.3146C38.7018 63.3146 42.5792 61.8323 45.4305 58.981L47.8898 56.5217C48.8924 55.5191 48.8924 53.8884 47.8898 52.8859L38.7411 43.7371ZM6.45677 18.688L8.25623 16.8881C8.53082 16.6135 8.97793 16.6135 9.25204 16.8881L18.4022 26.0382C18.6768 26.3128 18.6768 26.7594 18.4022 27.034L16.6023 28.834L6.45677 18.688ZM46.5701 55.2019L44.7701 57.0014L34.6256 46.8568L36.4251 45.0569C36.5583 44.9241 36.7351 44.8508 36.923 44.8508C37.1113 44.8508 37.2881 44.9241 37.4209 45.0569L46.5701 54.2061C46.8447 54.4807 46.8447 54.9273 46.5701 55.2019Z" fill="#66CE76"/>
<path d="M58.8937 15.192H57.2016C56.6859 15.192 56.2681 15.6098 56.2681 16.125C56.2681 16.6406 56.6859 17.0585 57.2016 17.0585H58.8937C60.0534 17.0585 60.9965 18.0016 60.9965 19.1613V33.406C60.9965 34.5657 60.0534 35.5093 58.8937 35.5093H56.9524C56.4367 35.5093 56.0189 35.9272 56.0189 36.4423V41.1578L50.6435 35.7825C50.4686 35.6076 50.2314 35.5093 49.9836 35.5093H40.8248C39.6651 35.5093 38.7216 34.5657 38.7216 33.406V22.6917H41.4723C43.6608 22.6917 45.4416 20.9109 45.4416 18.7224V17.058H54.09C54.6057 17.058 55.0235 16.6402 55.0235 16.125C55.0235 15.6094 54.6057 15.1915 54.09 15.1915H45.4416V4.47716C45.4416 2.28858 43.6608 0.507812 41.4723 0.507812H23.4029C21.2144 0.507812 19.4336 2.28858 19.4336 4.47716V18.7224C19.4336 20.9114 21.2144 22.6917 23.4029 22.6917H24.2468V28.7274C24.2468 29.1046 24.4745 29.4453 24.8229 29.5896C24.9383 29.6375 25.0596 29.6605 25.1799 29.6605C25.4228 29.6605 25.6615 29.5656 25.8402 29.3873L32.5354 22.6917H36.855V33.406C36.855 35.5951 38.6363 37.3759 40.8248 37.3759H49.5969L56.2925 44.071C56.4713 44.2497 56.7099 44.3446 56.9529 44.3446C57.0731 44.3446 57.1939 44.3211 57.3094 44.2737C57.6583 44.129 57.8859 43.7887 57.8859 43.4111V37.3759H58.8937C61.0827 37.3759 62.8635 35.5951 62.8635 33.406V19.1613C62.8635 16.9727 61.0827 15.192 58.8937 15.192ZM32.1491 20.8256C31.9014 20.8256 31.6641 20.9239 31.4888 21.0988L26.1134 26.4742V21.7587C26.1134 21.2435 25.696 20.8256 25.1804 20.8256H23.4029C22.2437 20.8256 21.3001 19.8821 21.3001 18.7228V4.47716C21.3001 3.31746 22.2437 2.37436 23.4029 2.37436H41.4723C42.6315 2.37436 43.5751 3.31794 43.5751 4.47716V18.7224C43.5751 19.8821 42.6315 20.8252 41.4723 20.8252H32.1491V20.8256Z" fill="#66CE76"/>
<path d="M49.5691 29.3633C48.9797 29.3633 48.5 29.8492 48.5 30.4463C48.5 31.0434 48.9797 31.5289 49.5691 31.5289C50.1562 31.5289 50.6522 31.0334 50.6522 30.4463C50.6522 29.8593 50.1562 29.3633 49.5691 29.3633Z" fill="#66CE76"/>
<path d="M52.7181 23.5878C52.7181 22.9447 52.4277 22.3605 51.9015 21.9431C51.3576 21.5128 50.6134 21.2852 49.7503 21.2852C47.8766 21.2852 47.0039 22.4027 47.0039 23.1579C47.0039 23.6812 47.4405 23.9635 47.8512 23.9635C48.1746 23.9635 48.305 23.7713 48.4559 23.5485C48.6634 23.2428 48.8983 22.8963 49.7086 22.8963C50.3038 22.8963 50.9402 23.1397 50.9402 23.8231C50.9402 24.4283 50.4337 24.817 49.987 25.1601C49.8888 25.2358 49.7953 25.3068 49.712 25.3777C49.2773 25.7529 48.778 26.3323 48.778 27.4963C48.778 28.2113 48.9673 28.4408 49.5557 28.4408C49.9362 28.4408 50.3891 28.3397 50.3891 27.8567C50.3891 27.1594 50.3891 26.7387 51.1597 26.1363C52.1938 25.3321 52.7181 24.4748 52.7181 23.5878Z" fill="#66CE76"/>
<path d="M31.2127 10.3392V8.37105C31.2127 7.72028 31.0081 7.2286 30.6041 6.90848C30.2481 6.6267 29.7483 6.48438 29.1181 6.48438C27.3867 6.48438 27.0234 7.51038 27.0234 8.37105V10.3392C27.0234 11.2003 27.3867 12.2264 29.1181 12.2264C29.7483 12.2264 30.2481 12.0835 30.6041 11.8018C31.0076 11.4816 31.2127 10.99 31.2127 10.3392ZM28.4544 8.37105C28.4544 7.93976 28.6777 7.72123 29.1181 7.72123C29.5614 7.72123 29.7957 7.94599 29.7957 8.37105V10.3392C29.7957 10.7643 29.5614 10.989 29.1181 10.989C28.6777 10.989 28.4544 10.7705 28.4544 10.3392V8.37105Z" fill="#66CE76"/>
<path d="M36.9635 11.3699C36.6079 11.0881 36.1081 10.9453 35.4779 10.9453C33.7465 10.9453 33.3828 11.9718 33.3828 12.8325V14.8006C33.3828 15.6613 33.7465 16.6878 35.4779 16.6878C36.1081 16.6878 36.6079 16.545 36.9635 16.2632C37.3675 15.9435 37.5726 15.4514 37.5726 14.8006V12.8325C37.5726 12.1817 37.3675 11.6895 36.9635 11.3699ZM34.8142 12.8325C34.8142 12.4012 35.0375 12.1826 35.4779 12.1826C35.9212 12.1826 36.1551 12.4074 36.1551 12.8325V14.8006C36.1551 15.2257 35.9207 15.4504 35.4779 15.4504C35.0375 15.4504 34.8142 15.2319 34.8142 14.8006V12.8325Z" fill="#66CE76"/>
<path d="M35.5066 6.66842C35.5066 6.21987 35.0757 5.91797 34.6732 5.91797C34.4005 5.91797 34.183 6.04784 34.0771 6.27355L29.2115 16.2676C29.1665 16.3577 29.1406 16.4559 29.1406 16.5379C29.1406 16.9002 29.4588 17.2879 29.9328 17.2879C30.2102 17.2879 30.4729 17.1417 30.5701 16.9328L35.4495 6.9387C35.4965 6.84429 35.5066 6.73982 35.5066 6.66842Z" fill="#66CE76"/>
</svg>
