<svg width="53" height="64" viewBox="0 0 53 64" fill="none" xmlns="http://www.w3.org/2000/svg">
<path d="M21.5552 5.09375H17.6768C17.1671 5.09375 16.7539 5.50682 16.7539 6.0166C16.7539 6.52638 17.1671 6.93945 17.6768 6.93945H21.5552C22.0649 6.93945 22.478 6.52638 22.478 6.0166C22.478 5.50682 22.065 5.09375 21.5552 5.09375Z" fill="#66CE76"/>
<path d="M22.1914 54.7383H17.0401C15.7622 54.7383 14.7227 55.7778 14.7227 57.0558V57.7572C14.7227 59.0352 15.7624 60.0748 17.0401 60.0748H22.1914C23.4693 60.0748 24.5088 59.0351 24.5088 57.7572V57.0558C24.5088 55.7778 23.4692 54.7383 22.1914 54.7383ZM22.663 57.7572C22.663 58.0129 22.447 58.229 22.1914 58.229H17.0401C16.7844 58.229 16.5685 58.0129 16.5685 57.7572V57.0558C16.5685 56.8001 16.7844 56.5841 17.0401 56.5841H22.1914C22.447 56.5841 22.663 56.8001 22.663 57.0558V57.7572Z" fill="#66CE76"/>
<path d="M51.5862 31.3637H48.7909C48.6202 30.8222 48.403 30.2974 48.1411 29.7942L50.1174 27.8178C50.3645 27.5707 50.5006 27.2422 50.5006 26.8927C50.5006 26.5434 50.3645 26.2149 50.1176 25.968L47.7914 23.6417C47.2816 23.1324 46.4521 23.1327 45.9421 23.6419L43.9655 25.6186C43.4622 25.3566 42.9375 25.1394 42.3959 24.9689V22.1734C42.3959 21.4523 41.8092 20.8655 41.088 20.8655H38.3881V15.9849C38.3881 15.4751 37.9749 15.062 37.4653 15.062C36.9556 15.062 36.4909 15.4751 36.4909 15.9849V21.8135V24.9689C35.9491 25.1395 35.4244 25.3566 34.9213 25.6187L34.4031 25.1004V11.3429C34.4031 10.4175 33.6502 9.66406 32.7241 9.66406C31.8247 9.66406 7.9393 9.66406 6.51479 9.66406C5.58911 9.66406 4.83594 10.4171 4.83594 11.3429V51.5605C4.83594 52.4861 5.58898 53.2394 6.51479 53.2394H32.7241C33.6498 53.2394 34.403 52.4863 34.403 51.5605V43.5321L34.9211 43.014C35.4244 43.2762 35.9491 43.4933 36.4907 43.6639C36.4907 46.6302 36.4731 46.5785 36.5423 46.8193V46.8194V59.5181C36.5423 60.6467 35.6242 61.5647 34.4956 61.5647H21.7727C21.2631 61.5647 20.8499 61.9778 20.8499 62.4876C20.8499 62.9974 21.2631 63.4104 21.7727 63.4104H34.4955C36.6418 63.4104 38.388 61.6643 38.388 59.518V47.7671H41.0879C41.8089 47.7671 42.3957 47.1803 42.3957 46.4591V43.6638C42.9374 43.4931 43.4621 43.276 43.9653 43.014L45.942 44.9906C46.4519 45.5004 47.2817 45.5004 47.7915 44.9906L50.1173 42.6647C50.3644 42.4177 50.5005 42.0893 50.5005 41.7398C50.5005 41.3903 50.3644 41.0619 50.1174 40.815L48.1409 38.8385C48.4029 38.3352 48.6202 37.8107 48.7907 37.2689H51.5861C52.3072 37.2689 52.894 36.6822 52.894 35.961V32.6715C52.8941 31.9506 52.3074 31.3637 51.5862 31.3637ZM12.0808 11.5101H32.557V15.5167H12.0808V11.5101ZM6.68152 11.5101H10.2349V15.5167H6.68152V11.5101ZM6.68152 51.3936V17.3625C8.04537 17.3625 31.5871 17.3625 32.5569 17.3625V23.3744C32.0742 23.1574 31.4852 23.2519 31.0949 23.6419L28.7689 25.9679C28.2534 26.4836 28.2628 27.3118 28.7689 27.8177L30.7454 29.7942C30.6502 29.977 30.5631 30.1635 30.4798 30.3519C30.3338 30.6818 30.2043 31.0188 30.0956 31.3636H27.3002C26.5792 31.3636 25.9924 31.9502 25.9924 32.6715V33.3933H10.4209C9.91125 33.3933 9.49806 33.8064 9.49806 34.3161C9.49806 34.8259 9.91125 35.239 10.4209 35.239H25.9924V35.9608C25.9924 36.6817 26.5788 37.2686 27.3002 37.2686H30.0956C30.2539 37.7709 30.4638 38.2971 30.7454 38.8381L28.7689 40.8147C28.259 41.3248 28.259 42.1545 28.7689 42.6644L31.0949 44.9903C31.4767 45.3719 32.062 45.4798 32.5569 45.258V51.3933H6.68152V51.3936ZM51.0484 35.4231H48.0875C47.6588 35.4231 47.2866 35.7183 47.1889 36.1356C46.992 36.9768 46.6618 37.7746 46.2071 38.5069C45.981 38.8711 46.0354 39.3431 46.3385 39.6464L48.4319 41.7398L46.8668 43.3051L44.7733 41.2116C44.4699 40.9086 43.9982 40.854 43.6337 41.0803C42.9013 41.5349 42.1035 41.8653 41.2627 42.0621C40.8452 42.1596 40.55 42.5319 40.55 42.9607V45.9216H38.3366V42.9607C38.3366 42.532 38.0414 42.1596 37.6239 42.0621C36.783 41.8653 35.9851 41.5351 35.2529 41.0803C34.8888 40.8541 34.4166 40.9085 34.1133 41.2117L32.0199 43.3052L30.4547 41.7399L32.5481 39.6465C32.8514 39.3432 32.9056 38.871 32.6795 38.5067C32.2246 37.7742 31.8937 36.9733 31.6978 36.1359C31.6002 35.7184 31.2279 35.4232 30.7992 35.4232H27.8384V33.2097H30.7992C31.2279 33.2097 31.6001 32.9145 31.6978 32.497C31.8867 31.6899 32.2173 30.8702 32.6795 30.126C32.7643 29.9894 32.8097 29.8377 32.8173 29.6854C32.83 29.4315 32.7376 29.176 32.5481 28.9866L31.1525 27.5909L30.4548 26.8931L32.0199 25.3278L34.1133 27.4213C34.4164 27.7245 34.8885 27.779 35.2529 27.5527C35.985 27.0981 36.7827 26.7678 37.6239 26.5709C38.0414 26.4734 38.3366 26.1012 38.3366 25.6723V22.7115H40.55V25.6721C40.55 26.1008 40.8452 26.473 41.2627 26.5707C42.1038 26.7675 42.9016 27.0977 43.6338 27.5525C43.9979 27.7785 44.4701 27.7241 44.7733 27.4211L46.8668 25.3276L48.4321 26.8928L46.3387 28.9864C46.0355 29.2895 45.9811 29.7616 46.2072 30.1259C46.6619 30.8582 46.9923 31.656 47.189 32.4971C47.2866 32.9145 47.659 33.2097 48.0876 33.2097H51.0484V35.4231Z" fill="#66CE76"/>
<path d="M39.4406 29.3711C36.7143 29.3711 34.4961 31.5891 34.4961 34.3156C34.4961 37.0421 36.7141 39.2601 39.4406 39.2601C42.167 39.2601 44.385 37.0421 44.385 34.3156C44.3851 31.5891 42.167 29.3711 39.4406 29.3711ZM39.4406 37.4143C37.732 37.4143 36.3418 36.0241 36.3418 34.3155C36.3418 32.6069 37.7319 31.2167 39.4406 31.2167C41.1492 31.2167 42.5392 32.6069 42.5392 34.3155C42.5392 36.0241 41.1491 37.4143 39.4406 37.4143Z" fill="#66CE76"/>
<path d="M26.9093 23.3633H10.415C9.90538 23.3633 9.49219 23.7763 9.49219 24.2861C9.49219 24.7959 9.90538 25.209 10.415 25.209H26.9093C27.419 25.209 27.8322 24.7959 27.8322 24.2861C27.8323 23.7763 27.419 23.3633 26.9093 23.3633Z" fill="#66CE76"/>
<path d="M26.9093 28.3789H10.415C9.90538 28.3789 9.49219 28.792 9.49219 29.3018C9.49219 29.8115 9.90538 30.2246 10.415 30.2246H26.9093C27.419 30.2246 27.8322 29.8115 27.8322 29.3018C27.8323 28.792 27.419 28.3789 26.9093 28.3789Z" fill="#66CE76"/>
<path d="M26.9093 38.4062H10.415C9.90538 38.4062 9.49219 38.8193 9.49219 39.3291C9.49219 39.8389 9.90538 40.252 10.415 40.252H26.9093C27.419 40.252 27.8322 39.8389 27.8322 39.3291C27.8322 38.8193 27.419 38.4062 26.9093 38.4062Z" fill="#66CE76"/>
<path d="M26.9093 43.4219H10.415C9.90538 43.4219 9.49219 43.8349 9.49219 44.3447C9.49219 44.8545 9.90538 45.2676 10.415 45.2676H26.9093C27.419 45.2676 27.8322 44.8545 27.8322 44.3447C27.8322 43.8349 27.419 43.4219 26.9093 43.4219Z" fill="#66CE76"/>
<path d="M34.4927 0.410156H4.74012C2.59381 0.410156 0.847656 2.15631 0.847656 4.30262V59.5177C0.847656 61.6639 2.59381 63.4102 4.74012 63.4102H17.4629C17.9726 63.4102 18.3858 62.9971 18.3858 62.4873C18.3858 61.9775 17.9726 61.5645 17.4628 61.5645H4.74012C3.61153 61.5645 2.69348 60.6464 2.69348 59.5178V4.30262C2.69348 3.17404 3.61153 2.25598 4.74012 2.25598H34.4927C35.6213 2.25598 36.5394 3.17404 36.5394 4.30262V11.6776C36.5394 12.1873 36.9526 12.6004 37.4622 12.6004C37.9719 12.6004 38.3851 12.1873 38.3851 11.6776V4.30262C38.3851 2.15631 36.6389 0.410156 34.4927 0.410156Z" fill="#66CE76"/>
</svg>
