<svg width="60" height="60" viewBox="0 0 60 60" fill="none" xmlns="http://www.w3.org/2000/svg">
<path d="M14.9147 3.20703C10.3912 3.20703 6.71094 6.88681 6.71094 11.4104C6.71094 15.9339 10.3912 19.6137 14.9147 19.6137C19.4378 19.6137 23.118 15.9339 23.118 11.4104C23.118 6.88681 19.4378 3.20703 14.9147 3.20703ZM14.9147 17.8458C11.3662 17.8458 8.4793 14.9589 8.4793 11.4104C8.4793 7.86182 11.3662 4.97494 14.9147 4.97494C18.4633 4.97494 21.3501 7.86182 21.3501 11.4104C21.3501 14.9589 18.4633 17.8458 14.9147 17.8458Z" fill="#66CE76"/>
<path d="M14.9119 22.6676C21.1203 22.6676 26.1715 17.6164 26.1715 11.408C26.1715 8.88672 25.3568 6.50302 23.8155 4.51486C23.5163 4.1293 22.9609 4.05891 22.5753 4.35818C22.1893 4.657 22.1189 5.21239 22.4182 5.59795C23.717 7.27321 24.4036 9.28227 24.4036 11.408C24.4036 16.6418 20.1457 20.8997 14.9119 20.8997C9.67814 20.8997 5.42025 16.6418 5.42025 11.408C5.42025 6.17423 9.67814 1.91635 14.9119 1.91635C16.9678 1.91635 18.9237 2.56257 20.5681 3.78508C20.96 4.07662 21.5136 3.99488 21.8051 3.60343C22.0962 3.21152 22.0149 2.65794 21.623 2.36639C19.6712 0.915456 17.3506 0.148438 14.9119 0.148438C8.70313 0.148438 3.65234 5.19968 3.65234 11.408C3.65234 17.6164 8.70313 22.6676 14.9119 22.6676Z" fill="#66CE76"/>
<path d="M15.6881 10.5622V8.38465C16.0514 8.44187 16.2953 8.56585 16.4928 8.66576C16.6622 8.75159 16.7967 8.8197 16.947 8.8197C17.4265 8.8197 17.6345 8.23297 17.6345 7.93325C17.6345 7.29475 16.6345 6.99866 15.6881 6.93372V6.80202C15.6881 6.46733 15.4161 6.19531 15.0814 6.19531C14.7467 6.19531 14.4747 6.46733 14.4747 6.80202V6.97187C13.0283 7.21392 12.2 8.09719 12.2 9.39826C12.2 10.9977 13.5083 11.5004 14.4747 11.8637V14.3078C13.942 14.2065 13.5951 13.9372 13.3153 13.7202C13.0874 13.5431 12.9075 13.4036 12.7009 13.4036C12.2876 13.4036 11.9766 13.9486 11.9766 14.3019C11.9766 14.9695 13.0011 15.7696 14.4747 15.8618V15.9222C14.4747 16.1093 14.561 16.2833 14.7095 16.3982C14.7971 16.4813 14.9252 16.5289 15.0596 16.5289H15.0814C15.4161 16.5289 15.6881 16.2565 15.6881 15.9222V15.7937C17.0678 15.499 17.8579 14.5444 17.8579 13.172C17.8575 11.6189 16.8175 10.9981 15.6881 10.5622ZM16.2839 13.3337C16.2839 13.7515 16.0782 14.0594 15.6881 14.227V12.3791C16.0996 12.6226 16.2839 12.9191 16.2839 13.3337ZM14.4747 8.45686V10.0999C14.105 9.9305 13.7731 9.70389 13.7731 9.23705C13.7731 8.86239 14.0156 8.5931 14.4747 8.45686Z" fill="#66CE76"/>
<path d="M56.3988 50.2784V27.2138C56.3988 24.0064 53.7889 21.3965 50.5815 21.3965H46.2623V17.3144H50.7236C52.878 17.3144 54.6304 15.5614 54.6304 13.4071V6.72325C54.6304 4.56888 52.878 2.81641 50.7236 2.81641H36.4968C34.3424 2.81641 32.5899 4.56933 32.5899 6.72325V13.4071C32.5899 15.5614 34.3424 17.3144 36.4968 17.3144H40.9581V21.3965H28.2703C25.0628 21.3965 22.4529 24.0064 22.4529 27.2138V29.7651H11.6211C11.1329 29.7651 10.7369 30.1611 10.7369 30.6493C10.7369 31.1375 11.1329 31.5335 11.6211 31.5335H23.3371C23.8253 31.5335 24.2213 31.1375 24.2213 30.6493V27.2138C24.2213 24.9809 26.0378 23.1649 28.2703 23.1649H50.5815C52.8144 23.1649 54.6309 24.9809 54.6309 27.2138V50.2739H5.24382V33.9726C5.24382 32.6275 6.33827 31.5335 7.68339 31.5335H8.67383C9.16202 31.5335 9.55802 31.1375 9.55802 30.6493C9.55802 30.1611 9.16202 29.7651 8.67383 29.7651H7.68339C5.36326 29.7651 3.47591 31.6525 3.47591 33.9726V50.278C1.64124 50.3674 0.175781 51.8879 0.175781 53.7443V56.2011C0.175781 58.1148 1.73252 59.6716 3.64621 59.6716H50.1618C50.65 59.6716 51.0456 59.2756 51.0456 58.7874C51.0456 58.2992 50.65 57.9037 50.1618 57.9037H3.64621C2.70753 57.9037 1.94369 57.1398 1.94369 56.2011V53.7443C1.94369 52.8056 2.70753 52.0418 3.64621 52.0418H56.2285C57.1672 52.0418 57.931 52.8056 57.931 53.7443V56.2011C57.931 57.1398 57.1672 57.9037 56.2285 57.9037H53.1087C52.6205 57.9037 52.2245 58.2992 52.2245 58.7874C52.2245 59.2756 52.6205 59.6716 53.1087 59.6716H56.2285C58.1422 59.6716 59.6989 58.1148 59.6989 56.2011V53.7443C59.6989 51.8879 58.2335 50.3674 56.3988 50.2784ZM34.3578 13.4071V6.72325C34.3578 5.54388 35.3174 4.58432 36.4968 4.58432H50.7236C51.903 4.58432 52.8625 5.54388 52.8625 6.72325V13.4071C52.8625 14.5864 51.903 15.546 50.7236 15.546H36.4968C35.3174 15.546 34.3578 14.5864 34.3578 13.4071ZM42.7264 21.3965V17.3144H44.4944V21.3965H42.7264Z" fill="#66CE76"/>
<path d="M53.4546 27.9386C53.4546 25.9564 51.842 24.3438 49.8597 24.3438H28.9972C27.0149 24.3438 25.4023 25.9564 25.4023 27.9386C25.4023 29.9209 27.0149 31.5339 28.9972 31.5339H49.8597C51.842 31.5339 53.4546 29.9209 53.4546 27.9386ZM49.8597 29.7656H28.9972C27.99 29.7656 27.1703 28.9463 27.1703 27.9386C27.1703 26.9314 27.99 26.1117 28.9972 26.1117H49.8597C50.867 26.1117 51.6867 26.9314 51.6867 27.9386C51.6867 28.9463 50.867 29.7656 49.8597 29.7656Z" fill="#66CE76"/>
<path d="M9.07567 47.7978H20.3911C20.8793 47.7978 21.2753 47.4022 21.2753 46.914V36.4828H21.8057C22.2939 36.4828 22.6895 36.0868 22.6895 35.5986C22.6895 35.1104 22.2939 34.7148 21.8057 34.7148H7.66153C7.17334 34.7148 6.77734 35.1104 6.77734 35.5986C6.77734 36.0868 7.17334 36.4828 7.66153 36.4828H8.19195V46.914C8.19195 47.4022 8.58749 47.7978 9.07567 47.7978ZM19.5069 36.4828V46.0298H9.95986V36.4828H19.5069Z" fill="#66CE76"/>
<path d="M12.6107 40.6824H16.8541C17.3423 40.6824 17.7378 40.2864 17.7378 39.7982C17.7378 39.3101 17.3423 38.9141 16.8541 38.9141H12.6107C12.1226 38.9141 11.7266 39.3101 11.7266 39.7982C11.7266 40.2864 12.1226 40.6824 12.6107 40.6824Z" fill="#66CE76"/>
<path d="M12.6107 43.5965H16.8541C17.3423 43.5965 17.7378 43.2005 17.7378 42.7123C17.7378 42.2241 17.3423 41.8281 16.8541 41.8281H12.6107C12.1226 41.8281 11.7266 42.2241 11.7266 42.7123C11.7266 43.2005 12.1226 43.5965 12.6107 43.5965Z" fill="#66CE76"/>
<path d="M38.185 9.49057H49.7361C50.2243 9.49057 50.6203 9.09503 50.6203 8.60684C50.6203 8.11865 50.2243 7.72266 49.7361 7.72266H38.185C37.6963 7.72266 37.3008 8.11865 37.3008 8.60684C37.3008 9.09503 37.6963 9.49057 38.185 9.49057Z" fill="#66CE76"/>
<path d="M43.312 11.5248C43.312 11.0366 42.9165 10.6406 42.4279 10.6406H38.185C37.6963 10.6406 37.3008 11.0366 37.3008 11.5248C37.3008 12.013 37.6963 12.4085 38.185 12.4085H42.4279C42.9165 12.4085 43.312 12.013 43.312 11.5248Z" fill="#66CE76"/>
<path d="M14.0312 24.5209V27.9137C14.0312 28.4023 14.4272 28.7979 14.9154 28.7979C15.4036 28.7979 15.7992 28.4023 15.7992 27.9137V24.5209C15.7992 24.0327 15.4036 23.6367 14.9154 23.6367C14.4272 23.6367 14.0312 24.0327 14.0312 24.5209Z" fill="#66CE76"/>
<path d="M28.2901 40.49H31.237C32.8291 40.49 34.1247 39.1948 34.1247 37.6022C34.1247 36.01 32.8291 34.7148 31.237 34.7148H28.2901C26.698 34.7148 25.4023 36.01 25.4023 37.6022C25.4023 39.1948 26.698 40.49 28.2901 40.49ZM28.2901 36.4828H31.237C31.8541 36.4828 32.3568 36.985 32.3568 37.6022C32.3568 38.2198 31.8541 38.722 31.237 38.722H28.2901C27.673 38.722 27.1703 38.2198 27.1703 37.6022C27.1703 36.985 27.673 36.4828 28.2901 36.4828Z" fill="#66CE76"/>
<path d="M40.3112 34.7148H37.3643C35.7722 34.7148 34.4766 36.01 34.4766 37.6022C34.4766 39.1948 35.7722 40.49 37.3643 40.49H40.3112C41.9038 40.49 43.199 39.1948 43.199 37.6022C43.199 36.01 41.9038 34.7148 40.3112 34.7148ZM40.3112 38.722H37.3643C36.7472 38.722 36.2449 38.2198 36.2449 37.6022C36.2449 36.985 36.7472 36.4828 37.3643 36.4828H40.3112C40.9288 36.4828 41.431 36.985 41.431 37.6022C41.431 38.2198 40.9288 38.722 40.3112 38.722Z" fill="#66CE76"/>
<path d="M49.3849 34.7148H46.4386C44.8459 34.7148 43.5508 36.01 43.5508 37.6022C43.5508 39.1948 44.8459 40.49 46.4386 40.49H49.3849C50.9776 40.49 52.2727 39.1948 52.2727 37.6022C52.2727 36.01 50.9776 34.7148 49.3849 34.7148ZM49.3849 38.722H46.4386C45.821 38.722 45.3187 38.2198 45.3187 37.6022C45.3187 36.985 45.821 36.4828 46.4386 36.4828H49.3849C50.0025 36.4828 50.5048 36.985 50.5048 37.6022C50.5048 38.2198 50.0025 38.722 49.3849 38.722Z" fill="#66CE76"/>
<path d="M28.2901 47.0881H31.237C32.8291 47.0881 34.1247 45.7924 34.1247 44.2003C34.1247 42.6081 32.8291 41.3125 31.237 41.3125H28.2901C26.698 41.3125 25.4023 42.6081 25.4023 44.2003C25.4023 45.7924 26.698 47.0881 28.2901 47.0881ZM28.2901 43.0804H31.237C31.8541 43.0804 32.3568 43.5831 32.3568 44.2003C32.3568 44.8179 31.8541 45.3202 31.237 45.3202H28.2901C27.673 45.3202 27.1703 44.8179 27.1703 44.2003C27.1703 43.5831 27.673 43.0804 28.2901 43.0804Z" fill="#66CE76"/>
<path d="M40.3112 41.3125H37.3643C35.7722 41.3125 34.4766 42.6081 34.4766 44.2003C34.4766 45.7924 35.7722 47.0881 37.3643 47.0881H40.3112C41.9038 47.0881 43.199 45.7924 43.199 44.2003C43.199 42.6081 41.9038 41.3125 40.3112 41.3125ZM40.3112 45.3202H37.3643C36.7472 45.3202 36.2449 44.8179 36.2449 44.2003C36.2449 43.5831 36.7472 43.0804 37.3643 43.0804H40.3112C40.9288 43.0804 41.431 43.5831 41.431 44.2003C41.431 44.8179 40.9288 45.3202 40.3112 45.3202Z" fill="#66CE76"/>
<path d="M49.3849 41.3125H46.4386C44.8459 41.3125 43.5508 42.6081 43.5508 44.2003C43.5508 45.7924 44.8459 47.0881 46.4386 47.0881H49.3849C50.9776 47.0881 52.2727 45.7924 52.2727 44.2003C52.2727 42.6081 50.9776 41.3125 49.3849 41.3125ZM49.3849 45.3202H46.4386C45.821 45.3202 45.3187 44.8179 45.3187 44.2003C45.3187 43.5831 45.821 43.0804 46.4386 43.0804H49.3849C50.0025 43.0804 50.5048 43.5831 50.5048 44.2003C50.5048 44.8179 50.0025 45.3202 49.3849 45.3202Z" fill="#66CE76"/>
</svg>
