<svg width="49" height="71" viewBox="0 0 49 71" fill="none" xmlns="http://www.w3.org/2000/svg">
<path d="M47.0218 57.0993C46.4566 57.0993 45.9984 57.5575 45.9984 58.1226V67.7439C45.9984 68.0554 45.7449 68.3089 45.4334 68.3089H39.9324V48.1564C39.9324 47.5913 39.4742 47.1331 38.909 47.1331C38.3439 47.1331 37.8857 47.5913 37.8857 48.1564V68.3091H26.8084L30.0207 64.7751C30.3717 64.389 30.5372 63.839 30.4634 63.3033C30.462 63.2929 30.4604 63.2826 30.4586 63.2722L27.3991 45.1978L28.2234 43.9569C28.6791 44.2806 29.0302 44.5922 29.6885 44.5922C30.3582 44.5922 30.9843 44.2174 31.2924 43.6004V43.6003L34.5193 37.1328L41.8704 39.9797C42.1364 40.0938 45.9982 41.8329 45.9982 46.4251V53.3469C45.998 53.9119 46.4562 54.3703 47.0215 54.3703C47.5867 54.3703 48.0448 53.9121 48.0448 53.3469V46.4251C48.0448 40.3746 42.8642 38.1752 42.6437 38.0845C42.6373 38.0817 42.6307 38.0792 42.6242 38.0767L30.3894 33.3385V30.4691C32.3327 28.9578 33.6801 26.7175 34.0183 24.1616C34.9872 24.0934 35.8862 23.7316 36.6204 23.1002C37.5792 22.2757 38.1294 21.0757 38.1294 19.8084C38.1294 18.7566 37.7499 17.7524 37.0737 16.9699V13.1791C37.0736 6.18571 31.3841 0.496094 24.3908 0.496094C17.3974 0.496094 11.7079 6.18571 11.7079 13.1791V17.0692C11.0245 17.8438 10.6528 18.7973 10.6528 19.8082C10.6528 21.0759 11.2027 22.2758 12.1617 23.1005C12.8954 23.7316 13.7939 24.093 14.7625 24.1614C15.1035 26.7651 16.4902 29.0889 18.5989 30.6205V33.3385L6.37744 38.0766C6.37103 38.079 6.36461 38.0816 6.3582 38.0842C6.13757 38.1749 0.957031 40.3743 0.957031 46.4248V67.7436C0.957031 69.1838 2.12868 70.3555 3.56886 70.3555H13.3188C13.884 70.3555 14.3421 69.8973 14.3421 69.3321C14.3421 68.767 13.884 68.3088 13.3188 68.3088H11.117V48.1564C11.117 47.5913 10.6588 47.1331 10.0937 47.1331C9.5285 47.1331 9.07032 47.5913 9.07032 48.1564V68.3091H3.56899C3.25749 68.3091 3.00398 68.0555 3.00398 67.744V46.4249C3.00398 41.8173 6.8917 40.0822 7.13048 39.9801L14.4759 37.1325L17.703 43.6003C18.0118 44.2188 18.6388 44.5922 19.3071 44.5922C19.9622 44.5922 20.3098 44.2853 20.7722 43.9569L21.5965 45.1978L18.5373 63.2723C18.5355 63.2826 18.534 63.2928 18.5325 63.3032C18.4585 63.8386 18.6241 64.3889 18.9751 64.7753L22.1874 68.3092H18.0948C17.5296 68.3092 17.0714 68.7674 17.0714 69.3325C17.0714 69.8977 17.5296 70.3559 18.0948 70.3559H45.4336C46.8737 70.3559 48.0454 69.1841 48.0454 67.744V58.1228C48.0451 57.5575 47.5869 57.0993 47.0218 57.0993ZM32.6024 36.3905L29.5939 42.42C29.5192 42.3669 27.9248 41.2342 25.9758 39.8502C26.8215 38.8063 25.8322 40.0274 29.6919 35.2633L32.6024 36.3905ZM26.5535 42.7712L25.7734 43.9456H23.2214L22.4412 42.7712L24.4975 41.3108L26.5535 42.7712ZM20.6455 33.6687V31.7536C21.8888 32.2547 23.2175 32.4871 24.5151 32.4871C25.8567 32.4871 27.1725 32.2011 28.3426 31.6894V33.677L24.4975 38.4233L20.6455 33.6687ZM36.0826 19.8084C36.0824 20.4787 35.7921 21.1131 35.2859 21.5484C34.9512 21.8363 34.5469 22.0204 34.1041 22.0925V17.5247C35.2803 17.7157 36.0826 18.6913 36.0826 19.8084ZM14.6779 22.0925C13.4884 21.8994 12.6995 20.9159 12.6995 19.8082C12.6995 18.7142 13.6064 17.8238 14.6779 17.5761V22.0925ZM14.7329 15.4908C14.4069 15.5282 14.0334 15.6165 13.7549 15.7112V13.1791C13.7549 7.31424 18.5261 2.5429 24.3909 2.5429C30.2557 2.5429 35.0269 7.31424 35.0269 13.1791V15.6409C34.7295 15.5505 34.421 15.4907 34.1043 15.4626C34.1043 14.4751 34.1129 14.6656 30.8825 11.1927C30.2884 10.5544 29.3058 10.4207 28.5579 10.9093C24.9926 13.2383 20.6434 14.4083 16.6306 14.1201C15.7504 14.0542 14.9486 14.634 14.7329 15.4908ZM16.7247 22.8982V16.5136V16.1773C21.1421 16.436 25.7735 15.1237 29.5149 12.7276C30.9965 14.3182 31.7988 15.1526 32.0575 15.47C32.0575 16.2728 32.0575 21.9791 32.0575 22.898C32.0575 27.0524 28.6701 30.4401 24.5152 30.4401C19.8496 30.4403 16.7247 26.8209 16.7247 22.8982ZM19.4011 42.42L16.3926 36.3905L19.298 35.2652L23.0148 39.8532C21.1247 41.1954 19.5726 42.2982 19.4011 42.42ZM20.5752 63.493L23.5373 45.9921H25.4572L28.4193 63.493L24.4973 67.8078L20.5752 63.493Z" fill="#66CE76"/>
</svg>
