<svg width="94" height="60" viewBox="0 0 94 60" fill="none" xmlns="http://www.w3.org/2000/svg">
<path d="M53.8812 30C53.8812 41.8972 44.2367 51.54 32.34 51.54C20.4434 51.54 10.8 41.8967 10.8 30C10.8 18.1041 20.4435 8.46002 32.34 8.46002C44.2365 8.46002 53.8812 18.1045 53.8812 30Z" fill="#D9222A"/>
<path d="M61.2588 8.45953C55.6933 8.45953 50.6216 10.5711 46.7988 14.0356C46.02 14.7423 45.293 15.504 44.6238 16.3151H48.9758C49.5716 17.0395 50.1202 17.8015 50.618 18.5965H42.9818C42.5226 19.3312 42.1081 20.0928 41.7408 20.8775H51.8584C52.2056 21.6197 52.5101 22.3811 52.7705 23.158H40.8289C40.5781 23.9061 40.3691 24.6676 40.2029 25.4389H53.3957C53.7184 26.9377 53.8811 28.4667 53.8807 29.9999C53.8807 32.3921 53.4902 34.6933 52.7702 36.8424H40.8287C41.0884 37.6197 41.3927 38.3813 41.7402 39.1234H51.8581C51.4906 39.9083 51.0758 40.6701 50.6165 41.4049H42.9815C43.4791 42.1993 44.0278 42.9608 44.6237 43.6845H48.9748C48.3064 44.4971 47.5792 45.2597 46.7992 45.966C50.622 49.4299 55.6932 51.5405 61.2592 51.5405C73.1558 51.5405 82.8004 41.8972 82.8004 30.0005C82.8004 18.105 73.1558 8.46049 61.2592 8.46049" fill="#EE9F2D"/>
<path d="M79.9285 42.0072C79.9285 41.6233 80.2395 41.3111 80.624 41.3111C81.0085 41.3111 81.3195 41.6233 81.3195 42.0072C81.3195 42.3911 81.0085 42.7033 80.624 42.7033C80.2395 42.7033 79.9285 42.3911 79.9285 42.0072ZM80.624 42.5362C80.9161 42.5361 81.1528 42.2993 81.153 42.0072C81.153 41.7154 80.9164 41.479 80.6247 41.4787H80.624C80.3325 41.4784 80.096 41.7143 80.0955 42.0057V42.0073C80.0953 42.2993 80.3317 42.5361 80.6235 42.5363C80.6236 42.5362 80.6239 42.5362 80.624 42.5362ZM80.53 42.313H80.3876V41.7015H80.6455C80.6995 41.7015 80.7544 41.7015 80.8021 41.7319C80.8516 41.7654 80.8796 41.8245 80.8796 41.8854C80.8796 41.9539 80.839 42.0179 80.7735 42.0429L80.8861 42.3129H80.7283L80.6348 42.0708H80.5303L80.53 42.313ZM80.53 41.9662H80.609C80.6385 41.9662 80.6696 41.9687 80.6961 41.9542C80.7195 41.9392 80.7316 41.9111 80.7316 41.8841C80.731 41.859 80.7182 41.8359 80.6971 41.8219C80.6722 41.8065 80.6328 41.8098 80.6061 41.8098H80.53V41.9662ZM27.31 32.3586C27.0645 32.3301 26.9566 32.3225 26.788 32.3225C25.4625 32.3225 24.7915 32.7769 24.7915 33.6747C24.7915 34.228 25.119 34.5801 25.6299 34.5801C26.5826 34.5801 27.269 33.673 27.31 32.3586ZM29.0106 36.3181H27.073L27.1176 35.397C26.5264 36.1248 25.738 36.4709 24.6664 36.4709C23.3989 36.4709 22.53 35.4809 22.53 34.0434C22.53 31.8805 24.0415 30.6185 26.636 30.6185C26.901 30.6185 27.241 30.6424 27.5889 30.6869C27.6614 30.394 27.6805 30.2683 27.6805 30.1108C27.6805 29.5218 27.273 29.3023 26.1805 29.3023C25.0365 29.2894 24.093 29.5749 23.7055 29.7023C23.73 29.5548 24.0295 27.7032 24.0295 27.7032C25.1949 27.3617 25.9634 27.2332 26.8285 27.2332C28.8363 27.2332 29.9 28.1347 29.898 29.8386C29.9019 30.2952 29.8263 30.8586 29.7085 31.5991C29.5056 32.8872 29.0701 35.6457 29.0106 36.3181ZM21.5516 36.3181H19.2132L20.5526 27.9185L17.5616 36.3181H15.9681L15.7711 27.9665L14.3631 36.3181H12.1741L14.0025 25.3914H17.365L17.569 31.5076L19.6201 25.3914H23.3601L21.5516 36.3181ZM64.148 32.3586C63.9035 32.3301 63.7951 32.3225 63.627 32.3225C62.302 32.3225 61.6309 32.7769 61.6309 33.6747C61.6309 34.228 61.958 34.5801 62.4688 34.5801C63.4216 34.5801 64.1085 33.673 64.148 32.3586ZM65.8501 36.3181H63.9126L63.9565 35.397C63.3653 36.1248 62.5765 36.4709 61.5058 36.4709C60.238 36.4709 59.3698 35.4809 59.3698 34.0434C59.3698 31.8805 60.8804 30.6185 63.4754 30.6185C63.7404 30.6185 64.0798 30.6424 64.4275 30.6869C64.5 30.394 64.519 30.2683 64.519 30.1108C64.519 29.5218 64.112 29.3023 63.0195 29.3023C61.8756 29.2894 60.9331 29.5749 60.544 29.7023C60.5685 29.5548 60.8691 27.7032 60.8691 27.7032C62.0346 27.3617 62.8026 27.2332 63.6667 27.2332C65.6755 27.2332 66.7392 28.1347 66.7371 29.8386C66.741 30.2952 66.6655 30.8586 66.5476 31.5991C66.3456 32.8872 65.9091 35.6457 65.8501 36.3181ZM39.4033 36.1831C38.7633 36.3846 38.2644 36.4709 37.7233 36.4709C36.5278 36.4709 35.8754 35.7839 35.8754 34.5189C35.8584 34.1263 36.0474 33.0933 36.1959 32.1504C36.3309 31.3204 37.2098 26.0869 37.2098 26.0869H39.5343L39.2628 27.4319H40.6666L40.3496 29.5674H38.9406C38.6706 31.2574 38.2861 33.3624 38.2816 33.6414C38.2816 34.0993 38.5261 34.2994 39.0822 34.2994C39.3487 34.2994 39.555 34.2721 39.7126 34.2154L39.4033 36.1831ZM46.5303 36.1111C45.7318 36.3552 44.9613 36.4732 44.1448 36.4711C41.5427 36.4686 40.1864 35.1096 40.1864 32.5073C40.1864 29.4697 41.912 27.2337 44.2543 27.2337C46.1708 27.2337 47.3948 28.4856 47.3948 30.4492C47.3948 31.1007 47.3108 31.7367 47.1082 32.6346H42.4794C42.3228 33.9235 43.1478 34.4607 44.4998 34.4607C45.332 34.4607 46.0824 34.2892 46.9168 33.9011L46.5303 36.1111ZM45.2238 30.8431C45.2366 30.658 45.4704 29.2571 44.1422 29.2571C43.4017 29.2571 42.8722 29.8216 42.6566 30.8431H45.2238ZM30.4134 30.2411C30.4134 31.3651 30.9584 32.1402 32.1944 32.7222C33.1414 33.1673 33.2878 33.2994 33.2878 33.7026C33.2878 34.2567 32.8704 34.5067 31.9449 34.5067C31.2474 34.5067 30.5984 34.3978 29.85 34.1561C29.85 34.1561 29.5424 36.1146 29.5284 36.2083C30.06 36.3244 30.534 36.4317 31.9618 36.4711C34.4294 36.4711 35.5689 35.5317 35.5689 33.5011C35.5689 32.2801 35.0918 31.5636 33.9205 31.0251C32.94 30.5751 32.8275 30.4746 32.8275 30.0597C32.8275 29.5792 33.216 29.3341 33.972 29.3341C34.431 29.3341 35.058 29.3831 35.652 29.4676L35.985 27.4066C35.3794 27.3106 34.4614 27.2335 33.927 27.2335C31.3108 27.2337 30.4053 28.6001 30.4134 30.2411ZM57.9042 27.4672C58.5536 27.4672 59.1591 27.6377 59.9936 28.0577L60.3762 25.6861C60.0337 25.5516 58.8277 24.7621 57.8061 24.7621C56.2412 24.7621 54.9183 25.5387 53.9877 26.8201C52.6306 26.3706 52.0728 27.2791 51.3889 28.1842L50.7813 28.3257C50.8273 28.0277 50.8688 27.7317 50.8548 27.4321H48.7072C48.4138 30.1822 47.8939 32.9675 47.4867 35.7211L47.3806 36.3183H49.7202C50.1106 33.7811 50.3246 32.1567 50.4547 31.0572L51.3356 30.5671C51.4672 30.0778 51.8791 29.9122 52.7056 29.9322C52.5945 30.5332 52.539 31.1431 52.5397 31.7543C52.5397 34.6613 54.1081 36.4713 56.6257 36.4713C57.2742 36.4713 57.8306 36.3858 58.6922 36.1523L59.1038 33.6612C58.3288 34.0429 57.6927 34.2225 57.1167 34.2225C55.7572 34.2225 54.9346 33.2189 54.9346 31.5603C54.9346 29.1541 56.1582 27.4672 57.9042 27.4672Z" fill="black"/>
<path d="M22.2253 35.6688H19.8864L21.2269 27.2703L18.2358 35.6688H16.6418L16.4448 27.3183L15.0368 35.6688H12.8479L14.6763 24.7438H18.0389L18.1334 31.5072L20.4019 24.7438H24.0339L22.2253 35.6688Z" fill="white"/>
<path d="M77.7023 25.392L77.1838 28.5491C76.5443 27.7075 75.8573 27.0985 74.9503 27.0985C73.7704 27.0985 72.6964 27.9931 71.9933 29.3095C71.0143 29.1065 70.0017 28.762 70.0017 28.762L70.0012 28.77C70.0801 28.0339 70.1117 27.585 70.1046 27.4325H67.9566C67.6641 30.1825 67.1441 32.9679 66.7378 35.7215L66.6306 36.3186H68.9697C69.2856 34.2671 69.5274 32.5637 69.7056 31.2125C70.5046 30.4906 70.9047 29.8606 71.7121 29.9026C71.3547 30.7672 71.1451 31.7629 71.1451 32.7846C71.1451 35.0062 72.2691 36.4716 73.9691 36.4716C74.8261 36.4716 75.4836 36.1762 76.1251 35.4911L76.0156 36.3172H78.2278L80.0088 25.3921L77.7023 25.392ZM74.7778 34.2649C73.9817 34.2649 73.5798 33.676 73.5798 32.5134C73.5798 30.7668 74.3323 29.5284 75.3933 29.5284C76.1967 29.5284 76.6317 30.1409 76.6317 31.2695C76.6318 33.031 75.8673 34.2649 74.7778 34.2649Z" fill="black"/>
<path d="M27.9829 31.7112C27.7378 31.6829 27.6293 31.6753 27.4613 31.6753C26.1358 31.6753 25.4653 32.1298 25.4653 33.0272C25.4653 33.5797 25.7927 33.9329 26.3027 33.9329C27.2564 33.9328 27.9429 33.0258 27.9829 31.7112ZM29.6842 35.6693H27.7467L27.7907 34.7497C27.2002 35.4762 26.4107 35.8237 25.3402 35.8237C24.0722 35.8237 23.2036 34.8337 23.2036 33.3962C23.2036 31.2324 24.7147 29.9712 27.3097 29.9712C27.5746 29.9712 27.9147 29.9952 28.2622 30.0397C28.3347 29.7468 28.3538 29.6213 28.3538 29.4628C28.3538 28.8737 27.9467 28.6553 26.8543 28.6553C25.7098 28.6423 24.7667 28.9278 24.3788 29.0538C24.4033 28.9068 24.7028 27.0574 24.7028 27.0574C25.8677 26.7144 26.6372 26.5859 27.5012 26.5859C29.5096 26.5859 30.5737 27.4879 30.5717 29.1904C30.5752 29.6489 30.4993 30.2119 30.3817 30.9514C30.1792 32.2382 29.7434 34.9982 29.6842 35.6693ZM61.0498 25.0382L60.6669 27.4103C59.8329 26.9908 59.2269 26.8199 58.5781 26.8199C56.8319 26.8199 55.6081 28.5068 55.6081 30.9126C55.6081 32.5711 56.4309 33.5743 57.7901 33.5743C58.3661 33.5743 59.0017 33.3953 59.7766 33.0133L59.3661 35.5033C58.504 35.7382 57.9482 35.8237 57.2991 35.8237C54.7819 35.8237 53.213 34.0136 53.213 31.1066C53.213 27.2006 55.3801 24.4706 58.4795 24.4706C59.5004 24.4708 60.7068 24.9037 61.0498 25.0382ZM64.823 31.7112C64.578 31.6829 64.4701 31.6753 64.3013 31.6753C62.9764 31.6753 62.3054 32.1298 62.3054 33.0272C62.3054 33.5797 62.6328 33.9329 63.1433 33.9329C64.0959 33.9328 64.7829 33.0258 64.823 31.7112ZM66.5243 35.6693H64.5863L64.6309 34.7497C64.0399 35.4762 63.2509 35.8237 62.1803 35.8237C60.9128 35.8237 60.0438 34.8337 60.0438 33.3962C60.0438 31.2324 61.5554 29.9712 64.1493 29.9712C64.4149 29.9712 64.7543 29.9952 65.1022 30.0397C65.1743 29.7468 65.1938 29.6213 65.1938 29.4628C65.1938 28.8737 64.7866 28.6553 63.6944 28.6553C62.5504 28.6423 61.6069 28.9278 61.2188 29.0538C61.2433 28.9068 61.5433 27.0574 61.5433 27.0574C62.7083 26.7144 63.4772 26.5859 64.3412 26.5859C66.3501 26.5859 67.4136 27.4879 67.4111 29.1904C67.4151 29.6489 67.3396 30.2119 67.2216 30.9514C67.0198 32.2382 66.5829 34.9982 66.5243 35.6693ZM40.0775 35.5348C39.437 35.7362 38.938 35.8237 38.3975 35.8237C37.2021 35.8237 36.5497 35.1366 36.5497 33.8716C36.5331 33.4781 36.7222 32.446 36.8707 31.5032C37.0051 30.6721 37.8841 25.4392 37.8841 25.4392H40.2082L39.937 26.7846H41.1299L40.8124 28.9192H39.6154C39.3454 30.6102 38.9599 32.7136 38.9559 32.9932C38.9559 33.4528 39.2008 33.651 39.7564 33.651C40.0229 33.651 40.229 33.6251 40.3869 33.5681L40.0775 35.5348ZM47.2045 35.4637C46.4065 35.7077 45.635 35.8252 44.819 35.8237C42.2168 35.8212 40.8605 34.4622 40.8605 31.8598C40.8605 28.8212 42.586 26.5858 44.9284 26.5858C46.8449 26.5858 48.0689 27.8372 48.0689 29.8018C48.0689 30.4538 47.9849 31.0897 47.7829 31.9872H43.154C42.9973 33.2761 43.8223 33.8138 45.1744 33.8138C46.006 33.8138 46.757 33.6416 47.591 33.2526L47.2045 35.4637ZM45.8975 30.1943C45.9115 30.0097 46.1447 28.6082 44.816 28.6082C44.0759 28.6082 43.5465 29.1743 43.331 30.1943H45.8975ZM31.0871 29.5937C31.0871 30.7177 31.6322 31.4918 32.8682 32.0747C33.8152 32.5198 33.9616 32.6521 33.9616 33.0553C33.9616 33.6092 33.5437 33.8592 32.6191 33.8592C31.9211 33.8592 31.2721 33.7502 30.523 33.5087C30.523 33.5087 30.2165 35.4672 30.2025 35.5608C30.733 35.6768 31.2075 35.7828 32.6355 35.8237C35.1034 35.8237 36.2426 34.8842 36.2426 32.8542C36.2426 31.6326 35.7661 30.9162 34.5941 30.3778C33.6141 29.9267 33.5006 29.8277 33.5006 29.4122C33.5006 28.9322 33.8901 28.6852 34.6456 28.6852C35.1041 28.6852 35.7311 28.7357 36.3261 28.8202L36.6586 26.7587C36.0536 26.6627 35.1356 26.5858 34.6011 26.5858C31.9846 26.5858 31.0796 27.9512 31.0871 29.5937ZM78.9011 35.6693H76.6886L76.7986 34.8421C76.157 35.5282 75.4996 35.8237 74.6425 35.8237C72.9425 35.8237 71.8191 34.3582 71.8191 32.1366C71.8191 29.181 73.5616 26.6896 75.6241 26.6896C76.5311 26.6896 77.2175 27.06 77.8565 27.9011L78.3755 24.7441H80.682L78.9011 35.6693ZM75.4516 33.6162C76.5406 33.6162 77.3056 32.3822 77.3056 30.6218C77.3056 29.4932 76.8701 28.8808 76.0666 28.8808C75.0062 28.8808 74.2528 30.1186 74.2528 31.8658C74.2527 33.0281 74.6557 33.6162 75.4516 33.6162ZM68.6306 26.7847C68.3377 29.5348 67.8178 32.3203 67.4111 35.0723L67.3041 35.6694H69.643C70.4796 30.2364 70.682 29.1754 71.9936 29.3083C72.2026 28.1963 72.5914 27.2224 72.8814 26.7308C71.9019 26.5268 71.3549 27.0804 70.6389 28.1318C70.6954 27.6773 70.7988 27.2358 70.7783 26.7848L68.6306 26.7847ZM49.3802 26.7847C49.0867 29.5348 48.5667 32.3203 48.1601 35.0723L48.0536 35.6694H50.3936C51.2291 30.2364 51.4311 29.1754 52.742 29.3083C52.952 28.1963 53.3409 27.2224 53.6299 26.7308C52.6514 26.5268 52.1038 27.0804 51.3884 28.1318C51.4449 27.6773 51.5473 27.2358 51.5278 26.7848L49.3802 26.7847ZM79.9286 34.9736C79.9281 34.5898 80.2389 34.2782 80.6227 34.2778H80.6241C81.0077 34.2773 81.3193 34.5881 81.3196 34.9717V34.9736C81.3195 35.3578 81.0082 35.669 80.6241 35.6693C80.24 35.669 79.9287 35.3578 79.9286 34.9736ZM80.6241 35.5022C80.9158 35.5025 81.1523 35.266 81.1525 34.9744V34.9739C81.1528 34.6819 80.9163 34.4452 80.6246 34.4449H80.6241C80.3319 34.445 80.0952 34.6818 80.0951 34.9739C80.0954 35.2657 80.3321 35.5022 80.6241 35.5022ZM80.53 35.2777H80.3875V34.6679H80.6458C80.6993 34.6679 80.7549 34.669 80.8013 34.6984C80.8514 34.7323 80.8798 34.7904 80.8798 34.8512C80.8798 34.9202 80.8394 34.9847 80.7733 35.0093L80.8862 35.2776H80.7278L80.6343 35.0365H80.5299L80.53 35.2777ZM80.53 34.9322H80.6084C80.6379 34.9322 80.6699 34.9345 80.6959 34.9202C80.7194 34.9052 80.7314 34.8769 80.7314 34.8497C80.7303 34.8245 80.7177 34.8012 80.6969 34.7869C80.6725 34.7729 80.6319 34.7768 80.6054 34.7768H80.5299L80.53 34.9322Z" fill="white"/>
</svg>
