<svg width="94" height="60" viewBox="0 0 94 60" fill="none" xmlns="http://www.w3.org/2000/svg">
<path d="M35.5839 41.8476L39.587 18.3564H45.9899L41.9838 41.8476H35.5839ZM65.1171 18.8628C63.8488 18.3869 61.8609 17.8762 59.3786 17.8762C53.0514 17.8762 48.595 21.0623 48.5568 25.6286C48.5212 29.0041 51.7386 30.8873 54.1673 32.0108C56.6598 33.1626 57.4976 33.8968 57.4856 34.9248C57.4696 36.4996 55.4952 37.2186 53.6547 37.2186C51.0921 37.2186 49.7306 36.8626 47.6277 35.9858L46.8023 35.6125L45.9039 40.8712C47.3994 41.5272 50.1648 42.095 53.0364 42.1246C59.7672 42.1246 64.1367 38.9748 64.1864 34.0984C64.2102 31.426 62.5044 29.3926 58.8102 27.7158C56.5722 26.6291 55.2016 25.9039 55.2161 24.8035C55.2161 23.8271 56.3763 22.783 58.8833 22.783C60.9768 22.7504 62.4939 23.207 63.6756 23.683L64.2494 23.954L65.1171 18.8628ZM81.5943 18.356H76.6467C75.114 18.356 73.9668 18.7744 73.2939 20.3041L63.7845 41.8321H70.5082C70.5082 41.8321 71.6073 38.9376 71.8559 38.302C72.5907 38.302 79.1225 38.312 80.0562 38.312C80.2478 39.1345 80.8353 41.8321 80.8353 41.8321H86.7767L81.5943 18.3553V18.356ZM73.7442 33.5252C74.2739 32.1718 76.2954 26.9584 76.2954 26.9584C76.2578 27.0209 76.8212 25.5983 77.1443 24.7163L77.577 26.7416C77.577 26.7416 78.8031 32.3491 79.0594 33.5249H73.7442V33.5252ZM30.1482 18.356L23.8796 34.376L23.2118 31.1206C22.0446 27.3677 18.4088 23.3017 14.344 21.2662L20.076 41.8102L26.8506 41.8026L36.9311 18.3558L30.1482 18.3557" fill="white"/>
<path d="M18.0303 18.3552H7.70538L7.62354 18.844C15.6562 20.7885 20.9711 25.4875 23.1779 31.1344L20.9329 20.3392C20.5454 18.8517 19.4212 18.4077 18.0305 18.3558" fill="#F2AE14"/>
</svg>
