<svg width="52" height="52" viewBox="0 0 52 52" fill="none" xmlns="http://www.w3.org/2000/svg">
<path d="M34.575 2.08679C34.575 1.43851 34.1428 0.57413 33.4946 0.358036C32.8463 -0.0741517 31.9819 -0.0741517 31.3336 0.358036L23.7703 4.03163L18.5841 0.358036C17.9358 -0.0741517 16.8553 -0.0741517 16.207 0.358036L10.5886 3.81554L3.02532 0.141942C2.37703 -0.0741517 1.72875 -0.0741517 1.08047 0.358036C0.432188 0.57413 0 1.43851 0 2.08679V40.9837C0 41.632 0.432188 42.4964 1.08047 42.9286C1.29656 42.9286 1.72875 43.1446 2.16094 43.1446C2.59313 43.1446 2.80922 43.1446 3.02532 42.9286L10.5886 39.255L15.991 42.9286C16.6392 43.3607 17.7197 43.3607 18.368 42.9286L19.4485 42.0642L34.575 14.6202V2.08679ZM23.7703 17.2134H16.207C15.5588 17.2134 15.1266 17.6456 15.1266 18.2938C15.1266 18.9421 15.5588 19.3743 16.207 19.3743H18.368C21.3933 19.3743 23.7703 21.7513 23.7703 24.7767C23.7703 27.3698 21.8255 29.5307 19.4485 29.9629V32.3399H15.1266V30.179H10.8047V25.8571H18.368C19.0163 25.8571 19.4485 25.4249 19.4485 24.7767C19.4485 24.1284 19.0163 23.6962 18.368 23.6962H16.207C13.1817 23.6962 10.8047 21.3192 10.8047 18.2938C10.8047 15.7007 12.7495 13.5398 15.1266 13.1076V10.7305H19.4485V12.8915H23.7703V17.2134Z" fill="white"/>
<path d="M51.6467 48.7572L38.681 22.8259C38.0327 21.3132 35.4396 21.3132 34.7913 22.8259L21.8257 48.7572C21.3935 49.4055 21.6096 50.2698 21.8257 50.9181C22.2579 51.5664 22.9062 51.9986 23.7705 51.9986H49.7018C50.3501 51.9986 51.2145 51.5664 51.6467 50.9181C52.0789 50.0537 52.0789 49.4055 51.6467 48.7572ZM36.7362 47.4606C35.4396 47.4606 34.5752 46.5962 34.5752 45.2997C34.5752 44.0031 35.4396 43.1387 36.7362 43.1387C38.0327 43.1387 38.8971 44.0031 38.8971 45.2997C38.8971 46.5962 38.0327 47.4606 36.7362 47.4606ZM38.8971 40.9778H34.5752V32.334H38.8971V40.9778Z" fill="white"/>
</svg>
