<svg width="57" height="57" viewBox="0 0 57 57" fill="none" xmlns="http://www.w3.org/2000/svg">
<path opacity="0.3" fill-rule="evenodd" clip-rule="evenodd" d="M19.5762 24.1186L16.2501 20.7925C15.6377 20.1802 15.6377 19.1874 16.2501 18.5751L18.4675 16.3577C19.0798 15.7454 20.0725 15.7454 20.6849 16.3577L40.6415 36.3143C41.2538 36.9266 41.2538 37.9194 40.6415 38.5317L38.4241 40.7491C37.8118 41.3614 36.819 41.3614 36.2067 40.7491L32.8806 37.423L15.1414 55.1622C12.6921 57.6115 8.72103 57.6115 6.27176 55.1622L1.83696 50.7274C-0.612318 48.2781 -0.612318 44.3071 1.83696 41.8578L19.5762 24.1186ZM7.37965 45.1855C6.76733 45.7978 6.76733 46.7906 7.37965 47.4029C7.99197 48.0152 8.98473 48.0152 9.59705 47.4029L22.9015 34.0985C23.5138 33.4862 23.5138 32.4934 22.9015 31.8811C22.2891 31.2688 21.2964 31.2688 20.6841 31.8811L7.37965 45.1855Z" fill="#66CE76"/>
<path fill-rule="evenodd" clip-rule="evenodd" d="M46.0165 6.47998L45.4721 5.9356C44.8503 5.31373 44.8503 4.30547 45.4721 3.6836C45.6246 3.53111 45.8065 3.41118 46.0067 3.33109L54.0496 0.113941C54.641 -0.122638 55.3166 0.0160192 55.767 0.466451L56.534 1.23349C56.9845 1.68392 57.1231 2.35945 56.8865 2.9509L53.6694 10.9938C53.3428 11.8103 52.416 12.2075 51.5995 11.8809C51.3993 11.8008 51.2174 11.6809 51.0649 11.5284L50.5205 10.984L32.5045 29L28.0005 24.496L46.0165 6.47998Z" fill="#66CE76"/>
</svg>
