<svg width="57" height="58" viewBox="0 0 57 58" fill="none" xmlns="http://www.w3.org/2000/svg">
<rect opacity="0.3" width="57" height="58" rx="2" fill="#66CE76"/>
<path d="M44 16.2894C44 13.9555 41.9968 12.0315 39.5667 12.0315C37.1367 12.0315 35.1335 13.9555 35.1335 16.2894V31.3024C35.0021 34.7087 32.1123 37.4212 28.5 37.4212C24.8877 37.4212 21.9979 34.7087 21.8665 31.2709V16.2579C21.8665 13.9239 19.8633 12 17.4333 12C15.0032 12 13 13.9239 13 16.2579V31.0501V31.0816V31.1132C13 39.3451 19.929 46 28.5 46C36.7097 46 43.4089 39.8813 43.9672 32.1224C44 31.9332 44 31.7755 44 31.5863V16.2894Z" fill="#68CD76"/>
</svg>
