<svg width="70" height="71" viewBox="0 0 70 71" fill="none" xmlns="http://www.w3.org/2000/svg">
<path opacity="0.3" fill-rule="evenodd" clip-rule="evenodd" d="M23.3332 8.875H13.6665C12.5619 8.875 11.6665 9.77043 11.6665 10.875V61.6042C11.6665 62.7087 12.5619 63.6042 13.6665 63.6042H56.3332C57.4377 63.6042 58.3332 62.7087 58.3332 61.6042V10.875C58.3332 9.77043 57.4377 8.875 56.3332 8.875H46.6665V10.2417C46.6665 12.5086 44.7078 14.3463 42.2915 14.3463H27.7082C25.2919 14.3463 23.3332 12.5086 23.3332 10.2417V8.875Z" fill="#66CE76"/>
<path fill-rule="evenodd" clip-rule="evenodd" d="M32.0833 5.91536L26.75 5.91536C26.4739 5.91536 26.25 6.13922 26.25 6.41536V11.332C26.25 11.6082 26.4739 11.832 26.75 11.832H43.25C43.5261 11.832 43.75 11.6082 43.75 11.332V6.41536C43.75 6.13922 43.5261 5.91536 43.25 5.91536L37.9167 5.91536C37.9167 4.28152 36.6108 2.95703 35 2.95703C33.3892 2.95703 32.0833 4.28152 32.0833 5.91536Z" fill="#66CE76"/>
<path fill-rule="evenodd" clip-rule="evenodd" d="M34.9998 43.1357L30.0133 45.7159C29.4165 46.0247 28.6784 45.7989 28.3646 45.2115C28.2397 44.9776 28.1966 44.7097 28.242 44.4492L29.1943 38.9843L25.1602 35.1141C24.6774 34.6508 24.6675 33.8901 25.1381 33.4149C25.3255 33.2257 25.5711 33.1025 25.8368 33.0645L31.4118 32.2672L33.905 27.2951C34.2034 26.7 34.9354 26.4557 35.5401 26.7493C35.7808 26.8663 35.9757 27.0581 36.0945 27.2951L38.5877 32.2672L44.1627 33.0645C44.83 33.1599 45.2923 33.7697 45.1953 34.4264C45.1567 34.6879 45.0316 34.9296 44.8393 35.1141L40.8052 38.9843L41.7576 44.4492C41.8715 45.1033 41.4252 45.7244 40.7607 45.8366C40.496 45.8813 40.2238 45.8389 39.9862 45.7159L34.9998 43.1357Z" fill="#66CE76"/>
</svg>
