<svg width="59" height="47" viewBox="0 0 59 47" fill="none" xmlns="http://www.w3.org/2000/svg">
<path d="M14.6865 47C11.4419 47 8.81152 44.3697 8.81152 41.125C8.81152 37.8803 11.4419 35.25 14.6865 35.25C17.9312 35.25 20.5615 37.8803 20.5615 41.125C20.5615 44.3697 17.9312 47 14.6865 47Z" fill="#66CE76"/>
<path d="M38.1875 32.9C38.1875 32.6062 38.1875 32.6063 38.1875 32.3125V11.75C38.1875 9.9875 39.3625 8.8125 41.125 8.8125H47C53.4625 8.8125 58.75 14.1 58.75 20.5625V38.1875C58.75 39.95 57.575 41.125 55.8125 41.125H49.9375C49.9375 36.1313 46.1188 32.3125 41.125 32.3125C40.2437 32.3125 39.0688 32.6062 38.1875 32.9ZM44.0625 23.5H52.875V17.625H44.0625V23.5Z" fill="#66CE76"/>
<path d="M41.125 47C37.8803 47 35.25 44.3697 35.25 41.125C35.25 37.8803 37.8803 35.25 41.125 35.25C44.3697 35.25 47 37.8803 47 41.125C47 44.3697 44.3697 47 41.125 47Z" fill="#66CE76"/>
<path opacity="0.3" d="M5.875 0H29.375C32.6063 0 35.25 2.64375 35.25 5.875V34.6625C33.4875 36.1313 32.3125 38.4813 32.3125 41.125H23.5C23.5 36.1312 19.6813 32.3125 14.6875 32.3125C9.69375 32.3125 5.875 36.1312 5.875 41.125H2.9375C1.175 41.125 0 39.95 0 38.1875V5.875C0 2.64375 2.64375 0 5.875 0Z" fill="#66CE76"/>
</svg>
