<svg width="239" height="80" viewBox="0 0 239 80" fill="none" xmlns="http://www.w3.org/2000/svg">
<mask id="path-1-inside-1" fill="white">
<path d="M0.0234375 11.0296C0.0234375 5.23583 4.72021 0.539062 10.514 0.539062H227.734C233.528 0.539062 238.225 5.23584 238.225 11.0296V68.9626C238.225 74.7564 233.528 79.4531 227.734 79.4531H10.514C4.7202 79.4531 0.0234375 74.7563 0.0234375 68.9626V11.0296Z"/>
</mask>
<path d="M10.514 1.53906H227.734V-0.460938H10.514V1.53906ZM237.225 11.0296V68.9626H239.225V11.0296H237.225ZM227.734 78.4531H10.514V80.4531H227.734V78.4531ZM1.02344 68.9626V11.0296H-0.976562V68.9626H1.02344ZM10.514 78.4531C5.27249 78.4531 1.02344 74.2041 1.02344 68.9626H-0.976562C-0.976562 75.3086 4.16792 80.4531 10.514 80.4531V78.4531ZM237.225 68.9626C237.225 74.2041 232.976 78.4531 227.734 78.4531V80.4531C234.08 80.4531 239.225 75.3086 239.225 68.9626H237.225ZM227.734 1.53906C232.976 1.53906 237.225 5.78812 237.225 11.0296H239.225C239.225 4.68355 234.08 -0.460938 227.734 -0.460938V1.53906ZM10.514 -0.460938C4.16793 -0.460938 -0.976562 4.68354 -0.976562 11.0296H1.02344C1.02344 5.78811 5.27249 1.53906 10.514 1.53906V-0.460938Z" fill="white" mask="url(#path-1-inside-1)"/>
<path d="M52.3503 39.7623C52.3733 37.9717 52.849 36.216 53.7329 34.6586C54.6168 33.1012 55.8803 31.7927 57.4058 30.8549C56.4367 29.4708 55.1582 28.3318 53.6719 27.5282C52.1856 26.7247 50.5324 26.2788 48.8436 26.226C45.2411 25.8478 41.7486 28.3816 39.9128 28.3816C38.0415 28.3816 35.2151 26.2635 32.1714 26.3261C30.2028 26.3897 28.2841 26.9622 26.6024 27.9878C24.9208 29.0134 23.5335 30.4571 22.5757 32.1783C18.4267 39.3616 21.5215 49.9188 25.4959 55.7254C27.4843 58.5687 29.8083 61.7447 32.8492 61.6321C35.8249 61.5086 36.9362 59.7346 40.5281 59.7346C44.0867 59.7346 45.1293 61.6321 48.2319 61.5605C51.425 61.5086 53.4367 58.7045 55.3555 55.8343C56.7842 53.8084 57.8836 51.5693 58.613 49.1999C56.7579 48.4153 55.1748 47.102 54.0611 45.4237C52.9474 43.7455 52.3524 41.7765 52.3503 39.7623Z" fill="white"/>
<path d="M46.4922 22.4104C48.2332 20.3204 49.0909 17.6341 48.8832 14.9219C46.2234 15.2012 43.7665 16.4725 42.002 18.4822C41.1392 19.4641 40.4785 20.6063 40.0575 21.8437C39.6365 23.081 39.4635 24.3892 39.5483 25.6935C40.8787 25.7072 42.1949 25.4188 43.3977 24.8501C44.6005 24.2814 45.6585 23.4472 46.4922 22.4104Z" fill="white"/>
<path d="M89.5482 53.3617H80.475L78.2961 59.7954H74.4531L83.047 35.9922H87.0398L95.6337 59.7954H91.7252L89.5482 53.3617ZM81.4147 50.3928H88.6067L85.0613 39.9513H84.962L81.4147 50.3928Z" fill="white"/>
<path d="M114.195 51.1286C114.195 56.5215 111.309 59.9864 106.953 59.9864C105.849 60.0441 104.752 59.79 103.786 59.253C102.82 58.716 102.026 57.9179 101.492 56.9502H101.41V65.546H97.8477V42.4504H101.296V45.3369H101.361C101.919 44.3737 102.727 43.5798 103.7 43.0396C104.673 42.4993 105.775 42.233 106.887 42.2688C111.292 42.2688 114.195 45.7506 114.195 51.1286ZM110.534 51.1286C110.534 47.615 108.718 45.3051 105.947 45.3051C103.226 45.3051 101.395 47.6637 101.395 51.1286C101.395 54.6253 103.226 56.967 105.947 56.967C108.718 56.967 110.534 54.674 110.534 51.1286H110.534Z" fill="white"/>
<path d="M133.294 51.1247C133.294 56.5176 130.406 59.9825 126.05 59.9825C124.947 60.0402 123.849 59.7861 122.884 59.2491C121.918 58.7121 121.123 57.914 120.59 56.9463H120.508V65.5421H116.945V42.4465H120.393V45.333H120.459C121.017 44.3698 121.825 43.5759 122.798 43.0357C123.771 42.4954 124.872 42.229 125.985 42.2649C130.389 42.2649 133.294 45.7467 133.294 51.1247ZM129.631 51.1247C129.631 47.6111 127.816 45.3012 125.045 45.3012C122.323 45.3012 120.493 47.6598 120.493 51.1247C120.493 54.6214 122.323 56.9631 125.045 56.9631C127.816 56.9631 129.631 54.6701 129.631 51.1247Z" fill="white"/>
<path d="M145.916 53.1695C146.18 55.53 148.473 57.0798 151.607 57.0798C154.609 57.0798 156.769 55.5299 156.769 53.4015C156.769 51.554 155.467 50.4477 152.382 49.6895L149.297 48.9464C144.926 47.8906 142.897 45.8465 142.897 42.5295C142.897 38.4225 146.476 35.6016 151.556 35.6016C156.588 35.6016 160.036 38.4225 160.152 42.5295H156.556C156.341 40.154 154.377 38.7202 151.507 38.7202C148.638 38.7202 146.674 40.1709 146.674 42.2824C146.674 43.9653 147.928 44.9555 150.996 45.7135L153.619 46.3575C158.503 47.5124 160.53 49.4742 160.53 52.9559C160.53 57.4092 156.985 60.1983 151.343 60.1983C146.064 60.1983 142.5 57.4747 142.27 53.1693L145.916 53.1695Z" fill="white"/>
<path d="M168.227 38.3359V42.4429H171.528V45.2639H168.227V54.8312C168.227 56.3175 168.888 57.0101 170.339 57.0101C170.731 57.0032 171.122 56.9757 171.511 56.9276V59.7318C170.858 59.8536 170.196 59.9088 169.532 59.8965C166.019 59.8965 164.648 58.5768 164.648 55.2111V45.2639H162.125V42.4429H164.648V38.3359H168.227Z" fill="white"/>
<path d="M173.434 51.1259C173.434 45.6656 176.65 42.2344 181.664 42.2344C186.696 42.2344 189.897 45.6655 189.897 51.1259C189.897 56.6013 186.713 60.0175 181.664 60.0175C176.618 60.0175 173.434 56.6012 173.434 51.1259ZM186.267 51.1259C186.267 47.3802 184.551 45.1695 181.664 45.1695C178.778 45.1695 177.061 47.3971 177.061 51.1259C177.061 54.8866 178.778 57.0805 181.664 57.0805C184.551 57.0805 186.267 54.8866 186.267 51.1259H186.267Z" fill="white"/>
<path d="M192.828 42.4424H196.226V45.3963H196.308C196.538 44.4737 197.078 43.6584 197.839 43.0874C198.599 42.5164 199.532 42.2246 200.482 42.2608C200.893 42.2594 201.302 42.304 201.703 42.3937V45.7257C201.185 45.5674 200.644 45.4947 200.102 45.5105C199.585 45.4895 199.069 45.5807 198.59 45.7779C198.111 45.9752 197.681 46.2737 197.328 46.653C196.975 47.0323 196.709 47.4835 196.547 47.9755C196.385 48.4674 196.332 48.9886 196.39 49.5032V59.7968H192.828L192.828 42.4424Z" fill="white"/>
<path d="M218.131 54.705C217.652 57.8554 214.584 60.0175 210.659 60.0175C205.61 60.0175 202.477 56.6349 202.477 51.2083C202.477 45.7648 205.627 42.2344 210.509 42.2344C215.31 42.2344 218.33 45.5327 218.33 50.7946V52.0151H206.072V52.2303C206.016 52.869 206.096 53.5124 206.307 54.1179C206.518 54.7233 206.856 55.2768 207.297 55.7417C207.739 56.2067 208.274 56.5723 208.868 56.8144C209.462 57.0565 210.1 57.1695 210.741 57.146C211.583 57.2248 212.428 57.0299 213.15 56.5901C213.872 56.1503 214.433 55.4891 214.749 54.705L218.131 54.705ZM206.089 49.5254H214.766C214.798 48.9512 214.711 48.3765 214.51 47.8375C214.309 47.2984 213.999 46.8067 213.6 46.3931C213.2 45.9795 212.719 45.653 212.187 45.4341C211.655 45.2151 211.084 45.1085 210.509 45.1209C209.929 45.1174 209.354 45.2288 208.817 45.4488C208.28 45.6687 207.792 45.9928 207.381 46.4023C206.97 46.8118 206.645 47.2986 206.423 47.8347C206.201 48.3707 206.088 48.9454 206.089 49.5255V49.5254Z" fill="white"/>
<path d="M79.2223 21.9493H80.8683C81.1516 21.9845 81.4392 21.9608 81.7129 21.8794C81.9866 21.798 82.2405 21.6608 82.4585 21.4765C82.6765 21.2921 82.854 21.0646 82.9798 20.8082C83.1055 20.5519 83.1768 20.2723 83.1892 19.987C83.1892 18.8517 82.3349 18.1184 80.8864 18.1184C80.5961 18.0778 80.3006 18.0959 80.0174 18.1714C79.7342 18.2469 79.469 18.3784 79.2374 18.5581C79.0059 18.7378 78.8127 18.9621 78.6693 19.2178C78.5258 19.4734 78.4351 19.7552 78.4023 20.0464H76.5951C76.6263 19.5177 76.7659 19.001 77.0053 18.5285C77.2448 18.0561 77.5789 17.638 77.9869 17.3003C78.3949 16.9626 78.8681 16.7124 79.377 16.5655C79.8859 16.4186 80.4195 16.378 80.9448 16.4462C83.3684 16.4462 85.0749 17.8031 85.0749 19.7563C85.0806 20.4106 84.8617 21.0471 84.4547 21.5595C84.0477 22.0719 83.4773 22.4292 82.8386 22.5718V22.7168C83.5957 22.7504 84.3088 23.0824 84.8218 23.6402C85.3349 24.198 85.6062 24.9362 85.5765 25.6935C85.5205 26.2379 85.3564 26.7656 85.0937 27.2458C84.8311 27.7259 84.4753 28.1488 84.0471 28.4897C83.6189 28.8305 83.127 29.0825 82.6001 29.2307C82.0733 29.379 81.5222 29.4206 80.9791 29.3531C80.4349 29.4273 79.8812 29.3912 79.3513 29.2468C78.8213 29.1025 78.3258 28.853 77.8943 28.5131C77.4628 28.1731 77.1042 27.7498 76.8398 27.2684C76.5755 26.7869 76.4107 26.2571 76.3555 25.7106H78.1908C78.3016 26.8882 79.3835 27.6478 80.9791 27.6478C82.5747 27.6478 83.6163 26.7946 83.6163 25.5918C83.6163 24.372 82.6351 23.6205 80.9207 23.6205H79.2223V21.9493Z" fill="white"/>
<path d="M87.668 26.4277C87.668 24.7555 88.915 23.7915 91.1231 23.6545L93.6394 23.5095V22.7076C93.6394 21.7265 92.9927 21.1725 91.7376 21.1725C90.7141 21.1725 90.007 21.5482 89.8015 22.205H88.0266C88.2139 20.6094 89.7169 19.5859 91.8242 19.5859C94.1531 19.5859 95.4667 20.7453 95.4667 22.7076V29.0548H93.6998V27.7493H93.5548C93.2604 28.2176 92.8469 28.5994 92.3567 28.8556C91.8665 29.1118 91.3171 29.2334 90.7645 29.2079C90.3745 29.2484 89.9804 29.2068 89.6075 29.0857C89.2345 28.9646 88.8912 28.7667 88.5994 28.5048C88.3077 28.2428 88.074 27.9227 87.9136 27.5649C87.7532 27.2072 87.6695 26.8198 87.668 26.4277ZM93.6394 25.6339V24.8573L91.3708 25.0023C90.0915 25.0879 89.5113 25.5231 89.5113 26.342C89.5113 27.1781 90.2365 27.6647 91.2339 27.6647C91.5261 27.6943 91.8213 27.6648 92.1019 27.5779C92.3825 27.4911 92.6427 27.3487 92.8672 27.1593C93.0916 26.9698 93.2756 26.7371 93.4083 26.4751C93.541 26.213 93.6196 25.9269 93.6394 25.6339Z" fill="white"/>
<path d="M100.326 21.3089V29.0552H98.4922V19.7656H104.609V21.3088L100.326 21.3089Z" fill="white"/>
<path d="M115.722 24.4052C115.722 27.3566 114.229 29.2071 111.884 29.2071C111.308 29.2464 110.733 29.1204 110.227 28.844C109.721 28.5676 109.304 28.1522 109.025 27.6467H108.88V32.1424H107.047V19.7644H108.812V21.2996H108.949C109.232 20.7766 109.654 20.342 110.169 20.0438C110.684 19.7457 111.271 19.5957 111.866 19.6104C114.229 19.6103 115.722 21.4527 115.722 24.4052ZM113.836 24.4052C113.836 22.4429 112.908 21.2573 111.354 21.2573C109.811 21.2573 108.846 22.4681 108.846 24.4132C108.846 26.3493 109.811 27.5611 111.346 27.5611C112.908 27.5611 113.836 26.3755 113.836 24.4052Z" fill="white"/>
<path d="M118.166 32.3824V30.8039C118.364 30.8291 118.564 30.8406 118.764 30.8382C119.155 30.8671 119.542 30.7508 119.852 30.5115C120.162 30.2722 120.373 29.9269 120.444 29.5417L120.581 29.0894L117.219 19.7656H119.215L121.544 27.1443H121.689L124.01 19.7656H125.954L122.491 29.439C121.697 31.6994 120.819 32.4247 118.925 32.4247C118.772 32.4247 118.337 32.4076 118.166 32.3824Z" fill="white"/>
<path d="M127.379 26.4178H129.204C129.383 27.2368 130.151 27.6639 131.225 27.6639C132.446 27.6639 133.195 27.126 133.195 26.2899C133.195 25.3944 132.522 24.9673 131.225 24.9673H129.835V23.5429H131.201C132.309 23.5429 132.873 23.1168 132.873 22.3402C132.873 21.6582 132.327 21.1375 131.201 21.1375C130.175 21.1375 129.426 21.5726 129.307 22.306H127.54C127.672 21.4633 128.13 20.7062 128.814 20.1974C129.499 19.6885 130.356 19.4687 131.201 19.5852C133.409 19.5852 134.672 20.5835 134.672 22.1529C134.682 22.5899 134.542 23.0172 134.275 23.3634C134.008 23.7096 133.631 23.9536 133.205 24.0547V24.1998C133.712 24.2651 134.176 24.514 134.511 24.8993C134.846 25.2846 135.028 25.7794 135.023 26.2899C135.023 28.0559 133.52 29.2243 131.225 29.2243C129.196 29.2242 127.548 28.2945 127.379 26.4178Z" fill="white"/>
<path d="M137.664 29.0552V19.7656H139.481V26.1551H139.626L143.907 19.7656H145.725V29.0552H143.907V22.6315H143.77L139.481 29.0552L137.664 29.0552Z" fill="white"/>
<path d="M155.733 21.3088H152.808V29.0551H150.972V21.3088H148.047V19.7656H155.733V21.3088Z" fill="white"/>
<path d="M165.612 26.5467C165.362 27.3957 164.822 28.1299 164.086 28.6211C163.35 29.1124 162.465 29.3294 161.585 29.2343C160.973 29.2504 160.365 29.1332 159.802 28.8907C159.24 28.6483 158.737 28.2864 158.329 27.8302C157.921 27.374 157.617 26.8344 157.438 26.2488C157.259 25.6633 157.21 25.0459 157.294 24.4394C157.212 23.831 157.262 23.2123 157.441 22.625C157.619 22.0377 157.922 21.4956 158.328 21.0354C158.734 20.5752 159.234 20.2077 159.795 19.9576C160.355 19.7076 160.963 19.5809 161.577 19.5861C164.161 19.5861 165.723 21.352 165.723 24.2691V24.9089H159.163V25.0116C159.134 25.3526 159.177 25.6958 159.288 26.0194C159.4 26.3429 159.578 26.6395 159.811 26.8901C160.044 27.1408 160.327 27.3399 160.641 27.4747C160.956 27.6095 161.295 27.677 161.637 27.6729C162.075 27.7253 162.519 27.6462 162.912 27.4456C163.306 27.2451 163.63 26.9322 163.845 26.5467L165.612 26.5467ZM159.163 23.553H163.853C163.876 23.2413 163.834 22.9283 163.729 22.634C163.624 22.3397 163.459 22.0706 163.244 21.844C163.028 21.6173 162.768 21.4382 162.48 21.3181C162.191 21.198 161.881 21.1395 161.569 21.1465C161.251 21.1422 160.937 21.2015 160.643 21.3209C160.349 21.4403 160.082 21.6174 159.858 21.8418C159.633 22.0661 159.456 22.3331 159.337 22.627C159.218 22.9209 159.159 23.2358 159.163 23.553H159.163Z" fill="white"/>
<path d="M173.379 19.7656H177.567C179.385 19.7656 180.45 20.6863 180.45 22.1278C180.453 22.5851 180.299 23.0296 180.013 23.3868C179.727 23.744 179.328 23.9923 178.881 24.09V24.2351C179.423 24.2694 179.932 24.5107 180.302 24.9092C180.671 25.3078 180.874 25.8331 180.867 26.3767C180.867 27.9974 179.649 29.0551 177.61 29.0551H173.379V19.7656ZM175.196 21.1729V23.5783H177.013C178.121 23.5783 178.651 23.1522 178.651 22.3665C178.651 21.6423 178.19 21.1728 177.217 21.1728L175.196 21.1729ZM175.196 24.9262V27.648H177.37C178.454 27.648 179.034 27.1695 179.034 26.2911C179.034 25.3614 178.377 24.9262 177.14 24.9262L175.196 24.9262Z" fill="white"/>
</svg>
