<svg xmlns="http://www.w3.org/2000/svg" width="550.846" height="228" viewBox="0 0 550.846 228">
  <g id="Group_421" data-name="Group 421" transform="translate(-0.266 -0.848)">
    <path id="Path_1728" data-name="Path 1728" d="M86.782,114.823A56.986,56.986,0,1,0,29.8,57.837,56.985,56.985,0,0,0,86.782,114.823Z" transform="translate(188.918 0.025)" fill="#b3ebff"/>
    <path id="Path_1730" data-name="Path 1730" d="M112.356,4.2,33.141,83.411A56.963,56.963,0,0,0,112.356,4.2Z" transform="translate(210.309 21.416)" fill="#8ce2ff"/>
    <path id="Path_1731" data-name="Path 1731" d="M120.378,12.125l13,13a56.937,56.937,0,0,0-93.27,65.33q.4.57.812,1.129Z" transform="translate(188.943 0)" fill="#8ce2ff"/>
    <path id="Path_1732" data-name="Path 1732" d="M176.622,21.4H62.65a37.991,37.991,0,0,0,0,75.981H176.622a37.991,37.991,0,1,0,0-75.981Z" transform="translate(156.058 131.468)" fill="#ede3e3"/>
    <path id="Path_1733" data-name="Path 1733" d="M94.486,21.4H37.5V97.38H94.486a37.991,37.991,0,0,0,0-75.981Z" transform="translate(238.197 131.468)" fill="#27ae60"/>
    <path id="Path_1734" data-name="Path 1734" d="M198.908,11.978a37.992,37.992,0,0,0-53.727,0L64.591,92.569a37.99,37.99,0,0,0,53.726,53.725l80.59-80.59A37.991,37.991,0,0,0,198.908,11.978Z" transform="translate(341.077 0.025)" fill="#ede3e3"/>
    <path id="Path_1735" data-name="Path 1735" d="M100.811,11.979,60.516,52.274,114.243,106l40.295-40.3a37.991,37.991,0,1,0-53.728-53.727Z" transform="translate(385.433 0.025)" fill="#fd614b"/>
    <path id="Path_1738" data-name="Path 1738" d="M145.71,92.569,65.12,11.979A37.991,37.991,0,0,0,11.393,65.706l80.59,80.59A37.991,37.991,0,0,0,145.71,92.569Z" transform="translate(0 0.025)" fill="#ede3e3"/>
    <path id="Path_1739" data-name="Path 1739" d="M11.393,65.706,51.688,106l53.727-53.727L65.12,11.979A37.991,37.991,0,0,0,11.393,65.706Z" transform="translate(0 0.025)" fill="#fecd0d"/>
  </g>
</svg>
