<svg width="49" height="49" viewBox="0 0 49 49" fill="none" xmlns="http://www.w3.org/2000/svg">
<path d="M47.4733 44.417L44.0334 47.8577C43.4192 48.4709 41.6209 48.8536 41.5632 48.8536C30.6807 48.9485 20.2026 44.674 12.5038 36.9745C4.78403 29.2502 0.504514 18.7347 0.619444 7.81558C0.619444 7.81063 1.01329 6.06382 1.6269 5.45606L5.06667 2.01575C6.32541 0.751161 8.74337 0.179696 10.4372 0.74638L11.1608 0.987752C12.8497 1.5539 14.6229 3.4213 15.0895 5.14172L16.8198 11.4925C17.2865 13.2179 16.6571 15.6725 15.3987 16.9312L13.1019 19.2284C15.3569 27.5767 21.9072 34.1283 30.257 36.3889L32.5529 34.0911C33.8175 32.8265 36.2712 32.1977 37.9929 32.6636L44.3427 34.4002C46.0635 34.873 47.9306 36.635 48.4965 38.3234L48.7379 39.0574C49.2989 40.7465 48.7319 43.1639 47.4733 44.417Z" fill="white"/>
</svg>
