<svg width="258" height="80" viewBox="0 0 258 80" fill="none" xmlns="http://www.w3.org/2000/svg">
<mask id="path-1-inside-1" fill="white">
<path d="M0.0234375 10.928C0.0234375 5.13427 4.72021 0.4375 10.514 0.4375H246.533C252.327 0.4375 257.023 5.13427 257.023 10.928V68.861C257.023 74.6548 252.327 79.3516 246.533 79.3516H10.514C4.7202 79.3516 0.0234375 74.6548 0.0234375 68.861V10.928Z"/>
</mask>
<path d="M10.514 1.4375H246.533V-0.5625H10.514V1.4375ZM256.023 10.928V68.861H258.023V10.928H256.023ZM246.533 78.3516H10.514V80.3516H246.533V78.3516ZM1.02344 68.861V10.928H-0.976562V68.861H1.02344ZM10.514 78.3516C5.27249 78.3516 1.02344 74.1025 1.02344 68.861H-0.976562C-0.976562 75.2071 4.16792 80.3516 10.514 80.3516V78.3516ZM256.023 68.861C256.023 74.1025 251.774 78.3516 246.533 78.3516V80.3516C252.879 80.3516 258.023 75.2071 258.023 68.861H256.023ZM246.533 1.4375C251.774 1.4375 256.023 5.68656 256.023 10.928H258.023C258.023 4.58199 252.879 -0.5625 246.533 -0.5625V1.4375ZM10.514 -0.5625C4.16793 -0.5625 -0.976562 4.58198 -0.976562 10.928H1.02344C1.02344 5.68655 5.27249 1.4375 10.514 1.4375V-0.5625Z" fill="white" mask="url(#path-1-inside-1)"/>
<path d="M105.599 47.0697C105.599 50.2373 104.635 52.7163 102.845 54.6444C100.779 56.8479 97.8866 57.9497 94.5813 57.9497C91.276 57.9497 88.5216 56.8479 86.318 54.5067C83.9768 52.3031 82.875 49.411 82.875 46.1057C82.875 42.8004 83.9768 39.9083 86.318 37.7047C88.6593 35.5012 91.4137 34.2617 94.5813 34.2617C96.2339 34.2617 97.7488 34.5372 99.2638 35.2258C100.779 35.9144 101.88 36.7407 102.845 37.7047L100.916 39.6328C99.4015 37.8425 97.3357 37.0161 94.719 37.0161C92.3777 37.0161 90.3119 37.8425 88.5216 39.4951C86.7312 41.1478 85.9049 43.3513 85.9049 45.968C85.9049 48.5847 86.7312 50.7882 88.5216 52.4409C90.3119 54.0935 92.3777 54.9198 94.719 54.9198C97.198 54.9198 99.4015 54.0935 101.054 52.4409C102.156 51.3391 102.845 49.8242 102.982 47.8961H94.719V45.1417H105.737C105.599 45.968 105.599 46.5189 105.599 47.0697Z" fill="white"/>
<path d="M109.039 43.7631C110.554 42.2482 112.483 41.4219 114.686 41.4219C117.027 41.4219 118.955 42.2482 120.333 43.7631C121.848 45.2781 122.536 47.3439 122.536 49.6851C122.536 52.0264 121.848 53.9545 120.333 55.6071C118.818 57.1221 116.89 57.9484 114.686 57.9484C112.345 57.9484 110.417 57.1221 109.039 55.6071C107.525 54.0922 106.836 52.0264 106.836 49.6851C106.836 47.3439 107.662 45.4158 109.039 43.7631ZM111.243 53.679C112.207 54.6431 113.447 55.194 114.824 55.194C116.201 55.194 117.44 54.6431 118.405 53.679C119.369 52.715 119.919 51.3378 119.919 49.6851C119.919 48.0325 119.369 46.6553 118.405 45.6912C117.44 44.7272 116.201 44.1763 114.824 44.1763C113.447 44.1763 112.207 44.7272 111.243 45.6912C110.279 46.6553 109.728 48.0325 109.728 49.6851C109.728 51.3378 110.279 52.715 111.243 53.679Z" fill="white"/>
<path d="M125.965 43.7631C127.48 42.2482 129.408 41.4219 131.612 41.4219C133.953 41.4219 135.881 42.2482 137.258 43.7631C138.773 45.2781 139.462 47.3439 139.462 49.6851C139.462 52.0264 138.773 53.9545 137.258 55.6071C135.743 57.1221 133.815 57.9484 131.612 57.9484C129.271 57.9484 127.342 57.1221 125.965 55.6071C124.45 54.0922 123.762 52.0264 123.762 49.6851C123.762 47.3439 124.45 45.4158 125.965 43.7631ZM128.169 53.679C129.133 54.6431 130.372 55.194 131.75 55.194C133.127 55.194 134.366 54.6431 135.33 53.679C136.294 52.715 136.845 51.3378 136.845 49.6851C136.845 48.0325 136.294 46.6553 135.33 45.6912C134.366 44.7272 133.127 44.1763 131.75 44.1763C130.372 44.1763 129.133 44.7272 128.169 45.6912C127.205 46.6553 126.654 48.0325 126.654 49.6851C126.654 51.3378 127.067 52.715 128.169 53.679Z" fill="white"/>
<path d="M148.288 64.6967C146.497 64.6967 144.982 64.2835 143.743 63.3195C142.641 62.3555 141.815 61.3914 141.264 60.1519L143.881 59.0502C144.156 59.8765 144.707 60.5651 145.533 61.116C146.359 61.6668 147.186 61.9423 148.288 61.9423C149.94 61.9423 151.18 61.5291 152.006 60.5651C152.97 59.601 153.383 58.3615 153.383 56.7089V55.194H153.246C152.695 55.8826 152.006 56.5712 151.042 57.1221C150.078 57.6729 149.114 57.9484 147.874 57.9484C145.809 57.9484 144.156 57.1221 142.641 55.6071C141.126 54.0922 140.438 52.0264 140.438 49.6851C140.438 47.3439 141.126 45.4158 142.641 43.7631C144.156 42.2482 145.809 41.4219 147.874 41.4219C148.976 41.4219 150.078 41.6973 151.042 42.1105C152.006 42.6614 152.695 43.2122 153.246 44.0386H153.383V41.835H156.138V56.5712C156.138 59.1879 155.311 61.2537 153.796 62.6309C152.281 64.0081 150.491 64.6967 148.288 64.6967ZM148.425 55.3317C149.803 55.3317 150.904 54.7808 151.868 53.8168C152.832 52.8527 153.246 51.4755 153.246 49.6851C153.246 48.0325 152.832 46.6553 151.868 45.5535C150.904 44.5895 149.803 44.0386 148.425 44.0386C147.048 44.0386 145.946 44.5895 144.982 45.5535C144.018 46.5175 143.467 47.8948 143.467 49.5474C143.467 51.2001 144.018 52.5773 144.982 53.5413C145.946 54.7808 147.048 55.3317 148.425 55.3317Z" fill="white"/>
<path d="M161.779 57.3909H158.887V34.8047H161.779V57.3909Z" fill="white"/>
<path d="M171.432 57.9484C169.091 57.9484 167.163 57.1221 165.786 55.6071C164.271 54.0922 163.582 52.0264 163.582 49.6851C163.582 47.4816 164.271 45.5535 165.648 43.9009C167.025 42.2482 168.815 41.4219 171.157 41.4219C173.498 41.4219 175.288 42.1105 176.666 43.6254C178.043 45.1403 178.731 47.0684 178.731 49.6851V50.236H166.474C166.612 51.7509 167.025 52.9904 167.989 53.9545C168.953 54.9185 170.055 55.3317 171.294 55.3317C173.36 55.3317 174.737 54.5054 175.564 52.715L178.18 53.8168C177.63 55.0562 176.803 56.0203 175.701 56.8466C174.462 57.5352 173.085 57.9484 171.432 57.9484ZM175.564 47.8948C175.564 47.0684 175.151 46.1044 174.324 45.4158C173.636 44.5895 172.534 44.1763 171.019 44.1763C169.917 44.1763 168.953 44.4517 168.265 45.1403C167.438 45.8289 166.887 46.6553 166.612 47.8948H175.564Z" fill="white"/>
<path d="M190.146 57.3909H187.254V34.8047H194.966C196.894 34.8047 198.547 35.4933 199.924 36.7328C201.301 37.9723 201.99 39.6249 201.99 41.553C201.99 43.4811 201.301 45.1337 199.924 46.3732C198.547 47.6127 196.894 48.3013 194.966 48.3013H190.146V57.3909ZM190.146 45.5469H194.966C196.206 45.5469 197.17 45.1338 197.858 44.3074C198.547 43.4811 198.96 42.5171 198.96 41.553C198.96 40.589 198.547 39.6249 197.858 38.7986C197.17 37.9723 196.206 37.5591 194.966 37.5591H190.146V45.5469Z" fill="white"/>
<path d="M206.818 57.3909H203.926V34.8047H206.818V57.3909Z" fill="white"/>
<path d="M214.249 57.9474C212.596 57.9474 211.219 57.5342 210.117 56.5702C209.016 55.6061 208.465 54.3666 208.465 52.8517C208.465 51.1991 209.153 49.8218 210.393 48.8578C211.632 47.8938 213.285 47.4806 215.213 47.4806C216.866 47.4806 218.381 47.756 219.345 48.4446V48.0315C219.345 46.9297 218.932 45.9657 218.243 45.2771C217.417 44.5885 216.453 44.313 215.351 44.313C214.525 44.313 213.698 44.4507 213.01 44.8639C212.321 45.2771 211.908 45.8279 211.632 46.5165L209.016 45.4148C209.429 44.4507 210.117 43.6244 211.082 42.7981C212.183 41.9718 213.561 41.5586 215.213 41.5586C217.141 41.5586 218.794 42.1095 220.171 43.349C221.411 44.4507 222.099 46.1034 222.099 48.3069V57.6719H219.345V55.4684C218.105 56.9833 216.453 57.9474 214.249 57.9474ZM214.662 55.3307C215.902 55.3307 217.004 54.9175 217.968 53.9535C218.932 53.1271 219.483 52.0254 219.483 50.7859C218.656 50.0973 217.417 49.8218 215.764 49.8218C214.387 49.8218 213.285 50.0973 212.596 50.7859C211.908 51.3368 211.495 52.1631 211.495 52.9894C211.495 53.678 211.77 54.3666 212.459 54.7798C213.147 55.0552 213.836 55.3307 214.662 55.3307Z" fill="white"/>
<path d="M228.585 64.2834H225.555L229.136 56.4333L222.801 41.9727H225.968L230.513 53.128L235.058 41.9727H238.226L228.585 64.2834Z" fill="white"/>
<path d="M90.2912 29.1859V26.0762H89.5138V20.3782H84.5244V21.4411C84.5244 23.5077 84.2292 24.974 83.4025 26.0762H82.8711V29.1859H84.3571V27.385H88.8052V29.1859H90.2912ZM87.9786 26.0762H85.1148C85.7348 24.9445 86.0497 23.6651 86.0497 21.7461V21.628H87.9786V26.0762Z" fill="white"/>
<path d="M94.2996 20.2109C92.2035 20.2109 90.8258 21.6674 90.8258 23.8915C90.8258 26.086 92.2134 27.5523 94.2898 27.5523C96.3466 27.5523 97.7342 26.0762 97.7342 23.8915C97.7342 21.6969 96.3466 20.2109 94.2996 20.2109ZM94.28 21.4706C95.451 21.4706 96.1793 22.3858 96.1793 23.8619C96.1793 25.3578 95.4609 26.2828 94.2996 26.2828C93.1089 26.273 92.3807 25.3676 92.3807 23.8619C92.3807 22.4055 93.1187 21.4706 94.28 21.4706Z" fill="white"/>
<path d="M105.049 24.6788H103.524C103.396 25.7022 102.845 26.2533 101.92 26.2533C100.788 26.2533 100.07 25.3283 100.07 23.8816C100.07 22.7106 100.591 21.5001 101.939 21.5001C102.766 21.5001 103.337 21.9528 103.494 22.7204H105C104.882 21.2738 103.652 20.2109 101.969 20.2109C99.8236 20.2109 98.5246 21.8347 98.5246 23.8718C98.5246 26.086 99.8728 27.5523 101.91 27.5523C103.829 27.5523 104.892 26.3911 105.049 24.6788Z" fill="white"/>
<path d="M111.117 20.3782H105.36V21.6871H107.466V27.385H109.011V21.6871H111.117V20.3782Z" fill="white"/>
<path d="M112.252 27.3555C112.4 27.4146 112.735 27.513 113.109 27.513C114.24 27.513 114.791 26.9619 115.441 25.5349L117.803 20.3782H116.159L114.604 24.0686L113.02 20.3782H111.318L113.374 24.7083C113.512 24.9937 113.699 25.3086 113.699 25.6136C113.699 25.9286 113.463 26.2139 112.99 26.2139C112.705 26.2139 112.439 26.1352 112.252 26.0565V27.3555Z" fill="white"/>
<path d="M124.426 20.3782H118.492V27.385H120.027V21.6871H122.89V27.385H124.426V20.3782Z" fill="white"/>
<path d="M131.72 20.3782H130.185V23.0156H127.321V20.3782H125.786V27.385H127.321V24.3638H130.185V27.385H131.72V20.3782Z" fill="white"/>
<path d="M136.249 20.2109C134.153 20.2109 132.775 21.6674 132.775 23.8915C132.775 26.086 134.163 27.5523 136.239 27.5523C138.296 27.5523 139.683 26.0762 139.683 23.8915C139.683 21.6969 138.296 20.2109 136.249 20.2109ZM136.229 21.4706C137.4 21.4706 138.128 22.3858 138.128 23.8619C138.128 25.3578 137.41 26.2828 136.249 26.2828C135.058 26.273 134.33 25.3676 134.33 23.8619C134.33 22.4055 135.068 21.4706 136.229 21.4706Z" fill="white"/>
<path d="M143.469 20.3782V27.385H146.972C148.291 27.385 149.344 26.6666 149.344 25.2987C149.344 24.3245 148.793 23.7931 148.064 23.5864C148.635 23.3305 149.019 22.8188 149.019 22.1398C149.019 20.8998 148.015 20.3782 146.785 20.3782H143.469ZM144.964 21.569H146.362C146.952 21.569 147.523 21.6871 147.523 22.3956C147.523 23.1042 146.923 23.2124 146.362 23.2124H144.964V21.569ZM144.964 24.2556H146.431C147.12 24.2556 147.808 24.3638 147.808 25.2102C147.808 26.0368 147.169 26.1647 146.509 26.1647H144.964V24.2556Z" fill="white"/>
<path d="M20.7969 39.8808C20.7969 32.7009 20.7969 25.3828 20.7969 18.2029C20.7969 17.3744 20.9295 16.5459 21.5924 15.8556C21.8576 15.5794 21.9902 15.5794 22.2553 15.8556C26.8958 20.8263 31.6689 25.797 36.3095 30.7678C39.3589 33.9436 42.4084 37.2574 45.4579 40.4331C45.7231 40.7093 45.7231 40.8474 45.4579 41.2616C38.0331 48.9939 30.6083 56.7262 23.1834 64.4584C22.7857 64.8727 22.3879 64.8727 21.9901 64.5965C21.1946 63.9061 20.9295 63.0777 20.9295 62.1111C20.9295 57.8308 20.9295 53.5504 20.9295 49.27C20.7969 45.9562 20.7969 42.9185 20.7969 39.8808Z" fill="white"/>
<path d="M23.4492 15.0195C23.9796 15.0195 24.3773 15.1576 24.7751 15.4338C34.3213 20.9568 43.8675 26.4799 53.2811 32.141C53.6789 32.4172 53.6789 32.5552 53.4137 32.8314C51.2923 35.0406 49.1709 37.2498 47.0496 39.459C46.7844 39.7352 46.6518 39.8733 46.3866 39.459C38.8292 31.4506 31.2718 23.4422 23.5818 15.2957C23.7144 15.2957 23.5818 15.1576 23.4492 15.0195Z" fill="white"/>
<path d="M25.5742 64.1736C32.4687 56.8556 39.3632 49.6756 46.2576 42.3575C46.6554 41.9433 46.9206 41.9433 47.3183 42.3575C49.042 44.2906 50.8982 46.0856 52.6218 48.0187C52.887 48.2948 53.0195 48.4329 52.4892 48.7091C43.6059 53.8179 34.7227 58.7886 25.8394 63.8975C25.8394 63.8975 25.7068 64.0355 25.5742 64.1736Z" fill="white"/>
<path d="M65.0918 40.1481C65.0918 40.9765 64.694 41.5288 64.1637 41.943C63.7659 42.2192 63.2356 42.4954 62.8378 42.7715C60.1861 44.2903 57.4018 45.8092 54.7501 47.4661C54.3523 47.7422 54.2197 47.6042 53.8219 47.328C51.9657 45.2569 49.977 43.1857 48.1208 41.2527C47.8556 40.9765 47.8556 40.8384 48.1208 40.5623C50.3747 38.215 52.6287 35.8677 54.8826 33.6585C55.1478 33.3823 55.2804 33.3823 55.6782 33.5204C58.3299 35.0392 60.9816 36.5581 63.6333 38.215C64.4289 38.4911 65.0918 39.0434 65.0918 40.1481Z" fill="white"/>
</svg>
