<svg width="20" height="21" viewBox="0 0 20 21" fill="none" xmlns="http://www.w3.org/2000/svg">
<g clip-path="url(#clip0)">
<path d="M9.96632 12.1115C12.922 12.1115 15.3194 9.71416 15.3194 6.75851C15.3194 3.80286 12.922 1.42188 9.96632 1.42188C7.01067 1.42188 4.61328 3.81926 4.61328 6.75851C4.61328 9.69776 7.01063 12.1115 9.96632 12.1115ZM9.96632 2.81761C12.1338 2.81761 13.9072 4.591 13.9072 6.75851C13.9072 8.92602 12.1338 10.6994 9.96632 10.6994C7.79884 10.6994 6.02542 8.92598 6.02542 6.75847C6.02542 4.59096 7.79881 2.81761 9.96632 2.81761Z" fill="#000"/>
<path d="M0.706068 20.4689H19.2939C19.688 20.4689 20 20.1569 20 19.7628C20 16.0682 16.9951 13.0469 13.2841 13.0469H6.71594C3.02135 13.0469 0 16.0518 0 19.7628C0 20.1569 0.311982 20.4689 0.706068 20.4689ZM6.71594 14.459H13.2841C15.977 14.459 18.1937 16.4623 18.5386 19.0567H1.46141C1.80622 16.4787 4.023 14.459 6.71594 14.459Z" fill="#000"/>
</g>
<defs>
<clipPath id="clip0">
<rect width="20" height="20" fill="#000" transform="translate(0 0.945312)"/>
</clipPath>
</defs>
</svg>
