<svg width="20" height="20" viewBox="0 0 20 20" fill="none" xmlns="http://www.w3.org/2000/svg">
<path d="M9.96632 10.6897C12.922 10.6897 15.3194 8.29228 15.3194 5.33663C15.3194 2.38099 12.922 0 9.96632 0C7.01067 0 4.61328 2.39739 4.61328 5.33663C4.61328 8.27588 7.01063 10.6897 9.96632 10.6897ZM9.96632 1.39574C12.1338 1.39574 13.9072 3.16912 13.9072 5.33663C13.9072 7.50414 12.1338 9.2775 9.96632 9.2775C7.79884 9.2775 6.02542 7.50411 6.02542 5.3366C6.02542 3.16909 7.79881 1.39574 9.96632 1.39574Z" fill="#66CE76"/>
<path d="M0.706068 19.047H19.2939C19.688 19.047 20 18.735 20 18.3409C20 14.6463 16.9951 11.625 13.2841 11.625H6.71594C3.02135 11.625 0 14.6299 0 18.3409C0 18.735 0.311982 19.047 0.706068 19.047ZM6.71594 13.0371H13.2841C15.977 13.0371 18.1937 15.0404 18.5386 17.6348H1.46141C1.80622 15.0569 4.023 13.0371 6.71594 13.0371Z" fill="#66CE76"/>
</svg>
