<svg width="118" height="37" viewBox="0 0 118 37" fill="none" xmlns="http://www.w3.org/2000/svg">
<path d="M41.0843 2.41406C43.8293 2.41406 46.3059 3.56912 48.0809 5.4382C49.8558 3.56912 52.3325 2.41406 55.0775 2.41406C60.4642 2.41406 64.819 6.84527 64.819 12.3265V22.281C64.819 23.8141 63.5807 25.0741 62.074 25.0741C60.5674 25.0741 59.3291 23.8141 59.3291 22.281V21.2519V12.3265C59.3291 9.93241 57.4303 8.00032 55.0775 8.00032C52.7246 8.00032 50.8259 9.93241 50.8259 12.3265V21.2519V22.281C50.8259 23.8141 49.5875 25.0741 48.0809 25.0741C46.5742 25.0741 45.3359 23.8141 45.3359 22.281V21.2519V12.3265C45.3359 9.93241 43.4371 8.00032 41.0843 8.00032C38.7315 8.00032 36.8327 9.93241 36.8327 12.3265V21.2519V22.281C36.8327 23.8141 35.5944 25.0741 34.0877 25.0741C32.5811 25.0741 31.3428 23.8141 31.3428 22.281V12.3265V5.20719C31.3428 3.67412 32.5811 2.41406 34.0877 2.41406C35.0371 2.41406 35.8627 2.89708 36.358 3.65312C37.7615 2.87608 39.3713 2.41406 41.0843 2.41406Z" fill="white"/>
<path d="M88.3367 2.41406C87.2016 2.41406 86.2316 3.1071 85.8188 4.11514C84.1058 3.04409 82.1038 2.41406 79.9573 2.41406C73.807 2.41406 68.833 7.4753 68.833 13.7336C68.833 19.9919 73.807 25.0531 79.9573 25.0531C82.1038 25.0531 84.1264 24.4231 85.8188 23.352C86.2316 24.3391 87.2222 25.0531 88.3367 25.0531C89.8434 25.0531 91.0817 23.7931 91.0817 22.26V13.7336V5.20719C91.0817 3.67412 89.8434 2.41406 88.3367 2.41406ZM79.9573 19.4879C76.8409 19.4879 74.3229 16.9257 74.3229 13.7546C74.3229 10.5834 76.8409 8.02133 79.9573 8.02133C83.0738 8.02133 85.5918 10.5834 85.5918 13.7546C85.5918 16.9047 83.0738 19.4879 79.9573 19.4879Z" fill="white"/>
<path d="M114.583 2.41406C113.468 2.41406 112.498 3.10709 112.044 4.07314C107.751 1.40602 102.076 1.95204 98.3608 5.73222C94.006 10.1634 94.006 17.3248 98.3608 21.756C101.993 25.4521 107.524 26.0612 111.797 23.5621V25.0741C111.797 28.1823 109.279 30.7444 106.224 30.7444C104.635 30.7444 103.108 30.0514 102.055 28.8123C102.014 28.7703 101.993 28.7283 101.952 28.7073C100.858 27.5942 99.1038 27.5942 98.01 28.7073C96.978 29.7573 96.9161 31.4374 97.8655 32.5505C99.9707 35.0076 103.025 36.4147 106.245 36.4147C112.354 36.4147 117.369 31.3114 117.369 25.0951C117.369 25.0951 117.369 23.8981 117.369 22.26V13.7336V5.2492C117.369 3.69512 116.11 2.41406 114.583 2.41406ZM110.166 17.7448C107.999 19.9499 104.47 19.9499 102.303 17.7448C100.136 15.5397 100.136 11.9485 102.303 9.74341C104.47 7.5383 107.999 7.5383 110.166 9.74341C111.239 10.8355 111.797 12.2845 111.797 13.7126V13.7756C111.797 15.2037 111.239 16.6527 110.166 17.7448Z" fill="white"/>
<path fill-rule="evenodd" clip-rule="evenodd" d="M22.5995 27.4903H2.972C1.32089 27.4903 0 26.1252 0 24.4661V3.02414C0 1.34406 1.32089 0 2.972 0H22.5995C24.2507 0 25.5715 1.36506 25.5715 3.02414V24.4661C25.5715 26.1462 24.23 27.4903 22.5995 27.4903ZM19.7314 2.44644C21.2587 2.44644 22.5177 3.7275 22.5177 5.28157V15.4671C22.5177 15.5931 22.5177 15.6981 22.497 15.8241C22.1462 20.9903 17.9359 25.0645 12.7761 25.0645C7.3894 25.0645 3.0346 20.6333 3.0346 15.152V15.131V15.11V5.26057C3.0346 3.7065 4.29357 2.42544 5.82084 2.42544C7.34812 2.42544 8.60709 3.7065 8.60709 5.26057V15.257C8.68964 17.5462 10.5059 19.3522 12.7761 19.3522C15.0464 19.3522 16.8626 17.5462 16.9452 15.278V5.28157C16.9452 3.7275 18.2042 2.44644 19.7314 2.44644Z" fill="white"/>
</svg>
