<svg width="117" height="38" viewBox="0 0 117 38" fill="none" xmlns="http://www.w3.org/2000/svg">
<path d="M39.2702 2.49609C42.0888 2.49609 44.6318 3.68786 46.4543 5.61636C48.2769 3.68786 50.8199 2.49609 53.6385 2.49609C59.1696 2.49609 63.6411 7.06816 63.6411 12.7236V22.9945C63.6411 24.5763 62.3696 25.8764 60.8226 25.8764C59.2756 25.8764 58.004 24.5763 58.004 22.9945V21.9328V12.7236C58.004 10.2534 56.0544 8.25993 53.6385 8.25993C51.2226 8.25993 49.2729 10.2534 49.2729 12.7236V21.9328V22.9945C49.2729 24.5763 48.0014 25.8764 46.4543 25.8764C44.9073 25.8764 43.6358 24.5763 43.6358 22.9945V21.9328V12.7236C43.6358 10.2534 41.6861 8.25993 39.2702 8.25993C36.8543 8.25993 34.9047 10.2534 34.9047 12.7236V21.9328V22.9945C34.9047 24.5763 33.6331 25.8764 32.0861 25.8764C30.5391 25.8764 29.2676 24.5763 29.2676 22.9945V12.7236V5.37801C29.2676 3.79621 30.5391 2.49609 32.0861 2.49609C33.061 2.49609 33.9086 2.99447 34.4172 3.77454C35.8583 2.9728 37.5113 2.49609 39.2702 2.49609Z" fill="#66CE76"/>
<path d="M3.05166 28.3641H23.2053C24.8795 28.3641 26.257 26.9773 26.257 25.2439V3.12027C26.257 1.40846 24.9007 0 23.2053 0H3.05166C1.35629 0 0 1.38679 0 3.12027V25.2439C0 26.9557 1.35629 28.3641 3.05166 28.3641Z" fill="#F7C33B"/>
<path d="M87.0363 2.49609C85.8707 2.49609 84.8747 3.21116 84.4508 4.25125C82.6919 3.14615 80.6363 2.49609 78.4323 2.49609C72.1171 2.49609 67.0098 7.71822 67.0098 14.1754C67.0098 20.6327 72.1171 25.8548 78.4323 25.8548C80.6363 25.8548 82.7131 25.2047 84.4508 24.0996C84.8747 25.1181 85.8919 25.8548 87.0363 25.8548C88.5833 25.8548 89.8548 24.5547 89.8548 22.9729V14.1754V5.37801C89.8548 3.79621 88.5833 2.49609 87.0363 2.49609ZM78.4323 20.1126C75.2323 20.1126 72.6469 17.4691 72.6469 14.1971C72.6469 10.9252 75.2323 8.2816 78.4323 8.2816C81.6323 8.2816 84.2177 10.9252 84.2177 14.1971C84.2177 17.4474 81.6323 20.1126 78.4323 20.1126Z" fill="#66CE76"/>
<path d="M114.139 2.49609C112.994 2.49609 111.998 3.21116 111.532 4.20791C107.124 1.456 101.296 2.01939 97.4816 5.91972C93.01 10.4918 93.01 17.8808 97.4816 22.4528C101.211 26.2665 106.891 26.8949 111.278 24.3163V25.8765C111.278 29.0834 108.692 31.727 105.556 31.727C103.924 31.727 102.356 31.0119 101.275 29.7335C101.233 29.6901 101.211 29.6468 101.169 29.6251C100.046 28.4767 98.2445 28.4767 97.1213 29.6251C96.0617 30.7085 95.9981 32.442 96.973 33.5905C99.1346 36.1257 102.271 37.5775 105.577 37.5775C111.85 37.5775 116.999 32.312 116.999 25.8981C116.999 25.8981 116.999 24.663 116.999 22.9729V14.1754V5.42135C116.999 3.81788 115.707 2.49609 114.139 2.49609ZM109.603 18.3141C107.378 20.5893 103.754 20.5893 101.529 18.3141C99.3041 16.0389 99.3041 12.3336 101.529 10.0584C103.754 7.78322 107.378 7.78322 109.603 10.0584C110.705 11.1852 111.278 12.6803 111.278 14.1538V14.2188C111.278 15.6922 110.705 17.1874 109.603 18.3141Z" fill="#66CE76"/>
<path d="M23.1215 5.41958C23.1215 3.81611 21.8288 2.49432 20.2606 2.49432C18.6924 2.49432 17.3997 3.81611 17.3997 5.41958V15.7338C17.3149 18.074 15.45 19.9375 13.1189 19.9375C10.7877 19.9375 8.92284 18.074 8.83807 15.7121V5.39791C8.83807 3.79444 7.54536 2.47266 5.97714 2.47266C4.40893 2.47266 3.11621 3.79444 3.11621 5.39791V15.5605V15.5821V15.6038C3.11621 21.2593 7.58774 25.8314 13.1189 25.8314C18.4169 25.8314 22.7401 21.6277 23.1003 16.2972C23.1215 16.1672 23.1215 16.0588 23.1215 15.9288V5.41958Z" fill="white"/>
</svg>
