<svg xmlns="http://www.w3.org/2000/svg" viewBox="0 0 1093.73 354.63"><defs><style>.cls-1{fill:#ffae1f;}.cls-2{fill:#2dbe60;}.cls-3{fill:#fff;}</style></defs><title>Asset 1</title><g id="Layer_2" data-name="Layer 2"><g id="Слой_1" data-name="Слой 1"><rect class="cls-1" width="297.64" height="297.64" rx="144.79" ry="144.79"/><path class="cls-2" d="M422.7,58.67a86.07,86.07,0,0,1,62,26.28,86.32,86.32,0,0,1,148.34,60v86.67A24.38,24.38,0,0,1,608.74,256h0a24.39,24.39,0,0,1-24.31-24.31V145A37.7,37.7,0,1,0,509,145v86.67A24.39,24.39,0,0,1,484.71,256h0a24.39,24.39,0,0,1-24.31-24.31V145A37.7,37.7,0,1,0,385,145v86.67A24.38,24.38,0,0,1,360.69,256h0a24.39,24.39,0,0,1-24.31-24.31V83a24.39,24.39,0,0,1,24.31-24.31h0a24.34,24.34,0,0,1,20.18,10.8,85.93,85.93,0,0,1,41.83-10.8Z"/><path class="cls-2" d="M835.09,58.67h0a24.4,24.4,0,0,0-22.36,14.8,98.66,98.66,0,1,0,0,167.72A24.4,24.4,0,0,0,835.09,256h0a24.39,24.39,0,0,0,24.31-24.31V83A24.39,24.39,0,0,0,835.09,58.67ZM760.75,207.35a50,50,0,1,1,50-50A50,50,0,0,1,760.75,207.35Z"/><path class="cls-2" d="M1069.07,58.67h0a24.73,24.73,0,0,0-22.45,14.54,98.65,98.65,0,1,0-2.27,169.6h0v13.1A49.35,49.35,0,0,1,958,288.52l0,0q-.46-.51-.95-1A24.66,24.66,0,0,0,920.88,321h0a98.7,98.7,0,0,0,74.2,33.63c54.12,0,98.66-44.53,98.66-98.66V157.33h0v-74A24.73,24.73,0,0,0,1069.07,58.67ZM1030,192.17A49.37,49.37,0,1,1,1044.41,157v.52A49.18,49.18,0,0,1,1030,192.17Z"/><path class="cls-3" d="M235.14,83.33a24.73,24.73,0,0,0-24.66-24.66h0a24.73,24.73,0,0,0-24.66,24.66l-.05,87a37,37,0,0,1-73.92,0l0-87A24.73,24.73,0,0,0,87.15,58.67h0A24.73,24.73,0,0,0,62.49,83.33v85.86c0,.06,0,.13,0,.19s0,.18,0,.27a86.32,86.32,0,0,0,172.44,5.88,24.58,24.58,0,0,0,.21-3.14Z"/></g></g></svg>