<svg xmlns="http://www.w3.org/2000/svg" width="57.621" height="45.617" viewBox="0 0 57.621 45.617">
  <g id="up-arrow" transform="translate(57.621 -53.334) rotate(90)">
    <path id="Path_1763" data-name="Path 1763" d="M76.978.355a1.2,1.2,0,0,0-1.7,0l0,0L53.671,21.963a1.2,1.2,0,0,0,1.7,1.7L74.928,4.1V56.423a1.2,1.2,0,0,0,2.4,0V4.1L96.886,23.658a1.2,1.2,0,1,0,1.727-1.668l-.029-.029Z" transform="translate(0 -0.002)" fill="#4caf50"/>
    <path id="Path_1764" data-name="Path 1764" d="M97.755,24.021a1.2,1.2,0,0,1-.85-.351L76.147,2.91,55.389,23.671a1.2,1.2,0,0,1-1.7-1.7L75.3.365a1.2,1.2,0,0,1,1.7,0L98.605,21.973a1.2,1.2,0,0,1-.85,2.048Z" transform="translate(-0.019 -0.012)"/>
    <path id="Path_1765" data-name="Path 1765" d="M246.414,57.621a1.2,1.2,0,0,1-1.2-1.2V1.2a1.2,1.2,0,0,1,2.4,0v55.22A1.2,1.2,0,0,1,246.414,57.621Z" transform="translate(-170.285)"/>
  </g>
</svg>
