<svg width="16" height="17" viewBox="0 0 16 17" fill="none" xmlns="http://www.w3.org/2000/svg">
<path fill-rule="evenodd" clip-rule="evenodd" d="M13.7239 16.5851C14.2446 17.1383 15.0888 17.1383 15.6095 16.5851C16.1302 16.0319 16.1302 15.1348 15.6095 14.5816L9.88563 8.50002L15.6095 2.41841C16.1302 1.86516 16.1302 0.968178 15.6095 0.414934C15.0888 -0.13831 14.2446 -0.13831 13.7239 0.414934L8.00002 6.49655L2.27615 0.414933C1.75544 -0.138311 0.911226 -0.138311 0.390526 0.414933C-0.130175 0.968176 -0.130175 1.86516 0.390526 2.41841L6.1144 8.50002L0.390525 14.5816C-0.130175 15.1348 -0.130175 16.0319 0.390525 16.5851C0.911226 17.1383 1.75544 17.1383 2.27615 16.5851L8.00002 10.5035L13.7239 16.5851Z" fill="#555555" fill-opacity="0.5"/>
</svg>
