<svg width="62" height="66" viewBox="0 0 62 66" fill="none" xmlns="http://www.w3.org/2000/svg">
<path d="M21.4446 37.1258C22.9524 38.6336 24.9331 39.3876 26.9137 39.3876C28.8943 39.3876 30.875 38.6337 32.3828 37.1258C32.7619 36.7467 32.7619 36.132 32.3828 35.7531C32.0038 35.374 31.3891 35.374 31.0102 35.7531C28.7514 38.0118 25.076 38.0118 22.8173 35.7531C22.4382 35.374 21.8235 35.374 21.4446 35.7531C21.0654 36.132 21.0654 36.7467 21.4446 37.1258Z" fill="#66CE76"/>
<path d="M20.2129 31.6021C20.749 31.6021 21.1836 31.1675 21.1836 30.6314V26.8496C21.1836 26.3135 20.749 25.8789 20.2129 25.8789C19.6768 25.8789 19.2422 26.3135 19.2422 26.8496V30.6314C19.2422 31.1675 19.6768 31.6021 20.2129 31.6021Z" fill="#66CE76"/>
<path d="M33.6191 31.6021C34.1552 31.6021 34.5898 31.1675 34.5898 30.6314V26.8496C34.5898 26.3135 34.1552 25.8789 33.6191 25.8789C33.083 25.8789 32.6484 26.3135 32.6484 26.8496V30.6314C32.6484 31.1675 33.083 31.6021 33.6191 31.6021Z" fill="#66CE76"/>
<path d="M49.9614 42.406C45.6128 42.406 41.8088 44.7815 39.7785 48.3029C39.3751 47.7893 38.9422 47.2986 38.4807 46.8363C38.0538 46.4094 37.5978 46.0068 37.1229 45.627C38.1946 44.7688 39.1533 43.7803 39.9766 42.6874H40.4606C46.5617 42.6874 50.0319 41.714 51.7124 39.5313C53.6732 36.9844 52.7166 33.3678 51.609 29.1803C50.8187 26.1927 49.923 22.8066 49.923 19.2652C49.923 16.107 49.3069 13.2698 48.0917 10.8324C47.8525 10.3526 47.2696 10.1577 46.7899 10.3967C46.3101 10.6359 46.1151 11.2187 46.3543 11.6985C47.4341 13.8644 47.9817 16.4102 47.9817 19.2651C47.9817 23.0589 48.9117 26.5747 49.7322 29.6766C50.7489 33.5207 51.5521 36.557 50.1741 38.3468C48.9935 39.8804 46.0659 40.6647 41.2386 40.7394C42.5387 38.3835 43.2719 35.6861 43.2719 32.847V22.6625C43.2719 22.1575 42.8845 21.7367 42.3812 21.6951C38.945 21.4108 35.8457 20.4131 33.4182 18.8098C30.6688 16.9938 28.7941 14.4441 27.846 11.2314C27.7242 10.8188 27.3454 10.5355 26.9151 10.5355C26.4848 10.5355 26.106 10.8186 25.9841 11.2312C25.0354 14.4441 23.1605 16.9939 20.4115 18.8099C17.9843 20.4133 14.8855 21.411 11.4502 21.6952C10.9469 21.7369 10.5595 22.1575 10.5595 22.6626V32.8471C10.5595 35.7075 11.2984 38.3981 12.594 40.7397C7.76432 40.6652 4.83542 39.8809 3.65454 38.347C2.27654 36.5571 3.07976 33.5208 4.09653 29.6766C4.91696 26.5748 5.84701 23.0589 5.84701 19.2652C5.84701 13.705 7.88754 9.43287 11.9119 6.56791C15.5384 3.98587 20.7263 2.62107 26.9147 2.62107C34.9116 2.62107 41.2227 4.93236 44.6856 9.12924C45.0269 9.54263 45.6385 9.60126 46.0522 9.26022C46.4657 8.91905 46.5243 8.30726 46.1832 7.89362C44.1742 5.45886 41.3965 3.60328 37.927 2.37814C34.7352 1.2511 31.0301 0.679688 26.9147 0.679688C20.3204 0.679688 14.7432 2.16886 10.7856 4.98633C8.59627 6.545 6.90079 8.50528 5.74645 10.8128C4.5248 13.2547 3.90537 16.0984 3.90537 19.2652C3.90537 22.8066 3.00974 26.1927 2.21947 29.1803C1.11184 33.3678 0.155257 36.9844 2.11606 39.5313C3.79652 41.7141 7.26668 42.6875 13.3678 42.6875H13.8594C14.6845 43.7795 15.6432 44.7647 16.711 45.6195C12.8416 48.7131 10.5593 53.4203 10.5593 58.4024C10.5593 58.9385 10.9939 59.3731 11.53 59.3731C12.066 59.3731 12.5007 58.9385 12.5007 58.4024C12.5007 54.2628 14.2897 50.3393 17.3523 47.6188C18.3875 51.965 22.2934 55.1616 26.9145 55.1616C27.5395 55.1616 28.1678 55.1018 28.7815 54.9836C32.6304 54.2444 35.5985 51.3268 36.4782 47.6207C36.6936 47.8116 36.905 48.0063 37.1073 48.2085C37.7554 48.8576 38.3415 49.5693 38.8556 50.3282C38.4417 51.5271 38.2164 52.8133 38.2164 54.151C38.2164 57.2172 39.3979 60.0122 41.3289 62.106V63.9545H12.5007V62.2851C12.5007 61.7491 12.066 61.3144 11.53 61.3144C10.9939 61.3144 10.5593 61.7491 10.5593 62.2851V64.9252C10.5593 65.4613 10.9939 65.8959 11.53 65.8959H42.2996C42.8357 65.8959 43.2703 65.4613 43.2703 64.9252V63.798C45.1702 65.1198 47.4767 65.896 49.9615 65.896C56.4378 65.896 61.7066 60.6272 61.7066 54.1509C61.7066 47.6745 56.4376 42.406 49.9614 42.406ZM12.5005 32.8471V23.5414C19.3209 22.746 24.4244 19.4186 26.9145 14.2137C29.404 19.4186 34.5081 22.7459 41.3301 23.5414V32.8471C41.3301 39.748 36.4196 45.7004 29.6534 47.0005C28.8874 47.1482 28.1034 47.2341 27.3231 47.2561H27.3159C27.3064 47.2561 27.2969 47.2562 27.2874 47.2565C27.1635 47.2601 27.0397 47.2613 26.9147 47.2613C18.9666 47.2613 12.5005 40.7952 12.5005 32.8471ZM28.415 53.077C27.9215 53.1719 27.4166 53.22 26.9144 53.22C23.2539 53.22 20.1513 50.7217 19.2725 47.3036C21.5548 48.515 24.1558 49.2027 26.9147 49.2027C27.0539 49.2027 27.192 49.2014 27.3299 49.1975H27.3365C27.3453 49.1975 27.3541 49.1974 27.363 49.1971C28.2528 49.1728 29.147 49.0752 30.0202 48.9069C31.6356 48.5964 33.1574 48.0516 34.5541 47.3131C33.8068 50.2183 31.453 52.4936 28.415 53.077ZM49.9614 63.9547C44.5555 63.9547 40.1576 59.5569 40.1576 54.151C40.1576 48.7451 44.5555 44.3473 49.9614 44.3473C55.3672 44.3473 59.7651 48.7451 59.7651 54.151C59.7651 59.5569 55.3671 63.9547 49.9614 63.9547Z" fill="#66CE76"/>
<path d="M55.1366 48.0399C54.6569 47.8006 54.0741 47.9951 53.8345 48.4746L49.2224 57.7116L46.5892 53.4572C46.307 53.0014 45.709 52.8606 45.2529 53.1427C44.7971 53.4249 44.6563 54.0232 44.9384 54.4791L48.4878 60.2137C48.6652 60.5003 48.978 60.6735 49.313 60.6735C49.3278 60.6735 49.3425 60.6732 49.3574 60.6725C49.709 60.6564 50.0243 60.4514 50.1816 60.1364L55.5714 49.342C55.8109 48.8624 55.6162 48.2793 55.1366 48.0399Z" fill="#66CE76"/>
</svg>
