<svg width="67" height="66" viewBox="0 0 67 66" fill="none" xmlns="http://www.w3.org/2000/svg">
<path d="M50.6043 2.6149H58.5063C59.0407 2.6149 59.4739 2.18167 59.4739 1.64729C59.4739 1.11292 59.0407 0.679688 58.5063 0.679688H50.6043C50.0699 0.679688 49.6367 1.11292 49.6367 1.64729C49.6367 2.18167 50.0699 2.6149 50.6043 2.6149Z" fill="#66CE76"/>
<path d="M1.93245 3.32583H9.83442C10.3688 3.32583 10.802 2.89261 10.802 2.35823C10.802 1.82385 10.3688 1.39062 9.83442 1.39062H1.93245C1.39807 1.39062 0.964844 1.82385 0.964844 2.35823C0.964844 2.89261 1.39807 3.32583 1.93245 3.32583Z" fill="#66CE76"/>
<path d="M65.062 18.6751C65.5963 18.6751 66.0296 18.2419 66.0296 17.7075C66.0296 17.1731 65.5963 16.7399 65.062 16.7399H51.4438C51.1871 16.7399 50.941 16.8418 50.7596 17.0233L50.271 17.5119C49.0782 14.7126 47.3331 12.1492 45.0946 9.96396C44.4871 9.37088 43.8518 8.81625 43.1932 8.29826L45.2877 6.20372H58.5052C59.0396 6.20372 59.4728 5.77049 59.4728 5.23611C59.4728 4.70174 59.0396 4.26851 58.5052 4.26851H44.8869C44.6303 4.26851 44.3841 4.37043 44.2027 4.55195L41.6036 7.15107C37.8294 4.66458 33.4085 3.32812 28.7952 3.32812C24.6278 3.32812 20.7126 4.42745 17.3227 6.3495L16.2347 5.26153C16.0533 5.08001 15.8071 4.97808 15.5505 4.97808H1.93245C1.39807 4.97808 0.964844 5.41131 0.964844 5.94569C0.964844 6.48007 1.39807 6.91329 1.93245 6.91329H15.1499L15.6382 7.40161C9.49821 11.6089 5.46137 18.6716 5.46059 26.6603C5.46059 26.6613 5.46046 26.6624 5.46046 26.6634C5.46046 26.6646 5.46059 26.6657 5.46059 26.667C5.46292 39.5325 15.9299 49.9988 28.7953 49.9988C30.264 49.9988 31.7267 49.8599 33.1595 49.5888V60.2847C33.1595 63.3794 35.6772 65.8971 38.7719 65.8971H60.3311C63.4259 65.8971 65.9436 63.3794 65.9436 60.2847V54.1696C65.9436 53.6352 65.5104 53.202 64.976 53.202C64.4417 53.202 64.0084 53.6352 64.0084 54.1696V55.0509H58.2313V48.0749H64.0084V50.299C64.0084 50.8334 64.4417 51.2666 64.976 51.2666C65.5104 51.2666 65.9436 50.8334 65.9436 50.299V30.7246C65.9436 27.63 63.4259 25.1123 60.3311 25.1123H52.0777C51.9518 23.1871 51.5929 21.307 51.0145 19.5053L51.8446 18.6752H65.062V18.6751ZM38.9067 11.2163C39.0956 11.4052 39.3433 11.4997 39.5909 11.4997C39.8384 11.4997 40.0861 11.4053 40.275 11.2163L41.8147 9.67664C42.4849 10.1922 43.1291 10.7497 43.7428 11.3487C44.2026 11.7975 44.6387 12.2647 45.0525 12.7468L29.7631 24.6806V5.28553C33.5068 5.45169 37.0849 6.5807 40.2029 8.55164L38.9067 9.84785C38.5288 10.2257 38.5288 10.8384 38.9067 11.2163ZM48.5838 39.1637V46.1396H42.8068V39.1637H48.5838ZM56.2961 39.1637V46.1396H50.5191V39.1637H56.2961ZM48.5838 63.962H42.8068V56.9861H48.5838V63.962ZM50.519 56.9861H56.296V63.962H50.519V56.9861ZM42.8068 55.0509V48.0749H48.5838V55.0509H42.8068ZM35.0946 48.0748H40.8716V55.0507H35.0946V48.0748ZM40.8716 46.1396H35.0946V39.1637H40.8716V46.1396ZM35.0946 60.2848V56.9861H40.8716V63.962H38.7719C36.7442 63.962 35.0946 62.3124 35.0946 60.2848ZM64.0083 56.9861V60.2848C64.0083 62.3124 62.3587 63.962 60.331 63.962H58.2312V56.9861H64.0083ZM56.2961 55.0509H50.5191V48.0749H56.2961V55.0509ZM58.2313 46.1396V39.1637H64.0084V46.1396H58.2313ZM64.0083 30.7246V37.2285H35.0946V30.7246C35.0946 28.697 36.7442 27.0475 38.7717 27.0475H60.331C62.3587 27.0475 64.0083 28.697 64.0083 30.7246ZM50.1389 25.1123H38.7719C35.6772 25.1123 33.1595 27.63 33.1595 30.7246V47.6166C31.7309 47.9124 30.2666 48.0636 28.7953 48.0636C17.3202 48.0636 7.92682 38.9837 7.41864 27.631H9.87094C10.4053 27.631 10.8385 27.1978 10.8385 26.6634C10.8385 26.129 10.4053 25.6958 9.87094 25.6958H7.41851C7.73395 18.6389 11.4832 12.461 17.0321 8.79561L20.1624 11.9259C20.3513 12.1147 20.599 12.2093 20.8465 12.2093C21.0941 12.2093 21.3418 12.1149 21.5307 11.9259C21.9086 11.548 21.9086 10.9353 21.5307 10.5576L18.7471 7.77382C21.4772 6.3157 24.558 5.43221 27.8279 5.28604V25.6958H13.7415C13.2071 25.6958 12.7739 26.129 12.7739 26.6634C12.7739 27.1978 13.2071 27.631 13.7415 27.631H28.7955C28.7956 27.631 28.7957 27.631 28.7959 27.631C29.0076 27.6309 29.2176 27.5615 29.3909 27.4261L46.2458 14.2704C47.293 15.7395 48.1449 17.3263 48.785 18.9979L45.4636 22.3194C45.0857 22.6973 45.0857 23.3099 45.4636 23.6877C45.6524 23.8767 45.9002 23.9711 46.1477 23.9711C46.3953 23.9711 46.643 23.8767 46.8319 23.6877L49.4564 21.0632C49.8107 22.3773 50.0405 23.7319 50.1389 25.1123Z" fill="#66CE76"/>
<path d="M56.1953 14.116C56.1953 14.6504 56.6285 15.0836 57.1629 15.0836H65.0649C65.5993 15.0836 66.0325 14.6504 66.0325 14.116C66.0325 13.5817 65.5993 13.1484 65.0649 13.1484H57.1629C56.6285 13.1484 56.1953 13.5817 56.1953 14.116Z" fill="#66CE76"/>
<path d="M57.4832 36.2399H61.1041C61.6385 36.2399 62.0717 35.8067 62.0717 35.2723C62.0717 34.7379 61.6385 34.3047 61.1041 34.3047H57.4832C56.9489 34.3047 56.5156 34.7379 56.5156 35.2723C56.5156 35.8067 56.9489 36.2399 57.4832 36.2399Z" fill="#66CE76"/>
</svg>
