<svg width="67" height="66" viewBox="0 0 67 66" fill="none" xmlns="http://www.w3.org/2000/svg">
<path d="M65.1123 35.3561C64.5799 35.3048 64.1067 35.6955 64.0557 36.228C63.3797 43.2914 60.239 49.9497 55.2125 54.9764C50.2399 59.9483 43.926 62.9886 36.9537 63.7687C30.1843 64.5262 23.2779 62.9941 17.5063 59.4551C17.05 59.1752 16.4539 59.3184 16.1743 59.7745C15.8946 60.2305 16.0376 60.8269 16.4936 61.1065C21.6058 64.2411 27.5537 65.895 33.5565 65.895C34.7605 65.895 35.9671 65.8284 37.1692 65.694C40.7654 65.2917 44.2399 64.3051 47.4959 62.7617C50.8649 61.1648 53.922 59.0064 56.5824 56.3463C61.9264 51.0022 65.2653 43.9229 65.9842 36.4125C66.0352 35.88 65.6448 35.4071 65.1123 35.3561Z" fill="#66CE76"/>
<path d="M34.1525 56.6881C35.7154 56.6881 36.9866 55.4168 36.9866 53.8539V51.7403C42.5724 50.5253 45.7544 46.5283 45.7544 40.6626C45.7544 34.0297 41.6192 31.3202 36.9866 29.4974V21.0129C38.1541 21.2626 38.9806 21.6745 39.6746 22.0203C40.376 22.3698 40.9816 22.6715 41.6761 22.6715C43.7209 22.6715 44.8518 20.4084 44.8518 18.844C44.8518 16.014 40.8024 14.6795 36.9867 14.3421V12.7248C36.9867 11.162 35.7154 9.89062 34.1527 9.89062C32.5898 9.89062 31.3185 11.162 31.3185 12.7248V14.5519C28.9223 14.9851 26.8748 15.8976 25.3587 17.2141C23.2627 19.0344 22.1998 21.5404 22.1998 24.6622C22.1998 31.4088 27.2797 33.5682 31.3185 35.0283V39.6925C31.3185 40.2275 31.752 40.6612 32.2871 40.6612C32.8222 40.6612 33.2557 40.2275 33.2557 39.6925V34.3467C33.2557 33.9374 32.9984 33.5722 32.6128 33.4345C27.8103 31.7194 24.1369 29.9845 24.1369 24.6625C24.1369 18.3586 29.3214 16.7439 32.4117 16.3425C32.8943 16.2798 33.2556 15.8686 33.2556 15.3819V12.7248C33.2556 12.2302 33.6579 11.8279 34.1525 11.8279C34.647 11.8279 35.0494 12.2302 35.0494 12.7248V15.2469C35.0494 15.7639 35.4554 16.1898 35.9719 16.2145C39.8 16.3972 42.9145 17.5769 42.9145 18.8441C42.9145 19.4216 42.4466 20.7344 41.6761 20.7344C41.4375 20.7344 41.021 20.5268 40.5386 20.2865C39.5636 19.8006 38.2281 19.1352 36.1167 18.9192C35.8443 18.891 35.5723 18.9801 35.3689 19.1638C35.1655 19.3474 35.0494 19.6087 35.0494 19.8828V30.1633C35.0494 30.5671 35.2999 30.9288 35.6782 31.0703C39.7964 32.6127 43.8171 34.6239 43.8171 40.6626C43.8171 45.8354 40.992 49.1453 35.862 49.9827C35.3934 50.0592 35.0494 50.464 35.0494 50.9387V53.8539C35.0494 54.3485 34.647 54.7509 34.1525 54.7509C33.6579 54.7509 33.2556 54.3485 33.2556 53.8539V51.132C33.2556 50.6121 32.8449 50.1849 32.3254 50.1642C29.7664 50.0626 27.3631 49.3579 25.5583 48.1802C23.8427 47.0606 23.234 45.8896 23.234 45.2269C23.234 44.4143 23.997 43.3365 24.5725 43.3365C24.8351 43.3365 25.3703 43.7915 25.8879 44.2315C27.1041 45.2656 28.9419 46.8285 32.176 47.2016C32.4506 47.2335 32.7253 47.1461 32.9315 46.9624C33.1378 46.7786 33.2557 46.5156 33.2557 46.2393V43.5674C33.2557 43.0325 32.8222 42.5988 32.2871 42.5988C31.752 42.5988 31.3185 43.0325 31.3185 43.5674V45.0893C29.3355 44.6201 28.1354 43.5997 27.1428 42.7557C26.2867 42.0278 25.5475 41.3993 24.5727 41.3993C22.7581 41.3993 21.2969 43.4932 21.2969 45.2269C21.2969 48.1235 25.3665 51.4964 31.3186 52.0392V53.8539C31.3183 55.4166 32.5897 56.6881 34.1525 56.6881Z" fill="#66CE76"/>
<path d="M32.9035 19.3156C32.6806 19.1316 32.3869 19.0565 32.1037 19.1113C28.9511 19.7176 27.2148 21.5109 27.2148 24.1604C27.2148 27.3608 29.4787 28.7126 31.9252 29.6967C32.0417 29.7436 32.1645 29.7667 32.2866 29.7667C32.4773 29.7667 32.6664 29.7104 32.8289 29.6006C33.0955 29.4205 33.2553 29.1198 33.2553 28.7981V20.0625C33.2553 19.7734 33.1263 19.4996 32.9035 19.3156ZM31.3181 27.299C29.9047 26.5589 29.1521 25.6947 29.1521 24.1604C29.1521 23.6221 29.1522 22.1298 31.3181 21.3271V27.299Z" fill="#66CE76"/>
<path d="M35.4272 46.7915C35.598 46.922 35.8052 46.9906 36.0155 46.9906C36.1005 46.9906 36.1859 46.9795 36.2697 46.9566C39.1501 46.1733 40.7364 44.1325 40.7364 41.2102C40.7364 37.555 38.4375 35.9826 36.4347 35.0212C36.1348 34.8772 35.7817 34.8972 35.4997 35.0745C35.2179 35.2518 35.0469 35.5615 35.0469 35.8944V46.022C35.0467 46.3237 35.1874 46.6082 35.4272 46.7915ZM36.984 37.5786C38.2565 38.5085 38.799 39.6324 38.799 41.2102C38.799 42.8004 38.2028 43.9198 36.984 44.602V37.5786Z" fill="#66CE76"/>
<path d="M55.3512 17.7329C55.3741 17.7344 55.3967 17.7353 55.4191 17.7353C55.9235 17.7353 56.349 17.3445 56.3845 16.8337L56.6418 13.123C61.2978 18.4519 63.9609 25.1895 64.186 32.3133C64.2025 32.8377 64.6327 33.2514 65.1536 33.2514C65.1639 33.2514 65.1743 33.2512 65.1847 33.2509C65.7194 33.2339 66.1392 32.7868 66.1222 32.2521C65.8847 24.7345 63.094 17.6213 58.2123 11.976L61.689 12.2171C62.2202 12.2537 62.6853 11.8515 62.7223 11.3178C62.7593 10.7842 62.3567 10.3216 61.8229 10.2845L55.896 9.87342C55.364 9.83674 54.8996 10.239 54.8626 10.7727L54.4515 16.6997C54.4149 17.2332 54.8174 17.6958 55.3512 17.7329Z" fill="#66CE76"/>
<path d="M11.7025 48.8428C11.169 48.8057 10.7063 49.2084 10.6692 49.7421L10.4119 53.4532C5.52242 47.8657 2.85132 40.7828 2.85132 33.2884C2.85132 25.0952 6.04212 17.3922 11.8359 11.5982C16.8077 6.62643 23.1211 3.5861 30.0935 2.80603C36.8624 2.04856 43.769 3.58067 49.5406 7.11966C49.9969 7.39953 50.593 7.2563 50.8726 6.80027C51.1522 6.34424 51.0093 5.74782 50.5532 5.46821C44.416 1.70489 37.0728 0.0756529 29.878 0.880778C26.2818 1.28308 22.8076 2.26966 19.5518 3.81301C16.1829 5.40996 13.126 7.56833 10.4659 10.2283C4.3062 16.3882 0.914062 24.5777 0.914062 33.2884C0.914062 41.199 3.71224 48.6792 8.83965 54.5996L5.36459 54.3586C4.83094 54.3209 4.36833 54.7242 4.33126 55.2579C4.29432 55.7915 4.69689 56.2541 5.23067 56.2912L11.1576 56.7023C11.1805 56.7038 11.2031 56.7047 11.2256 56.7047C11.7299 56.7047 12.1555 56.3139 12.191 55.8031L12.6021 49.8761C12.6389 49.3424 12.2363 48.8797 11.7025 48.8428Z" fill="#66CE76"/>
</svg>
