<svg width="117" height="37" viewBox="0 0 117 37" fill="none" xmlns="http://www.w3.org/2000/svg">
<path d="M41.0899 2.69531C43.8131 2.69531 46.2701 3.84119 48.0309 5.69543C49.7918 3.84119 52.2488 2.69531 54.9719 2.69531C60.3159 2.69531 64.6361 7.09132 64.6361 12.529V22.4044C64.6361 23.9253 63.4076 25.1754 61.9129 25.1754C60.4183 25.1754 59.1898 23.9253 59.1898 22.4044V21.3836V12.529C59.1898 10.1539 57.3061 8.2372 54.9719 8.2372C52.6378 8.2372 50.7541 10.1539 50.7541 12.529V21.3836V22.4044C50.7541 23.9253 49.5256 25.1754 48.0309 25.1754C46.5363 25.1754 45.3078 23.9253 45.3078 22.4044V21.3836V12.529C45.3078 10.1539 43.4241 8.2372 41.0899 8.2372C38.7558 8.2372 36.8721 10.1539 36.8721 12.529V21.3836V22.4044C36.8721 23.9253 35.6436 25.1754 34.1489 25.1754C32.6543 25.1754 31.4258 23.9253 31.4258 22.4044V12.529V5.46626C31.4258 3.94536 32.6543 2.69531 34.1489 2.69531C35.0908 2.69531 35.9098 3.1745 36.4012 3.92453C37.7935 3.15366 39.3905 2.69531 41.0899 2.69531Z" fill="white"/>
<path d="M87.9699 2.69531C86.8438 2.69531 85.8814 3.38284 85.472 4.38288C83.7725 3.32034 81.7865 2.69531 79.6571 2.69531C73.5555 2.69531 68.6211 7.71635 68.6211 13.9249C68.6211 20.1335 73.5555 25.1546 79.6571 25.1546C81.7865 25.1546 83.793 24.5295 85.472 23.467C85.8814 24.4462 86.8642 25.1546 87.9699 25.1546C89.4646 25.1546 90.6931 23.9045 90.6931 22.3836V13.9249V5.46626C90.6931 3.94536 89.4646 2.69531 87.9699 2.69531ZM79.6571 19.6335C76.5654 19.6335 74.0674 17.0917 74.0674 13.9458C74.0674 10.7998 76.5654 8.25804 79.6571 8.25804C82.7488 8.25804 85.2467 10.7998 85.2467 13.9458C85.2467 17.0709 82.7488 19.6335 79.6571 19.6335Z" fill="white"/>
<path d="M114.005 2.69531C112.9 2.69531 111.937 3.38284 111.487 4.34121C107.228 1.69527 101.598 2.23696 97.912 5.98711C93.5918 10.3831 93.5918 17.4876 97.912 21.8836C101.516 25.5504 107.003 26.1546 111.241 23.6753V25.1754C111.241 28.2588 108.743 30.8006 105.713 30.8006C104.136 30.8006 102.621 30.1131 101.577 28.8839C101.536 28.8422 101.516 28.8005 101.475 28.7797C100.389 27.6755 98.6491 27.6755 97.564 28.7797C96.5402 29.8214 96.4788 31.4881 97.4206 32.5924C99.5091 35.03 102.539 36.4258 105.733 36.4258C111.794 36.4258 116.769 31.3631 116.769 25.1962C116.769 25.1962 116.769 24.0087 116.769 22.3836V13.9249V5.50793C116.769 3.9662 115.52 2.69531 114.005 2.69531ZM109.624 17.9043C107.474 20.0919 103.973 20.0919 101.823 17.9043C99.6729 15.7167 99.6729 12.154 101.823 9.96644C103.973 7.77885 107.474 7.77885 109.624 9.96644C110.688 11.0498 111.241 12.4874 111.241 13.9041V13.9666C111.241 15.3833 110.688 16.8209 109.624 17.9043Z" fill="white"/>
<path fill-rule="evenodd" clip-rule="evenodd" d="M22.7521 27.5727H3.28042C1.64243 27.5727 0.332031 26.2185 0.332031 24.5726V3.3009C0.332031 1.63417 1.64243 0.300781 3.28042 0.300781H22.7521C24.3901 0.300781 25.7005 1.655 25.7005 3.3009V24.5726C25.7005 26.2393 24.3696 27.5727 22.7521 27.5727ZM19.907 2.72812C21.4222 2.72812 22.6711 3.99901 22.6711 5.54074V15.6453C22.6711 15.7703 22.6711 15.8745 22.6507 15.9995C22.3026 21.1247 18.1257 25.1665 13.007 25.1665C7.66302 25.1665 3.34281 20.7705 3.34281 15.3328V15.312V15.2911V5.5199C3.34281 3.97817 4.59178 2.70729 6.10692 2.70729C7.62207 2.70729 8.87104 3.97817 8.87104 5.5199V15.437C8.95294 17.7079 10.7547 19.4996 13.007 19.4996C15.2592 19.4996 17.061 17.7079 17.1429 15.4578V5.54074C17.1429 3.99901 18.3919 2.72812 19.907 2.72812Z" fill="white"/>
</svg>
