<svg width="74" height="75" viewBox="0 0 74 75" fill="none" xmlns="http://www.w3.org/2000/svg">
<path d="M72.7505 37.3594C72.7505 57.5239 56.6152 73.8594 36.7249 73.8594C16.8345 73.8594 0.699219 57.5239 0.699219 37.3594C0.699219 17.1949 16.8345 0.859375 36.7249 0.859375C56.6152 0.859375 72.7505 17.1949 72.7505 37.3594Z" fill="white" stroke="#404040"/>
<path d="M62.6152 31.8131L62.7025 32.3071L63.1963 32.2181C63.2305 32.2119 63.2601 32.2045 63.2804 32.1992L63.307 32.192L63.3175 32.1892H66.3582C66.6468 32.1892 66.8801 32.4229 66.8801 32.7111C66.8801 32.9994 66.6468 33.233 66.3582 33.233H63.2925H62.7925V33.733C62.7925 39.6704 58.0935 44.4739 52.1252 44.4739C46.2824 44.4739 41.5369 39.8687 41.3309 34.1188L41.3247 33.9452L41.2122 33.8128C39.808 32.1609 38.3227 31.2011 36.7905 31.1893V31.1892H36.7866H36.7865H36.7865H36.7865H36.7864H36.7864H36.7863H36.7863H36.7863H36.7862H36.7862H36.7861H36.7861H36.786H36.786H36.786H36.7859H36.7859H36.7858H36.7858H36.7857H36.7857H36.7857H36.7856H36.7856H36.7855H36.7855H36.7854H36.7854H36.7854H36.7853H36.7853H36.7852H36.7852H36.7851H36.7851H36.7851H36.785H36.785H36.7849H36.7849H36.7848H36.7848H36.7847H36.7847H36.7847H36.7846H36.7846H36.7845H36.7845H36.7844H36.7844H36.7844H36.7843H36.7843H36.7842H36.7842H36.7841H36.7841H36.784H36.784H36.784H36.7839H36.7839H36.7838H36.7838H36.7837H36.7837H36.7836H36.7836H36.7836H36.7835H36.7835H36.7834H36.7834H36.7833H36.7833H36.7832H36.7832H36.7831H36.7831H36.7831H36.783H36.783H36.7829H36.7829H36.7828H36.7828H36.7827H36.7827H36.7826H36.7826H36.7826H36.7825H36.7825H36.7824H36.7824H36.7823H36.7823H36.7822H36.7822H36.7821H36.7821H36.7821H36.782H36.782H36.7819H36.7819H36.7818H36.7818H36.7817H36.7817H36.7816H36.7816H36.7815H36.7815H36.7815H36.7814H36.7814H36.7813H36.7813H36.7812H36.7812H36.7811H36.7811H36.781H36.781H36.7809H36.7809H36.7808H36.7808H36.7808H36.7807H36.7807H36.7806H36.7806H36.7805H36.7805H36.7804H36.7804H36.7803H36.7803H36.7802H36.7802H36.7801H36.7801H36.78H36.78H36.7799H36.7799H36.7799H36.7798H36.7798H36.7797H36.7797H36.7796H36.7796H36.7795H36.7795H36.7794H36.7794H36.7793H36.7793H36.7792H36.7792H36.7791H36.7791H36.779H36.779H36.7789H36.7789H36.7789H36.7788H36.7788H36.7787H36.7787H36.7786H36.7786H36.7785H36.7785H36.7784H36.7784H36.7783H36.7783H36.7782H36.7782H36.7781H36.7781H36.778H36.778H36.7779H36.7779H36.7778H36.7778H36.7777H36.7777H36.7776H36.7776H36.7776H36.7775H36.7775H36.7774H36.7774H36.7773H36.7773H36.7772H36.7772H36.7771H36.7771H36.777H36.777H36.7769H36.7769H36.7768H36.7768H36.7767H36.7767H36.7766H36.7766H36.7765H36.7765H36.7764H36.7764H36.7763H36.7763H36.7762H36.7762H36.7761H36.7761H36.776H36.776H36.7759H36.7759H36.7758H36.7758H36.7757H36.7757H36.7756H36.7756H36.7755H36.7755H36.7754H36.7754H36.7754H36.7753H36.7753H36.7752H36.7752H36.7751H36.7751H36.775H36.775H36.7749H36.7749H36.7748H36.7748H36.7747H36.7747H36.7746H36.7746H36.7745H36.7745H36.7744H36.7744H36.7743H36.7743H36.7742H36.7742H36.7741H36.7741H36.774H36.774H36.7739H36.7739H36.7738H36.7738H36.7737H36.7737H36.7736H36.7736H36.7735H36.7735H36.7734H36.7734H36.7733H36.7733H36.7732H36.7732H36.7731H36.7731H36.773H36.773H36.7729H36.7729H36.7728H36.7728H36.7727H36.7727H36.7726H36.7726H36.7725H36.7725H36.7724H36.7724H36.7723H36.7723H36.7722H36.7722H36.7721H36.7721H36.772H36.772H36.7719H36.7719H36.7718H36.7718H36.7717H36.7717H36.7716H36.7716H36.7715H36.7715H36.7714H36.7714H36.7713H36.7713H36.7712H36.7712H36.7711H36.7711H36.771H36.771H36.7709H36.7709H36.7708H36.7708H36.7707H36.7707H36.7706H36.7706H36.7705H36.7705H36.7704H36.7704H36.7703H36.7703H36.7702H36.7702H36.7701H36.7701H36.77H36.77H36.7699H36.7699H36.7698H36.7698H36.7697H36.7697H36.7696H36.7696H36.7695H36.7695H36.7694H36.7694H36.7693H36.7693H36.7692H36.7692H36.7691H36.7691H36.769H36.769H36.7689H36.7689H36.7688H36.7688H36.7687H36.7687H36.7686H36.7686H36.7685H36.7685H36.7684H36.7684H36.7683H36.7683H36.7682H36.7682H36.7681H36.7681H36.768H36.768H36.7679H36.7679H36.7678H36.7678H36.7677H36.7677H36.7676H36.7676H36.7675H36.7675H36.7674H36.7674H36.7673H36.7673H36.7672H36.7672H36.7671H36.7671H36.767H36.767H36.7669H36.7669H36.7668H36.7668H36.7668H36.7667H36.7667H36.7666H36.7666H36.7665H36.7665H36.7664H36.7664H36.7663H36.7663H36.7662H36.7662H36.7661H36.7661H36.766H36.766H36.7659H36.7659H36.7658H36.7658H36.7657H36.7657H36.7656H36.7656H36.7655H36.7655H36.7654H36.7654H36.7653H36.7653H36.7652H36.7652H36.7651H36.7651H36.765H36.765H36.7649H36.7649H36.7648H36.7648H36.7647H36.7647H36.7646H36.7646H36.7645H36.7645H36.7644H36.7644H36.7643H36.7643H36.7642H36.7642H36.7641H36.7641H36.764H36.764H36.764H36.7639H36.7639H36.7638H36.7638H36.7637H36.7637H36.7636H36.7636H36.7635H36.7635H36.7634H36.7634H36.7633H36.7633H36.7632H36.7632H36.7631H36.7631H36.763H36.763H36.7629H36.7629H36.7628H36.7628H36.7627H36.7627H36.7626H36.7626H36.7625H36.7625H36.7624H36.7624H36.7624H36.7623H36.7623H36.7622H36.7622H36.7621H36.7621C35.216 31.1892 33.6963 32.1508 32.2391 33.8144L32.1218 33.9482L32.1155 34.1261C31.9113 39.8798 27.3022 44.4739 21.4684 44.4739C15.8228 44.4739 11.1959 40.1751 10.7031 34.6999L10.6596 34.2171L10.1757 34.2456C10.1468 34.2473 10.1216 34.251 10.1015 34.2549H7.0883C6.79966 34.2549 6.56641 34.0213 6.56641 33.733C6.56641 33.4448 6.79966 33.2111 7.0883 33.2111H10.1015C10.1216 33.215 10.1468 33.2188 10.1757 33.2205L10.6596 33.249L10.7031 32.7662C11.1959 27.291 15.8228 22.9922 21.4684 22.9922C26.6921 22.9922 30.941 26.6705 31.9216 31.5677L32.0886 32.4015L32.736 31.8502C34.089 30.6982 35.4344 30.1454 36.7621 30.1454H36.7621H36.7622H36.7623H36.7624H36.7625H36.7625H36.7626H36.7627H36.7628H36.7628H36.7629H36.763H36.7631H36.7632H36.7632H36.7633H36.7634H36.7635H36.7635H36.7636H36.7637H36.7638H36.7639H36.7639H36.764H36.7641H36.7642H36.7642H36.7643H36.7644H36.7645H36.7646H36.7646H36.7647H36.7648H36.7649H36.7649H36.765H36.7651H36.7652H36.7653H36.7653H36.7654H36.7655H36.7656H36.7656H36.7657H36.7658H36.7659H36.766H36.766H36.7661H36.7662H36.7663H36.7663H36.7664H36.7665H36.7666H36.7667H36.7667H36.7668H36.7669H36.767H36.767H36.7671H36.7672H36.7673H36.7674H36.7674H36.7675H36.7676H36.7677H36.7677H36.7678H36.7679H36.768H36.7681H36.7681H36.7682H36.7683H36.7684H36.7684H36.7685H36.7686H36.7687H36.7688H36.7688H36.7689H36.769H36.7691H36.7691H36.7692H36.7693H36.7694H36.7695H36.7695H36.7696H36.7697H36.7698H36.7698H36.7699H36.77H36.7701H36.7702H36.7702H36.7703H36.7704H36.7705H36.7705H36.7706H36.7707H36.7708H36.7709H36.7709H36.771H36.7711H36.7712H36.7712H36.7713H36.7714H36.7715H36.7716H36.7716H36.7717H36.7718H36.7719H36.7719H36.772H36.7721H36.7722H36.7723H36.7723H36.7724H36.7725H36.7726H36.7727H36.7727H36.7728H36.7729H36.773H36.773H36.7731H36.7732H36.7733H36.7734H36.7734H36.7735H36.7736H36.7737H36.7737H36.7738H36.7739H36.774H36.7741H36.7741H36.7742H36.7743H36.7744H36.7744H36.7745H36.7746H36.7747H36.7748H36.7748H36.7749H36.775H36.7751H36.7751H36.7752H36.7753H36.7754H36.7755H36.7755H36.7756H36.7757H36.7758H36.7758H36.7759H36.776H36.7761H36.7762H36.7762H36.7763H36.7764H36.7765H36.7765H36.7766H36.7767H36.7768H36.7769H36.7769H36.777H36.7771H36.7772H36.7772H36.7773H36.7774H36.7775H36.7776H36.7776H36.7777H36.7778H36.7779H36.7779H36.778H36.7781H36.7782H36.7783H36.7783H36.7784H36.7785H36.7786H36.7786H36.7787H36.7788H36.7789H36.779H36.779H36.7791H36.7792H36.7793H36.7793H36.7794H36.7795H36.7796H36.7797H36.7797H36.7798H36.7799H36.78H36.78H36.7801H36.7802H36.7803H36.7804H36.7804H36.7805H36.7806H36.7807H36.7807H36.7808H36.7809H36.781H36.7811H36.7811H36.7812H36.7813H36.7814H36.7814H36.7815H36.7816H36.7817H36.7818H36.7818H36.7819H36.782H36.7821H36.7821H36.7822H36.7823H36.7824H36.7825H36.7825H36.7826H36.7827H36.7828H36.7828H36.7829H36.783H36.7831H36.7832H36.7832H36.7833H36.7834H36.7835H36.7835H36.7836H36.7837H36.7838H36.7839H36.7839H36.784H36.7841H36.7842H36.7842H36.7843H36.7844H36.7845H36.7846H36.7846H36.7847H36.7848H36.7849H36.785H36.785H36.7851H36.7852H36.7853H36.7853H36.7854H36.7855H36.7856H36.7857H36.7857H36.7858H36.7859H36.786H36.786H36.7861H36.7862H36.7863H36.7864H36.7864H36.7865H36.7866H36.7867H36.7867H36.7868H36.7869H36.787H36.7871H36.7871H36.7872H36.7873H36.7874H36.7874H36.7875H36.7876H36.7877H36.7878H36.7878H36.7879H36.788H36.7881H36.7881H36.7882H36.7883H36.7884H36.7885H36.7885H36.7886H36.7887H36.7888H36.7888H36.7889H36.789H36.7891H36.7892H36.7892H36.7893H36.7894H36.7895H36.7895H36.7896H36.7897H36.7898H36.7899H36.7899H36.79H36.7901H36.7902H36.7902H36.7903H36.7904H36.7905H36.7906H36.7906H36.7907H36.7908H36.7909H36.7909H36.791H36.7911H36.7912H36.7913H36.7913H36.7914H36.7915H36.7916H36.7916H36.7917H36.7918H36.7919H36.792H36.792H36.7921H36.7922H36.7923H36.7923H36.7924H36.7925H36.7926H36.7927H36.7927H36.7928H36.7929H36.793H36.793H36.7931H36.7932H36.7933H36.7934H36.7934H36.7935H36.7936H36.7937H36.7937H36.7938H36.7939H36.794H36.7941H36.7941H36.7942H36.7943H36.7944H36.7944H36.7945H36.7946H36.7947H36.7948H36.7948H36.7949H36.795H36.7951H36.7951H36.7952H36.7953H36.7954H36.7955H36.7955H36.7956H36.7957H36.7958H36.7958H36.7959H36.796H36.7961H36.7962H36.7962H36.7963H36.7964H36.7965H36.7965H36.7966H36.7967H36.7968H36.7969H36.7969H36.797H36.7971H36.7972H36.7972H36.7973H36.7974H36.7975H36.7976H36.7976H36.7977H36.7978H36.7979H36.7979H36.798H36.7981H36.7982H36.7983H36.7983H36.7984H36.7985H36.7986H36.7986H36.7987H36.7988H36.7989H36.799H36.799H36.7991H36.7992H36.7993H36.7993H36.7994H36.7995H36.7996H36.7997H36.7997H36.7998H36.7999H36.7999C38.1071 30.1561 39.4168 30.7032 40.7193 31.8267L41.3625 32.3815L41.5354 31.5498C42.5505 26.6667 46.9038 22.9922 52.1252 22.9922C57.434 22.9922 61.7281 26.7958 62.6152 31.8131ZM10.0396 34.2703C10.0393 34.2704 10.0394 34.2704 10.0397 34.2703L10.0396 34.2703ZM10.0396 33.1958L10.0397 33.1958L10.0396 33.1958Z" fill="white" stroke="#404040"/>
</svg>
