<svg width="86" height="69" viewBox="0 0 86 69" fill="none" xmlns="http://www.w3.org/2000/svg">
<path d="M0.820312 65.4407V22.0781H31.2942V67.8552H3.15536C1.88514 67.8552 0.820312 66.7806 0.820312 65.4407Z" fill="white" stroke="#404040"/>
<path d="M31.2969 22.9717L38.8944 8.60547H42.9749L50.8509 22.9758V65.515C50.8509 66.7982 49.799 67.8501 48.5159 67.8501H31.2969V22.9717Z" fill="white" stroke="#404040"/>
<path d="M38.8952 8.60547L31.4955 22.3478H1.15035L8.41782 8.60547H38.8952Z" fill="white" stroke="#404040"/>
<path d="M10.9483 0.8125H40.4328C41.716 0.8125 42.7679 1.8644 42.7679 3.14755V8.60599H8.61328V3.14755C8.61328 1.8644 9.66518 0.8125 10.9483 0.8125Z" fill="white" stroke="#404040"/>
<path d="M0.820312 54.1029V37.2422H30.297V54.1029H0.820312Z" fill="white" stroke="#404040"/>
<mask id="path-6-inside-1" fill="white">
<path d="M80.2737 58.0717C87.4858 53.0779 87.0594 42.2551 79.4768 37.8442C72.1405 33.5762 61.1573 29.6357 46.023 30.2319C30.8893 30.8281 20.2502 35.6205 13.2724 40.4523C6.06023 45.4461 6.48659 56.2689 14.0692 60.6798C21.4055 64.9477 32.3887 68.8883 47.5227 68.2918C62.6567 67.6959 73.2958 62.9035 80.2737 58.0717Z"/>
</mask>
<path d="M80.2737 58.0717C87.4858 53.0779 87.0594 42.2551 79.4768 37.8442C72.1405 33.5762 61.1573 29.6357 46.023 30.2319C30.8893 30.8281 20.2502 35.6205 13.2724 40.4523C6.06023 45.4461 6.48659 56.2689 14.0692 60.6798C21.4055 64.9477 32.3887 68.8883 47.5227 68.2918C62.6567 67.6959 73.2958 62.9035 80.2737 58.0717Z" fill="white"/>
<path d="M80.2737 58.0717L79.7044 57.2495L79.7044 57.2495L80.2737 58.0717ZM79.4768 37.8442L78.9739 38.7085L78.974 38.7086L79.4768 37.8442ZM46.023 30.2319L46.0623 31.2311L46.023 30.2319ZM13.2724 40.4523L13.8416 41.2745L13.8417 41.2744L13.2724 40.4523ZM14.0692 60.6798L14.5721 59.8154L14.5721 59.8154L14.0692 60.6798ZM47.5227 68.2918L47.4833 67.2925H47.4833L47.5227 68.2918ZM80.8429 58.8938C88.6572 53.4831 88.1953 41.759 79.9796 36.9798L78.974 38.7086C85.9236 42.7512 86.3144 52.6726 79.7044 57.2495L80.8429 58.8938ZM79.9796 36.9798C72.492 32.6238 61.3223 28.6284 45.9836 29.2327L46.0623 31.2311C60.9924 30.6429 71.7889 34.5286 78.9739 38.7085L79.9796 36.9798ZM45.9836 29.2327C30.6456 29.8369 19.8248 34.6987 12.7031 39.6302L13.8417 41.2744C20.6756 36.5423 31.133 31.8193 46.0623 31.2311L45.9836 29.2327ZM12.7031 39.6302C4.88885 45.0408 5.35073 56.765 13.5664 61.5442L14.5721 59.8154C7.62245 55.7727 7.2316 45.8513 13.8416 41.2745L12.7031 39.6302ZM13.5664 61.5442C21.054 65.9001 32.2238 69.8956 47.5621 69.291L47.4833 67.2925C32.5536 67.881 21.7571 63.9953 14.5721 59.8154L13.5664 61.5442ZM47.562 69.291C62.9004 68.6871 73.7212 63.8253 80.8429 58.8938L79.7044 57.2495C72.8705 61.9817 62.413 66.7047 47.4833 67.2925L47.562 69.291Z" fill="#404040" mask="url(#path-6-inside-1)"/>
<path d="M60.0512 43.9611C61.8789 40.1545 62.5333 35.9687 62.037 31.9015C66.0595 32.6928 69.6269 33.8133 72.7578 35.0969C72.6782 39.6847 71.6243 44.2688 69.5767 48.5336L69.5766 48.5336C68.314 51.1643 65.1581 52.2728 62.5273 51.0101C59.8972 49.7474 58.7887 46.5916 60.0512 43.9611ZM60.0512 43.9611L59.6004 43.7446L60.0512 43.9611Z" fill="white" stroke="#404040"/>
<path d="M49.8746 49.3049L49.8745 49.305C48.6119 51.9357 45.456 53.0441 42.8252 51.7814C40.1952 50.5187 39.0867 47.3629 40.3491 44.7324C42.429 40.3993 42.9898 35.5747 42.0628 30.9926C43.3539 30.8733 44.6803 30.7854 46.0453 30.7313C48.3774 30.6397 50.6069 30.6559 52.7407 30.7653C53.6261 37.0021 52.6833 43.455 49.8746 49.3049Z" fill="white" stroke="#404040"/>
<mask id="path-10-inside-2" fill="white">
<path d="M22.9105 53.013C25.7899 54.3949 29.2445 53.1816 30.6267 50.3018C33.4302 44.4619 34.4048 38.0298 33.5831 31.7969C29.3399 32.7272 25.5851 33.996 22.2863 35.4426C22.3878 38.7959 21.6975 42.1772 20.1997 45.2965C18.8178 48.1758 20.0311 51.6304 22.9105 53.013Z"/>
</mask>
<path d="M22.9105 53.013C25.7899 54.3949 29.2445 53.1816 30.6267 50.3018C33.4302 44.4619 34.4048 38.0298 33.5831 31.7969C29.3399 32.7272 25.5851 33.996 22.2863 35.4426C22.3878 38.7959 21.6975 42.1772 20.1997 45.2965C18.8178 48.1758 20.0311 51.6304 22.9105 53.013Z" fill="white"/>
<path d="M22.9105 53.013L22.4777 53.9145L22.4778 53.9145L22.9105 53.013ZM30.6267 50.3018L29.7252 49.8691L29.7251 49.8691L30.6267 50.3018ZM33.5831 31.7969L34.5745 31.6662L34.4323 30.5869L33.3689 30.8201L33.5831 31.7969ZM22.2863 35.4426L21.8847 34.5268L21.2664 34.7979L21.2868 35.4728L22.2863 35.4426ZM20.1997 45.2965L19.2982 44.8636L19.2981 44.8638L20.1997 45.2965ZM22.4778 53.9145C25.855 55.5353 29.907 54.1123 31.5282 50.7346L29.7251 49.8691C28.582 52.2508 25.7248 53.2544 23.3432 52.1114L22.4778 53.9145ZM31.5282 50.7346C34.4169 44.7172 35.4212 38.0891 34.5745 31.6662L32.5917 31.9276C33.3883 37.9706 32.4435 44.2066 29.7252 49.8691L31.5282 50.7346ZM33.3689 30.8201C29.06 31.7648 25.2425 33.0543 21.8847 34.5268L22.6879 36.3584C25.9276 34.9377 29.6197 33.6896 33.7973 32.7737L33.3689 30.8201ZM21.2868 35.4728C21.3835 38.6688 20.7256 41.8909 19.2982 44.8636L21.1012 45.7293C22.6693 42.4634 23.3921 38.9231 23.2859 35.4123L21.2868 35.4728ZM19.2981 44.8638C17.6774 48.241 19.1004 52.2929 22.4777 53.9145L23.3434 52.1115C20.9618 50.968 19.9583 48.1107 21.1012 45.7292L19.2981 44.8638Z" fill="#404040" mask="url(#path-10-inside-2)"/>
</svg>
