<svg width="75" height="75" viewBox="0 0 75 75" fill="none" xmlns="http://www.w3.org/2000/svg">
<path d="M37.4983 74.6445C57.6709 74.6445 74.0239 58.0791 74.0239 37.6445C74.0239 17.21 57.6709 0.644531 37.4983 0.644531C17.3257 0.644531 0.972656 17.21 0.972656 37.6445C0.972656 58.0791 17.3257 74.6445 37.4983 74.6445Z" fill="#FFE98B"/>
<path d="M67.1316 31.9744H64.0659C64.0005 31.9744 63.9433 31.9999 63.881 32.0112C62.9531 26.7627 58.4578 22.7773 52.8987 22.7773C47.4377 22.7773 42.8821 26.6207 41.8193 31.7332C40.451 30.5529 39.0305 29.9418 37.5754 29.9306C37.5621 29.9306 37.5488 29.9306 37.5355 29.9306C36.0589 29.9306 34.6027 30.5478 33.1853 31.7547C32.1593 26.6309 27.711 22.7773 22.2418 22.7773C16.3373 22.7773 11.4946 27.2737 10.9785 33.0065C10.9611 33.0055 10.9458 32.9963 10.9274 32.9963H7.86174C7.29663 32.9963 6.83984 33.4541 6.83984 34.0182C6.83984 34.5823 7.29663 35.0401 7.86174 35.0401H10.9274C10.9458 35.0401 10.9611 35.0309 10.9785 35.0299C11.4946 40.7627 16.3373 45.259 22.2418 45.259C28.3517 45.259 33.1751 40.4449 33.3887 34.429C34.8101 32.8062 36.204 31.9744 37.5355 31.9744C37.5437 31.9744 37.5529 31.9744 37.56 31.9744C38.8772 31.9846 40.2374 32.8134 41.6047 34.4218C41.8203 40.4418 46.7877 45.259 52.8987 45.259C59.1486 45.259 64.0659 40.2262 64.0659 34.0182H67.1316C67.6967 34.0182 68.1535 33.5604 68.1535 32.9963C68.1535 32.4322 67.6967 31.9744 67.1316 31.9744Z" fill="#FF7CB9"/>
</svg>
