<svg width="89" height="67" viewBox="0 0 89 67" fill="none" xmlns="http://www.w3.org/2000/svg">
<path d="M15.279 27.9268C9.27732 27.9268 5.04331 27.22 2.60405 26.6499C1.1539 26.3114 0.128906 25.0211 0.128906 23.5316C0.128906 21.9197 1.32857 20.563 2.92698 20.3565C8.35321 19.6578 10.9502 17.1055 10.9502 17.1055H15.279V27.9268Z" fill="#F26D33"/>
<path d="M11.852 24.3234C6.57673 24.3234 2.66701 23.7771 0.141769 23.2578C0.133645 23.3499 0.128906 23.442 0.128906 23.5354C0.128906 25.0248 1.1539 26.3152 2.60405 26.6537C5.04331 27.2237 9.27732 27.9305 15.279 27.9305V24.3234H11.852Z" fill="#E0501E"/>
<path d="M18.8828 40.9154C18.8828 55.0602 30.3493 66.5267 44.494 66.5267H63.2512C77.396 66.5267 88.8625 55.0602 88.8625 40.9154V22.5191C88.8625 21.5225 88.0548 20.7148 87.0589 20.7148C83.5317 20.7148 80.2035 22.3464 78.0425 25.1344C76.6763 26.898 74.5708 27.9297 72.3408 27.9297H18.8828V40.9154Z" fill="#FFE266"/>
<path d="M87.0653 20.7148C85.0092 20.7148 83.0229 21.2727 81.2938 22.2869V35.8649C81.2938 48.2163 71.2808 58.2292 58.9288 58.2292H36.9254C31.4673 58.2292 26.4094 56.5211 22.2539 53.6114C26.666 61.3266 34.9762 66.526 44.5004 66.526H63.2576C77.4023 66.526 88.8688 55.0595 88.8688 40.9154V22.5184C88.8688 21.5218 88.0612 20.7148 87.0653 20.7148V20.7148Z" fill="#FCD21D"/>
<path d="M76.7794 36.7064L75.1566 39.5065C71.0275 46.6307 63.4166 51.0163 55.1828 51.0163H47.7445C43.3615 51.0163 39.8086 47.4634 39.8086 43.0804C39.8086 38.6975 43.3615 35.1445 47.7445 35.1445H75.8796C76.6812 35.1445 77.1815 36.0131 76.7794 36.7064V36.7064Z" fill="#F26D33"/>
<path d="M69.2087 35.1445L66.6808 39.5058C62.6573 46.4485 55.3273 50.7888 47.3359 51.0062C47.4713 51.0129 47.6081 51.0163 47.7455 51.0163H55.1838C63.4183 51.0163 71.0292 46.6307 75.1576 39.5058L76.7811 36.7057C77.1825 36.0125 76.6822 35.1445 75.8813 35.1445H69.2087Z" fill="#E0501E"/>
<path d="M43.7746 16.8385C43.7746 25.903 36.4264 33.2512 27.3619 33.2512C18.2975 33.2512 10.9492 25.903 10.9492 16.8385C10.9492 7.77403 18.2975 0.425781 27.3619 0.425781C36.4264 0.425781 43.7746 7.77403 43.7746 16.8385Z" fill="#FFE266"/>
<path d="M36.0272 2.89844C37.5938 5.41285 38.4996 8.38221 38.4996 11.5635C38.4996 20.6279 31.1514 27.9762 22.0869 27.9762C18.9056 27.9762 15.937 27.0697 13.4219 25.5038C16.3195 30.1548 21.479 33.2514 27.3622 33.2514C36.4266 33.2514 43.7749 25.9032 43.7749 16.8387C43.7749 10.9555 40.6789 5.79536 36.0272 2.89844Z" fill="#FCD21D"/>
<path d="M18.1903 13.1332C17.9472 14.6152 19.2099 15.8778 20.6918 15.6348C21.5882 15.4872 22.3112 14.7641 22.4588 13.8678C22.7019 12.3858 21.4393 11.1225 19.9573 11.3662C19.0609 11.5138 18.3379 12.2369 18.1903 13.1332Z" fill="#57565C"/>
</svg>
