<svg width="81" height="81" viewBox="0 0 81 81" fill="none" xmlns="http://www.w3.org/2000/svg">
<path d="M67.1368 16.8056L53.3489 14.1914C50.1796 27.5549 32.5036 27.5223 29.0902 14.2415L15.4173 16.6259L2.48047 29.5621L12.7061 39.9936L17.7499 35.109L17.8334 47.1247L5.93679 78.7011H53.3371L64.6069 68.4257V34.5804L69.8297 39.6696L80.0748 29.5336L67.1368 16.8056Z" fill="white"/>
<path d="M61.3221 31.4934L64.6069 34.5804M64.6069 34.5804L69.8297 39.6696L80.0748 29.5336L67.1368 16.8056L53.3489 14.1914C50.1796 27.5549 32.5036 27.5223 29.0902 14.2415L15.4173 16.6259L2.48047 29.5621L12.7061 39.9936L21.1043 31.8606L17.7499 35.109L17.8334 47.1247L5.93679 78.7011H53.3371L64.6069 68.4257V34.5804Z" stroke="#404040" stroke-linecap="round" stroke-linejoin="round"/>
<path d="M30.2461 16.9269L41.0169 13.9531L52.3051 16.9269" stroke="#404040"/>
<path d="M36.1172 6.18461C36.1172 5.16383 36.4199 4.16597 36.987 3.31722C37.5541 2.46847 38.3602 1.80695 39.3033 1.41631C40.2463 1.02567 41.2841 0.923465 42.2853 1.12261C43.2864 1.32176 44.2061 1.81331 44.9279 2.53511C45.6497 3.25692 46.1412 4.17655 46.3404 5.17772C46.5395 6.17889 46.4373 7.21663 46.0467 8.15971C45.656 9.10279 44.9945 9.90885 44.1458 10.476C43.297 11.0431 42.2991 11.3458 41.2784 11.3458V13.8507" stroke="#404040"/>
<rect x="1.42188" y="69.168" width="40.5539" height="10.7653" rx="5.38264" fill="white" stroke="#404040"/>
<path d="M6.12891 74.0508C5.85276 74.0508 5.62891 74.2746 5.62891 74.5508C5.62891 74.8269 5.85276 75.0508 6.12891 75.0508V74.0508ZM37.3516 75.0508C37.6277 75.0508 37.8516 74.8269 37.8516 74.5508C37.8516 74.2746 37.6277 74.0508 37.3516 74.0508V75.0508ZM6.12891 75.0508H37.3516V74.0508H6.12891V75.0508Z" fill="#404040"/>
<rect x="1.42188" y="58.957" width="40.5539" height="10.7653" rx="5.38264" fill="white" stroke="#404040"/>
<path d="M6.12891 63.8398C5.85276 63.8398 5.62891 64.0637 5.62891 64.3398C5.62891 64.616 5.85276 64.8398 6.12891 64.8398V63.8398ZM37.3516 64.8398C37.6277 64.8398 37.8516 64.616 37.8516 64.3398C37.8516 64.0637 37.6277 63.8398 37.3516 63.8398V64.8398ZM6.12891 64.8398H37.3516V63.8398H6.12891V64.8398Z" fill="#404040"/>
<rect x="1.42188" y="48.9805" width="40.5539" height="10.7653" rx="5.38264" fill="white" stroke="#404040"/>
<path d="M6.12891 53.8633C5.85276 53.8633 5.62891 54.0871 5.62891 54.3633C5.62891 54.6394 5.85276 54.8633 6.12891 54.8633V53.8633ZM37.3516 54.8633C37.6277 54.8633 37.8516 54.6394 37.8516 54.3633C37.8516 54.0871 37.6277 53.8633 37.3516 53.8633V54.8633ZM6.12891 54.8633H37.3516V53.8633H6.12891V54.8633Z" fill="#404040"/>
<path d="M53.3281 68.4141V78.6992L64.5849 68.4141H53.3281Z" fill="white" stroke="#404040" stroke-linecap="round" stroke-linejoin="round"/>
</svg>
