<svg width="73" height="73" viewBox="0 0 73 73" fill="none" xmlns="http://www.w3.org/2000/svg">
<path d="M63.6218 21.2454H51.8711V0.710938H63.6218V21.2454Z" fill="white" stroke="#404040"/>
<path d="M47.4788 60.3519L47.6252 60.2055V59.9984V38.7472V38.5401L47.4788 38.3937L43.375 34.2899V33.3918C43.375 26.745 47.016 22.9126 49.8539 19.9255C50.4991 19.2464 51.1028 18.611 51.6127 17.9961H63.889C64.4169 18.6315 65.0487 19.2882 65.7254 19.9916C68.5931 22.9722 72.2683 26.7921 72.2683 33.3918V72.249H43.375V64.4557L47.4788 60.3519Z" fill="white" stroke="#404040"/>
<path d="M43.375 34.9961H63.6261V63.75H43.375V34.9961Z" fill="white" stroke="#404040"/>
<path d="M42.3757 21.2454H30.625V0.710938H42.3757V21.2454Z" fill="white" stroke="#404040"/>
<path d="M26.2327 60.3519L26.3791 60.2055V59.9984V38.7472V38.5401L26.2327 38.3937L22.1289 34.2899V33.3918C22.1289 26.745 25.7699 22.9126 28.6078 19.9255C29.253 19.2464 29.8567 18.611 30.3666 17.9961H42.6428C43.1527 18.611 43.7564 19.2464 44.4016 19.9255C47.2395 22.9126 50.8805 26.745 50.8805 33.3918V72.249H22.1289V64.4557L26.2327 60.3519Z" fill="white" stroke="#404040"/>
<path d="M22.1289 34.9961H42.38V63.75H22.1289V34.9961Z" fill="white" stroke="#404040"/>
<path d="M21.1228 21.2454H9.23047V0.710938H21.1228V21.2454Z" fill="white" stroke="#404040"/>
<path d="M4.83425 60.3519L4.98069 60.2055V59.9984V38.7472V38.5401L4.83425 38.3937L0.730469 34.2899V33.3918C0.730469 26.745 4.37145 22.9126 7.2094 19.9255C7.85457 19.2464 8.45824 18.611 8.96819 17.9961H21.386C21.896 18.611 22.4996 19.2464 23.1448 19.9255C25.9827 22.9126 29.6237 26.745 29.6237 33.3918V72.249H0.730469V64.4557L4.83425 60.3519Z" fill="white" stroke="#404040"/>
<path d="M0.730469 34.9961H21.1233V63.747H0.730469V34.9961Z" fill="white" stroke="#404040"/>
</svg>
