<svg width="75" height="77" viewBox="0 0 75 77" fill="none" xmlns="http://www.w3.org/2000/svg">
<path d="M44.7042 8.55915C44.7042 12.5376 41.479 15.7628 37.5005 15.7628C33.5221 15.7628 30.2969 12.5376 30.2969 8.55915C30.2969 4.58066 33.5221 1.35547 37.5005 1.35547C41.479 1.35547 44.7042 4.58066 44.7042 8.55915Z" fill="white" stroke="#404040"/>
<path d="M13.0643 29.1336L13.0645 29.1338C15.8531 31.8906 15.8789 36.3861 13.1221 39.1746L13.1213 39.1753C13.1028 39.1942 13.0841 39.2129 13.0652 39.2314L13.0643 39.2323C10.2416 42.025 5.69678 42.025 2.87417 39.2323L2.87403 39.2322C0.0853962 36.4753 0.0597565 31.9798 2.81645 29.1913L2.81718 29.1906C2.83513 29.1724 2.85354 29.1541 2.87454 29.1332C5.69718 26.3409 10.2417 26.341 13.0643 29.1336Z" fill="white" stroke="#404040"/>
<path d="M33.9371 14.8147L43.7598 4.99201C45.1206 7.37563 45.0132 10.3504 43.4375 12.6408L43.8338 12.9135L43.4374 12.6408C41.2991 15.7492 37.1543 16.6546 33.9371 14.8147Z" fill="white" stroke="#404040"/>
<path d="M31.3782 12.3325C29.381 9.11115 30.2263 4.85218 33.3695 2.65059C35.7989 0.948921 38.9144 0.957241 41.2868 2.42382L31.3782 12.3325Z" fill="white" stroke="#404040"/>
<path d="M29.7959 21.8984H45.2033C47.7635 21.8984 49.8391 23.974 49.8391 26.5342C49.8391 29.0945 47.7635 31.17 45.2033 31.17H29.7959C27.2357 31.17 25.1602 29.0945 25.1602 26.5342C25.1602 23.974 27.2357 21.8984 29.7959 21.8984Z" fill="white" stroke="#404040"/>
<path d="M38 31.17V21.8984H45.2037C47.7639 21.8984 49.8395 23.974 49.8395 26.5342C49.8395 29.0945 47.7639 31.17 45.2037 31.17H38Z" fill="white" stroke="#404040"/>
<path d="M66.3185 2.71318C66.3185 2.71317 66.3185 2.71317 66.3185 2.71316C68.1289 0.902908 71.0641 0.902904 72.8745 2.71315C74.6848 4.52357 74.6848 7.45876 72.8743 9.26918L61.9813 20.1622C61.981 20.1625 61.9808 20.1627 61.9806 20.163C60.1734 21.9534 57.2611 21.9531 55.4542 20.1622C53.6363 18.3602 53.623 15.4256 55.4246 13.6072C55.4249 13.6069 55.4252 13.6066 55.4254 13.6064L66.3185 2.71318Z" fill="white" stroke="#404040"/>
<path d="M72.8725 9.2654L67.7788 14.3591L61.2227 7.80313L66.3165 2.70938C68.1269 0.898957 71.0621 0.898957 72.8725 2.70938C74.6829 4.5198 74.6829 7.45497 72.8725 9.2654Z" fill="white" stroke="#404040"/>
<path d="M2.87435 29.1279C3.83463 28.1795 5.02633 27.5334 6.30574 27.2352V41.1101C4.9909 40.8118 3.7836 40.1446 2.82904 39.1813L2.82901 39.1813C0.0654312 36.3926 0.0857277 31.8916 2.87435 29.1279Z" fill="white" stroke="#404040"/>
<path d="M13.0653 29.1245L13.0653 29.1245L13.1246 29.1836C15.8803 31.9723 15.8542 36.4669 13.066 39.2234L13.0653 39.224C12.1771 40.1055 11.0765 40.7369 9.875 41.0602V27.2883C11.0767 27.6118 12.1772 28.2431 13.0653 29.1245Z" fill="white" stroke="#404040"/>
<path d="M8.67946 2.71329L19.5741 13.6079C21.3845 15.4183 21.3845 18.3535 19.5741 20.1639C17.7636 21.9743 14.8285 21.9743 13.018 20.1639L2.12344 9.2693C0.313019 7.45888 0.313019 4.52371 2.12344 2.71329C3.93386 0.902863 6.86904 0.902863 8.67946 2.71329Z" fill="white" stroke="#404040"/>
<path d="M8.67946 2.71329L13.7732 7.80703L7.21719 14.3631L2.12344 9.2693C0.313019 7.45888 0.313019 4.52371 2.12344 2.71329C3.93386 0.902863 6.86904 0.902863 8.67946 2.71329Z" fill="white" stroke="#404040"/>
<path d="M59.39 43.1208L59.0167 42.8408L59.39 43.1208L66.5931 33.5167C67.6447 32.1147 69.5859 31.7344 71.0888 32.6361L71.3461 32.2074L71.0888 32.6361L71.1121 32.65C71.1127 32.6504 71.1133 32.6507 71.1138 32.6511C72.7244 33.636 73.2322 35.74 72.2481 37.3514L64.4842 50.0628L64.4778 50.0732L64.472 50.084C63.419 52.0141 61.674 53.4738 59.5883 54.1691L26.9346 65.0535C25.2656 65.6099 24.0643 67.0754 23.8461 68.8211L24.3422 68.8832L23.8461 68.8212L22.935 76.1104H4.8109L10.9966 57.5534L15.2239 49.9443C16.5488 47.5594 18.7671 45.7985 21.3903 45.049L21.3903 45.0491L21.3999 45.0462L43.8775 38.1338C43.8775 38.1338 43.8775 38.1338 43.8776 38.1338C44.0547 38.0794 44.2376 38.0472 44.4223 38.0381L44.4225 38.038C45.6546 37.9763 46.7035 38.9239 46.7678 40.1552C46.7946 41.1467 46.1853 42.045 45.2537 42.3865L45.2465 42.3891L45.2394 42.392L28.3257 49.1836L28.5778 50.1432L53.1529 46.8788L53.1529 46.879L53.1661 46.8769C55.6494 46.4795 57.8811 45.1327 59.39 43.1208Z" fill="white" stroke="#404040"/>
</svg>
