<svg width="75" height="77" viewBox="0 0 75 77" fill="none" xmlns="http://www.w3.org/2000/svg">
<path d="M37.5005 16.2589C41.7552 16.2589 45.2042 12.8099 45.2042 8.55524C45.2042 4.30062 41.7552 0.851562 37.5005 0.851562C33.2459 0.851562 29.7969 4.30062 29.7969 8.55524C29.7969 12.8099 33.2459 16.2589 37.5005 16.2589Z" fill="#B3EBFF"/>
<path d="M13.416 28.7743C16.401 31.7253 16.4286 36.5373 13.4776 39.5222C13.4572 39.5429 13.4367 39.5634 13.416 39.5838C10.3984 42.5693 5.53994 42.5693 2.52251 39.5838C-0.462508 36.6328 -0.489952 31.8208 2.46088 28.8359C2.48126 28.8152 2.5018 28.7948 2.52251 28.7743C5.53994 25.7888 10.3984 25.7888 13.416 28.7743Z" fill="#F77C6A"/>
<path d="M43.8494 4.19531L33.1406 14.9041C36.6445 17.3145 41.4389 16.4281 43.8494 12.9242C45.6578 10.2955 45.6578 6.82387 43.8494 4.19531Z" fill="#8CE2FF"/>
<path d="M42.0455 2.37218L43.8029 4.12958C41.3641 0.647679 36.5645 -0.1978 33.0826 2.24106C29.6007 4.67991 28.7554 9.47946 31.1941 12.9612C31.2301 13.0126 31.2667 13.0634 31.3039 13.1138L42.0455 2.37218Z" fill="#8CE2FF"/>
<path d="M45.2033 21.3984H29.7959C26.9595 21.3984 24.6602 23.6978 24.6602 26.5342C24.6602 29.3706 26.9595 31.67 29.7959 31.67H45.2033C48.0397 31.67 50.3391 29.3706 50.3391 26.5342C50.3391 23.6978 48.0397 21.3984 45.2033 21.3984Z" fill="#EDE3E3"/>
<path d="M45.2037 21.3984H37.5V31.67H45.2037C48.0401 31.67 50.3395 29.3706 50.3395 26.5342C50.3395 23.6978 48.0401 21.3984 45.2037 21.3984Z" fill="#27AE60"/>
<path d="M73.228 2.35571C71.2224 0.350181 67.9706 0.350181 65.9649 2.35571L55.0703 13.2505C53.0735 15.265 53.0879 18.5167 55.1023 20.5134C57.1042 22.4978 60.3313 22.4978 62.3333 20.5134L73.2279 9.61883C75.2336 7.61315 75.2336 4.36139 73.228 2.35571Z" fill="#EDE3E3"/>
<path d="M65.9629 2.35583L60.5156 7.80313L67.7788 15.0663L73.2261 9.61895C75.2317 7.61327 75.2317 4.36151 73.2261 2.35583C71.2204 0.350141 67.9686 0.350141 65.9629 2.35583Z" fill="#FD614B"/>
<path d="M6.8059 26.651H9.20592C6.7669 26.2463 4.28166 27.0351 2.52266 28.7725C-0.46236 31.7305 -0.484187 36.5484 2.47387 39.5332C3.64178 40.7119 5.16309 41.4763 6.80574 41.7103V26.651H6.8059Z" fill="#FD614B"/>
<path d="M13.4175 28.7657C12.3143 27.6708 10.9047 26.9367 9.375 26.6602V41.6806C10.9045 41.4042 12.3141 40.6699 13.4175 39.5751C16.4025 36.6241 16.43 31.812 13.479 28.827C13.4586 28.8066 13.438 28.7861 13.4175 28.7657Z" fill="#FD614B"/>
<path d="M19.9276 13.2504L9.03301 2.35583C7.02733 0.350141 3.77557 0.350141 1.76989 2.35583C-0.235796 4.36151 -0.235796 7.61327 1.76989 9.61895L12.6645 20.5136C14.6702 22.5192 17.9219 22.5192 19.9276 20.5136C21.9333 18.5079 21.9333 15.2561 19.9276 13.2504Z" fill="#EDE3E3"/>
<path d="M1.76989 9.61895L7.21719 15.0663L14.4803 7.80313L9.03301 2.35583C7.02733 0.350141 3.77557 0.350141 1.76989 2.35583C-0.235796 4.36151 -0.235796 7.61327 1.76989 9.61895Z" fill="#FECD0D"/>
<path d="M71.3461 32.2035C69.6235 31.1699 67.3984 31.6058 66.1931 33.2128L58.99 42.8169C57.5589 44.725 55.4423 46.0024 53.0871 46.3792L28.512 49.6437L45.4258 42.8521C46.5611 42.4359 47.3029 41.3401 47.2674 40.1314C47.192 38.6218 45.9071 37.4592 44.3975 37.5348C44.1712 37.546 43.9473 37.5855 43.7308 37.6519L21.2529 44.5644C18.5022 45.3503 16.1762 47.1968 14.7868 49.6976L10.5369 57.3473L4.11719 76.6065H23.3764L24.3422 68.8793C24.5366 67.3246 25.6064 66.0194 27.0928 65.524L59.7464 54.6395C61.9521 53.9043 63.7974 52.3606 64.9109 50.3195L72.6748 37.6081C73.8032 35.7605 73.2203 33.3478 71.3727 32.2194C71.3637 32.2141 71.3549 32.2088 71.3461 32.2035Z" fill="#EFCB9A"/>
</svg>
