<svg width="61" height="80" viewBox="0 0 61 80" fill="none" xmlns="http://www.w3.org/2000/svg">
<path d="M28.4406 24.0283L40.0174 20.3698L51.3081 24.0268L60.4688 34.5156V79.5H26.0196L19.2812 72.7616V34.5156L28.4406 24.0283Z" fill="white" stroke="#404040"/>
<path d="M22.9688 72.9688V73.8657L18.5384 79.5H16.4375C7.66817 79.5 0.53125 72.3631 0.53125 63.5938V57.0625H7.0625C15.8318 57.0625 22.9688 64.1994 22.9688 72.9688Z" fill="white" stroke="#404040"/>
<path d="M25.8125 79.5H19.2812V72.9688C19.2812 66.7814 24.3147 61.75 30.5 61.75H37.0312V68.2812C37.0312 74.4686 31.9978 79.5 25.8125 79.5Z" fill="white" stroke="#404040"/>
<path d="M51.0938 56.0625H28.6562V38.1562H51.0938V56.0625Z" fill="white" stroke="#404040"/>
<path d="M34.3785 4.1875H23.9688V0.5H32.5347L34.3785 4.1875Z" fill="white" stroke="#404040"/>
<path d="M33.3438 0.5H46.4062V15.9062H33.3438V0.5Z" fill="white" stroke="#404040"/>
<path d="M51.0938 23.0938H28.6562V14.5625H51.0938V23.0938Z" fill="white" stroke="#404040"/>
</svg>
