<svg width="81" height="80" viewBox="0 0 81 80" fill="none" xmlns="http://www.w3.org/2000/svg">
<path d="M70.9688 34.328V80H35.8125L28.7812 72.9688V34.328L38.1562 23.5938L49.875 19.8905L50.0158 19.8438L61.5938 23.5938L70.9688 34.328Z" fill="#FFB6FA"/>
<path d="M70.9688 34.328V80H49.875V19.8905L50.0158 19.8438L61.5938 23.5938L70.9688 34.328Z" fill="#FF7CB9"/>
<path d="M33.4688 74.0387V72.9688C33.4688 63.9233 26.108 56.5625 17.0625 56.5625H10.0312V63.5938C10.0312 72.6392 17.392 80 26.4375 80H28.7812L33.4688 74.0387Z" fill="#91DC5A"/>
<path d="M35.8125 80H28.7812V72.9688C28.7812 66.5052 34.0386 61.25 40.5 61.25H47.5312V68.2812C47.5312 74.7448 42.2739 80 35.8125 80Z" fill="#C2FB3B"/>
<path d="M38.1562 37.6562V56.5625H61.5938V37.6562H38.1562Z" fill="#FAECD8"/>
<path d="M61.5938 37.6562H49.875V56.5625H61.5938V37.6562Z" fill="#F4D7AF"/>
<path d="M33.4688 0V4.6875H45.1875L42.8438 0H33.4688Z" fill="#FAECD8"/>
<path d="M56.9062 0H42.8438V16.4062H56.9062V0Z" fill="#FAECD8"/>
<path d="M38.1562 14.0625V23.5938H61.5938V14.0625H38.1562Z" fill="#9F7852"/>
<path d="M56.9062 0H49.875V16.4062H56.9062V0Z" fill="#F4D7AF"/>
<path d="M61.5938 14.0625H49.875V23.5938H61.5938V14.0625Z" fill="#715539"/>
</svg>
