<svg width="86" height="71" viewBox="0 0 86 71" fill="none" xmlns="http://www.w3.org/2000/svg">
<path d="M0.441406 23.2539V67.2715C0.441406 68.8802 1.72079 70.1963 3.2845 70.1963H31.0046V23.2539H0.441406Z" fill="#F2F2F2"/>
<path d="M43.5174 8.04297H38.8263L31.0078 23.2516V70.1937H48.7771C50.3408 70.1937 51.6202 68.8776 51.6202 67.269V23.2517L43.5174 8.04297Z" fill="#CDD6E0"/>
<path d="M8.25985 8.04297L0.441406 23.2517H31.0046L38.9652 8.04297H8.25985Z" fill="#E2E2E2"/>
<path d="M40.6691 0H11.1009C9.53719 0 8.25781 1.31614 8.25781 2.92479V8.04309H43.5122V2.92479C43.5122 1.31614 42.2328 0 40.6691 0Z" fill="#ACB3BA"/>
<path d="M31.0046 37.582H0.441406V56.0078H31.0046V37.582Z" fill="#54C0EB"/>
<path d="M80.623 59.5872C87.8556 54.4354 87.428 43.2702 79.8238 38.7197C72.4667 34.3168 61.4524 30.2515 46.2751 30.8666C31.0985 31.4817 20.4292 36.4257 13.4315 41.4104C6.19893 46.5622 6.62651 57.7274 14.2307 62.2779C21.5878 66.6808 32.6021 70.7461 47.7791 70.1306C62.956 69.5159 73.6254 64.5719 80.623 59.5872Z" fill="#FFEDAE"/>
<path d="M13.4315 41.4104C6.19893 46.5622 6.62651 57.7274 14.2307 62.2779C17.3645 64.1534 21.1629 65.9679 25.6624 67.3853C32.4393 59.554 31.6776 50.4292 40.1307 45.6025C42.2221 44.4082 44.7091 43.8778 48.1943 43.2667C72.4248 39.021 84.7094 54.5939 84.7094 54.5939C87.1522 49.0963 85.4583 42.0919 79.8238 38.7197C72.4667 34.3168 61.4524 30.2515 46.2751 30.8666C31.0985 31.4817 20.4292 36.4257 13.4315 41.4104Z" fill="#FFE380"/>
<path d="M59.8894 44.8089C58.5036 47.7794 59.7203 51.3433 62.6075 52.7693C65.4954 54.1952 68.9598 52.9435 70.3459 49.9727C72.482 45.3958 73.5561 40.4678 73.5896 35.5445C70.1692 34.0762 66.2273 32.8037 61.7404 31.9495C62.3912 36.268 61.7829 40.752 59.8894 44.8089Z" fill="#E3AA66"/>
<path d="M61.7407 31.9492C62.2835 35.5521 61.9495 39.2703 60.7243 42.7595C65.0806 43.2055 68.8475 44.2925 72.0225 45.6373C73.0461 42.3489 73.5667 38.9457 73.5896 35.5445C70.1695 34.0758 66.2276 32.8033 61.7407 31.9492Z" fill="#E3AA66"/>
<path d="M40.1321 45.6043C38.7463 48.5747 39.9631 52.1386 42.8503 53.5646C45.7382 54.9905 49.2026 53.7388 50.5887 50.768C53.5102 44.5083 54.4493 37.5895 53.4468 30.9262C51.1675 30.7922 48.7802 30.7669 46.2768 30.868C44.7002 30.9322 43.1741 31.0426 41.6937 31.1951C42.7616 35.9788 42.2527 41.0597 40.1321 45.6043Z" fill="#E3AA66"/>
<path d="M53.446 30.9324C51.167 30.7988 48.7794 30.7731 46.276 30.8742C44.6993 30.9385 43.1732 31.0488 41.6929 31.2013C42.7608 35.9851 42.2522 41.0663 40.1313 45.6106C42.2227 44.4163 44.7097 43.8859 48.1946 43.2751C49.9289 42.971 51.6004 42.7718 53.212 42.658C53.954 38.7843 54.0296 34.8144 53.446 30.9324Z" fill="#E3AA66"/>
<path d="M23.0956 54.3715C25.9831 55.7971 29.4475 54.5454 30.8337 51.5745C33.6452 45.5497 34.6225 38.9141 33.7985 32.4839C29.5432 33.4437 25.7777 34.7526 22.4697 36.245C22.5714 39.7045 21.8791 43.1927 20.3771 46.4108C18.9913 49.3813 20.2081 52.9452 23.0956 54.3715Z" fill="#E3AA66"/>
</svg>
