<svg width="81" height="81" viewBox="0 0 81 81" fill="none" xmlns="http://www.w3.org/2000/svg">
<path d="M67.1368 16.8056L53.3489 14.1914C50.1796 27.5549 32.5036 27.5223 29.0902 14.2415L15.4173 16.6259L2.48047 29.5621L12.7061 39.9936L17.7499 35.109L17.8334 47.1247L5.93679 78.7011H53.3371L64.6069 68.4257V34.5804L69.8297 39.6696L80.0748 29.5336L67.1368 16.8056Z" fill="#FFE55A"/>
<path d="M30.2461 16.9308L41.0169 13.957L52.3051 16.9308" stroke="#AFAFAF" stroke-width="1.5"/>
<path d="M36.1172 6.18461C36.1172 5.16383 36.4199 4.16597 36.987 3.31722C37.5541 2.46847 38.3602 1.80695 39.3033 1.41631C40.2463 1.02567 41.2841 0.923465 42.2853 1.12261C43.2864 1.32176 44.2061 1.81331 44.9279 2.53511C45.6497 3.25692 46.1412 4.17655 46.3404 5.17772C46.5395 6.17889 46.4373 7.21663 46.0467 8.15971C45.656 9.10279 44.9945 9.90885 44.1458 10.476C43.297 11.0431 42.2991 11.3458 41.2784 11.3458V13.8507" stroke="#AFAFAF" stroke-width="1.5"/>
<rect x="0.921875" y="68.668" width="41.5539" height="11.7653" rx="5.88264" fill="#95FFB3"/>
<path d="M6.12891 73.5508C5.57662 73.5508 5.12891 73.9985 5.12891 74.5508C5.12891 75.1031 5.57662 75.5508 6.12891 75.5508V73.5508ZM37.3516 75.5508C37.9039 75.5508 38.3516 75.1031 38.3516 74.5508C38.3516 73.9985 37.9039 73.5508 37.3516 73.5508V75.5508ZM6.12891 75.5508H37.3516V73.5508H6.12891V75.5508Z" fill="#FFFDFD"/>
<rect x="0.921875" y="58.4609" width="41.5539" height="11.7653" rx="5.88264" fill="#95FFB3"/>
<path d="M6.12891 63.3438C5.57662 63.3438 5.12891 63.7915 5.12891 64.3438C5.12891 64.896 5.57662 65.3438 6.12891 65.3438V63.3438ZM37.3516 65.3438C37.9039 65.3438 38.3516 64.896 38.3516 64.3438C38.3516 63.7915 37.9039 63.3438 37.3516 63.3438V65.3438ZM6.12891 65.3438H37.3516V63.3438H6.12891V65.3438Z" fill="#FFFDFD"/>
<rect x="0.921875" y="48.4844" width="41.5539" height="11.7653" rx="5.88264" fill="#95FFB3"/>
<path d="M6.12891 53.3672C5.57662 53.3672 5.12891 53.8149 5.12891 54.3672C5.12891 54.9195 5.57662 55.3672 6.12891 55.3672V53.3672ZM37.3516 55.3672C37.9039 55.3672 38.3516 54.9195 38.3516 54.3672C38.3516 53.8149 37.9039 53.3672 37.3516 53.3672V55.3672ZM6.12891 55.3672H37.3516V53.3672H6.12891V55.3672Z" fill="#FFFDFD"/>
<path d="M53.3281 68.4141V78.6992L64.5849 68.4141H53.3281Z" fill="#DCB140"/>
</svg>
