<svg width="73" height="73" viewBox="0 0 73 73" fill="none" xmlns="http://www.w3.org/2000/svg">
<path d="M51.3711 0.210938V21.7454H64.1218V0.210938H51.3711Z" fill="#5A5A5A"/>
<path d="M57.75 0.210938H64.1253V21.7454H57.75V0.210938Z" fill="#444444"/>
<path d="M72.7683 33.3918V72.749H42.875V64.2486L47.1252 59.9984V38.7472L42.875 34.497V33.3918C42.875 24.8488 48.7827 20.7264 51.3755 17.4961H64.1261C66.7189 20.7264 72.7683 24.8488 72.7683 33.3918Z" fill="#FED2A4"/>
<path d="M64.1261 51.4963V64.247H42.875V51.4963L53.5006 47.2461L64.1261 51.4963Z" fill="#C6E2E7"/>
<path d="M64.1253 51.4994V64.25H57.75V48.9492L64.1253 51.4994Z" fill="#A8D3D8"/>
<path d="M42.875 34.4961H64.1261V51.497H42.875V34.4961Z" fill="#DEECF1"/>
<path d="M57.75 34.4961H64.1253V51.497H57.75V34.4961Z" fill="#C6E2E7"/>
<path d="M30.125 0.210938V21.7454H42.8757V0.210938H30.125Z" fill="#5A5A5A"/>
<path d="M36.5 0.210938H42.8753V21.7454H36.5V0.210938Z" fill="#444444"/>
<path d="M51.3805 33.3918V72.749H21.6289V64.2486L25.8791 59.9984V38.7472L21.6289 34.497V33.3918C21.6289 24.8488 27.5366 20.7264 30.1294 17.4961H42.88C45.4728 20.7264 51.3805 24.8488 51.3805 33.3918Z" fill="#A9DA40"/>
<path d="M42.88 51.4963V64.247H21.6289V51.4963L32.2545 47.2461L42.88 51.4963Z" fill="#C6E2E7"/>
<path d="M42.8753 51.4994V64.25H36.5V48.9492L42.8753 51.4994Z" fill="#A8D3D8"/>
<path d="M21.6289 34.4961H42.88V51.497H21.6289V34.4961Z" fill="#DEECF1"/>
<path d="M36.5 34.4961H42.8753V51.497H36.5V34.4961Z" fill="#C6E2E7"/>
<path d="M8.73047 0.210938V21.7454H21.6228V0.210938H8.73047Z" fill="#5A5A5A"/>
<path d="M15.2461 0.210938H21.6214V21.7454H15.2461V0.210938Z" fill="#444444"/>
<path d="M30.1237 33.3918V72.749H0.230469V64.2486L4.48069 59.9984V38.7472L0.230469 34.497V33.3918C0.230469 24.8488 6.13817 20.7264 8.73092 17.4961H21.6233C24.216 20.7264 30.1237 24.8488 30.1237 33.3918Z" fill="#FE788C"/>
<path d="M21.6233 51.4963V64.247H0.230469V51.4963L10.9977 47.2461L21.6233 51.4963Z" fill="#C6E2E7"/>
<path d="M21.6214 51.4994V64.25H15.2461V48.9492L21.6214 51.4994Z" fill="#A8D3D8"/>
<path d="M0.230469 34.4961H21.6233V51.497H0.230469V34.4961Z" fill="#DEECF1"/>
<path d="M15.2461 34.4961H21.6214V51.497H15.2461V34.4961Z" fill="#C6E2E7"/>
</svg>
