<svg width="69" height="72" viewBox="0 0 69 72" fill="none" xmlns="http://www.w3.org/2000/svg">
<path d="M7.65641 0.726562H37.3602C39.1971 0.726562 40.9587 1.45626 42.2576 2.75512C43.5564 4.05399 44.2861 5.81563 44.2861 7.65251V54.1835H0.730469V7.65251C0.730469 5.81563 1.46016 4.05399 2.75903 2.75512C4.0579 1.45626 5.81954 0.726562 7.65641 0.726562Z" fill="white" stroke="#404040"/>
<path d="M7.65641 47.7578H37.3602C41.1853 47.7578 44.2861 50.8587 44.2861 54.6838C44.2861 58.5088 41.1853 61.6097 37.3602 61.6097H7.65641C3.83132 61.6097 0.730469 58.5088 0.730469 54.6838C0.730469 50.8587 3.83132 47.7578 7.65641 47.7578Z" fill="white" stroke="#404040"/>
<path d="M55.1836 12.8398H59.1342V19.2658H55.1836V12.8398Z" fill="white" stroke="#404040"/>
<path d="M60.3752 19.2891V28.6894C60.3734 29.213 60.1647 29.7147 59.7944 30.0849C59.4242 30.4552 58.9225 30.6639 58.399 30.6656H55.9254C55.4018 30.6639 54.9002 30.4552 54.5299 30.0849C54.1597 29.7147 53.951 29.2131 53.9492 28.6895V19.2891H60.3752Z" fill="white" stroke="#404040"/>
<path d="M38.0978 62.0008V64.5866C38.0961 65.1102 37.8873 65.6119 37.5171 65.9821C37.1469 66.3523 36.6452 66.5611 36.1216 66.5628H33.6481C33.1245 66.5611 32.6228 66.3523 32.2526 65.9821C31.8824 65.6119 31.6736 65.1103 31.6719 64.5867V52.7109H38.0978V62.0008Z" fill="white" stroke="#404040"/>
<path d="M16.8164 52.7109H25.7177V56.6616H16.8164V52.7109Z" fill="white" stroke="#404040"/>
<path d="M10.8647 54.6863C10.8647 55.7772 9.98031 56.6616 8.88938 56.6616C7.79844 56.6616 6.91406 55.7772 6.91406 54.6863C6.91406 53.5953 7.79844 52.7109 8.88938 52.7109C9.98031 52.7109 10.8647 53.5953 10.8647 54.6863Z" fill="white" stroke="#404040"/>
<path d="M23.7417 25.482H26.4944L19.4791 35.5039L20.5263 25.0318C20.5403 24.8912 20.4943 24.7513 20.3995 24.6465C20.3047 24.5418 20.17 24.482 20.0288 24.482H16.1184L24.3136 14.238L23.2442 24.9323C23.2302 25.0729 23.2762 25.2128 23.371 25.3175C23.4658 25.4223 23.6005 25.482 23.7417 25.482Z" fill="white" stroke="#404040" stroke-linecap="round" stroke-linejoin="round"/>
<path d="M35.1172 67.06V69.5353C35.1172 69.8636 35.2476 70.1784 35.4797 70.4105C35.7118 70.6426 36.0266 70.773 36.3548 70.773H62.108C63.7486 70.771 65.3215 70.1184 66.4816 68.9583C67.6417 67.7982 68.2943 66.2253 68.2963 64.5847V52.2081C68.2963 51.2234 67.9051 50.279 67.2088 49.5827C66.5124 48.8864 65.568 48.4952 64.5833 48.4952H63.108C61.4674 48.4932 59.8945 47.8406 58.7344 46.6805C57.5743 45.5204 56.9217 43.9475 56.9197 42.3069V31.168" stroke="#404040"/>
</svg>
