<svg width="71" height="74" viewBox="0 0 71 74" fill="none" xmlns="http://www.w3.org/2000/svg">
<path d="M37.3602 0.226562H7.65641C5.68693 0.226563 3.79811 1.00894 2.40548 2.40157C1.01284 3.79421 0.230469 5.68302 0.230469 7.65251V54.6835H44.7861V7.65251C44.7861 5.68302 44.0038 3.79421 42.6111 2.40157C41.2185 1.00894 39.3297 0.226563 37.3602 0.226562V0.226562Z" fill="#C4FF8A"/>
<path d="M37.3602 47.2578H7.65641C3.55518 47.2578 0.230469 50.5825 0.230469 54.6838C0.230469 58.785 3.55518 62.1097 7.65641 62.1097H37.3602C41.4614 62.1097 44.7861 58.785 44.7861 54.6838C44.7861 50.5825 41.4614 47.2578 37.3602 47.2578Z" fill="#9682FC"/>
<path d="M59.6381 11.3672H54.6875V18.7931H59.6381V11.3672Z" fill="#D8D7DA"/>
<path d="M60.8752 18.7891V28.6903C60.8732 29.3462 60.6118 29.9747 60.148 30.4385C59.6842 30.9023 59.0557 31.1637 58.3998 31.1656H55.9245C55.2686 31.1637 54.6402 30.9023 54.1764 30.4385C53.7126 29.9747 53.4512 29.3462 53.4492 28.6903V18.7891H60.8752Z" fill="white"/>
<path d="M38.5978 62.0008V64.5875C38.5959 65.2434 38.3344 65.8719 37.8707 66.3357C37.4069 66.7994 36.7784 67.0609 36.1225 67.0628H33.6472C32.9913 67.0609 32.3628 66.7994 31.899 66.3357C31.4353 65.8719 31.1738 65.2434 31.1719 64.5875V52.2109H38.5978V62.0008Z" fill="white"/>
<path d="M26.2177 52.2109H16.3164V57.1616H26.2177V52.2109Z" fill="white"/>
<path d="M8.89328 57.1616C10.2604 57.1616 11.3686 56.0533 11.3686 54.6863C11.3686 53.3192 10.2604 52.2109 8.89328 52.2109C7.5262 52.2109 6.41797 53.3192 6.41797 54.6863C6.41797 56.0533 7.5262 57.1616 8.89328 57.1616Z" fill="white"/>
<path d="M27.4586 24.982L18.795 37.3586L20.0327 24.982H15.082L24.9833 12.6055L23.7456 24.982H27.4586Z" fill="#9682FC"/>
<path d="M62.1106 73.2483H37.3575C36.3728 73.2483 35.4284 72.8571 34.732 72.1608C34.0357 71.4645 33.6445 70.5201 33.6445 69.5353V67.06H36.1198V69.5353C36.1198 69.8636 36.2502 70.1784 36.4823 70.4105C36.7145 70.6426 37.0293 70.773 37.3575 70.773H62.1106C63.7513 70.771 65.3242 70.1184 66.4843 68.9583C67.6444 67.7982 68.297 66.2253 68.2989 64.5847V52.2081C68.2989 51.2234 67.9077 50.279 67.2114 49.5827C66.5151 48.8864 65.5707 48.4952 64.586 48.4952H62.1106C60.47 48.4932 58.8971 47.8406 57.737 46.6805C56.5769 45.5204 55.9243 43.9475 55.9224 42.3069V31.168H58.3977V42.3069C58.3977 43.2916 58.7889 44.236 59.4852 44.9323C60.1815 45.6287 61.1259 46.0199 62.1106 46.0199H64.586C66.2266 46.0218 67.7995 46.6744 68.9596 47.8345C70.1197 48.9946 70.7723 50.5675 70.7742 52.2081V64.5847C70.7716 66.8816 69.858 69.0837 68.2338 70.7079C66.6097 72.3321 64.4076 73.2457 62.1106 73.2483V73.2483Z" fill="#9682FC"/>
<path d="M36.1198 67.0586H33.6445V69.5339H36.1198V67.0586Z" fill="#898890"/>
<path d="M58.3972 31.168H55.9219V33.6433H58.3972V31.168Z" fill="#898890"/>
</svg>
