<svg width="89" height="67" viewBox="0 0 89 67" fill="none" xmlns="http://www.w3.org/2000/svg">
<path d="M14.779 27.4251C9.08181 27.3873 5.05336 26.7089 2.71783 26.1631L2.71771 26.163C1.49359 25.8773 0.628906 24.7885 0.628906 23.5316C0.628906 22.1726 1.64034 21.0269 2.99083 20.8524L14.779 27.4251ZM14.779 27.4251V17.6055H11.1427C11.0537 17.6825 10.9272 17.7875 10.7627 17.9128C10.4162 18.177 9.90097 18.5319 9.21319 18.9077C7.83691 19.6598 5.77194 20.4942 2.99104 20.8523L14.779 27.4251Z" fill="white" stroke="#404040"/>
<path d="M44.498 66.0267C30.6294 66.0267 19.3867 54.784 19.3867 40.9154V28.4297H72.3447C74.7293 28.4297 76.9807 27.3265 78.4416 25.4407C80.508 22.7749 83.6903 21.2148 87.0628 21.2148C87.7825 21.2148 88.3664 21.7985 88.3664 22.5191V40.9154C88.3664 54.784 77.1238 66.0267 63.2552 66.0267H44.498Z" fill="white" stroke="#404040"/>
<path d="M76.3468 36.4557L74.724 39.2558C70.6843 46.2256 63.2382 50.5163 55.1828 50.5163H47.7445C43.6377 50.5163 40.3086 47.1872 40.3086 43.0804C40.3086 38.9736 43.6377 35.6445 47.7445 35.6445H75.8796C76.2959 35.6445 76.5556 36.0956 76.3469 36.4555L76.7794 36.7064L76.3468 36.4557Z" fill="white" stroke="#404040"/>
<path d="M43.2746 16.8385C43.2746 25.6268 36.1503 32.7512 27.3619 32.7512C18.5736 32.7512 11.4492 25.6268 11.4492 16.8385C11.4492 8.05017 18.5736 0.925781 27.3619 0.925781C36.1503 0.925781 43.2746 8.05017 43.2746 16.8385Z" fill="white" stroke="#404040"/>
<path d="M21.9654 13.7868C21.8526 14.4714 21.2955 15.0285 20.6109 15.1413L20.0385 11.8596C21.1826 11.6715 22.1532 12.6421 21.9654 13.7868ZM20.6109 15.1414C19.4665 15.329 18.4961 14.3587 18.6837 13.2143C18.7965 12.5295 19.3537 11.9724 20.0384 11.8596L20.6109 15.1414Z" fill="white" stroke="#404040"/>
</svg>
