<svg width="33" height="33" viewBox="0 0 33 33" fill="none" xmlns="http://www.w3.org/2000/svg">
<g clip-path="url(#clip0)">
<path d="M23.1758 0.0273438C22.1125 0.0273438 21.2475 0.892418 21.2475 1.95566C21.2475 2.39671 21.3967 2.80339 21.6467 3.12859L16.9323 9.12073C16.6711 8.98836 16.3761 8.91329 16.0638 8.91329C15.6006 8.91329 15.1749 9.0776 14.8421 9.35084L12.1348 7.20499C12.2696 6.94184 12.3462 6.64408 12.3462 6.32867C12.3462 5.26536 11.4812 4.40035 10.4179 4.40035C9.35468 4.40035 8.4896 5.26543 8.4896 6.32867C8.4896 6.686 8.58767 7.02079 8.75776 7.30807L5.81327 9.96427C5.51272 9.77061 5.15538 9.65775 4.77207 9.65775C3.70876 9.65775 2.84375 10.5228 2.84375 11.5861C2.84375 12.6493 3.70882 13.5144 4.77207 13.5144C5.83531 13.5144 6.70038 12.6493 6.70038 11.5861C6.70038 11.251 6.61432 10.9357 6.46341 10.6609L9.43058 7.98425C9.71951 8.15739 10.0572 8.25711 10.4179 8.25711C10.8205 8.25711 11.1946 8.13288 11.5042 7.92105L14.2766 10.1185C14.1859 10.342 14.1355 10.586 14.1355 10.8417C14.1355 11.905 15.0005 12.77 16.0638 12.77C17.127 12.77 17.9921 11.9049 17.9921 10.8417C17.9921 10.4359 17.8658 10.0592 17.6509 9.74825L22.3952 3.71833C22.634 3.82453 22.898 3.88404 23.1759 3.88404C24.2392 3.88404 25.1042 3.01896 25.1042 1.95572C25.1041 0.892482 24.2391 0.0273438 23.1758 0.0273438ZM4.77207 12.5617C4.23409 12.5617 3.79654 12.124 3.79654 11.5861C3.79654 11.0482 4.23416 10.6106 4.77207 10.6106C5.30998 10.6106 5.74759 11.0482 5.74759 11.5861C5.74759 12.124 5.30998 12.5617 4.77207 12.5617ZM10.4179 7.30426C9.88001 7.30426 9.44239 6.86664 9.44239 6.32873C9.44239 5.79082 9.87994 5.35321 10.4179 5.35321C10.9558 5.35321 11.3934 5.79082 11.3934 6.32873C11.3934 6.86664 10.9558 7.30426 10.4179 7.30426ZM16.0638 11.8171C15.5259 11.8171 15.0883 11.3795 15.0883 10.8416C15.0883 10.3037 15.5259 9.86608 16.0638 9.86608C16.6017 9.86608 17.0394 10.3037 17.0394 10.8416C17.0394 11.3795 16.6017 11.8171 16.0638 11.8171ZM23.1758 2.93119C22.6379 2.93119 22.2003 2.49357 22.2003 1.95566C22.2003 1.41775 22.6378 0.980133 23.1758 0.980133C23.7138 0.980133 24.1513 1.41775 24.1513 1.95566C24.1513 2.49351 23.7137 2.93119 23.1758 2.93119Z" fill="#404040"/>
<path d="M29.6705 16.8011C28.9293 16.3708 27.8454 16.4068 27.092 17.4557L25.2946 19.8152V14.6561C25.2946 14.393 25.0813 14.1797 24.8182 14.1797C24.5552 14.1797 24.3419 14.393 24.3419 14.6561V21.2267C24.3419 21.6813 24.9216 21.8772 25.1972 21.5154L27.8542 18.0275C27.8572 18.0236 27.8601 18.0197 27.8629 18.0157C28.2957 17.4099 28.8333 17.4167 29.1921 17.6251C29.5493 17.8325 29.824 18.2938 29.5831 18.8164C29.5818 18.8193 29.5805 18.8222 29.5792 18.8251L26.8261 25.1254C26.3569 26.0978 25.7922 26.5562 25.0211 27.32C24.3371 27.9974 24.3053 29.1631 24.3266 30.1357C24.3373 30.6223 24.3495 31.174 24.1133 31.4154C23.9959 31.5355 23.7894 31.5963 23.4997 31.5963H21.2068C20.9438 31.5963 20.7305 31.8096 20.7305 32.0727C20.7305 32.3358 20.9438 32.5491 21.2068 32.5491H23.4997C24.0554 32.5491 24.491 32.3918 24.7943 32.0817C25.3108 31.5536 25.2932 30.7558 25.279 30.1147C25.2656 29.505 25.2583 28.4259 25.6914 27.997C26.4631 27.2327 27.1779 26.6348 27.6916 25.5237C27.693 25.5205 27.6945 25.5173 27.6959 25.5141L30.4504 19.2107C30.9153 18.196 30.4104 17.2309 29.6705 16.8011Z" fill="#404040"/>
<path d="M23.4246 5.60156C23.4242 5.60156 23.4239 5.60156 23.4235 5.60156C22.3901 5.60156 21.5488 6.44193 21.548 7.47538C21.5474 8.38778 21.5474 8.13245 21.5474 14.395C21.2708 14.2336 20.9491 14.141 20.6063 14.141C19.9549 14.141 19.3801 14.4752 19.0442 14.9812C18.7146 14.6928 18.2833 14.518 17.8121 14.518C17.1859 14.518 16.6306 14.8267 16.2902 15.3001C15.9559 14.9903 15.5086 14.8007 15.018 14.8007C13.985 14.8007 13.1445 15.6411 13.1445 16.6742C13.1445 20.6361 13.145 24.1216 13.1445 24.7568C13.142 27.4596 15.1488 27.3968 15.1477 29.1183L15.1469 30.7063C15.1469 31.7487 15.7138 32.435 16.6634 32.5422C16.6812 32.5443 16.699 32.5452 16.7169 32.5452H18.9834C19.2465 32.5452 19.4598 32.3319 19.4598 32.0688C19.4598 31.8058 19.2465 31.5925 18.9834 31.5925H16.7458C16.2992 31.5332 16.0996 31.2589 16.0996 30.7065L16.1004 29.1188C16.1019 26.8345 14.0952 27.0454 14.0973 24.7577C14.1027 17.4621 14.0973 19.2573 14.0973 16.6743C14.0973 16.1667 14.5102 15.7536 15.018 15.7536C15.5257 15.7536 15.9387 16.1666 15.9387 16.6743V19.4192C15.9387 19.6823 16.152 19.8956 16.4151 19.8956C16.6781 19.8956 16.8914 19.6823 16.8914 19.4192V16.6743V16.3917C16.8914 15.8841 17.3044 15.471 17.8121 15.471C18.3199 15.471 18.7328 15.8839 18.7328 16.3917V19.4191C18.7328 19.6822 18.9461 19.8955 19.2092 19.8955C19.4723 19.8955 19.6856 19.6822 19.6856 19.4191C19.6856 19.0981 19.6856 16.4805 19.6856 16.0149C19.6856 15.5072 20.0985 15.0941 20.6063 15.0941C21.114 15.0941 21.5474 15.5071 21.5474 16.0149C21.5474 18.3499 21.5474 17.2977 21.5474 19.4191C21.5474 19.6822 21.7607 19.8955 22.0237 19.8955C22.2868 19.8955 22.5001 19.6822 22.5001 19.4191C22.5001 7.88817 22.4999 8.64101 22.5007 7.4764C22.5011 6.96809 22.9149 6.55467 23.4232 6.55467C23.4234 6.55467 23.4236 6.55467 23.4238 6.55467C23.9302 6.55511 24.3419 6.96917 24.3415 7.47811V12.4291C24.3415 12.6922 24.5548 12.9055 24.8178 12.9055C25.0809 12.9055 25.2942 12.6922 25.2942 12.4291V7.4785C25.2952 6.44428 24.4565 5.60245 23.4246 5.60156Z" fill="#404040"/>
</g>
<defs>
<clipPath id="clip0">
<rect width="32.5198" height="32.5198" fill="white" transform="translate(0.476562 0.0273438)"/>
</clipPath>
</defs>
</svg>
