<svg width="31" height="31" viewBox="0 0 31 31" fill="none" xmlns="http://www.w3.org/2000/svg">
<g clip-path="url(#clip0)">
<path d="M25.3756 8.8992C24.9523 7.9678 24.4457 7.09337 23.8696 6.3001C23.7164 6.08913 23.4212 6.04252 23.2104 6.19551C22.9994 6.34874 22.9526 6.64378 23.1057 6.85475C23.6446 7.59682 24.1192 8.41613 24.5162 9.28985C24.5953 9.46384 24.7668 9.56658 24.9462 9.56658C25.0114 9.56658 25.0779 9.55291 25.1412 9.52419C25.3785 9.41633 25.4835 9.1365 25.3756 8.8992Z" fill="#404040"/>
<path d="M26.3651 11.7464C26.2333 11.2196 26.076 10.6971 25.8974 10.1932C25.8103 9.94768 25.5407 9.81918 25.2949 9.90606C25.0492 9.99311 24.9206 10.2629 25.0077 10.5086C25.1763 10.9842 25.3249 11.4777 25.4495 11.9755C25.5031 12.19 25.6954 12.3331 25.9069 12.3331C25.9448 12.3331 25.9834 12.3285 26.0218 12.3188C26.2746 12.2556 26.4284 11.9993 26.3651 11.7464Z" fill="#404040"/>
<path d="M25.6496 5.83948C23.0097 3.1996 19.5349 1.69863 15.8208 1.58113V0.534441C15.8208 0.273765 15.6095 0.0625 15.3488 0.0625C15.0882 0.0625 14.8769 0.273765 14.8769 0.534441V1.58113C11.1626 1.69863 7.68781 3.1996 5.04799 5.83948C2.29649 8.59091 0.78125 12.2491 0.78125 16.1403C0.78125 16.401 0.992574 16.6122 1.25319 16.6122H1.37063C1.57939 16.6122 1.76342 16.4751 1.82295 16.275C2.11674 15.288 3.04177 14.5986 4.07235 14.5986C5.10293 14.5986 6.0279 15.288 6.32182 16.275C6.38139 16.4751 6.56537 16.6122 6.77413 16.6122H7.00889C7.01323 16.6122 7.01739 16.6113 7.02173 16.6112C7.02863 16.6115 7.03552 16.6122 7.04248 16.6122H7.11169C7.37231 16.6122 7.58363 16.401 7.58363 16.1403C7.58363 16.0916 7.5759 16.0448 7.56217 16.0006C7.93386 15.1545 8.77374 14.5986 9.71055 14.5986C10.6485 14.5986 11.4811 15.1464 11.8567 16.0001C11.8566 16.0468 11.8564 16.0934 11.8564 16.1403C11.8564 16.401 12.0677 16.6122 12.3283 16.6122H12.3535C12.3657 16.6122 12.3778 16.6114 12.3898 16.6104C12.3974 16.6108 12.4047 16.6122 12.4123 16.6122H12.6471C12.8559 16.6122 13.0399 16.4751 13.0995 16.275C13.3476 15.4418 14.0454 14.8207 14.8769 14.6474V27.2406V27.4672C14.8769 27.5159 14.8843 27.5629 14.898 27.6071C15.0808 29.236 16.4658 30.5066 18.1428 30.5066C19.9436 30.5066 21.4086 29.0415 21.4086 27.2407C21.4086 26.98 21.1974 26.7688 20.9367 26.7688C20.676 26.7688 20.4648 26.98 20.4648 27.2407C20.4648 28.5211 19.4231 29.5627 18.1428 29.5627C16.8625 29.5627 15.8208 28.521 15.8208 27.2407V14.6473C16.6523 14.8206 17.3502 15.4417 17.5982 16.2749C17.6578 16.4751 17.8418 16.6122 18.0506 16.6122H18.2853C18.2968 16.6122 18.3078 16.6102 18.319 16.6094C18.3355 16.6112 18.3523 16.6122 18.3693 16.6122C18.63 16.6122 18.8412 16.4009 18.8412 16.1402C18.8412 16.0934 18.8411 16.0467 18.8409 16.0001C19.2165 15.1464 20.049 14.5986 20.9871 14.5986C21.9663 14.5986 22.8395 15.2061 23.183 16.1175L23.1832 16.1403C23.1832 16.401 23.3945 16.6122 23.6551 16.6122C23.6622 16.6122 23.669 16.6115 23.6759 16.6112C23.6802 16.6113 23.6844 16.6122 23.6887 16.6122H23.9235C24.1323 16.6122 24.3162 16.4751 24.3759 16.275C24.6697 15.2881 25.5947 14.5986 26.6253 14.5986C27.6558 14.5986 28.5808 15.288 28.8747 16.275C28.9343 16.4751 29.1183 16.6122 29.3271 16.6122H29.4444C29.7052 16.6122 29.9164 16.401 29.9164 16.1403C29.9163 12.2491 28.4011 8.59091 25.6496 5.83948ZM6.60515 14.8498C5.99103 14.1129 5.06683 13.6547 4.07229 13.6547C3.21802 13.6547 2.41535 13.9926 1.81682 14.555C2.44984 9.11506 6.30071 4.64384 11.4099 3.09798C10.5589 3.80301 9.77596 4.74231 9.09061 5.89722C7.64946 8.32584 6.78181 11.4694 6.60515 14.8498ZM11.8776 14.4657C11.2916 13.9524 10.5295 13.6547 9.71055 13.6547C8.90926 13.6547 8.15862 13.9451 7.57656 14.4407C7.99867 8.6009 10.5647 3.88958 13.8469 2.77041C13.4364 3.5079 13.076 4.58361 12.7688 5.99491C12.2682 8.29533 11.9581 11.2618 11.8776 14.4657ZM15.3488 13.6547C14.3526 13.6547 13.427 14.1144 12.813 14.8533C12.8768 11.569 13.1838 8.5264 13.6911 6.19553C14.3245 3.28546 15.0523 2.51657 15.3488 2.51657C15.6452 2.51657 16.3731 3.28546 17.0064 6.19553C17.5137 8.52646 17.8207 11.5689 17.8845 14.8533C17.2705 14.1144 16.345 13.6547 15.3488 13.6547ZM20.987 13.6547C20.1679 13.6547 19.4058 13.9524 18.82 14.4657C18.7396 11.2618 18.4294 8.29527 17.9287 5.99485C17.6215 4.58355 17.2612 3.50784 16.8506 2.77035C20.1327 3.88958 22.6988 8.60084 23.1209 14.4406C22.5389 13.9451 21.7884 13.6547 20.987 13.6547ZM26.6253 13.6547C25.6307 13.6547 24.7065 14.113 24.0924 14.8498C23.9158 11.4694 23.0481 8.32578 21.607 5.8971C20.9216 4.74213 20.1387 3.80289 19.2877 3.0978C24.3969 4.64366 28.2478 9.11494 28.8808 14.5548C28.2822 13.9926 27.4795 13.6547 26.6253 13.6547Z" fill="#404040"/>
</g>
<defs>
<clipPath id="clip0">
<rect width="30.444" height="30.444" fill="white" transform="translate(0.128906 0.0625)"/>
</clipPath>
</defs>
</svg>
