<svg width="34" height="34" viewBox="0 0 34 34" fill="none" xmlns="http://www.w3.org/2000/svg">
<g clip-path="url(#clip0)">
<path d="M14.1328 1.8813L14.7208 2.79818C16.8715 1.4509 19.603 1.4509 21.7537 2.79818L22.3417 1.8813C19.8399 0.27915 16.6345 0.27915 14.1328 1.8813Z" fill="#404040"/>
<path d="M11.7061 8.30078H10.6172C10.6156 9.3081 10.8152 10.3056 11.2041 11.2349L12.2092 10.8146C11.8757 10.0186 11.7047 9.16389 11.7061 8.30078Z" fill="#404040"/>
<path d="M20.7493 14.332C19.9542 14.6654 19.1004 14.8362 18.2383 14.8346V15.9235C19.2451 15.9254 20.2421 15.7261 21.1708 15.3371L20.7493 14.332Z" fill="#404040"/>
<path d="M24.7721 8.30078C24.7736 9.16328 24.6027 10.0174 24.2695 10.8129L25.2746 11.2333C25.6635 10.3046 25.8628 9.30756 25.861 8.30078H24.7721Z" fill="#404040"/>
<path d="M18.2415 2.85547C15.2345 2.85547 12.7969 5.2931 12.7969 8.30009C12.7969 11.3071 15.2345 13.7447 18.2415 13.7447C21.2471 13.7414 23.6828 11.3057 23.6861 8.30009C23.6861 5.29316 21.2485 2.85547 18.2415 2.85547ZM18.2415 12.6558C15.8359 12.6558 13.8858 10.7057 13.8858 8.30009C13.8858 5.89452 15.8359 3.94439 18.2415 3.94439C20.6471 3.94439 22.5972 5.89452 22.5972 8.30009C22.5945 10.7046 20.646 12.6531 18.2415 12.6558Z" fill="#404040"/>
<path d="M19.4382 8.12825L18.7848 7.91046V6.51337C19.0881 6.6192 19.3012 6.893 19.3293 7.213H20.4182C20.3695 6.29416 19.6916 5.53123 18.7848 5.3749V5.03516H17.6959V5.3749C16.7891 5.53123 16.1112 6.29416 16.0625 7.213C16.0839 7.80075 16.4785 8.30914 17.0425 8.47561L17.6959 8.6934V10.0894C17.393 9.9837 17.1799 9.71045 17.1514 9.39085H16.0625C16.1112 10.3097 16.7891 11.0726 17.6959 11.229V11.5687H18.7848V11.229C19.6916 11.0726 20.3695 10.3097 20.4182 9.39085C20.3968 8.80311 20.0022 8.29478 19.4382 8.12825ZM17.6959 7.54785L17.3855 7.44331C17.2478 7.39703 17.1514 7.3023 17.1514 7.213C17.1795 6.893 17.3926 6.6192 17.6959 6.51337V7.54785ZM18.7848 10.0905V9.05601L19.0951 9.16055C19.2329 9.20683 19.3293 9.30156 19.3293 9.39085C19.3012 9.71086 19.0881 9.98466 18.7848 10.0905Z" fill="#404040"/>
<path d="M32.7817 23.161L30.9887 21.3681L32.7817 19.5752C32.9942 19.3626 32.9942 19.0179 32.7817 18.8053L25.7036 11.7273C25.491 11.5148 25.1464 11.5148 24.9338 11.7273L17.9685 18.6926L10.4587 11.1828C10.2461 10.9703 9.90144 10.9703 9.68883 11.1828L2.61081 18.2609C2.39827 18.4735 2.39827 18.8181 2.61081 19.0307L6.58158 23.0015H0.273438V24.0904H7.35145C7.42522 24.0906 7.49825 24.0756 7.56597 24.0463L11.2743 22.457H19.3296V24.6349H13.3405C13.0399 24.6349 12.7961 24.8786 12.7961 25.1793C12.7961 25.3918 12.9196 25.5848 13.1124 25.6737L20.1904 28.9405C20.3685 29.0215 20.5764 29.0007 20.7349 28.886L30.1644 22.0814L31.598 23.5149L20.7616 32.8018H17.7937L7.53983 29.0243C7.47953 29.0021 7.41576 28.9907 7.35145 28.9906H0.273438V30.0795H7.25399L17.5079 33.857C17.5682 33.8793 17.6319 33.8907 17.6962 33.8907H20.963C21.0929 33.8909 21.2185 33.8443 21.3169 33.7595L32.7506 23.9592C32.979 23.7635 33.0055 23.4198 32.8098 23.1915C32.8008 23.181 32.7915 23.1708 32.7817 23.161ZM11.1627 21.3681C11.0889 21.3679 11.0159 21.3829 10.9482 21.4122L10.8159 21.4667C11.3535 20.0716 12.9202 19.3765 14.3153 19.9141C14.9943 20.1757 15.5394 20.6998 15.8276 21.3681H11.1627ZM16.9912 21.3681C16.5145 19.7502 15.0271 18.6412 13.3405 18.6458C11.4138 18.6574 9.79472 20.0964 9.55707 22.0084L7.85671 22.7369L3.76562 18.6458L10.0738 12.3377L19.1042 21.3681H16.9912ZM20.3581 27.8184L15.8195 25.7238H19.8741C20.1748 25.7238 20.4185 25.48 20.4185 25.1793V22.6824L23.375 25.6389L20.3581 27.8184ZM20.4697 21.1939C20.6759 20.0317 21.6882 19.1861 22.8686 19.1903C24.2188 19.1878 25.3152 20.2803 25.3178 21.6304C25.3199 22.8118 24.477 23.8256 23.3151 24.0392L20.4697 21.1939ZM24.1987 24.9218C24.4172 24.8332 24.626 24.7227 24.8225 24.5925L24.269 24.992L24.1987 24.9218ZM29.8655 20.9516L25.0677 24.4171C26.5962 23.199 26.8479 20.9724 25.6297 19.4438C24.4116 17.9153 22.185 17.6637 20.6565 18.8818C20.1834 19.2588 19.8149 19.7508 19.586 20.3108L18.7383 19.4625L25.3186 12.8821L31.6268 19.1903L29.8655 20.9516Z" fill="#404040"/>
</g>
<defs>
<clipPath id="clip0">
<rect width="33.2117" height="33.2117" fill="white" transform="translate(0 0.679688)"/>
</clipPath>
</defs>
</svg>
