<svg width="32" height="32" viewBox="0 0 32 32" fill="none" xmlns="http://www.w3.org/2000/svg">
<g clip-path="url(#clip0)">
<path d="M23.0704 19.4635L21.9969 20.0581C21.7765 20.1804 21.6969 20.4579 21.819 20.6781C21.9021 20.8284 22.0577 20.9133 22.2183 20.9133C22.2929 20.9133 22.3689 20.895 22.439 20.8562L23.5125 20.2614C23.7327 20.1393 23.8125 19.8616 23.6904 19.6414C23.5683 19.421 23.2906 19.3414 23.0704 19.4635Z" fill="#404040"/>
<path d="M23.0705 18.1705L21.997 18.7651C21.7766 18.8872 21.6967 19.1649 21.8191 19.3854C21.9022 19.5355 22.0578 19.6203 22.2184 19.6203C22.293 19.6203 22.369 19.602 22.4388 19.5633L23.5126 18.9685C23.7328 18.8464 23.8126 18.5689 23.6905 18.3485C23.5684 18.128 23.2907 18.0484 23.0705 18.1705Z" fill="#404040"/>
<path d="M30.6379 23.6361C30.6816 23.5648 30.706 23.481 30.706 23.3971V19.3847C30.706 19.1327 30.5018 18.9286 30.2497 18.9286C29.9979 18.9286 29.7936 19.1327 29.7936 19.3847V22.6945L25.4078 20.7382V12.263L29.7936 9.8331V17.3986C29.7936 17.6506 29.9979 17.8546 30.2497 17.8546C30.5018 17.8546 30.706 17.6506 30.706 17.3986V9.05893C30.706 8.89621 30.6134 8.73895 30.4709 8.66008L16.1327 0.716455C15.9966 0.64139 15.8267 0.64139 15.6906 0.716455L1.35239 8.66008C1.20748 8.74014 1.11532 8.89906 1.11722 9.06439V23.3971C1.11722 23.5601 1.20962 23.7171 1.35239 23.7962L7.66976 27.2963C7.8902 27.4181 8.16766 27.3385 8.28976 27.1183C8.41186 26.8979 8.33205 26.6202 8.11184 26.4983L2.59406 23.4413L6.84927 21.5435L15.4554 26.3114V30.5666L9.92077 27.5005C9.70056 27.3784 9.42287 27.458 9.30077 27.6785C9.17867 27.8987 9.25849 28.1764 9.47869 28.2985L15.6906 31.7398C15.826 31.8149 15.9973 31.8149 16.1327 31.7398L22.6474 28.1303C22.8679 28.0082 22.9475 27.7307 22.8254 27.5103C22.7035 27.2901 22.4258 27.2103 22.2054 27.3324L16.3676 30.5666V26.3114L24.9738 21.5435L29.229 23.4413L24.0131 26.3311C23.7927 26.4532 23.7131 26.7307 23.8352 26.9511C23.9183 27.1015 24.0739 27.1863 24.2345 27.1863C24.3091 27.1863 24.3851 27.1677 24.4552 27.129L30.4709 23.7962C30.5383 23.7589 30.5975 23.7017 30.6379 23.6361ZM15.9115 7.50726L24.0105 11.9943L15.9115 16.4811L7.81276 11.9943L15.9115 7.50726ZM24.9517 11.4729L16.3676 6.71717V1.88947L29.3085 9.05893L24.9517 11.4729ZM15.4554 6.71717L6.8716 11.4729L2.51448 9.05893L15.4554 1.88947V6.71717ZM2.0294 9.8331L6.41527 12.263V20.7382L2.0294 22.6945V9.8331ZM7.32769 12.7685L10.6384 14.6026L15.4554 17.2715V25.2685L7.32769 20.7656V12.7685ZM16.3676 17.2715L24.4956 12.7685V20.7656L16.3676 25.2685V17.2715Z" fill="#404040"/>
</g>
<defs>
<clipPath id="clip0">
<rect width="31.1359" height="31.1359" fill="white" transform="translate(0.328125 0.71875)"/>
</clipPath>
</defs>
</svg>
